<svg xmlns="http://www.w3.org/2000/svg" xmlns:xlink="http://www.w3.org/1999/xlink" width="40" zoomAndPan="magnify" viewBox="0 0 30 30.000001" height="40" preserveAspectRatio="xMidYMid meet" version="1.0"><defs><clipPath id="1044662f76"><path d="M 3.386719 2.902344 L 22 2.902344 L 22 26.128906 L 3.386719 26.128906 Z M 3.386719 2.902344 " clip-rule="nonzero"/></clipPath><clipPath id="49b9e18260"><path d="M 8 2.902344 L 22 2.902344 L 22 20 L 8 20 Z M 8 2.902344 " clip-rule="nonzero"/></clipPath><clipPath id="5946ce7632"><path d="M 15 10 L 26.613281 10 L 26.613281 24 L 15 24 Z M 15 10 " clip-rule="nonzero"/></clipPath><clipPath id="f1e182bd1e"><path d="M 15 10 L 26.613281 10 L 26.613281 21 L 15 21 Z M 15 10 " clip-rule="nonzero"/></clipPath></defs><g clip-path="url(#1044662f76)"><path fill="#d9d5ca" d="M 21.195312 23.796875 L 21.195312 24.574219 C 21.195312 25.429688 20.5 26.121094 19.644531 26.121094 L 4.933594 26.121094 C 4.082031 26.121094 3.386719 25.429688 3.386719 24.574219 L 3.386719 4.445312 C 3.386719 3.589844 4.082031 2.894531 4.933594 2.894531 L 19.644531 2.894531 C 20.5 2.894531 21.195312 3.589844 21.195312 4.445312 Z M 21.195312 23.796875 " fill-opacity="1" fill-rule="nonzero"/></g><g clip-path="url(#49b9e18260)"><path fill="#e8e4d8" d="M 19.644531 2.894531 L 8.070312 2.894531 C 8.558594 10.757812 13.929688 17.296875 21.195312 19.507812 L 21.195312 4.445312 C 21.195312 3.589844 20.5 2.894531 19.644531 2.894531 Z M 19.644531 2.894531 " fill-opacity="1" fill-rule="nonzero"/></g><g clip-path="url(#5946ce7632)"><path fill="#595a5d" d="M 21.195312 23.796875 L 17.324219 23.796875 C 16.46875 23.796875 15.773438 23.105469 15.773438 22.25 L 15.773438 12.1875 C 15.773438 11.332031 16.46875 10.636719 17.324219 10.636719 L 25.066406 10.636719 C 25.917969 10.636719 26.613281 11.332031 26.613281 12.1875 L 26.613281 22.25 C 26.613281 23.105469 25.917969 23.796875 25.066406 23.796875 L 21.195312 23.796875 " fill-opacity="1" fill-rule="nonzero"/></g><g clip-path="url(#f1e182bd1e)"><path fill="#7a7b7d" d="M 25.066406 10.636719 L 17.324219 10.636719 C 16.46875 10.636719 15.773438 11.332031 15.773438 12.1875 L 15.773438 16.820312 C 18.824219 19.019531 22.566406 20.316406 26.613281 20.316406 L 26.613281 12.1875 C 26.613281 11.332031 25.917969 10.636719 25.066406 10.636719 Z M 25.066406 10.636719 " fill-opacity="1" fill-rule="nonzero"/></g><path fill="#c64635" d="M 12.289062 14.507812 C 12.289062 16.433594 10.730469 17.992188 8.804688 17.992188 C 6.882812 17.992188 5.324219 16.433594 5.324219 14.507812 C 5.324219 12.585938 6.882812 11.023438 8.804688 11.023438 L 8.804688 14.507812 Z M 12.289062 14.507812 " fill-opacity="1" fill-rule="nonzero"/><path fill="#5490f5" d="M 13.453125 13.347656 C 13.453125 11.421875 11.890625 9.863281 9.96875 9.863281 L 9.96875 13.347656 Z M 13.453125 13.347656 " fill-opacity="1" fill-rule="nonzero"/><path fill="#88857c" d="M 11.902344 5.992188 C 11.902344 5.351562 11.382812 4.832031 10.742188 4.832031 C 10.101562 4.832031 9.582031 5.351562 9.582031 5.992188 L 10.355469 5.992188 C 10.355469 5.777344 10.527344 5.605469 10.742188 5.605469 C 10.914062 5.605469 11.0625 5.71875 11.113281 5.878906 L 9.664062 7.6875 C 9.574219 7.800781 9.554688 7.960938 9.617188 8.097656 C 9.683594 8.230469 9.820312 8.316406 9.96875 8.316406 L 11.902344 8.316406 L 11.902344 7.539062 L 10.773438 7.539062 L 11.820312 6.234375 C 11.875 6.164062 11.902344 6.082031 11.902344 5.992188 Z M 11.902344 5.992188 " fill-opacity="1" fill-rule="nonzero"/><path fill="#88857c" d="M 13.453125 5.992188 L 13.066406 5.992188 L 13.066406 5.605469 L 14.613281 5.605469 L 14.613281 4.832031 L 12.675781 4.832031 C 12.464844 4.832031 12.289062 5.003906 12.289062 5.21875 L 12.289062 6.378906 C 12.289062 6.59375 12.464844 6.765625 12.675781 6.765625 L 13.453125 6.765625 C 13.664062 6.765625 13.839844 6.941406 13.839844 7.152344 C 13.839844 7.367188 13.664062 7.539062 13.453125 7.539062 C 13.238281 7.539062 13.066406 7.367188 13.066406 7.152344 L 12.289062 7.152344 C 12.289062 7.792969 12.8125 8.316406 13.453125 8.316406 C 14.09375 8.316406 14.613281 7.792969 14.613281 7.152344 C 14.613281 6.511719 14.09375 5.992188 13.453125 5.992188 Z M 13.453125 5.992188 " fill-opacity="1" fill-rule="nonzero"/><path fill="#88857c" d="M 15.773438 5.226562 L 16.546875 5.226562 L 16.546875 6 L 15.773438 6 Z M 15.773438 5.226562 " fill-opacity="1" fill-rule="nonzero"/><path fill="#88857c" d="M 18.097656 6.773438 L 18.871094 6.773438 L 18.871094 7.546875 L 18.097656 7.546875 Z M 18.097656 6.773438 " fill-opacity="1" fill-rule="nonzero"/><path fill="#88857c" d="M 16.203125 7.761719 L 17.75 4.664062 L 18.441406 5.011719 L 16.894531 8.109375 Z M 16.203125 7.761719 " fill-opacity="1" fill-rule="nonzero"/><path fill="#88857c" d="M 5.710938 21.476562 L 6.484375 21.476562 L 6.484375 24.1875 L 5.710938 24.1875 Z M 5.710938 21.476562 " fill-opacity="1" fill-rule="nonzero"/><path fill="#88857c" d="M 7.257812 20.316406 L 8.03125 20.316406 L 8.03125 24.1875 L 7.257812 24.1875 Z M 7.257812 20.316406 " fill-opacity="1" fill-rule="nonzero"/><path fill="#88857c" d="M 8.804688 19.539062 L 9.582031 19.539062 L 9.582031 24.1875 L 8.804688 24.1875 Z M 8.804688 19.539062 " fill-opacity="1" fill-rule="nonzero"/><path fill="#88857c" d="M 10.355469 21.089844 L 11.128906 21.089844 L 11.128906 24.1875 L 10.355469 24.1875 Z M 10.355469 21.089844 " fill-opacity="1" fill-rule="nonzero"/><path fill="#88857c" d="M 11.902344 20.316406 L 12.675781 20.316406 L 12.675781 24.1875 L 11.902344 24.1875 Z M 11.902344 20.316406 " fill-opacity="1" fill-rule="nonzero"/><path fill="#e8e4d8" d="M 18.097656 19.152344 L 18.871094 19.152344 L 18.871094 18.378906 L 19.644531 18.378906 L 19.644531 17.605469 L 18.871094 17.605469 L 18.871094 16.832031 L 18.097656 16.832031 L 18.097656 17.605469 L 17.324219 17.605469 L 17.324219 18.378906 L 18.097656 18.378906 Z M 18.097656 19.152344 " fill-opacity="1" fill-rule="nonzero"/><path fill="#e8e4d8" d="M 17.324219 21.089844 L 19.644531 21.089844 L 19.644531 21.863281 L 17.324219 21.863281 Z M 17.324219 21.089844 " fill-opacity="1" fill-rule="nonzero"/><path fill="#e8e4d8" d="M 23.015625 19.039062 L 23.710938 18.347656 L 24.402344 19.039062 L 24.949219 18.492188 L 24.257812 17.800781 L 24.949219 17.105469 L 24.402344 16.558594 L 23.710938 17.25 L 23.015625 16.558594 L 22.46875 17.105469 L 23.164062 17.800781 L 22.46875 18.492188 Z M 23.015625 19.039062 " fill-opacity="1" fill-rule="nonzero"/><path fill="#e8e4d8" d="M 22.742188 20.703125 L 25.066406 20.703125 L 25.066406 21.476562 L 22.742188 21.476562 Z M 22.742188 20.703125 " fill-opacity="1" fill-rule="nonzero"/><path fill="#e8e4d8" d="M 24.675781 20.316406 L 24.675781 19.539062 L 21.582031 19.539062 L 21.582031 17.21875 L 20.804688 17.21875 L 20.804688 19.539062 L 17.710938 19.539062 L 17.710938 20.316406 L 20.804688 20.316406 L 20.804688 22.636719 L 21.582031 22.636719 L 21.582031 20.316406 Z M 24.675781 20.316406 " fill-opacity="1" fill-rule="nonzero"/><path fill="#e8e4d8" d="M 22.742188 21.863281 L 25.066406 21.863281 L 25.066406 22.636719 L 22.742188 22.636719 Z M 22.742188 21.863281 " fill-opacity="1" fill-rule="nonzero"/><path fill="#5bc6e5" d="M 17.324219 12.1875 L 25.066406 12.1875 L 25.066406 15.28125 L 17.324219 15.28125 Z M 17.324219 12.1875 " fill-opacity="1" fill-rule="nonzero"/><path fill="#98fbfe" d="M 18.097656 12.960938 C 18.097656 13.816406 18.789062 14.507812 19.644531 14.507812 L 25.066406 14.507812 L 25.066406 12.1875 L 18.097656 12.1875 Z M 18.097656 12.960938 " fill-opacity="1" fill-rule="nonzero"/><path fill="#eafeff" d="M 24.289062 13.539062 L 21.195312 13.539062 C 20.871094 13.539062 20.613281 13.28125 20.613281 12.960938 C 20.613281 12.640625 20.871094 12.378906 21.195312 12.378906 L 24.289062 12.378906 C 24.609375 12.378906 24.871094 12.640625 24.871094 12.960938 C 24.871094 13.28125 24.609375 13.539062 24.289062 13.539062 Z M 24.289062 13.539062 " fill-opacity="1" fill-rule="nonzero"/></svg>