<svg xmlns="http://www.w3.org/2000/svg" xmlns:xlink="http://www.w3.org/1999/xlink" width="40" zoomAndPan="magnify" viewBox="0 0 30 30.000001" height="40" preserveAspectRatio="xMidYMid meet" version="1.0"><defs><clipPath id="64bf7700da"><path d="M 7 11 L 26.613281 11 L 26.613281 26.128906 L 7 26.128906 Z M 7 11 " clip-rule="nonzero"/></clipPath><clipPath id="bbad0a7883"><path d="M 3.386719 8 L 25 8 L 25 24 L 3.386719 24 Z M 3.386719 8 " clip-rule="nonzero"/></clipPath><clipPath id="6805dcdc83"><path d="M 3.386719 8 L 19 8 L 19 12 L 3.386719 12 Z M 3.386719 8 " clip-rule="nonzero"/></clipPath><clipPath id="1050aade48"><path d="M 15 2.902344 L 26.613281 2.902344 L 26.613281 15 L 15 15 Z M 15 2.902344 " clip-rule="nonzero"/></clipPath><clipPath id="3648fd3949"><path d="M 16 2.902344 L 26.613281 2.902344 L 26.613281 13 L 16 13 Z M 16 2.902344 " clip-rule="nonzero"/></clipPath></defs><g clip-path="url(#64bf7700da)"><path fill="#7a7b7d" d="M 7.308594 24.96875 C 7.480469 25.636719 8.085938 26.128906 8.804688 26.128906 L 25.066406 26.128906 C 25.917969 26.128906 26.613281 25.4375 26.613281 24.582031 L 26.613281 12.195312 C 26.613281 11.746094 26.421875 11.339844 26.117188 11.058594 Z M 7.308594 24.96875 " fill-opacity="1" fill-rule="nonzero"/></g><path fill="#959597" d="M 5.757812 23.804688 C 5.929688 24.472656 6.535156 24.96875 7.257812 24.96875 L 23.902344 24.96875 C 24.757812 24.96875 25.453125 24.273438 25.453125 23.417969 L 25.453125 12.195312 Z M 5.757812 23.804688 " fill-opacity="1" fill-rule="nonzero"/><g clip-path="url(#bbad0a7883)"><path fill="#e2e7f7" d="M 24.289062 8.324219 L 4.933594 8.324219 C 4.082031 8.324219 3.386719 9.015625 3.386719 9.871094 L 3.386719 22.257812 C 3.386719 23.113281 4.082031 23.804688 4.933594 23.804688 L 22.742188 23.804688 C 23.597656 23.804688 24.289062 23.113281 24.289062 22.257812 Z M 24.289062 8.324219 " fill-opacity="1" fill-rule="nonzero"/></g><path fill="#f6f8ff" d="M 24.289062 21.449219 L 24.289062 8.324219 L 6.5 8.324219 C 9.234375 15.664062 16.113281 20.984375 24.289062 21.449219 Z M 24.289062 21.449219 " fill-opacity="1" fill-rule="nonzero"/><path fill="#5490f5" d="M 12.675781 15.289062 L 10.355469 15.289062 C 9.929688 15.289062 9.582031 14.941406 9.582031 14.515625 L 9.582031 12.582031 C 9.582031 12.152344 9.929688 11.804688 10.355469 11.804688 L 12.675781 11.804688 C 13.105469 11.804688 13.453125 12.152344 13.453125 12.582031 L 13.453125 14.515625 C 13.453125 14.941406 13.105469 15.289062 12.675781 15.289062 Z M 10.355469 12.582031 L 10.355469 14.515625 L 12.675781 14.515625 L 12.675781 12.582031 Z M 10.355469 12.582031 " fill-opacity="1" fill-rule="nonzero"/><path fill="#5490f5" d="M 8.03125 15.289062 L 5.710938 15.289062 C 5.28125 15.289062 4.933594 14.941406 4.933594 14.515625 L 4.933594 12.582031 C 4.933594 12.152344 5.28125 11.804688 5.710938 11.804688 L 8.03125 11.804688 C 8.460938 11.804688 8.804688 12.152344 8.804688 12.582031 L 8.804688 14.515625 C 8.804688 14.941406 8.460938 15.289062 8.03125 15.289062 Z M 5.710938 12.582031 L 5.710938 14.515625 L 8.03125 14.515625 L 8.03125 12.582031 Z M 5.710938 12.582031 " fill-opacity="1" fill-rule="nonzero"/><path fill="#5490f5" d="M 21.96875 19.160156 L 19.644531 19.160156 C 19.21875 19.160156 18.871094 18.8125 18.871094 18.386719 L 18.871094 16.453125 C 18.871094 16.023438 19.21875 15.675781 19.644531 15.675781 L 21.96875 15.675781 C 22.394531 15.675781 22.742188 16.023438 22.742188 16.453125 L 22.742188 18.386719 C 22.742188 18.8125 22.394531 19.160156 21.96875 19.160156 Z M 19.644531 16.453125 L 19.644531 18.386719 L 21.96875 18.386719 L 21.96875 16.453125 Z M 19.644531 16.453125 " fill-opacity="1" fill-rule="nonzero"/><path fill="#5490f5" d="M 17.324219 19.160156 L 15 19.160156 C 14.574219 19.160156 14.226562 18.8125 14.226562 18.386719 L 14.226562 16.453125 C 14.226562 16.023438 14.574219 15.675781 15 15.675781 L 17.324219 15.675781 C 17.75 15.675781 18.097656 16.023438 18.097656 16.453125 L 18.097656 18.386719 C 18.097656 18.8125 17.75 19.160156 17.324219 19.160156 Z M 15 16.453125 L 15 18.386719 L 17.324219 18.386719 L 17.324219 16.453125 Z M 15 16.453125 " fill-opacity="1" fill-rule="nonzero"/><path fill="#5490f5" d="M 12.675781 19.160156 L 10.355469 19.160156 C 9.929688 19.160156 9.582031 18.8125 9.582031 18.386719 L 9.582031 16.453125 C 9.582031 16.023438 9.929688 15.675781 10.355469 15.675781 L 12.675781 15.675781 C 13.105469 15.675781 13.453125 16.023438 13.453125 16.453125 L 13.453125 18.386719 C 13.453125 18.8125 13.105469 19.160156 12.675781 19.160156 Z M 10.355469 16.453125 L 10.355469 18.386719 L 12.675781 18.386719 L 12.675781 16.453125 Z M 10.355469 16.453125 " fill-opacity="1" fill-rule="nonzero"/><path fill="#5490f5" d="M 8.03125 19.160156 L 5.710938 19.160156 C 5.28125 19.160156 4.933594 18.8125 4.933594 18.386719 L 4.933594 16.453125 C 4.933594 16.023438 5.28125 15.675781 5.710938 15.675781 L 8.03125 15.675781 C 8.460938 15.675781 8.804688 16.023438 8.804688 16.453125 L 8.804688 18.386719 C 8.804688 18.8125 8.460938 19.160156 8.03125 19.160156 Z M 5.710938 16.453125 L 5.710938 18.386719 L 8.03125 18.386719 L 8.03125 16.453125 Z M 5.710938 16.453125 " fill-opacity="1" fill-rule="nonzero"/><path fill="#ffc239" d="M 21.96875 23.03125 L 19.644531 23.03125 C 19.21875 23.03125 18.871094 22.683594 18.871094 22.257812 L 18.871094 20.324219 C 18.871094 19.894531 19.21875 19.546875 19.644531 19.546875 L 21.96875 19.546875 C 22.394531 19.546875 22.742188 19.894531 22.742188 20.324219 L 22.742188 22.257812 C 22.742188 22.683594 22.394531 23.03125 21.96875 23.03125 Z M 19.644531 20.324219 L 19.644531 22.257812 L 21.96875 22.257812 L 21.96875 20.324219 Z M 19.644531 20.324219 " fill-opacity="1" fill-rule="nonzero"/><path fill="#ffc239" d="M 17.324219 23.03125 L 15 23.03125 C 14.574219 23.03125 14.226562 22.683594 14.226562 22.257812 L 14.226562 20.324219 C 14.226562 19.894531 14.574219 19.546875 15 19.546875 L 17.324219 19.546875 C 17.75 19.546875 18.097656 19.894531 18.097656 20.324219 L 18.097656 22.257812 C 18.097656 22.683594 17.75 23.03125 17.324219 23.03125 Z M 15 20.324219 L 15 22.257812 L 17.324219 22.257812 L 17.324219 20.324219 Z M 15 20.324219 " fill-opacity="1" fill-rule="nonzero"/><path fill="#ffc239" d="M 12.675781 23.03125 L 10.355469 23.03125 C 9.929688 23.03125 9.582031 22.683594 9.582031 22.257812 L 9.582031 20.324219 C 9.582031 19.894531 9.929688 19.546875 10.355469 19.546875 L 12.675781 19.546875 C 13.105469 19.546875 13.453125 19.894531 13.453125 20.324219 L 13.453125 22.257812 C 13.453125 22.683594 13.105469 23.03125 12.675781 23.03125 Z M 10.355469 20.324219 L 10.355469 22.257812 L 12.675781 22.257812 L 12.675781 20.324219 Z M 10.355469 20.324219 " fill-opacity="1" fill-rule="nonzero"/><path fill="#5490f5" d="M 8.03125 23.03125 L 5.710938 23.03125 C 5.28125 23.03125 4.933594 22.683594 4.933594 22.257812 L 4.933594 20.324219 C 4.933594 19.894531 5.28125 19.546875 5.710938 19.546875 L 8.03125 19.546875 C 8.460938 19.546875 8.804688 19.894531 8.804688 20.324219 L 8.804688 22.257812 C 8.804688 22.683594 8.460938 23.03125 8.03125 23.03125 Z M 5.710938 20.324219 L 5.710938 22.257812 L 8.03125 22.257812 L 8.03125 20.324219 Z M 5.710938 20.324219 " fill-opacity="1" fill-rule="nonzero"/><path fill="#c64635" d="M 21.8125 21.019531 L 21.347656 20.398438 L 20.804688 20.804688 L 20.265625 20.398438 L 19.800781 21.019531 L 20.160156 21.289062 L 19.800781 21.5625 L 20.265625 22.179688 L 20.804688 21.773438 L 21.347656 22.179688 L 21.8125 21.5625 L 21.453125 21.289062 Z M 21.8125 21.019531 " fill-opacity="1" fill-rule="nonzero"/><path fill="#c64635" d="M 16.703125 20.398438 L 16.160156 20.804688 L 15.621094 20.398438 L 15.15625 21.019531 L 15.515625 21.289062 L 15.15625 21.5625 L 15.621094 22.179688 L 16.160156 21.773438 L 16.703125 22.179688 L 17.167969 21.5625 L 16.804688 21.289062 L 17.167969 21.019531 Z M 16.703125 20.398438 " fill-opacity="1" fill-rule="nonzero"/><path fill="#c64635" d="M 12.058594 20.398438 L 11.515625 20.804688 L 10.972656 20.398438 L 10.507812 21.019531 L 10.871094 21.289062 L 10.507812 21.5625 L 10.972656 22.179688 L 11.515625 21.773438 L 12.058594 22.179688 L 12.523438 21.5625 L 12.160156 21.289062 L 12.523438 21.019531 Z M 12.058594 20.398438 " fill-opacity="1" fill-rule="nonzero"/><g clip-path="url(#6805dcdc83)"><path fill="#5490f5" d="M 18.109375 11.058594 L 18.109375 8.324219 L 4.933594 8.324219 C 4.082031 8.324219 3.386719 9.015625 3.386719 9.871094 L 3.386719 11.03125 L 15.484375 11.03125 Z M 18.109375 11.058594 " fill-opacity="1" fill-rule="nonzero"/></g><path fill="#81b4fc" d="M 15.484375 11.03125 L 18.109375 11.058594 L 18.109375 8.324219 L 6.5 8.324219 C 6.847656 9.261719 7.265625 10.164062 7.746094 11.03125 Z M 15.484375 11.03125 " fill-opacity="1" fill-rule="nonzero"/><path fill="#ffc239" d="M 6.871094 9.871094 L 6.097656 9.871094 C 5.882812 9.871094 5.710938 9.699219 5.710938 9.484375 L 5.710938 7.160156 C 5.710938 6.949219 5.882812 6.773438 6.097656 6.773438 L 6.871094 6.773438 C 7.085938 6.773438 7.257812 6.949219 7.257812 7.160156 L 7.257812 9.484375 C 7.257812 9.699219 7.085938 9.871094 6.871094 9.871094 Z M 6.871094 9.871094 " fill-opacity="1" fill-rule="nonzero"/><path fill="#ffd55d" d="M 6.871094 6.773438 L 6.097656 6.773438 L 6.097656 8.710938 C 6.097656 8.921875 6.269531 9.097656 6.484375 9.097656 L 7.257812 9.097656 L 7.257812 7.160156 C 7.257812 6.949219 7.085938 6.773438 6.871094 6.773438 Z M 6.871094 6.773438 " fill-opacity="1" fill-rule="nonzero"/><path fill="#ffc239" d="M 11.902344 9.871094 L 11.128906 9.871094 C 10.914062 9.871094 10.742188 9.699219 10.742188 9.484375 L 10.742188 7.160156 C 10.742188 6.949219 10.914062 6.773438 11.128906 6.773438 L 11.902344 6.773438 C 12.117188 6.773438 12.289062 6.949219 12.289062 7.160156 L 12.289062 9.484375 C 12.289062 9.699219 12.117188 9.871094 11.902344 9.871094 Z M 11.902344 9.871094 " fill-opacity="1" fill-rule="nonzero"/><path fill="#ffd55d" d="M 11.902344 6.773438 L 11.128906 6.773438 L 11.128906 8.710938 C 11.128906 8.921875 11.300781 9.097656 11.515625 9.097656 L 12.289062 9.097656 L 12.289062 7.160156 C 12.289062 6.949219 12.117188 6.773438 11.902344 6.773438 Z M 11.902344 6.773438 " fill-opacity="1" fill-rule="nonzero"/><path fill="#5490f5" d="M 17.324219 15.289062 L 15 15.289062 C 14.574219 15.289062 14.226562 14.941406 14.226562 14.515625 L 14.226562 12.582031 C 14.226562 12.152344 14.574219 11.804688 15 11.804688 L 17.324219 11.804688 C 17.75 11.804688 18.097656 12.152344 18.097656 12.582031 L 18.097656 14.515625 C 18.097656 14.941406 17.75 15.289062 17.324219 15.289062 Z M 15 12.582031 L 15 14.515625 L 17.324219 14.515625 L 17.324219 12.582031 Z M 15 12.582031 " fill-opacity="1" fill-rule="nonzero"/><g clip-path="url(#1050aade48)"><path fill="#953528" d="M 26.613281 8.710938 C 26.613281 9.089844 26.574219 9.46875 26.5 9.84375 C 26.425781 10.214844 26.316406 10.578125 26.171875 10.933594 C 26.023438 11.285156 25.847656 11.617188 25.632812 11.9375 C 25.421875 12.253906 25.183594 12.546875 24.914062 12.816406 C 24.644531 13.085938 24.347656 13.324219 24.03125 13.539062 C 23.714844 13.75 23.378906 13.929688 23.027344 14.074219 C 22.675781 14.21875 22.3125 14.332031 21.9375 14.40625 C 21.566406 14.480469 21.1875 14.515625 20.804688 14.515625 C 20.425781 14.515625 20.046875 14.480469 19.671875 14.40625 C 19.300781 14.332031 18.9375 14.21875 18.585938 14.074219 C 18.230469 13.929688 17.898438 13.75 17.582031 13.539062 C 17.261719 13.324219 16.96875 13.085938 16.699219 12.816406 C 16.429688 12.546875 16.191406 12.253906 15.980469 11.9375 C 15.765625 11.617188 15.585938 11.285156 15.441406 10.933594 C 15.296875 10.578125 15.1875 10.214844 15.113281 9.84375 C 15.039062 9.46875 15 9.089844 15 8.710938 C 15 8.328125 15.039062 7.949219 15.113281 7.578125 C 15.1875 7.203125 15.296875 6.839844 15.441406 6.488281 C 15.585938 6.136719 15.765625 5.800781 15.980469 5.484375 C 16.191406 5.167969 16.429688 4.875 16.699219 4.605469 C 16.96875 4.335938 17.261719 4.09375 17.582031 3.882812 C 17.898438 3.671875 18.230469 3.492188 18.585938 3.34375 C 18.9375 3.199219 19.300781 3.089844 19.671875 3.015625 C 20.046875 2.941406 20.425781 2.902344 20.804688 2.902344 C 21.1875 2.902344 21.566406 2.941406 21.9375 3.015625 C 22.3125 3.089844 22.675781 3.199219 23.027344 3.34375 C 23.378906 3.492188 23.714844 3.671875 24.03125 3.882812 C 24.347656 4.09375 24.644531 4.335938 24.914062 4.605469 C 25.183594 4.875 25.421875 5.167969 25.632812 5.484375 C 25.847656 5.800781 26.023438 6.136719 26.171875 6.488281 C 26.316406 6.839844 26.425781 7.203125 26.5 7.578125 C 26.574219 7.949219 26.613281 8.328125 26.613281 8.710938 Z M 26.613281 8.710938 " fill-opacity="1" fill-rule="nonzero"/></g><g clip-path="url(#3648fd3949)"><path fill="#c64635" d="M 16.339844 5.003906 C 17.742188 8.859375 21.257812 11.703125 25.488281 12.136719 C 26.191406 11.175781 26.613281 9.992188 26.613281 8.710938 C 26.613281 5.503906 24.011719 2.902344 20.804688 2.902344 C 19.007812 2.902344 17.402344 3.71875 16.339844 5.003906 Z M 16.339844 5.003906 " fill-opacity="1" fill-rule="nonzero"/></g><path fill="#f6f8ff" d="M 25.453125 8.710938 C 25.453125 9.015625 25.421875 9.316406 25.363281 9.617188 C 25.304688 9.914062 25.214844 10.207031 25.097656 10.488281 C 24.980469 10.769531 24.839844 11.035156 24.667969 11.289062 C 24.5 11.542969 24.308594 11.777344 24.089844 11.996094 C 23.875 12.210938 23.640625 12.402344 23.386719 12.570312 C 23.132812 12.742188 22.867188 12.882812 22.585938 13 C 22.300781 13.117188 22.011719 13.207031 21.710938 13.265625 C 21.414062 13.324219 21.113281 13.355469 20.804688 13.355469 C 20.5 13.355469 20.199219 13.324219 19.898438 13.265625 C 19.601562 13.207031 19.3125 13.117188 19.027344 13 C 18.746094 12.882812 18.480469 12.742188 18.226562 12.570312 C 17.972656 12.402344 17.738281 12.210938 17.523438 11.996094 C 17.304688 11.777344 17.113281 11.542969 16.945312 11.289062 C 16.773438 11.035156 16.632812 10.769531 16.515625 10.488281 C 16.398438 10.207031 16.308594 9.914062 16.25 9.617188 C 16.191406 9.316406 16.160156 9.015625 16.160156 8.710938 C 16.160156 8.40625 16.191406 8.101562 16.25 7.804688 C 16.308594 7.503906 16.398438 7.214844 16.515625 6.933594 C 16.632812 6.648438 16.773438 6.382812 16.945312 6.128906 C 17.113281 5.875 17.304688 5.640625 17.523438 5.425781 C 17.738281 5.210938 17.972656 5.015625 18.226562 4.847656 C 18.480469 4.679688 18.746094 4.535156 19.027344 4.417969 C 19.3125 4.300781 19.601562 4.214844 19.898438 4.152344 C 20.199219 4.09375 20.5 4.066406 20.804688 4.066406 C 21.113281 4.066406 21.414062 4.09375 21.710938 4.152344 C 22.011719 4.214844 22.300781 4.300781 22.585938 4.417969 C 22.867188 4.535156 23.132812 4.679688 23.386719 4.847656 C 23.640625 5.015625 23.875 5.210938 24.089844 5.425781 C 24.308594 5.640625 24.5 5.875 24.667969 6.128906 C 24.839844 6.382812 24.980469 6.648438 25.097656 6.933594 C 25.214844 7.214844 25.304688 7.503906 25.363281 7.804688 C 25.421875 8.101562 25.453125 8.40625 25.453125 8.710938 Z M 25.453125 8.710938 " fill-opacity="1" fill-rule="nonzero"/><path fill="#81b4fc" d="M 20.03125 8.710938 L 20.03125 6 C 20.03125 5.570312 20.378906 5.226562 20.804688 5.226562 C 21.234375 5.226562 21.582031 5.570312 21.582031 6 L 21.582031 8.710938 Z M 20.03125 8.710938 " fill-opacity="1" fill-rule="nonzero"/><path fill="#5490f5" d="M 20.804688 7.933594 L 23.128906 7.933594 C 23.558594 7.933594 23.902344 8.28125 23.902344 8.710938 C 23.902344 9.136719 23.558594 9.484375 23.128906 9.484375 L 20.804688 9.484375 Z M 20.804688 7.933594 " fill-opacity="1" fill-rule="nonzero"/><path fill="#81b4fc" d="M 16.160156 8.324219 L 17.324219 8.324219 L 17.324219 9.097656 L 16.160156 9.097656 Z M 16.160156 8.324219 " fill-opacity="1" fill-rule="nonzero"/><path fill="#81b4fc" d="M 20.417969 12.195312 L 21.195312 12.195312 L 21.195312 13.355469 L 20.417969 13.355469 Z M 20.417969 12.195312 " fill-opacity="1" fill-rule="nonzero"/><path fill="#ffd55d" d="M 21.582031 8.710938 C 21.582031 8.921875 21.503906 9.105469 21.355469 9.257812 C 21.203125 9.410156 21.019531 9.484375 20.804688 9.484375 C 20.59375 9.484375 20.410156 9.410156 20.257812 9.257812 C 20.109375 9.105469 20.03125 8.921875 20.03125 8.710938 C 20.03125 8.496094 20.109375 8.3125 20.257812 8.164062 C 20.410156 8.011719 20.59375 7.933594 20.804688 7.933594 C 21.019531 7.933594 21.203125 8.011719 21.355469 8.164062 C 21.503906 8.3125 21.582031 8.496094 21.582031 8.710938 Z M 21.582031 8.710938 " fill-opacity="1" fill-rule="nonzero"/></svg>