<svg xmlns="http://www.w3.org/2000/svg" xmlns:xlink="http://www.w3.org/1999/xlink" width="40" zoomAndPan="magnify" viewBox="0 0 30 30.000001" height="40" preserveAspectRatio="xMidYMid meet" version="1.0"><defs><clipPath id="1665991787"><path d="M 4 2.902344 L 22 2.902344 L 22 25 L 4 25 Z M 4 2.902344 " clip-rule="nonzero"/></clipPath><clipPath id="63a9b1688f"><path d="M 4 2.902344 L 20 2.902344 L 20 25 L 4 25 Z M 4 2.902344 " clip-rule="nonzero"/></clipPath><clipPath id="757503995b"><path d="M 12 23 L 26.613281 23 L 26.613281 26.128906 L 12 26.128906 Z M 12 23 " clip-rule="nonzero"/></clipPath><clipPath id="2ef6949f3c"><path d="M 12 23 L 26 23 L 26 26.128906 L 12 26.128906 Z M 12 23 " clip-rule="nonzero"/></clipPath><clipPath id="5b420e4283"><path d="M 12 5 L 26.613281 5 L 26.613281 25 L 12 25 Z M 12 5 " clip-rule="nonzero"/></clipPath><clipPath id="019596e01d"><path d="M 3.386719 5 L 7 5 L 7 6 L 3.386719 6 Z M 3.386719 5 " clip-rule="nonzero"/></clipPath><clipPath id="a9b5619059"><path d="M 3.386719 9 L 7 9 L 7 10 L 3.386719 10 Z M 3.386719 9 " clip-rule="nonzero"/></clipPath><clipPath id="d209fce83f"><path d="M 3.386719 12 L 7 12 L 7 14 L 3.386719 14 Z M 3.386719 12 " clip-rule="nonzero"/></clipPath><clipPath id="84014fda54"><path d="M 3.386719 16 L 7 16 L 7 18 L 3.386719 18 Z M 3.386719 16 " clip-rule="nonzero"/></clipPath><clipPath id="ac91b5738c"><path d="M 3.386719 20 L 7 20 L 7 22 L 3.386719 22 Z M 3.386719 20 " clip-rule="nonzero"/></clipPath></defs><g clip-path="url(#1665991787)"><path fill="#599072" d="M 4.160156 2.902344 L 21.195312 2.902344 L 21.195312 24.582031 L 4.160156 24.582031 Z M 4.160156 2.902344 " fill-opacity="1" fill-rule="nonzero"/></g><g clip-path="url(#63a9b1688f)"><path fill="#70b48f" d="M 4.160156 2.902344 L 19.644531 2.902344 L 19.644531 24.582031 L 4.160156 24.582031 Z M 4.160156 2.902344 " fill-opacity="1" fill-rule="nonzero"/></g><path fill="#599072" d="M 8.03125 5.613281 C 8.03125 5.765625 8.003906 5.914062 7.945312 6.058594 C 7.886719 6.199219 7.800781 6.324219 7.691406 6.433594 C 7.582031 6.542969 7.457031 6.625 7.316406 6.6875 C 7.171875 6.746094 7.023438 6.773438 6.871094 6.773438 C 6.71875 6.773438 6.570312 6.746094 6.425781 6.6875 C 6.285156 6.625 6.160156 6.542969 6.050781 6.433594 C 5.941406 6.324219 5.855469 6.199219 5.796875 6.058594 C 5.738281 5.914062 5.710938 5.765625 5.710938 5.613281 C 5.710938 5.457031 5.738281 5.3125 5.796875 5.167969 C 5.855469 5.027344 5.941406 4.902344 6.050781 4.792969 C 6.160156 4.683594 6.285156 4.597656 6.425781 4.539062 C 6.570312 4.480469 6.71875 4.453125 6.871094 4.453125 C 7.023438 4.453125 7.171875 4.480469 7.316406 4.539062 C 7.457031 4.597656 7.582031 4.683594 7.691406 4.792969 C 7.800781 4.902344 7.886719 5.027344 7.945312 5.167969 C 8.003906 5.3125 8.03125 5.457031 8.03125 5.613281 Z M 8.03125 5.613281 " fill-opacity="1" fill-rule="nonzero"/><path fill="#599072" d="M 8.03125 9.484375 C 8.03125 9.636719 8.003906 9.785156 7.945312 9.929688 C 7.886719 10.070312 7.800781 10.195312 7.691406 10.304688 C 7.582031 10.414062 7.457031 10.496094 7.316406 10.558594 C 7.171875 10.617188 7.023438 10.644531 6.871094 10.644531 C 6.71875 10.644531 6.570312 10.617188 6.425781 10.558594 C 6.285156 10.496094 6.160156 10.414062 6.050781 10.304688 C 5.941406 10.195312 5.855469 10.070312 5.796875 9.929688 C 5.738281 9.785156 5.710938 9.636719 5.710938 9.484375 C 5.710938 9.328125 5.738281 9.183594 5.796875 9.039062 C 5.855469 8.898438 5.941406 8.773438 6.050781 8.664062 C 6.160156 8.554688 6.285156 8.46875 6.425781 8.410156 C 6.570312 8.351562 6.71875 8.324219 6.871094 8.324219 C 7.023438 8.324219 7.171875 8.351562 7.316406 8.410156 C 7.457031 8.46875 7.582031 8.554688 7.691406 8.664062 C 7.800781 8.773438 7.886719 8.898438 7.945312 9.039062 C 8.003906 9.183594 8.03125 9.328125 8.03125 9.484375 Z M 8.03125 9.484375 " fill-opacity="1" fill-rule="nonzero"/><path fill="#599072" d="M 8.03125 13.355469 C 8.03125 13.507812 8.003906 13.65625 7.945312 13.800781 C 7.886719 13.941406 7.800781 14.066406 7.691406 14.175781 C 7.582031 14.285156 7.457031 14.367188 7.316406 14.425781 C 7.171875 14.488281 7.023438 14.515625 6.871094 14.515625 C 6.71875 14.515625 6.570312 14.488281 6.425781 14.425781 C 6.285156 14.367188 6.160156 14.285156 6.050781 14.175781 C 5.941406 14.066406 5.855469 13.941406 5.796875 13.800781 C 5.738281 13.65625 5.710938 13.507812 5.710938 13.355469 C 5.710938 13.199219 5.738281 13.050781 5.796875 12.910156 C 5.855469 12.769531 5.941406 12.640625 6.050781 12.535156 C 6.160156 12.425781 6.285156 12.339844 6.425781 12.28125 C 6.570312 12.222656 6.71875 12.195312 6.871094 12.195312 C 7.023438 12.195312 7.171875 12.222656 7.316406 12.28125 C 7.457031 12.339844 7.582031 12.425781 7.691406 12.535156 C 7.800781 12.640625 7.886719 12.769531 7.945312 12.910156 C 8.003906 13.050781 8.03125 13.199219 8.03125 13.355469 Z M 8.03125 13.355469 " fill-opacity="1" fill-rule="nonzero"/><path fill="#599072" d="M 8.03125 17.226562 C 8.03125 17.378906 8.003906 17.527344 7.945312 17.671875 C 7.886719 17.8125 7.800781 17.9375 7.691406 18.046875 C 7.582031 18.15625 7.457031 18.238281 7.316406 18.296875 C 7.171875 18.359375 7.023438 18.386719 6.871094 18.386719 C 6.71875 18.386719 6.570312 18.359375 6.425781 18.296875 C 6.285156 18.238281 6.160156 18.15625 6.050781 18.046875 C 5.941406 17.9375 5.855469 17.8125 5.796875 17.671875 C 5.738281 17.527344 5.710938 17.378906 5.710938 17.226562 C 5.710938 17.070312 5.738281 16.921875 5.796875 16.78125 C 5.855469 16.640625 5.941406 16.511719 6.050781 16.40625 C 6.160156 16.296875 6.285156 16.210938 6.425781 16.152344 C 6.570312 16.09375 6.71875 16.066406 6.871094 16.066406 C 7.023438 16.066406 7.171875 16.09375 7.316406 16.152344 C 7.457031 16.210938 7.582031 16.296875 7.691406 16.40625 C 7.800781 16.511719 7.886719 16.640625 7.945312 16.78125 C 8.003906 16.921875 8.03125 17.070312 8.03125 17.226562 Z M 8.03125 17.226562 " fill-opacity="1" fill-rule="nonzero"/><path fill="#599072" d="M 8.03125 21.097656 C 8.03125 21.25 8.003906 21.398438 7.945312 21.542969 C 7.886719 21.683594 7.800781 21.808594 7.691406 21.917969 C 7.582031 22.027344 7.457031 22.109375 7.316406 22.167969 C 7.171875 22.230469 7.023438 22.257812 6.871094 22.257812 C 6.71875 22.257812 6.570312 22.230469 6.425781 22.167969 C 6.285156 22.109375 6.160156 22.027344 6.050781 21.917969 C 5.941406 21.808594 5.855469 21.683594 5.796875 21.542969 C 5.738281 21.398438 5.710938 21.25 5.710938 21.097656 C 5.710938 20.941406 5.738281 20.792969 5.796875 20.652344 C 5.855469 20.511719 5.941406 20.382812 6.050781 20.277344 C 6.160156 20.167969 6.285156 20.082031 6.425781 20.023438 C 6.570312 19.964844 6.71875 19.933594 6.871094 19.933594 C 7.023438 19.933594 7.171875 19.964844 7.316406 20.023438 C 7.457031 20.082031 7.582031 20.167969 7.691406 20.277344 C 7.800781 20.382812 7.886719 20.511719 7.945312 20.652344 C 8.003906 20.792969 8.03125 20.941406 8.03125 21.097656 Z M 8.03125 21.097656 " fill-opacity="1" fill-rule="nonzero"/><g clip-path="url(#757503995b)"><path fill="#999999" d="M 13.839844 23.804688 L 26.226562 23.804688 L 26.226562 26.128906 L 13.839844 26.128906 C 13.199219 26.128906 12.675781 25.609375 12.675781 24.96875 C 12.675781 24.328125 13.199219 23.804688 13.839844 23.804688 Z M 13.839844 23.804688 " fill-opacity="1" fill-rule="nonzero"/></g><g clip-path="url(#2ef6949f3c)"><path fill="#bab8b9" d="M 25.066406 26.128906 L 13.839844 26.128906 C 13.199219 26.128906 12.675781 25.609375 12.675781 24.96875 C 12.675781 24.328125 13.199219 23.804688 13.839844 23.804688 L 25.066406 23.804688 " fill-opacity="1" fill-rule="nonzero"/></g><g clip-path="url(#5b420e4283)"><path fill="#85b6cf" d="M 12.675781 24.96875 C 12.675781 24.328125 13.199219 23.804688 13.839844 23.804688 L 26.613281 23.804688 L 26.613281 5.226562 L 12.675781 5.226562 Z M 12.675781 24.96875 " fill-opacity="1" fill-rule="nonzero"/><path fill="#85b6cf" d="M 12.675781 24.96875 C 12.675781 24.328125 13.199219 23.804688 13.839844 23.804688 L 26.613281 23.804688 L 26.613281 5.226562 L 12.675781 5.226562 Z M 12.675781 24.96875 " fill-opacity="1" fill-rule="nonzero"/></g><path fill="#94cce7" d="M 13.839844 23.804688 L 25.453125 23.804688 L 25.453125 5.226562 L 12.675781 5.226562 L 12.675781 24.96875 C 12.675781 24.328125 13.199219 23.804688 13.839844 23.804688 Z M 13.839844 23.804688 " fill-opacity="1" fill-rule="nonzero"/><path fill="#ca5057" d="M 18.097656 12.96875 L 16.546875 11.417969 L 15 12.96875 L 15 5.226562 L 18.097656 5.226562 Z M 18.097656 12.96875 " fill-opacity="1" fill-rule="nonzero"/><path fill="#dc6068" d="M 17.324219 12.195312 L 17.324219 5.226562 L 15 5.226562 L 15 12.96875 L 16.546875 11.417969 Z M 17.324219 12.195312 " fill-opacity="1" fill-rule="nonzero"/><g clip-path="url(#019596e01d)"><path fill="#bab8b9" d="M 3.386719 5.226562 L 6.871094 5.226562 L 6.871094 6 L 3.386719 6 Z M 3.386719 5.226562 " fill-opacity="1" fill-rule="nonzero"/></g><g clip-path="url(#a9b5619059)"><path fill="#bab8b9" d="M 3.386719 9.097656 L 6.871094 9.097656 L 6.871094 9.871094 L 3.386719 9.871094 Z M 3.386719 9.097656 " fill-opacity="1" fill-rule="nonzero"/></g><g clip-path="url(#d209fce83f)"><path fill="#bab8b9" d="M 3.386719 12.96875 L 6.871094 12.96875 L 6.871094 13.742188 L 3.386719 13.742188 Z M 3.386719 12.96875 " fill-opacity="1" fill-rule="nonzero"/></g><g clip-path="url(#84014fda54)"><path fill="#bab8b9" d="M 3.386719 16.839844 L 6.871094 16.839844 L 6.871094 17.613281 L 3.386719 17.613281 Z M 3.386719 16.839844 " fill-opacity="1" fill-rule="nonzero"/></g><g clip-path="url(#ac91b5738c)"><path fill="#bab8b9" d="M 3.386719 20.710938 L 6.871094 20.710938 L 6.871094 21.484375 L 3.386719 21.484375 Z M 3.386719 20.710938 " fill-opacity="1" fill-rule="nonzero"/></g><path fill="#efedee" d="M 19.257812 11.03125 L 25.453125 11.03125 L 25.453125 11.804688 L 19.257812 11.804688 Z M 19.257812 11.03125 " fill-opacity="1" fill-rule="nonzero"/><path fill="#efedee" d="M 19.257812 12.582031 L 25.453125 12.582031 L 25.453125 13.355469 L 19.257812 13.355469 Z M 19.257812 12.582031 " fill-opacity="1" fill-rule="nonzero"/><path fill="#efedee" d="M 14.613281 14.128906 L 25.453125 14.128906 L 25.453125 14.902344 L 14.613281 14.902344 Z M 14.613281 14.128906 " fill-opacity="1" fill-rule="nonzero"/><path fill="#efedee" d="M 14.613281 15.675781 L 25.453125 15.675781 L 25.453125 16.453125 L 14.613281 16.453125 Z M 14.613281 15.675781 " fill-opacity="1" fill-rule="nonzero"/><path fill="#efedee" d="M 14.613281 17.226562 L 25.453125 17.226562 L 25.453125 18 L 14.613281 18 Z M 14.613281 17.226562 " fill-opacity="1" fill-rule="nonzero"/><path fill="#efedee" d="M 14.613281 18.773438 L 25.453125 18.773438 L 25.453125 19.546875 L 14.613281 19.546875 Z M 14.613281 18.773438 " fill-opacity="1" fill-rule="nonzero"/></svg>