<svg xmlns="http://www.w3.org/2000/svg" xmlns:xlink="http://www.w3.org/1999/xlink" width="40" zoomAndPan="magnify" viewBox="0 0 30 30.000001" height="40" preserveAspectRatio="xMidYMid meet" version="1.0"><defs><clipPath id="7bc2487064"><path d="M 18 20 L 26.613281 20 L 26.613281 26.128906 L 18 26.128906 Z M 18 20 " clip-rule="nonzero"/></clipPath><clipPath id="f6c1180ff0"><path d="M 19 20 L 26.613281 20 L 26.613281 26.128906 L 19 26.128906 Z M 19 20 " clip-rule="nonzero"/></clipPath><clipPath id="e00330280b"><path d="M 19 23 L 21 23 L 21 26.128906 L 19 26.128906 Z M 19 23 " clip-rule="nonzero"/></clipPath><clipPath id="6ca0e9e78f"><path d="M 21 22 L 24 22 L 24 26.128906 L 21 26.128906 Z M 21 22 " clip-rule="nonzero"/></clipPath><clipPath id="02d6fdc43d"><path d="M 24 23 L 26 23 L 26 26.128906 L 24 26.128906 Z M 24 23 " clip-rule="nonzero"/></clipPath><clipPath id="dd3ae4a6bb"><path d="M 24 15 L 26.613281 15 L 26.613281 18 L 24 18 Z M 24 15 " clip-rule="nonzero"/></clipPath><clipPath id="bd1a088a4b"><path d="M 21 22 L 24 22 L 24 26.128906 L 21 26.128906 Z M 21 22 " clip-rule="nonzero"/></clipPath><clipPath id="883afa10eb"><path d="M 4 2.902344 L 11 2.902344 L 11 7 L 4 7 Z M 4 2.902344 " clip-rule="nonzero"/></clipPath><clipPath id="cd2ad2e956"><path d="M 5 2.902344 L 11 2.902344 L 11 7 L 5 7 Z M 5 2.902344 " clip-rule="nonzero"/></clipPath><clipPath id="1c6ed41eb9"><path d="M 3.386719 11 L 12 11 L 12 18 L 3.386719 18 Z M 3.386719 11 " clip-rule="nonzero"/></clipPath><clipPath id="76f0300724"><path d="M 3.386719 6 L 6 6 L 6 9 L 3.386719 9 Z M 3.386719 6 " clip-rule="nonzero"/></clipPath></defs><g clip-path="url(#7bc2487064)"><path fill="#b5b5b5" d="M 23.515625 20.324219 L 24.753906 20.632812 L 25.113281 20.722656 C 25.992188 20.941406 26.613281 21.734375 26.613281 22.644531 L 26.613281 26.128906 L 18.097656 26.128906 L 18.097656 22.644531 C 18.097656 21.734375 18.714844 20.941406 19.597656 20.722656 L 19.957031 20.632812 L 21.195312 20.324219 Z M 23.515625 20.324219 " fill-opacity="1" fill-rule="nonzero"/></g><g clip-path="url(#f6c1180ff0)"><path fill="#c9c9c9" d="M 20.761719 20.722656 C 19.878906 20.941406 19.257812 21.734375 19.257812 22.644531 L 19.257812 26.128906 L 26.613281 26.128906 L 26.613281 22.644531 C 26.613281 21.734375 25.992188 20.941406 25.113281 20.722656 L 24.753906 20.632812 L 23.515625 20.324219 L 22.355469 20.324219 L 21.117188 20.632812 Z M 20.761719 20.722656 " fill-opacity="1" fill-rule="nonzero"/></g><path fill="#3f4042" d="M 19.257812 15.695312 L 19.257812 13.742188 C 19.257812 12.671875 20.125 11.804688 21.195312 11.804688 L 23.128906 11.804688 C 23.769531 11.804688 24.289062 12.328125 24.289062 12.96875 C 24.933594 12.96875 25.453125 13.488281 25.453125 14.128906 L 25.453125 15.695312 " fill-opacity="1" fill-rule="nonzero"/><path fill="#5a5b5d" d="M 25.453125 14.128906 C 25.453125 13.488281 24.933594 12.96875 24.289062 12.96875 C 24.289062 12.328125 23.769531 11.804688 23.128906 11.804688 L 21.195312 11.804688 C 20.777344 11.804688 20.394531 11.941406 20.082031 12.164062 C 20.050781 12.296875 20.03125 12.4375 20.03125 12.582031 C 20.03125 13.660156 20.90625 14.535156 21.988281 14.535156 L 25.453125 14.535156 Z M 25.453125 14.128906 " fill-opacity="1" fill-rule="nonzero"/><path fill="#e56a6a" d="M 23.207031 21.5625 L 22.742188 22.257812 L 21.96875 22.257812 L 21.503906 21.5625 L 22.355469 20.710938 Z M 23.207031 21.5625 " fill-opacity="1" fill-rule="nonzero"/><g clip-path="url(#e00330280b)"><path fill="#777777" d="M 19.257812 23.417969 L 20.03125 23.417969 L 20.03125 26.128906 L 19.257812 26.128906 Z M 19.257812 23.417969 " fill-opacity="1" fill-rule="nonzero"/></g><g clip-path="url(#6ca0e9e78f)"><path fill="#e56a6a" d="M 23.128906 26.128906 L 22.742188 22.257812 L 21.96875 22.257812 L 21.582031 26.128906 Z M 23.128906 26.128906 " fill-opacity="1" fill-rule="nonzero"/></g><g clip-path="url(#02d6fdc43d)"><path fill="#777777" d="M 24.679688 23.417969 L 25.453125 23.417969 L 25.453125 26.128906 L 24.679688 26.128906 Z M 24.679688 23.417969 " fill-opacity="1" fill-rule="nonzero"/></g><path fill="#eeb9ad" d="M 21.195312 19.238281 L 21.195312 20.324219 L 22.355469 20.710938 L 23.515625 20.324219 L 23.515625 19.238281 " fill-opacity="1" fill-rule="nonzero"/><path fill="#eeb9ad" d="M 24.679688 15.289062 L 24.679688 17.226562 C 24.679688 18.507812 23.636719 19.546875 22.355469 19.546875 C 21.074219 19.546875 20.03125 18.507812 20.03125 17.226562 L 20.03125 15.289062 L 21.347656 15.289062 C 22.21875 15.289062 23.03125 14.855469 23.515625 14.128906 Z M 24.679688 15.289062 " fill-opacity="1" fill-rule="nonzero"/><path fill="#eeb9ad" d="M 20.03125 15.675781 L 19.453125 15.675781 C 18.917969 15.675781 18.484375 16.109375 18.484375 16.644531 C 18.484375 17.179688 18.917969 17.613281 19.453125 17.613281 L 20.066406 17.613281 " fill-opacity="1" fill-rule="nonzero"/><g clip-path="url(#dd3ae4a6bb)"><path fill="#eeb9ad" d="M 24.679688 15.675781 L 25.257812 15.675781 C 25.792969 15.675781 26.226562 16.109375 26.226562 16.644531 C 26.226562 17.179688 25.792969 17.613281 25.257812 17.613281 L 24.644531 17.613281 " fill-opacity="1" fill-rule="nonzero"/></g><path fill="#ffe2d5" d="M 22.546875 19.539062 C 23.742188 19.441406 24.679688 18.441406 24.679688 17.226562 L 24.679688 15.289062 L 23.515625 14.128906 C 23.03125 14.855469 22.21875 15.289062 21.347656 15.289062 L 20.417969 15.289062 L 20.417969 17.226562 C 20.417969 18.441406 21.355469 19.441406 22.546875 19.539062 Z M 22.546875 19.539062 " fill-opacity="1" fill-rule="nonzero"/><path fill="#ffe2d5" d="M 23.515625 19.621094 C 23.175781 19.820312 22.777344 19.933594 22.355469 19.933594 C 22.082031 19.933594 21.824219 19.886719 21.582031 19.800781 L 21.582031 20.324219 L 22.546875 20.644531 L 23.515625 20.324219 Z M 23.515625 19.621094 " fill-opacity="1" fill-rule="nonzero"/><path fill="#b5b5b5" d="M 22.355469 20.710938 L 21.195312 20.324219 L 19.957031 20.632812 L 21.195312 21.871094 Z M 22.355469 20.710938 " fill-opacity="1" fill-rule="nonzero"/><path fill="#b5b5b5" d="M 23.515625 21.871094 L 24.753906 20.632812 L 23.515625 20.324219 L 22.355469 20.710938 Z M 23.515625 21.871094 " fill-opacity="1" fill-rule="nonzero"/><g clip-path="url(#bd1a088a4b)"><path fill="#ed8585" d="M 22.355469 22.257812 L 21.96875 26.128906 L 23.128906 26.128906 L 22.742188 22.257812 Z M 22.355469 22.257812 " fill-opacity="1" fill-rule="nonzero"/></g><g clip-path="url(#883afa10eb)"><path fill="#662a12" d="M 4.546875 6.792969 L 4.546875 6 C 4.546875 4.289062 5.933594 2.902344 7.644531 2.902344 C 9.355469 2.902344 10.742188 4.289062 10.742188 6 L 10.742188 6.792969 " fill-opacity="1" fill-rule="nonzero"/></g><g clip-path="url(#cd2ad2e956)"><path fill="#893b20" d="M 10.742188 6 C 10.742188 4.488281 9.660156 3.230469 8.226562 2.960938 C 6.792969 3.230469 5.710938 4.488281 5.710938 6 L 5.710938 6.792969 L 10.742188 6.792969 Z M 10.742188 6 " fill-opacity="1" fill-rule="nonzero"/></g><g clip-path="url(#1c6ed41eb9)"><path fill="#b5b5b5" d="M 8.808594 11.417969 L 10.046875 11.730469 L 10.402344 11.816406 C 11.285156 12.039062 11.902344 12.832031 11.902344 13.742188 L 11.902344 17.226562 L 3.386719 17.226562 L 3.386719 13.742188 C 3.386719 12.832031 4.007812 12.039062 4.890625 11.816406 L 5.246094 11.730469 L 6.484375 11.417969 Z M 8.808594 11.417969 " fill-opacity="1" fill-rule="nonzero"/></g><path fill="#c9c9c9" d="M 6.050781 11.816406 C 5.167969 12.039062 4.546875 12.832031 4.546875 13.742188 L 4.546875 17.226562 L 11.902344 17.226562 L 11.902344 13.742188 C 11.902344 12.832031 11.285156 12.039062 10.402344 11.816406 L 10.046875 11.730469 L 8.808594 11.417969 L 7.644531 11.417969 L 6.40625 11.730469 Z M 6.050781 11.816406 " fill-opacity="1" fill-rule="nonzero"/><path fill="#e56a6a" d="M 8.496094 12.65625 L 8.03125 13.355469 L 7.257812 13.355469 L 6.792969 12.65625 L 7.644531 11.804688 Z M 8.496094 12.65625 " fill-opacity="1" fill-rule="nonzero"/><path fill="#777777" d="M 4.546875 14.515625 L 5.324219 14.515625 L 5.324219 17.226562 L 4.546875 17.226562 Z M 4.546875 14.515625 " fill-opacity="1" fill-rule="nonzero"/><path fill="#e56a6a" d="M 8.417969 17.226562 L 8.03125 13.355469 L 7.257812 13.355469 L 6.871094 17.226562 Z M 8.417969 17.226562 " fill-opacity="1" fill-rule="nonzero"/><path fill="#777777" d="M 9.96875 14.515625 L 10.742188 14.515625 L 10.742188 17.226562 L 9.96875 17.226562 Z M 9.96875 14.515625 " fill-opacity="1" fill-rule="nonzero"/><path fill="#eeb9ad" d="M 6.484375 10.332031 L 6.484375 11.417969 L 7.644531 11.804688 L 8.808594 11.417969 L 8.808594 10.332031 " fill-opacity="1" fill-rule="nonzero"/><g clip-path="url(#76f0300724)"><path fill="#eeb9ad" d="M 5.324219 6.773438 L 4.742188 6.773438 C 4.207031 6.773438 3.773438 7.207031 3.773438 7.742188 C 3.773438 8.277344 4.207031 8.710938 4.742188 8.710938 L 5.355469 8.710938 " fill-opacity="1" fill-rule="nonzero"/></g><path fill="#eeb9ad" d="M 9.96875 6.773438 L 10.546875 6.773438 C 11.082031 6.773438 11.515625 7.207031 11.515625 7.742188 C 11.515625 8.277344 11.082031 8.710938 10.546875 8.710938 L 9.9375 8.710938 " fill-opacity="1" fill-rule="nonzero"/><path fill="#ffe2d5" d="M 8.808594 10.71875 C 8.464844 10.917969 8.070312 11.03125 7.644531 11.03125 C 7.375 11.03125 7.113281 10.984375 6.871094 10.898438 L 6.871094 11.417969 L 7.839844 11.742188 L 8.808594 11.417969 Z M 8.808594 10.71875 " fill-opacity="1" fill-rule="nonzero"/><path fill="#b5b5b5" d="M 7.644531 11.804688 L 6.484375 11.417969 L 5.246094 11.730469 L 6.484375 12.96875 Z M 7.644531 11.804688 " fill-opacity="1" fill-rule="nonzero"/><path fill="#b5b5b5" d="M 8.808594 12.96875 L 10.046875 11.730469 L 8.808594 11.417969 L 7.644531 11.804688 Z M 8.808594 12.96875 " fill-opacity="1" fill-rule="nonzero"/><path fill="#ed8585" d="M 7.644531 13.355469 L 7.257812 17.226562 L 8.417969 17.226562 L 8.03125 13.355469 Z M 7.644531 13.355469 " fill-opacity="1" fill-rule="nonzero"/><path fill="#eeb9ad" d="M 7.644531 6.386719 C 7.894531 6.386719 8.132812 6.289062 8.304688 6.113281 L 8.566406 5.851562 C 8.71875 5.699219 8.929688 5.613281 9.148438 5.613281 C 9.601562 5.613281 9.96875 5.980469 9.96875 6.433594 L 9.96875 8.324219 C 9.96875 9.605469 8.929688 10.644531 7.644531 10.644531 C 6.363281 10.644531 5.324219 9.605469 5.324219 8.324219 L 5.324219 6.433594 C 5.324219 5.980469 5.691406 5.613281 6.144531 5.613281 C 6.363281 5.613281 6.570312 5.699219 6.726562 5.851562 L 6.984375 6.113281 C 7.160156 6.289062 7.398438 6.386719 7.644531 6.386719 Z M 7.644531 6.386719 " fill-opacity="1" fill-rule="nonzero"/><path fill="#ffe2d5" d="M 9.148438 5.613281 C 8.929688 5.613281 8.71875 5.699219 8.566406 5.851562 L 8.304688 6.113281 C 8.132812 6.289062 7.894531 6.386719 7.644531 6.386719 C 7.398438 6.386719 7.160156 6.289062 6.984375 6.113281 L 6.726562 5.851562 C 6.667969 5.796875 6.601562 5.75 6.53125 5.714844 C 6.273438 5.851562 6.097656 6.121094 6.097656 6.433594 L 6.097656 8.324219 C 6.097656 9.472656 6.933594 10.425781 8.03125 10.609375 C 9.128906 10.425781 9.96875 9.472656 9.96875 8.324219 L 9.96875 6.433594 C 9.96875 5.980469 9.601562 5.613281 9.148438 5.613281 Z M 9.148438 5.613281 " fill-opacity="1" fill-rule="nonzero"/><path fill="#6ec5e7" d="M 14.847656 4.453125 L 20.578125 4.453125 C 21.773438 4.453125 22.746094 5.421875 22.746094 6.621094 C 22.746094 6.722656 22.738281 6.824219 22.722656 6.925781 L 22.246094 10.277344 C 22.085938 11.375 21.144531 12.195312 20.035156 12.195312 L 18.488281 12.195312 L 16.9375 13.742188 L 16.9375 12.195312 L 15.390625 12.195312 C 14.277344 12.195312 13.335938 11.375 13.179688 10.277344 L 12.703125 6.925781 C 12.6875 6.824219 12.679688 6.722656 12.679688 6.621094 C 12.679688 5.421875 13.652344 4.453125 14.847656 4.453125 Z M 14.847656 4.453125 " fill-opacity="1" fill-rule="nonzero"/><path fill="#92e0f7" d="M 14.226562 9.484375 C 14.226562 10.339844 14.917969 11.03125 15.773438 11.03125 L 21.992188 11.03125 C 22.117188 10.804688 22.207031 10.550781 22.242188 10.277344 L 22.722656 6.925781 C 22.738281 6.824219 22.746094 6.722656 22.746094 6.621094 C 22.746094 5.421875 21.773438 4.453125 20.574219 4.453125 L 14.847656 4.453125 C 14.632812 4.453125 14.421875 4.484375 14.226562 4.542969 Z M 14.226562 9.484375 " fill-opacity="1" fill-rule="nonzero"/><path fill="#ffffff" d="M 16.160156 9.097656 C 16.160156 9.3125 16.085938 9.492188 15.933594 9.644531 C 15.785156 9.796875 15.601562 9.871094 15.386719 9.871094 C 15.171875 9.871094 14.992188 9.796875 14.839844 9.644531 C 14.6875 9.492188 14.613281 9.3125 14.613281 9.097656 C 14.613281 8.882812 14.6875 8.699219 14.839844 8.550781 C 14.992188 8.398438 15.171875 8.324219 15.386719 8.324219 C 15.601562 8.324219 15.785156 8.398438 15.933594 8.550781 C 16.085938 8.699219 16.160156 8.882812 16.160156 9.097656 Z M 16.160156 9.097656 " fill-opacity="1" fill-rule="nonzero"/><path fill="#ffffff" d="M 18.484375 9.097656 C 18.484375 9.3125 18.410156 9.492188 18.257812 9.644531 C 18.105469 9.796875 17.921875 9.871094 17.710938 9.871094 C 17.496094 9.871094 17.3125 9.796875 17.164062 9.644531 C 17.011719 9.492188 16.933594 9.3125 16.933594 9.097656 C 16.933594 8.882812 17.011719 8.699219 17.164062 8.550781 C 17.3125 8.398438 17.496094 8.324219 17.710938 8.324219 C 17.921875 8.324219 18.105469 8.398438 18.257812 8.550781 C 18.410156 8.699219 18.484375 8.882812 18.484375 9.097656 Z M 18.484375 9.097656 " fill-opacity="1" fill-rule="nonzero"/><path fill="#ffffff" d="M 20.804688 9.097656 C 20.804688 9.3125 20.730469 9.492188 20.578125 9.644531 C 20.429688 9.796875 20.246094 9.871094 20.03125 9.871094 C 19.820312 9.871094 19.636719 9.796875 19.484375 9.644531 C 19.332031 9.492188 19.257812 9.3125 19.257812 9.097656 C 19.257812 8.882812 19.332031 8.699219 19.484375 8.550781 C 19.636719 8.398438 19.820312 8.324219 20.03125 8.324219 C 20.246094 8.324219 20.429688 8.398438 20.578125 8.550781 C 20.730469 8.699219 20.804688 8.882812 20.804688 9.097656 Z M 20.804688 9.097656 " fill-opacity="1" fill-rule="nonzero"/><path fill="#6ec5e7" d="M 15.152344 15.289062 L 9.425781 15.289062 C 8.230469 15.289062 7.257812 16.261719 7.257812 17.457031 C 7.257812 17.5625 7.265625 17.664062 7.28125 17.765625 L 7.757812 21.117188 C 7.914062 22.214844 8.855469 23.03125 9.96875 23.03125 L 11.515625 23.03125 L 13.066406 24.582031 L 13.066406 23.03125 L 14.613281 23.03125 C 15.722656 23.03125 16.664062 22.214844 16.820312 21.117188 L 17.300781 17.765625 C 17.316406 17.664062 17.324219 17.5625 17.324219 17.457031 C 17.324219 16.261719 16.351562 15.289062 15.152344 15.289062 Z M 15.152344 15.289062 " fill-opacity="1" fill-rule="nonzero"/><path fill="#92e0f7" d="M 15.777344 20.324219 C 15.777344 21.175781 15.082031 21.871094 14.230469 21.871094 L 8.011719 21.871094 C 7.886719 21.640625 7.796875 21.386719 7.757812 21.117188 L 7.28125 17.765625 C 7.265625 17.664062 7.257812 17.5625 7.257812 17.457031 C 7.257812 16.261719 8.230469 15.289062 9.425781 15.289062 L 15.15625 15.289062 C 15.371094 15.289062 15.578125 15.324219 15.777344 15.382812 Z M 15.777344 20.324219 " fill-opacity="1" fill-rule="nonzero"/><path fill="#ffffff" d="M 15.390625 19.933594 C 15.390625 20.148438 15.3125 20.332031 15.164062 20.484375 C 15.011719 20.632812 14.828125 20.710938 14.617188 20.710938 C 14.402344 20.710938 14.21875 20.632812 14.066406 20.484375 C 13.917969 20.332031 13.839844 20.148438 13.839844 19.933594 C 13.839844 19.722656 13.917969 19.539062 14.066406 19.386719 C 14.21875 19.238281 14.402344 19.160156 14.617188 19.160156 C 14.828125 19.160156 15.011719 19.238281 15.164062 19.386719 C 15.3125 19.539062 15.390625 19.722656 15.390625 19.933594 Z M 15.390625 19.933594 " fill-opacity="1" fill-rule="nonzero"/><path fill="#ffffff" d="M 13.066406 19.933594 C 13.066406 20.148438 12.992188 20.332031 12.839844 20.484375 C 12.6875 20.632812 12.507812 20.710938 12.292969 20.710938 C 12.078125 20.710938 11.898438 20.632812 11.746094 20.484375 C 11.59375 20.332031 11.519531 20.148438 11.519531 19.933594 C 11.519531 19.722656 11.59375 19.539062 11.746094 19.386719 C 11.898438 19.238281 12.078125 19.160156 12.292969 19.160156 C 12.507812 19.160156 12.6875 19.238281 12.839844 19.386719 C 12.992188 19.539062 13.066406 19.722656 13.066406 19.933594 Z M 13.066406 19.933594 " fill-opacity="1" fill-rule="nonzero"/><path fill="#ffffff" d="M 10.746094 19.933594 C 10.746094 20.148438 10.667969 20.332031 10.519531 20.484375 C 10.367188 20.632812 10.183594 20.710938 9.96875 20.710938 C 9.757812 20.710938 9.574219 20.632812 9.421875 20.484375 C 9.273438 20.332031 9.195312 20.148438 9.195312 19.933594 C 9.195312 19.722656 9.273438 19.539062 9.421875 19.386719 C 9.574219 19.238281 9.757812 19.160156 9.96875 19.160156 C 10.183594 19.160156 10.367188 19.238281 10.519531 19.386719 C 10.667969 19.539062 10.746094 19.722656 10.746094 19.933594 Z M 10.746094 19.933594 " fill-opacity="1" fill-rule="nonzero"/></svg>