<svg xmlns="http://www.w3.org/2000/svg" xmlns:xlink="http://www.w3.org/1999/xlink" width="40" zoomAndPan="magnify" viewBox="0 0 30 30.000001" height="40" preserveAspectRatio="xMidYMid meet" version="1.0"><defs><clipPath id="84845e6c63"><path d="M 3.386719 18 L 11 18 L 11 26.128906 L 3.386719 26.128906 Z M 3.386719 18 " clip-rule="nonzero"/></clipPath><clipPath id="4a8601f354"><path d="M 11 17 L 19 17 L 19 26.128906 L 11 26.128906 Z M 11 17 " clip-rule="nonzero"/></clipPath><clipPath id="7148f343d9"><path d="M 19 15 L 26.613281 15 L 26.613281 26.128906 L 19 26.128906 Z M 19 15 " clip-rule="nonzero"/></clipPath><clipPath id="bddb1045bf"><path d="M 16 2.902344 L 23 2.902344 L 23 9 L 16 9 Z M 16 2.902344 " clip-rule="nonzero"/></clipPath><clipPath id="0c37b1eeab"><path d="M 21 15 L 26.613281 15 L 26.613281 25 L 21 25 Z M 21 15 " clip-rule="nonzero"/></clipPath></defs><path fill="#f8d858" d="M 15 4.453125 C 14.617188 4.453125 14.242188 4.488281 13.867188 4.5625 C 13.492188 4.636719 13.128906 4.746094 12.777344 4.894531 C 12.425781 5.039062 12.089844 5.21875 11.773438 5.429688 C 11.457031 5.640625 11.164062 5.882812 10.894531 6.152344 C 10.625 6.421875 10.382812 6.714844 10.171875 7.03125 C 9.960938 7.347656 9.78125 7.683594 9.636719 8.035156 C 9.488281 8.386719 9.378906 8.75 9.304688 9.125 C 9.230469 9.5 9.195312 9.875 9.195312 10.257812 C 9.195312 10.640625 9.230469 11.015625 9.304688 11.390625 C 9.378906 11.765625 9.488281 12.128906 9.636719 12.480469 C 9.78125 12.832031 9.960938 13.167969 10.171875 13.484375 C 10.382812 13.800781 10.625 14.09375 10.894531 14.363281 C 11.164062 14.632812 11.457031 14.875 11.773438 15.085938 C 12.089844 15.296875 12.425781 15.476562 12.777344 15.621094 C 13.128906 15.769531 13.492188 15.878906 13.867188 15.953125 C 14.242188 16.027344 14.617188 16.066406 15 16.066406 C 15.382812 16.066406 15.757812 16.027344 16.132812 15.953125 C 16.507812 15.878906 16.871094 15.769531 17.222656 15.621094 C 17.574219 15.476562 17.910156 15.296875 18.226562 15.085938 C 18.542969 14.875 18.835938 14.632812 19.105469 14.363281 C 19.375 14.09375 19.617188 13.800781 19.828125 13.484375 C 20.039062 13.167969 20.21875 12.832031 20.363281 12.480469 C 20.511719 12.128906 20.621094 11.765625 20.695312 11.390625 C 20.769531 11.015625 20.804688 10.640625 20.804688 10.257812 L 15 10.257812 Z M 15 4.453125 " fill-opacity="1" fill-rule="nonzero"/><path fill="#fcef73" d="M 11.742188 5.453125 C 11.363281 6.011719 11.089844 6.617188 10.921875 7.269531 C 10.757812 7.925781 10.703125 8.585938 10.769531 9.257812 C 10.832031 9.929688 11.007812 10.574219 11.296875 11.183594 C 11.582031 11.792969 11.964844 12.335938 12.441406 12.816406 C 12.921875 13.292969 13.464844 13.675781 14.074219 13.960938 C 14.6875 14.25 15.328125 14.425781 16 14.488281 C 16.671875 14.554688 17.332031 14.5 17.988281 14.335938 C 18.640625 14.167969 19.246094 13.894531 19.804688 13.515625 C 20.476562 12.53125 20.808594 11.445312 20.804688 10.257812 L 15 10.257812 L 15 4.453125 C 13.8125 4.449219 12.726562 4.785156 11.742188 5.453125 Z M 11.742188 5.453125 " fill-opacity="1" fill-rule="nonzero"/><g clip-path="url(#84845e6c63)"><path fill="#1a489c" d="M 10.355469 23.03125 L 6.871094 18.773438 L 3.386719 23.03125 L 4.933594 23.03125 L 4.933594 26.128906 L 8.804688 26.128906 L 8.804688 23.03125 Z M 10.355469 23.03125 " fill-opacity="1" fill-rule="nonzero"/></g><g clip-path="url(#4a8601f354)"><path fill="#508c45" d="M 18.484375 21.484375 L 15 17.226562 L 11.515625 21.484375 L 13.066406 21.484375 L 13.066406 26.128906 L 16.933594 26.128906 L 16.933594 21.484375 Z M 18.484375 21.484375 " fill-opacity="1" fill-rule="nonzero"/></g><g clip-path="url(#7148f343d9)"><path fill="#1a489c" d="M 26.613281 19.933594 L 23.128906 15.675781 L 19.644531 19.933594 L 21.195312 19.933594 L 21.195312 26.128906 L 25.066406 26.128906 L 25.066406 19.933594 Z M 26.613281 19.933594 " fill-opacity="1" fill-rule="nonzero"/></g><g clip-path="url(#bddb1045bf)"><path fill="#f8d858" d="M 22.355469 8.710938 C 22.355469 8.328125 22.316406 7.949219 22.242188 7.578125 C 22.167969 7.203125 22.058594 6.839844 21.914062 6.488281 C 21.765625 6.136719 21.589844 5.800781 21.375 5.484375 C 21.164062 5.167969 20.921875 4.875 20.652344 4.605469 C 20.382812 4.335938 20.089844 4.09375 19.773438 3.882812 C 19.457031 3.671875 19.121094 3.492188 18.769531 3.34375 C 18.417969 3.199219 18.054688 3.089844 17.679688 3.015625 C 17.308594 2.941406 16.929688 2.902344 16.546875 2.902344 L 16.546875 8.710938 Z M 22.355469 8.710938 " fill-opacity="1" fill-rule="nonzero"/></g><path fill="#eeab45" d="M 19.644531 8.710938 C 19.644531 8.300781 19.566406 7.902344 19.410156 7.523438 C 19.253906 7.144531 19.027344 6.808594 18.738281 6.519531 C 18.449219 6.230469 18.113281 6.003906 17.734375 5.847656 C 17.355469 5.691406 16.960938 5.613281 16.546875 5.613281 L 16.546875 8.710938 Z M 19.644531 8.710938 " fill-opacity="1" fill-rule="nonzero"/><path fill="#eeab45" d="M 15 7.160156 C 14.589844 7.160156 14.195312 7.238281 13.816406 7.398438 C 13.433594 7.554688 13.101562 7.777344 12.808594 8.066406 C 12.519531 8.359375 12.296875 8.695312 12.140625 9.074219 C 11.980469 9.453125 11.902344 9.847656 11.902344 10.257812 C 11.902344 10.667969 11.980469 11.0625 12.140625 11.441406 C 12.296875 11.824219 12.519531 12.15625 12.808594 12.449219 C 13.101562 12.738281 13.433594 12.960938 13.816406 13.117188 C 14.195312 13.277344 14.589844 13.355469 15 13.355469 C 15.410156 13.355469 15.804688 13.277344 16.183594 13.117188 C 16.566406 12.960938 16.898438 12.738281 17.191406 12.449219 C 17.480469 12.15625 17.703125 11.824219 17.859375 11.441406 C 18.019531 11.0625 18.097656 10.667969 18.097656 10.257812 L 15 10.257812 Z M 15 7.160156 " fill-opacity="1" fill-rule="nonzero"/><path fill="#f2c14e" d="M 15 7.160156 C 14.453125 7.160156 13.945312 7.296875 13.46875 7.566406 C 13.304688 7.863281 13.1875 8.175781 13.121094 8.507812 C 13.058594 8.839844 13.046875 9.175781 13.09375 9.511719 C 13.140625 9.847656 13.238281 10.167969 13.386719 10.46875 C 13.539062 10.773438 13.730469 11.046875 13.972656 11.285156 C 14.210938 11.523438 14.484375 11.71875 14.785156 11.871094 C 15.089844 12.019531 15.410156 12.117188 15.746094 12.164062 C 16.082031 12.210938 16.417969 12.199219 16.75 12.136719 C 17.082031 12.070312 17.394531 11.953125 17.691406 11.785156 C 17.960938 11.3125 18.097656 10.804688 18.097656 10.257812 L 15 10.257812 Z M 15 7.160156 " fill-opacity="1" fill-rule="nonzero"/><path fill="#5c9d51" d="M 13.839844 18.644531 L 13.839844 19.933594 C 13.839844 20.449219 13.910156 20.949219 14.054688 21.441406 C 14.195312 21.933594 14.40625 22.398438 14.679688 22.828125 C 14.953125 23.261719 15.28125 23.648438 15.664062 23.988281 C 16.050781 24.328125 16.472656 24.605469 16.933594 24.828125 L 16.933594 21.484375 L 18.484375 21.484375 L 15 17.226562 Z M 13.839844 18.644531 " fill-opacity="1" fill-rule="nonzero"/><g clip-path="url(#0c37b1eeab)"><path fill="#2b66b9" d="M 21.96875 17.097656 L 21.96875 19.933594 C 21.96875 20.449219 22.039062 20.949219 22.183594 21.441406 C 22.324219 21.933594 22.535156 22.398438 22.808594 22.828125 C 23.082031 23.261719 23.410156 23.648438 23.792969 23.988281 C 24.179688 24.328125 24.601562 24.605469 25.066406 24.824219 L 25.066406 19.933594 L 26.613281 19.933594 L 23.128906 15.675781 Z M 21.96875 17.097656 " fill-opacity="1" fill-rule="nonzero"/></g><path fill="#2b66b9" d="M 5.722656 20.179688 C 5.742188 20.667969 5.832031 21.148438 5.984375 21.617188 C 6.136719 22.082031 6.347656 22.519531 6.621094 22.929688 C 6.890625 23.339844 7.210938 23.707031 7.582031 24.027344 C 7.953125 24.347656 8.363281 24.617188 8.804688 24.828125 L 8.804688 23.03125 L 10.355469 23.03125 L 6.871094 18.773438 Z M 5.722656 20.179688 " fill-opacity="1" fill-rule="nonzero"/></svg>