<svg xmlns="http://www.w3.org/2000/svg" xmlns:xlink="http://www.w3.org/1999/xlink" width="40" zoomAndPan="magnify" viewBox="0 0 30 30.000001" height="40" preserveAspectRatio="xMidYMid meet" version="1.0"><defs><clipPath id="3f235717d9"><path d="M 7.261719 4 L 22.503906 4 L 22.503906 26.128906 L 7.261719 26.128906 Z M 7.261719 4 " clip-rule="nonzero"/></clipPath><clipPath id="97c6f10565"><path d="M 8 4 L 22.503906 4 L 22.503906 26 L 8 26 Z M 8 4 " clip-rule="nonzero"/></clipPath><clipPath id="bf28a508b6"><path d="M 12 2.902344 L 18 2.902344 L 18 7 L 12 7 Z M 12 2.902344 " clip-rule="nonzero"/></clipPath><clipPath id="1abbec0402"><path d="M 13 2.902344 L 18 2.902344 L 18 6 L 13 6 Z M 13 2.902344 " clip-rule="nonzero"/></clipPath></defs><g clip-path="url(#3f235717d9)"><path fill="#9d9e9d" d="M 12.214844 4.074219 L 8.785156 4.074219 C 8.585938 4.074219 8.390625 4.113281 8.203125 4.191406 C 8.015625 4.269531 7.851562 4.382812 7.710938 4.527344 C 7.566406 4.671875 7.457031 4.839844 7.378906 5.03125 C 7.300781 5.21875 7.261719 5.417969 7.261719 5.621094 L 7.261719 24.570312 C 7.261719 24.777344 7.300781 24.972656 7.378906 25.164062 C 7.457031 25.351562 7.566406 25.519531 7.710938 25.664062 C 7.851562 25.808594 8.015625 25.921875 8.203125 26 C 8.390625 26.078125 8.585938 26.117188 8.785156 26.117188 L 20.980469 26.117188 C 21.183594 26.117188 21.378906 26.078125 21.5625 26 C 21.75 25.921875 21.914062 25.808594 22.058594 25.664062 C 22.203125 25.519531 22.3125 25.351562 22.390625 25.164062 C 22.464844 24.972656 22.503906 24.777344 22.503906 24.570312 L 22.503906 5.621094 C 22.503906 5.417969 22.464844 5.21875 22.390625 5.03125 C 22.3125 4.839844 22.203125 4.671875 22.058594 4.527344 C 21.914062 4.382812 21.75 4.269531 21.5625 4.191406 C 21.378906 4.113281 21.183594 4.074219 20.980469 4.074219 L 17.550781 4.074219 " fill-opacity="1" fill-rule="nonzero"/></g><g clip-path="url(#97c6f10565)"><path fill="#bcbdbc" d="M 20.980469 4.074219 L 8.785156 4.074219 C 8.515625 4.074219 8.261719 4.148438 8.023438 4.289062 L 8.023438 9.875 C 8.023438 10.851562 8.117188 11.816406 8.296875 12.773438 C 8.476562 13.730469 8.742188 14.664062 9.097656 15.570312 C 9.449219 16.476562 9.882812 17.339844 10.398438 18.164062 C 10.914062 18.984375 11.5 19.753906 12.15625 20.464844 C 12.816406 21.171875 13.53125 21.816406 14.308594 22.386719 C 15.085938 22.960938 15.910156 23.453125 16.777344 23.871094 C 17.648438 24.285156 18.546875 24.613281 19.476562 24.855469 C 20.410156 25.097656 21.351562 25.25 22.3125 25.3125 C 22.4375 25.082031 22.503906 24.835938 22.503906 24.570312 L 22.503906 5.621094 C 22.503906 5.417969 22.464844 5.21875 22.390625 5.03125 C 22.3125 4.839844 22.203125 4.671875 22.058594 4.527344 C 21.914062 4.382812 21.75 4.269531 21.5625 4.191406 C 21.378906 4.113281 21.183594 4.074219 20.980469 4.074219 Z M 20.980469 4.074219 " fill-opacity="1" fill-rule="nonzero"/></g><path fill="#55b4f0" d="M 8.785156 5.621094 L 20.980469 5.621094 L 20.980469 24.570312 L 8.785156 24.570312 Z M 8.785156 5.621094 " fill-opacity="1" fill-rule="nonzero"/><path fill="#7ec8f2" d="M 20.980469 5.621094 L 8.785156 5.621094 L 8.785156 14.703125 C 9.160156 15.855469 9.660156 16.949219 10.289062 17.980469 C 10.914062 19.011719 11.648438 19.957031 12.496094 20.8125 C 13.339844 21.667969 14.269531 22.414062 15.289062 23.050781 C 16.304688 23.683594 17.382812 24.191406 18.515625 24.570312 L 20.980469 24.570312 Z M 20.980469 5.621094 " fill-opacity="1" fill-rule="nonzero"/><path fill="#745749" d="M 15.683594 9.914062 C 15.882812 9.628906 16.152344 9.488281 16.496094 9.488281 C 16.847656 9.488281 17.121094 9.636719 17.320312 9.9375 L 17.601562 10.367188 C 17.726562 10.554688 17.785156 10.761719 17.785156 10.988281 C 17.785156 11.214844 17.707031 11.410156 17.550781 11.570312 C 17.394531 11.726562 17.203125 11.808594 16.980469 11.808594 C 16.757812 11.808594 16.566406 11.730469 16.40625 11.570312 L 16.195312 11.351562 " fill-opacity="1" fill-rule="nonzero"/><path fill="#886f65" d="M 16.898438 9.9375 C 16.75 9.710938 16.542969 9.570312 16.28125 9.515625 C 16.03125 9.570312 15.832031 9.703125 15.683594 9.914062 L 16.191406 11.355469 L 16.40625 11.570312 C 16.507812 11.671875 16.628906 11.742188 16.765625 11.78125 C 16.941406 11.730469 17.085938 11.632812 17.195312 11.488281 C 17.308594 11.339844 17.363281 11.175781 17.363281 10.992188 C 17.363281 10.765625 17.300781 10.558594 17.179688 10.367188 Z M 16.898438 9.9375 " fill-opacity="1" fill-rule="nonzero"/><path fill="#745749" d="M 13.945312 9.921875 C 13.746094 9.632812 13.476562 9.488281 13.128906 9.488281 C 12.773438 9.488281 12.5 9.636719 12.304688 9.9375 L 12.019531 10.367188 C 11.898438 10.554688 11.835938 10.761719 11.835938 10.988281 C 11.835938 11.214844 11.914062 11.410156 12.074219 11.570312 C 12.230469 11.730469 12.421875 11.808594 12.644531 11.808594 C 12.867188 11.808594 13.058594 11.730469 13.214844 11.570312 L 13.429688 11.351562 " fill-opacity="1" fill-rule="nonzero"/><path fill="#886f65" d="M 13.40625 9.535156 C 13.179688 9.601562 12.996094 9.738281 12.863281 9.9375 L 12.582031 10.367188 C 12.457031 10.554688 12.398438 10.761719 12.394531 10.988281 C 12.398438 11.160156 12.445312 11.316406 12.542969 11.457031 C 12.640625 11.597656 12.765625 11.695312 12.925781 11.757812 C 13.035156 11.714844 13.132812 11.652344 13.21875 11.570312 L 13.429688 11.351562 L 13.945312 9.921875 C 13.8125 9.726562 13.632812 9.597656 13.40625 9.535156 Z M 13.40625 9.535156 " fill-opacity="1" fill-rule="nonzero"/><g clip-path="url(#bf28a508b6)"><path fill="#574138" d="M 16.027344 4.074219 C 16.027344 3.921875 15.996094 3.773438 15.941406 3.628906 C 15.882812 3.488281 15.800781 3.363281 15.691406 3.253906 C 15.585938 3.144531 15.460938 3.0625 15.320312 3.003906 C 15.179688 2.945312 15.035156 2.914062 14.882812 2.914062 C 14.730469 2.914062 14.585938 2.945312 14.445312 3.003906 C 14.304688 3.0625 14.183594 3.144531 14.074219 3.253906 C 13.96875 3.363281 13.886719 3.488281 13.828125 3.628906 C 13.769531 3.773438 13.742188 3.921875 13.742188 4.074219 L 12.214844 4.074219 L 12.214844 5.621094 C 12.214844 5.835938 12.289062 6.015625 12.441406 6.167969 C 12.589844 6.320312 12.769531 6.394531 12.980469 6.394531 L 16.789062 6.394531 C 17 6.394531 17.179688 6.320312 17.328125 6.167969 C 17.476562 6.015625 17.550781 5.835938 17.550781 5.621094 L 17.550781 4.074219 Z M 16.027344 4.074219 " fill-opacity="1" fill-rule="nonzero"/></g><path fill="#fce95f" d="M 12.214844 14.515625 L 10.691406 14.515625 C 10.585938 14.515625 10.496094 14.476562 10.421875 14.402344 C 10.347656 14.328125 10.3125 14.234375 10.3125 14.128906 L 10.3125 12.582031 L 11.074219 12.582031 L 11.074219 13.742188 L 12.214844 13.742188 Z M 12.214844 14.515625 " fill-opacity="1" fill-rule="nonzero"/><path fill="#fce95f" d="M 11.074219 9.875 L 10.3125 9.875 L 10.3125 8.328125 C 10.3125 8.222656 10.347656 8.128906 10.421875 8.054688 C 10.496094 7.980469 10.585938 7.941406 10.691406 7.941406 L 12.214844 7.941406 L 12.214844 8.714844 L 11.074219 8.714844 Z M 11.074219 9.875 " fill-opacity="1" fill-rule="nonzero"/><path fill="#fce95f" d="M 19.457031 9.875 L 18.695312 9.875 L 18.695312 8.714844 L 17.550781 8.714844 L 17.550781 7.941406 L 19.074219 7.941406 C 19.179688 7.941406 19.269531 7.980469 19.34375 8.054688 C 19.417969 8.128906 19.457031 8.222656 19.457031 8.328125 Z M 19.457031 9.875 " fill-opacity="1" fill-rule="nonzero"/><path fill="#fce95f" d="M 19.074219 14.515625 L 17.550781 14.515625 L 17.550781 13.742188 L 18.695312 13.742188 L 18.695312 12.582031 L 19.457031 12.582031 L 19.457031 14.128906 C 19.457031 14.234375 19.417969 14.328125 19.34375 14.402344 C 19.269531 14.476562 19.179688 14.515625 19.074219 14.515625 Z M 19.074219 14.515625 " fill-opacity="1" fill-rule="nonzero"/><path fill="#ffffff" d="M 10.3125 15.675781 L 16.789062 15.675781 L 16.789062 16.449219 L 10.3125 16.449219 Z M 10.3125 15.675781 " fill-opacity="1" fill-rule="nonzero"/><path fill="#ffffff" d="M 17.550781 15.675781 L 19.457031 15.675781 L 19.457031 16.449219 L 17.550781 16.449219 Z M 17.550781 15.675781 " fill-opacity="1" fill-rule="nonzero"/><path fill="#dfe0df" d="M 10.3125 17.609375 L 16.027344 17.609375 L 16.027344 18.382812 L 10.3125 18.382812 Z M 10.3125 17.609375 " fill-opacity="1" fill-rule="nonzero"/><path fill="#ffffff" d="M 16.789062 17.609375 L 19.457031 17.609375 L 19.457031 18.382812 L 16.789062 18.382812 Z M 16.789062 17.609375 " fill-opacity="1" fill-rule="nonzero"/><path fill="#dfe0df" d="M 10.3125 19.542969 L 11.835938 19.542969 L 11.835938 20.316406 L 10.3125 20.316406 Z M 10.3125 19.542969 " fill-opacity="1" fill-rule="nonzero"/><path fill="#ffffff" d="M 12.597656 19.542969 L 19.457031 19.542969 L 19.457031 20.316406 L 12.597656 20.316406 Z M 12.597656 19.542969 " fill-opacity="1" fill-rule="nonzero"/><path fill="#dfe0df" d="M 10.3125 21.476562 L 14.121094 21.476562 L 14.121094 22.25 L 10.3125 22.25 Z M 10.3125 21.476562 " fill-opacity="1" fill-rule="nonzero"/><path fill="#ffffff" d="M 14.882812 21.476562 L 19.457031 21.476562 L 19.457031 22.25 L 14.882812 22.25 Z M 14.882812 21.476562 " fill-opacity="1" fill-rule="nonzero"/><path fill="#574138" d="M 13.675781 12.0625 C 13.71875 12.152344 13.742188 12.246094 13.742188 12.34375 C 13.742188 12.515625 13.800781 12.664062 13.921875 12.785156 C 14.042969 12.910156 14.1875 12.96875 14.355469 12.96875 L 15.265625 12.96875 C 15.433594 12.96875 15.582031 12.910156 15.699219 12.785156 C 15.820312 12.664062 15.882812 12.515625 15.882812 12.34375 C 15.882812 12.246094 15.902344 12.152344 15.945312 12.0625 C 16.15625 11.636719 16.261719 11.183594 16.261719 10.707031 C 16.261719 10.476562 16.183594 10.28125 16.023438 10.117188 C 15.863281 9.957031 15.671875 9.875 15.445312 9.875 L 14.175781 9.875 C 13.953125 9.875 13.757812 9.957031 13.597656 10.117188 C 13.4375 10.28125 13.359375 10.476562 13.359375 10.707031 C 13.359375 11.183594 13.464844 11.636719 13.675781 12.0625 Z M 13.675781 12.0625 " fill-opacity="1" fill-rule="nonzero"/><path fill="#745749" d="M 15.445312 9.875 L 14.175781 9.875 C 13.980469 9.875 13.804688 9.941406 13.652344 10.070312 C 13.5 10.199219 13.40625 10.363281 13.375 10.5625 C 13.402344 10.953125 13.503906 11.324219 13.675781 11.675781 C 13.71875 11.765625 13.742188 11.859375 13.742188 11.957031 C 13.742188 12.128906 13.800781 12.277344 13.921875 12.398438 C 14.042969 12.523438 14.1875 12.582031 14.355469 12.582031 L 15.265625 12.582031 C 15.433594 12.582031 15.582031 12.523438 15.699219 12.398438 C 15.820312 12.277344 15.882812 12.128906 15.882812 11.957031 C 15.882812 11.859375 15.902344 11.765625 15.945312 11.675781 C 16.117188 11.324219 16.21875 10.953125 16.25 10.5625 C 16.214844 10.367188 16.121094 10.199219 15.96875 10.070312 C 15.820312 9.941406 15.644531 9.875 15.445312 9.875 Z M 15.445312 9.875 " fill-opacity="1" fill-rule="nonzero"/><path fill="#ffffff" d="M 11.835938 20.097656 L 11.835938 19.542969 L 11.378906 19.542969 C 11.527344 19.730469 11.679688 19.914062 11.835938 20.097656 Z M 11.835938 20.097656 " fill-opacity="1" fill-rule="nonzero"/><path fill="#ffffff" d="M 10.3125 18.019531 C 10.386719 18.140625 10.46875 18.261719 10.550781 18.382812 L 16.027344 18.382812 L 16.027344 17.609375 L 10.3125 17.609375 Z M 10.3125 18.019531 " fill-opacity="1" fill-rule="nonzero"/><path fill="#ffffff" d="M 14.121094 22.238281 L 14.121094 21.476562 L 13.195312 21.476562 C 13.492188 21.742188 13.804688 21.992188 14.121094 22.238281 Z M 14.121094 22.238281 " fill-opacity="1" fill-rule="nonzero"/><g clip-path="url(#1abbec0402)"><path fill="#745749" d="M 16.027344 4.074219 C 16.027344 3.921875 15.996094 3.773438 15.941406 3.628906 C 15.882812 3.488281 15.800781 3.363281 15.691406 3.253906 C 15.585938 3.144531 15.460938 3.0625 15.320312 3.003906 C 15.179688 2.945312 15.035156 2.914062 14.882812 2.914062 C 14.730469 2.914062 14.585938 2.945312 14.445312 3.003906 C 14.304688 3.0625 14.183594 3.144531 14.074219 3.253906 C 13.96875 3.363281 13.886719 3.488281 13.828125 3.628906 C 13.769531 3.773438 13.742188 3.921875 13.742188 4.074219 L 13.109375 4.074219 C 13.269531 4.539062 13.550781 4.910156 13.945312 5.195312 C 14.339844 5.480469 14.78125 5.621094 15.265625 5.621094 L 17.550781 5.621094 L 17.550781 4.074219 Z M 16.027344 4.074219 " fill-opacity="1" fill-rule="nonzero"/></g></svg>