<svg xmlns="http://www.w3.org/2000/svg" xmlns:xlink="http://www.w3.org/1999/xlink" width="40" zoomAndPan="magnify" viewBox="0 0 30 30.000001" height="40" preserveAspectRatio="xMidYMid meet" version="1.0"><defs><clipPath id="8212bb3c5d"><path d="M 6.625 2.902344 L 22 2.902344 L 22 22 L 6.625 22 Z M 6.625 2.902344 " clip-rule="nonzero"/></clipPath><clipPath id="90bcb5c4fc"><path d="M 15 25 L 23.316406 25 L 23.316406 26.128906 L 15 26.128906 Z M 15 25 " clip-rule="nonzero"/></clipPath></defs><g clip-path="url(#8212bb3c5d)"><path fill="#ba4753" d="M 15.351562 21.179688 L 8.140625 21.179688 C 7.304688 21.179688 6.625 20.496094 6.625 19.65625 L 6.625 4.429688 C 6.625 3.585938 7.304688 2.90625 8.140625 2.90625 L 19.523438 2.90625 C 20.363281 2.90625 21.042969 3.585938 21.042969 4.429688 L 21.042969 18.894531 " fill-opacity="1" fill-rule="nonzero"/></g><path fill="#e1656e" d="M 18.386719 20.035156 L 7.761719 20.035156 C 7.554688 20.035156 7.382812 19.867188 7.382812 19.65625 L 7.382812 4.046875 C 7.382812 3.835938 7.554688 3.667969 7.761719 3.667969 L 18.386719 3.667969 C 18.59375 3.667969 18.765625 3.835938 18.765625 4.046875 L 18.765625 19.65625 C 18.765625 19.867188 18.59375 20.035156 18.386719 20.035156 Z M 18.386719 20.035156 " fill-opacity="1" fill-rule="nonzero"/><path fill="#eeeeee" d="M 7.761719 4.046875 L 19.902344 4.046875 L 19.902344 18.894531 L 7.761719 18.894531 Z M 7.761719 4.046875 " fill-opacity="1" fill-rule="nonzero"/><path fill="#ffffff" d="M 7.761719 4.046875 L 7.761719 16.230469 L 15.351562 16.230469 C 15.769531 16.230469 16.109375 15.886719 16.109375 15.46875 L 16.109375 4.046875 Z M 7.761719 4.046875 " fill-opacity="1" fill-rule="nonzero"/><path fill="#363a4f" d="M 9.660156 5.570312 L 18.007812 5.570312 L 18.007812 13.945312 L 9.660156 13.945312 Z M 9.660156 5.570312 " fill-opacity="1" fill-rule="nonzero"/><path fill="#4c506e" d="M 9.660156 5.570312 L 9.660156 12.042969 L 15.730469 12.042969 C 16.148438 12.042969 16.488281 11.699219 16.488281 11.28125 L 16.488281 5.570312 Z M 9.660156 5.570312 " fill-opacity="1" fill-rule="nonzero"/><path fill="#efbe9a" d="M 22.179688 25.746094 L 22.179688 24.605469 L 22.9375 23.082031 L 22.9375 18.894531 L 18.386719 18.894531 L 18.386719 15.085938 L 16.867188 15.085938 L 16.867188 20.417969 L 15.351562 20.417969 L 15.351562 23.082031 L 16.867188 24.605469 L 16.867188 25.746094 " fill-opacity="1" fill-rule="nonzero"/><g clip-path="url(#90bcb5c4fc)"><path fill="#ba4753" d="M 15.730469 25.367188 L 23.316406 25.367188 L 23.316406 26.128906 L 15.730469 26.128906 Z M 15.730469 25.367188 " fill-opacity="1" fill-rule="nonzero"/></g><path fill="#2c2f41" d="M 13.453125 19.65625 L 14.210938 19.65625 L 14.210938 20.417969 L 13.453125 20.417969 Z M 13.453125 19.65625 " fill-opacity="1" fill-rule="nonzero"/><path fill="#2c2f41" d="M 10.796875 6.710938 L 11.554688 6.710938 L 11.554688 7.472656 L 10.796875 7.472656 Z M 10.796875 6.710938 " fill-opacity="1" fill-rule="nonzero"/><path fill="#2c2f41" d="M 12.695312 8.996094 L 10.796875 8.996094 L 10.796875 8.234375 L 12.316406 8.234375 L 12.316406 6.710938 L 13.074219 6.710938 L 13.074219 8.617188 C 13.074219 8.824219 12.90625 8.996094 12.695312 8.996094 Z M 12.695312 8.996094 " fill-opacity="1" fill-rule="nonzero"/><path fill="#2c2f41" d="M 13.074219 12.804688 L 11.175781 12.804688 C 10.96875 12.804688 10.796875 12.632812 10.796875 12.421875 L 10.796875 9.757812 L 11.554688 9.757812 L 11.554688 12.042969 L 13.074219 12.042969 Z M 13.074219 12.804688 " fill-opacity="1" fill-rule="nonzero"/><path fill="#2c2f41" d="M 14.589844 12.804688 L 13.832031 12.804688 L 13.832031 11.28125 L 12.316406 11.28125 L 12.316406 10.519531 L 14.210938 10.519531 C 14.421875 10.519531 14.589844 10.691406 14.589844 10.898438 Z M 14.589844 12.804688 " fill-opacity="1" fill-rule="nonzero"/><path fill="#2c2f41" d="M 16.109375 12.042969 L 16.867188 12.042969 L 16.867188 12.804688 L 16.109375 12.804688 Z M 16.109375 12.042969 " fill-opacity="1" fill-rule="nonzero"/><path fill="#2c2f41" d="M 15.351562 11.28125 L 16.109375 11.28125 L 16.109375 12.042969 L 15.351562 12.042969 Z M 15.351562 11.28125 " fill-opacity="1" fill-rule="nonzero"/><path fill="#2c2f41" d="M 13.074219 8.996094 L 13.832031 8.996094 L 13.832031 9.757812 L 13.074219 9.757812 Z M 13.074219 8.996094 " fill-opacity="1" fill-rule="nonzero"/><path fill="#2c2f41" d="M 13.832031 8.234375 L 14.589844 8.234375 L 14.589844 8.996094 L 13.832031 8.996094 Z M 13.832031 8.234375 " fill-opacity="1" fill-rule="nonzero"/><path fill="#2c2f41" d="M 16.109375 8.996094 L 15.351562 8.996094 L 15.351562 7.472656 L 13.832031 7.472656 L 13.832031 6.710938 L 15.730469 6.710938 C 15.941406 6.710938 16.109375 6.882812 16.109375 7.09375 Z M 16.109375 8.996094 " fill-opacity="1" fill-rule="nonzero"/><path fill="#2c2f41" d="M 15.351562 9.757812 L 16.109375 9.757812 L 16.109375 10.519531 L 15.351562 10.519531 Z M 15.351562 9.757812 " fill-opacity="1" fill-rule="nonzero"/><path fill="#db9b7c" d="M 21.042969 18.894531 L 21.800781 18.894531 L 21.800781 21.179688 L 21.042969 21.179688 Z M 21.042969 18.894531 " fill-opacity="1" fill-rule="nonzero"/><path fill="#db9b7c" d="M 21.042969 18.894531 L 21.800781 18.894531 L 21.800781 21.179688 L 21.042969 21.179688 Z M 21.042969 18.894531 " fill-opacity="1" fill-rule="nonzero"/><path fill="#db9b7c" d="M 19.523438 18.894531 L 20.28125 18.894531 L 20.28125 21.179688 L 19.523438 21.179688 Z M 19.523438 18.894531 " fill-opacity="1" fill-rule="nonzero"/><path fill="#db9b7c" d="M 19.523438 18.894531 L 20.28125 18.894531 L 20.28125 21.179688 L 19.523438 21.179688 Z M 19.523438 18.894531 " fill-opacity="1" fill-rule="nonzero"/><path fill="#db9b7c" d="M 18.007812 18.894531 L 18.765625 18.894531 L 18.765625 21.179688 L 18.007812 21.179688 Z M 18.007812 18.894531 " fill-opacity="1" fill-rule="nonzero"/><path fill="#db9b7c" d="M 16.488281 20.417969 L 17.246094 20.417969 L 17.246094 21.941406 L 16.488281 21.941406 Z M 16.488281 20.417969 " fill-opacity="1" fill-rule="nonzero"/><path fill="#db9b7c" d="M 16.488281 20.417969 L 17.246094 20.417969 L 17.246094 21.941406 L 16.488281 21.941406 Z M 16.488281 20.417969 " fill-opacity="1" fill-rule="nonzero"/><path fill="#db9b7c" d="M 18.007812 18.894531 L 18.765625 18.894531 L 18.765625 21.179688 L 18.007812 21.179688 Z M 18.007812 18.894531 " fill-opacity="1" fill-rule="nonzero"/></svg>