<svg xmlns="http://www.w3.org/2000/svg" xmlns:xlink="http://www.w3.org/1999/xlink" width="40" zoomAndPan="magnify" viewBox="0 0 30 30.000001" height="40" preserveAspectRatio="xMidYMid meet" version="1.0"><defs><clipPath id="4556bfa546"><path d="M 11 2.902344 L 19 2.902344 L 19 10 L 11 10 Z M 11 2.902344 " clip-rule="nonzero"/></clipPath><clipPath id="4b721a997b"><path d="M 11 2.902344 L 18 2.902344 L 18 9 L 11 9 Z M 11 2.902344 " clip-rule="nonzero"/></clipPath><clipPath id="09f5b2ce95"><path d="M 5 24 L 9 24 L 9 26.128906 L 5 26.128906 Z M 5 24 " clip-rule="nonzero"/></clipPath><clipPath id="436c4809cd"><path d="M 3.386719 15 L 6 15 L 6 25 L 3.386719 25 Z M 3.386719 15 " clip-rule="nonzero"/></clipPath><clipPath id="b08c2aa405"><path d="M 3.386719 9 L 8 9 L 8 16 L 3.386719 16 Z M 3.386719 9 " clip-rule="nonzero"/></clipPath><clipPath id="e79eb67b8f"><path d="M 3.386719 3 L 8 3 L 8 9 L 3.386719 9 Z M 3.386719 3 " clip-rule="nonzero"/></clipPath><clipPath id="bebab37c99"><path d="M 3.386719 2.902344 L 9 2.902344 L 9 7 L 3.386719 7 Z M 3.386719 2.902344 " clip-rule="nonzero"/></clipPath><clipPath id="1a0919b074"><path d="M 3.386719 24 L 7 24 L 7 26.128906 L 3.386719 26.128906 Z M 3.386719 24 " clip-rule="nonzero"/></clipPath><clipPath id="8e8e1ea4f7"><path d="M 21 24 L 25 24 L 25 26.128906 L 21 26.128906 Z M 21 24 " clip-rule="nonzero"/></clipPath><clipPath id="245a698fff"><path d="M 24 15 L 26.613281 15 L 26.613281 25 L 24 25 Z M 24 15 " clip-rule="nonzero"/></clipPath><clipPath id="9c4afc76e4"><path d="M 22 9 L 26.613281 9 L 26.613281 16 L 22 16 Z M 22 9 " clip-rule="nonzero"/></clipPath><clipPath id="8c1a15b24d"><path d="M 22 3 L 26.613281 3 L 26.613281 9 L 22 9 Z M 22 3 " clip-rule="nonzero"/></clipPath><clipPath id="26a5cb1f40"><path d="M 21 2.902344 L 26.613281 2.902344 L 26.613281 7 L 21 7 Z M 21 2.902344 " clip-rule="nonzero"/></clipPath><clipPath id="76784a7501"><path d="M 23 24 L 26.613281 24 L 26.613281 26.128906 L 23 26.128906 Z M 23 24 " clip-rule="nonzero"/></clipPath></defs><g clip-path="url(#4556bfa546)"><path fill="#ba4753" d="M 18.484375 9.871094 L 15 9.871094 C 13.074219 9.871094 11.515625 8.3125 11.515625 6.386719 C 11.515625 4.460938 13.074219 2.902344 15 2.902344 C 16.925781 2.902344 18.484375 4.460938 18.484375 6.386719 Z M 18.484375 9.871094 " fill-opacity="1" fill-rule="nonzero"/></g><g clip-path="url(#4b721a997b)"><path fill="#e1656e" d="M 12.105469 8.324219 L 16.546875 8.324219 C 16.976562 8.324219 17.324219 7.976562 17.324219 7.546875 L 17.324219 3.796875 C 16.707031 3.242188 15.894531 2.902344 15 2.902344 C 13.074219 2.902344 11.515625 4.460938 11.515625 6.386719 C 11.515625 7.105469 11.734375 7.769531 12.105469 8.324219 Z M 12.105469 8.324219 " fill-opacity="1" fill-rule="nonzero"/></g><g clip-path="url(#09f5b2ce95)"><path fill="#546ded" d="M 5.710938 24.582031 L 5.710938 26.128906 L 8.03125 26.128906 L 8.03125 25.355469 C 8.03125 24.925781 7.6875 24.582031 7.257812 24.582031 Z M 5.710938 24.582031 " fill-opacity="1" fill-rule="nonzero"/></g><g clip-path="url(#436c4809cd)"><path fill="#4c506e" d="M 3.386719 15.675781 L 5.710938 15.675781 L 5.710938 24.582031 L 3.386719 24.582031 Z M 3.386719 15.675781 " fill-opacity="1" fill-rule="nonzero"/></g><path fill="#787faa" d="M 5.710938 15.675781 L 7.257812 15.675781 L 7.257812 24.582031 L 5.710938 24.582031 Z M 5.710938 15.675781 " fill-opacity="1" fill-rule="nonzero"/><g clip-path="url(#b08c2aa405)"><path fill="#3d54bd" d="M 5.710938 9.097656 L 4.160156 9.097656 C 3.734375 9.097656 3.386719 9.441406 3.386719 9.871094 L 3.386719 15.675781 L 7.257812 15.675781 L 7.257812 10.644531 C 7.257812 9.789062 6.566406 9.097656 5.710938 9.097656 Z M 5.710938 9.097656 " fill-opacity="1" fill-rule="nonzero"/></g><path fill="#546ded" d="M 5.710938 9.097656 L 4.546875 9.097656 L 4.546875 14.128906 C 4.546875 14.34375 4.722656 14.515625 4.933594 14.515625 L 7.257812 14.515625 L 7.257812 10.644531 C 7.257812 9.789062 6.566406 9.097656 5.710938 9.097656 Z M 5.710938 9.097656 " fill-opacity="1" fill-rule="nonzero"/><path fill="#fbe1ca" d="M 9.96875 8.324219 L 9.96875 11.417969 C 9.96875 11.847656 9.621094 12.195312 9.195312 12.195312 L 5.324219 12.195312 C 4.894531 12.195312 4.546875 11.847656 4.546875 11.417969 C 4.546875 10.992188 4.894531 10.644531 5.324219 10.644531 L 8.417969 10.644531 L 8.417969 7.546875 L 9.195312 7.546875 C 9.621094 7.546875 9.96875 7.894531 9.96875 8.324219 Z M 9.96875 8.324219 " fill-opacity="1" fill-rule="nonzero"/><path fill="#3d54bd" d="M 6.484375 12.195312 L 5.324219 12.195312 C 4.894531 12.195312 4.546875 11.847656 4.546875 11.417969 C 4.546875 10.992188 4.894531 10.644531 5.324219 10.644531 L 6.484375 10.644531 Z M 6.484375 12.195312 " fill-opacity="1" fill-rule="nonzero"/><g clip-path="url(#e79eb67b8f)"><path fill="#fbe1ca" d="M 7.257812 3.675781 L 7.257812 6.386719 C 7.257812 7.457031 6.390625 8.324219 5.324219 8.324219 C 4.253906 8.324219 3.386719 7.457031 3.386719 6.386719 L 3.386719 4.453125 " fill-opacity="1" fill-rule="nonzero"/></g><path fill="#363a4f" d="M 5.324219 16.839844 L 6.097656 16.839844 L 6.097656 24.582031 L 5.324219 24.582031 Z M 5.324219 16.839844 " fill-opacity="1" fill-rule="nonzero"/><g clip-path="url(#bebab37c99)"><path fill="#4c506e" d="M 3.386719 6.386719 C 3.386719 6.519531 3.398438 6.648438 3.425781 6.773438 C 4.050781 6.753906 4.546875 6.242188 4.546875 5.613281 C 4.546875 4.972656 5.066406 4.453125 5.710938 4.453125 L 6.484375 4.453125 C 7.339844 4.453125 8.03125 3.757812 8.03125 2.902344 L 4.933594 2.902344 C 4.082031 2.902344 3.386719 3.597656 3.386719 4.453125 Z M 3.386719 6.386719 " fill-opacity="1" fill-rule="nonzero"/></g><g clip-path="url(#1a0919b074)"><path fill="#3d54bd" d="M 3.386719 24.582031 L 3.386719 26.128906 L 6.484375 26.128906 L 6.484375 25.355469 C 6.484375 24.925781 6.136719 24.582031 5.710938 24.582031 Z M 3.386719 24.582031 " fill-opacity="1" fill-rule="nonzero"/></g><path fill="#ffffff" d="M 13.066406 6 L 13.839844 6 L 13.839844 6.773438 L 13.066406 6.773438 Z M 13.066406 6 " fill-opacity="1" fill-rule="nonzero"/><path fill="#ffffff" d="M 14.613281 6 L 15.386719 6 L 15.386719 6.773438 L 14.613281 6.773438 Z M 14.613281 6 " fill-opacity="1" fill-rule="nonzero"/><path fill="#ffffff" d="M 16.160156 6 L 16.933594 6 L 16.933594 6.773438 L 16.160156 6.773438 Z M 16.160156 6 " fill-opacity="1" fill-rule="nonzero"/><g clip-path="url(#8e8e1ea4f7)"><path fill="#546ded" d="M 24.289062 24.582031 L 24.289062 26.128906 L 21.96875 26.128906 L 21.96875 25.355469 C 21.96875 24.925781 22.3125 24.582031 22.742188 24.582031 Z M 24.289062 24.582031 " fill-opacity="1" fill-rule="nonzero"/></g><g clip-path="url(#245a698fff)"><path fill="#4c506e" d="M 26.613281 24.582031 L 24.289062 24.582031 L 24.289062 15.675781 L 26.613281 15.675781 Z M 26.613281 24.582031 " fill-opacity="1" fill-rule="nonzero"/></g><path fill="#787faa" d="M 24.289062 24.582031 L 22.742188 24.582031 L 22.742188 15.675781 L 24.289062 15.675781 Z M 24.289062 24.582031 " fill-opacity="1" fill-rule="nonzero"/><g clip-path="url(#9c4afc76e4)"><path fill="#3d54bd" d="M 24.289062 9.097656 L 25.839844 9.097656 C 26.265625 9.097656 26.613281 9.441406 26.613281 9.871094 L 26.613281 15.675781 L 22.742188 15.675781 L 22.742188 10.644531 C 22.742188 9.789062 23.433594 9.097656 24.289062 9.097656 Z M 24.289062 9.097656 " fill-opacity="1" fill-rule="nonzero"/></g><path fill="#546ded" d="M 24.289062 9.097656 L 25.453125 9.097656 L 25.453125 14.128906 C 25.453125 14.34375 25.277344 14.515625 25.066406 14.515625 L 22.742188 14.515625 L 22.742188 10.644531 C 22.742188 9.789062 23.433594 9.097656 24.289062 9.097656 Z M 24.289062 9.097656 " fill-opacity="1" fill-rule="nonzero"/><path fill="#fbe1ca" d="M 20.03125 8.324219 L 20.03125 11.417969 C 20.03125 11.847656 20.378906 12.195312 20.804688 12.195312 L 24.675781 12.195312 C 25.105469 12.195312 25.453125 11.847656 25.453125 11.417969 C 25.453125 10.992188 25.105469 10.644531 24.675781 10.644531 L 21.582031 10.644531 L 21.582031 7.546875 L 20.804688 7.546875 C 20.378906 7.546875 20.03125 7.894531 20.03125 8.324219 Z M 20.03125 8.324219 " fill-opacity="1" fill-rule="nonzero"/><path fill="#3d54bd" d="M 23.515625 12.195312 L 24.675781 12.195312 C 25.105469 12.195312 25.453125 11.847656 25.453125 11.417969 C 25.453125 10.992188 25.105469 10.644531 24.675781 10.644531 L 23.515625 10.644531 Z M 23.515625 12.195312 " fill-opacity="1" fill-rule="nonzero"/><g clip-path="url(#8c1a15b24d)"><path fill="#fbe1ca" d="M 22.742188 3.675781 L 22.742188 6.386719 C 22.742188 7.457031 23.609375 8.324219 24.675781 8.324219 C 25.746094 8.324219 26.613281 7.457031 26.613281 6.386719 L 26.613281 4.453125 " fill-opacity="1" fill-rule="nonzero"/></g><path fill="#363a4f" d="M 23.902344 16.839844 L 24.675781 16.839844 L 24.675781 24.582031 L 23.902344 24.582031 Z M 23.902344 16.839844 " fill-opacity="1" fill-rule="nonzero"/><g clip-path="url(#26a5cb1f40)"><path fill="#4c506e" d="M 26.613281 6.386719 C 26.613281 6.519531 26.601562 6.648438 26.574219 6.773438 C 25.949219 6.753906 25.453125 6.242188 25.453125 5.613281 C 25.453125 4.972656 24.933594 4.453125 24.289062 4.453125 L 23.515625 4.453125 C 22.660156 4.453125 21.96875 3.757812 21.96875 2.902344 L 25.066406 2.902344 C 25.917969 2.902344 26.613281 3.597656 26.613281 4.453125 Z M 26.613281 6.386719 " fill-opacity="1" fill-rule="nonzero"/></g><g clip-path="url(#76784a7501)"><path fill="#3d54bd" d="M 26.613281 24.582031 L 26.613281 26.128906 L 23.515625 26.128906 L 23.515625 25.355469 C 23.515625 24.925781 23.863281 24.582031 24.289062 24.582031 Z M 26.613281 24.582031 " fill-opacity="1" fill-rule="nonzero"/></g><path fill="#f29b99" d="M 16.355469 5.226562 L 13.644531 5.226562 C 13.324219 5.226562 13.066406 4.964844 13.066406 4.644531 C 13.066406 4.324219 13.324219 4.066406 13.644531 4.066406 L 16.355469 4.066406 C 16.675781 4.066406 16.933594 4.324219 16.933594 4.644531 C 16.933594 4.964844 16.675781 5.226562 16.355469 5.226562 Z M 16.355469 5.226562 " fill-opacity="1" fill-rule="nonzero"/><path fill="#ba4753" d="M 11.515625 18.386719 L 15 18.386719 C 16.925781 18.386719 18.484375 16.828125 18.484375 14.902344 C 18.484375 12.980469 16.925781 11.417969 15 11.417969 C 13.074219 11.417969 11.515625 12.980469 11.515625 14.902344 Z M 11.515625 18.386719 " fill-opacity="1" fill-rule="nonzero"/><path fill="#e1656e" d="M 17.894531 16.839844 L 13.453125 16.839844 C 13.023438 16.839844 12.675781 16.492188 12.675781 16.066406 L 12.675781 12.3125 C 13.292969 11.757812 14.105469 11.417969 15 11.417969 C 16.925781 11.417969 18.484375 12.980469 18.484375 14.902344 C 18.484375 15.621094 18.265625 16.285156 17.894531 16.839844 Z M 17.894531 16.839844 " fill-opacity="1" fill-rule="nonzero"/><path fill="#ffffff" d="M 16.160156 14.515625 L 16.933594 14.515625 L 16.933594 15.289062 L 16.160156 15.289062 Z M 16.160156 14.515625 " fill-opacity="1" fill-rule="nonzero"/><path fill="#ffffff" d="M 14.613281 14.515625 L 15.386719 14.515625 L 15.386719 15.289062 L 14.613281 15.289062 Z M 14.613281 14.515625 " fill-opacity="1" fill-rule="nonzero"/><path fill="#ffffff" d="M 13.066406 14.515625 L 13.839844 14.515625 L 13.839844 15.289062 L 13.066406 15.289062 Z M 13.066406 14.515625 " fill-opacity="1" fill-rule="nonzero"/><path fill="#f29b99" d="M 13.644531 13.742188 L 16.355469 13.742188 C 16.675781 13.742188 16.933594 13.480469 16.933594 13.160156 C 16.933594 12.839844 16.675781 12.582031 16.355469 12.582031 L 13.644531 12.582031 C 13.324219 12.582031 13.066406 12.839844 13.066406 13.160156 C 13.066406 13.480469 13.324219 13.742188 13.644531 13.742188 Z M 13.644531 13.742188 " fill-opacity="1" fill-rule="nonzero"/></svg>