<svg xmlns="http://www.w3.org/2000/svg" xmlns:xlink="http://www.w3.org/1999/xlink" width="40" zoomAndPan="magnify" viewBox="0 0 30 30.000001" height="40" preserveAspectRatio="xMidYMid meet" version="1.0"><defs><clipPath id="9a7f6460bd"><path d="M 8 3 L 22.402344 3 L 22.402344 26 L 8 26 Z M 8 3 " clip-rule="nonzero"/></clipPath><clipPath id="624d8b2ee7"><path d="M 7.886719 2.902344 L 22.402344 2.902344 L 22.402344 26.128906 L 7.886719 26.128906 Z M 7.886719 2.902344 " clip-rule="nonzero"/></clipPath></defs><g clip-path="url(#9a7f6460bd)"><path fill="#3d54bd" d="M 20.492188 25.742188 L 9.796875 25.742188 C 8.953125 25.742188 8.269531 25.074219 8.269531 24.246094 L 8.269531 4.785156 C 8.269531 3.960938 8.953125 3.289062 9.796875 3.289062 L 20.492188 3.289062 C 21.335938 3.289062 22.019531 3.960938 22.019531 4.785156 L 22.019531 24.246094 C 22.019531 25.074219 21.335938 25.742188 20.492188 25.742188 Z M 20.492188 25.742188 " fill-opacity="1" fill-rule="nonzero"/></g><path fill="#546ded" d="M 19.347656 4.039062 L 8.480469 4.039062 C 8.351562 4.257812 8.269531 4.511719 8.269531 4.785156 L 8.269531 24.246094 C 8.269531 24.375 8.292969 24.5 8.324219 24.621094 L 19.347656 24.621094 C 19.769531 24.621094 20.109375 24.285156 20.109375 23.871094 L 20.109375 4.785156 C 20.109375 4.371094 19.769531 4.039062 19.347656 4.039062 Z M 19.347656 4.039062 " fill-opacity="1" fill-rule="nonzero"/><path fill="#e2e7f6" d="M 9.796875 4.785156 L 20.492188 4.785156 L 20.492188 23.496094 L 9.796875 23.496094 Z M 9.796875 4.785156 " fill-opacity="1" fill-rule="nonzero"/><path fill="#ffffff" d="M 9.796875 4.785156 L 9.796875 20.503906 L 16.292969 20.503906 C 16.714844 20.503906 17.054688 20.167969 17.054688 19.753906 L 17.054688 4.785156 Z M 9.796875 4.785156 " fill-opacity="1" fill-rule="nonzero"/><path fill="#4c506e" d="M 13.617188 24.246094 L 16.671875 24.246094 L 16.671875 24.996094 L 13.617188 24.996094 Z M 13.617188 24.246094 " fill-opacity="1" fill-rule="nonzero"/><path fill="#787faa" d="M 10.179688 15.265625 L 9.414062 15.265625 L 9.414062 13.019531 C 9.414062 12.8125 9.585938 12.644531 9.796875 12.644531 L 12.089844 12.644531 L 12.089844 13.394531 L 10.179688 13.394531 Z M 10.179688 15.265625 " fill-opacity="1" fill-rule="nonzero"/><path fill="#787faa" d="M 20.875 15.265625 L 20.109375 15.265625 L 20.109375 13.394531 L 18.203125 13.394531 L 18.203125 12.644531 L 20.492188 12.644531 C 20.703125 12.644531 20.875 12.8125 20.875 13.019531 Z M 20.875 15.265625 " fill-opacity="1" fill-rule="nonzero"/><path fill="#787faa" d="M 20.492188 23.871094 L 18.203125 23.871094 L 18.203125 23.125 L 20.109375 23.125 L 20.109375 21.253906 L 20.875 21.253906 L 20.875 23.496094 C 20.875 23.703125 20.703125 23.871094 20.492188 23.871094 Z M 20.492188 23.871094 " fill-opacity="1" fill-rule="nonzero"/><path fill="#787faa" d="M 12.089844 23.871094 L 9.796875 23.871094 C 9.585938 23.871094 9.414062 23.703125 9.414062 23.496094 L 9.414062 21.253906 L 10.179688 21.253906 L 10.179688 23.125 L 12.089844 23.125 Z M 12.089844 23.871094 " fill-opacity="1" fill-rule="nonzero"/><path fill="#363a4f" d="M 10.941406 22.375 L 10.941406 14.140625 L 19.347656 14.140625 L 19.347656 22.375 Z M 10.941406 22.375 " fill-opacity="1" fill-rule="nonzero"/><path fill="#4c506e" d="M 10.941406 14.140625 L 10.941406 20.503906 L 16.292969 20.503906 C 16.714844 20.503906 17.054688 20.167969 17.054688 19.753906 L 17.054688 14.140625 Z M 10.941406 14.140625 " fill-opacity="1" fill-rule="nonzero"/><path fill="#787faa" d="M 17.820312 21.625 L 14.761719 21.625 C 14.339844 21.625 14 21.292969 14 20.878906 L 14 16.386719 C 14 15.972656 14.339844 15.640625 14.761719 15.640625 L 17.820312 15.640625 C 18.242188 15.640625 18.582031 15.972656 18.582031 16.386719 L 18.582031 20.878906 C 18.582031 21.292969 18.242188 21.625 17.820312 21.625 Z M 17.820312 21.625 " fill-opacity="1" fill-rule="nonzero"/><path fill="#2c2f41" d="M 11.707031 20.878906 L 12.472656 20.878906 L 12.472656 21.625 L 11.707031 21.625 Z M 11.707031 20.878906 " fill-opacity="1" fill-rule="nonzero"/><path fill="#2c2f41" d="M 13.234375 19.753906 L 11.707031 19.753906 L 11.707031 20.503906 L 12.851562 20.503906 L 12.851562 21.625 L 13.617188 21.625 L 13.617188 20.128906 C 13.617188 19.921875 13.445312 19.753906 13.234375 19.753906 Z M 13.234375 19.753906 " fill-opacity="1" fill-rule="nonzero"/><path fill="#2c2f41" d="M 15.910156 20.878906 L 14 20.878906 L 14 21.625 L 16.292969 21.625 C 16.503906 21.625 16.671875 21.460938 16.671875 21.253906 L 16.671875 19.382812 L 15.910156 19.382812 Z M 15.910156 20.878906 " fill-opacity="1" fill-rule="nonzero"/><path fill="#2c2f41" d="M 15.527344 19.007812 L 17.054688 19.007812 L 17.054688 18.257812 L 15.144531 18.257812 C 14.933594 18.257812 14.761719 18.425781 14.761719 18.632812 L 14.761719 20.503906 L 15.527344 20.503906 Z M 15.527344 19.007812 " fill-opacity="1" fill-rule="nonzero"/><path fill="#2c2f41" d="M 16.292969 16.386719 L 17.054688 16.386719 L 17.054688 17.136719 L 16.292969 17.136719 Z M 16.292969 16.386719 " fill-opacity="1" fill-rule="nonzero"/><path fill="#2c2f41" d="M 15.527344 17.136719 L 16.292969 17.136719 L 16.292969 17.882812 L 15.527344 17.882812 Z M 15.527344 17.136719 " fill-opacity="1" fill-rule="nonzero"/><path fill="#2c2f41" d="M 13.617188 19.007812 L 14.382812 19.007812 L 14.382812 19.753906 L 13.617188 19.753906 Z M 13.617188 19.007812 " fill-opacity="1" fill-rule="nonzero"/><path fill="#2c2f41" d="M 12.851562 18.257812 L 13.617188 18.257812 L 13.617188 19.007812 L 12.851562 19.007812 Z M 12.851562 18.257812 " fill-opacity="1" fill-rule="nonzero"/><path fill="#2c2f41" d="M 12.472656 17.882812 L 14 17.882812 L 14 17.136719 L 13.234375 17.136719 L 13.234375 16.386719 C 13.234375 16.179688 13.0625 16.011719 12.851562 16.011719 L 11.707031 16.011719 L 11.707031 16.761719 L 12.472656 16.761719 L 12.472656 17.136719 L 12.089844 17.136719 C 11.878906 17.136719 11.707031 17.304688 11.707031 17.511719 L 11.707031 19.382812 L 12.472656 19.382812 Z M 12.472656 17.882812 " fill-opacity="1" fill-rule="nonzero"/><path fill="#2c2f41" d="M 14.382812 17.136719 L 15.144531 17.136719 L 15.144531 17.882812 L 14.382812 17.882812 Z M 14.382812 17.136719 " fill-opacity="1" fill-rule="nonzero"/><path fill="#2c2f41" d="M 17.820312 20.878906 L 17.054688 20.878906 L 17.054688 21.625 L 18.203125 21.625 C 18.410156 21.625 18.582031 21.460938 18.582031 21.253906 L 18.582031 19.382812 L 17.820312 19.382812 Z M 17.820312 20.878906 " fill-opacity="1" fill-rule="nonzero"/><path fill="#2c2f41" d="M 18.203125 17.136719 L 17.054688 17.136719 L 17.054688 17.882812 L 17.820312 17.882812 L 17.820312 18.632812 L 18.582031 18.632812 L 18.582031 17.511719 C 18.582031 17.304688 18.410156 17.136719 18.203125 17.136719 Z M 18.203125 17.136719 " fill-opacity="1" fill-rule="nonzero"/><path fill="#2c2f41" d="M 11.707031 14.890625 L 12.472656 14.890625 L 12.472656 15.640625 L 11.707031 15.640625 Z M 11.707031 14.890625 " fill-opacity="1" fill-rule="nonzero"/><path fill="#2c2f41" d="M 12.851562 14.890625 L 13.617188 14.890625 L 13.617188 15.640625 L 12.851562 15.640625 Z M 12.851562 14.890625 " fill-opacity="1" fill-rule="nonzero"/><path fill="#2c2f41" d="M 13.617188 16.761719 L 14.761719 16.761719 C 14.972656 16.761719 15.144531 16.59375 15.144531 16.386719 L 15.144531 16.011719 L 17.4375 16.011719 L 17.4375 16.761719 L 18.203125 16.761719 L 18.203125 15.640625 C 18.203125 15.433594 18.03125 15.265625 17.820312 15.265625 L 15.144531 15.265625 L 15.144531 14.140625 L 14.382812 14.140625 L 14.382812 16.011719 L 13.617188 16.011719 Z M 13.617188 16.761719 " fill-opacity="1" fill-rule="nonzero"/><path fill="#787faa" d="M 15.144531 13.394531 C 13.621094 13.394531 12.472656 12.75 12.472656 11.894531 C 12.472656 11.042969 13.621094 10.398438 15.144531 10.398438 C 16.667969 10.398438 17.820312 11.042969 17.820312 11.894531 C 17.820312 12.75 16.667969 13.394531 15.144531 13.394531 Z M 15.144531 11.148438 C 13.980469 11.148438 13.234375 11.589844 13.234375 11.894531 C 13.234375 12.203125 13.980469 12.644531 15.144531 12.644531 C 16.3125 12.644531 17.054688 12.203125 17.054688 11.894531 C 17.054688 11.589844 16.3125 11.148438 15.144531 11.148438 Z M 15.144531 11.148438 " fill-opacity="1" fill-rule="nonzero"/><path fill="#ba4753" d="M 17.820312 7.40625 C 17.820312 5.957031 16.621094 4.785156 15.144531 4.785156 C 13.667969 4.785156 12.472656 5.957031 12.472656 7.40625 C 12.472656 8.550781 13.222656 9.523438 14.269531 9.878906 L 15.144531 11.523438 L 16.019531 9.878906 C 17.066406 9.523438 17.820312 8.550781 17.820312 7.40625 Z M 17.820312 7.40625 " fill-opacity="1" fill-rule="nonzero"/><path fill="#e1656e" d="M 16.671875 8.152344 L 16.671875 5.257812 C 16.238281 4.960938 15.714844 4.785156 15.144531 4.785156 C 13.667969 4.785156 12.472656 5.957031 12.472656 7.40625 C 12.472656 7.964844 12.652344 8.476562 12.957031 8.902344 L 15.910156 8.902344 C 16.332031 8.902344 16.671875 8.566406 16.671875 8.152344 Z M 16.671875 8.152344 " fill-opacity="1" fill-rule="nonzero"/><path fill="#f29b99" d="M 15.144531 8.902344 L 15.144531 8.152344 C 15.566406 8.152344 15.910156 7.816406 15.910156 7.40625 L 16.671875 7.40625 C 16.671875 8.230469 15.988281 8.902344 15.144531 8.902344 Z M 15.144531 8.902344 " fill-opacity="1" fill-rule="nonzero"/><path fill="#f29b99" d="M 14.382812 7.40625 L 13.617188 7.40625 C 13.617188 6.578125 14.300781 5.910156 15.144531 5.910156 L 15.144531 6.65625 C 14.722656 6.65625 14.382812 6.992188 14.382812 7.40625 Z M 14.382812 7.40625 " fill-opacity="1" fill-rule="nonzero"/><path fill="#000000" d="M 10.941406 14.140625 C 10.730469 14.140625 10.5625 14.308594 10.5625 14.515625 L 10.5625 22.75 C 10.5625 22.957031 10.730469 23.125 10.941406 23.125 L 19.347656 23.125 C 19.558594 23.125 19.730469 22.957031 19.730469 22.75 L 19.730469 14.515625 C 19.730469 14.308594 19.558594 14.140625 19.347656 14.140625 Z M 18.964844 22.375 L 11.324219 22.375 L 11.324219 14.890625 L 14.382812 14.890625 L 14.382812 16.386719 L 13.617188 16.386719 L 13.617188 17.136719 L 14.761719 17.136719 C 14.972656 17.136719 15.144531 16.96875 15.144531 16.761719 L 15.144531 16.386719 L 17.4375 16.386719 L 17.4375 17.136719 L 18.203125 17.136719 L 18.203125 16.011719 C 18.203125 15.804688 18.03125 15.640625 17.820312 15.640625 L 15.144531 15.640625 L 15.144531 14.890625 L 18.964844 14.890625 Z M 18.964844 22.375 " fill-opacity="1" fill-rule="nonzero"/><path fill="#000000" d="M 11.707031 21.253906 L 12.472656 21.253906 L 12.472656 22 L 11.707031 22 Z M 11.707031 21.253906 " fill-opacity="1" fill-rule="nonzero"/><path fill="#000000" d="M 13.234375 20.128906 L 11.707031 20.128906 L 11.707031 20.878906 L 12.851562 20.878906 L 12.851562 22 L 13.617188 22 L 13.617188 20.503906 C 13.617188 20.296875 13.445312 20.128906 13.234375 20.128906 Z M 13.234375 20.128906 " fill-opacity="1" fill-rule="nonzero"/><path fill="#000000" d="M 15.910156 21.253906 L 14 21.253906 L 14 22 L 16.292969 22 C 16.503906 22 16.671875 21.832031 16.671875 21.625 L 16.671875 19.753906 L 15.910156 19.753906 Z M 15.910156 21.253906 " fill-opacity="1" fill-rule="nonzero"/><path fill="#000000" d="M 14.761719 19.007812 L 14.761719 20.878906 L 15.527344 20.878906 L 15.527344 19.382812 L 17.054688 19.382812 L 17.054688 18.632812 L 15.144531 18.632812 C 14.933594 18.632812 14.761719 18.800781 14.761719 19.007812 Z M 14.761719 19.007812 " fill-opacity="1" fill-rule="nonzero"/><path fill="#000000" d="M 16.292969 16.761719 L 17.054688 16.761719 L 17.054688 17.511719 L 16.292969 17.511719 Z M 16.292969 16.761719 " fill-opacity="1" fill-rule="nonzero"/><path fill="#000000" d="M 15.527344 17.511719 L 16.292969 17.511719 L 16.292969 18.257812 L 15.527344 18.257812 Z M 15.527344 17.511719 " fill-opacity="1" fill-rule="nonzero"/><path fill="#000000" d="M 13.617188 19.382812 L 14.382812 19.382812 L 14.382812 20.128906 L 13.617188 20.128906 Z M 13.617188 19.382812 " fill-opacity="1" fill-rule="nonzero"/><path fill="#000000" d="M 12.851562 18.632812 L 13.617188 18.632812 L 13.617188 19.382812 L 12.851562 19.382812 Z M 12.851562 18.632812 " fill-opacity="1" fill-rule="nonzero"/><path fill="#000000" d="M 12.472656 18.257812 L 14 18.257812 L 14 17.511719 L 13.234375 17.511719 L 13.234375 16.761719 C 13.234375 16.554688 13.0625 16.386719 12.851562 16.386719 L 11.707031 16.386719 L 11.707031 17.136719 L 12.472656 17.136719 L 12.472656 17.511719 L 12.089844 17.511719 C 11.878906 17.511719 11.707031 17.675781 11.707031 17.882812 L 11.707031 19.753906 L 12.472656 19.753906 Z M 12.472656 18.257812 " fill-opacity="1" fill-rule="nonzero"/><path fill="#000000" d="M 14.382812 17.511719 L 15.144531 17.511719 L 15.144531 18.257812 L 14.382812 18.257812 Z M 14.382812 17.511719 " fill-opacity="1" fill-rule="nonzero"/><path fill="#000000" d="M 17.820312 21.253906 L 17.054688 21.253906 L 17.054688 22 L 18.203125 22 C 18.414062 22 18.582031 21.832031 18.582031 21.625 L 18.582031 19.753906 L 17.820312 19.753906 Z M 17.820312 21.253906 " fill-opacity="1" fill-rule="nonzero"/><path fill="#000000" d="M 17.054688 17.511719 L 17.054688 18.257812 L 17.820312 18.257812 L 17.820312 19.007812 L 18.582031 19.007812 L 18.582031 17.882812 C 18.582031 17.675781 18.414062 17.511719 18.203125 17.511719 Z M 17.054688 17.511719 " fill-opacity="1" fill-rule="nonzero"/><path fill="#000000" d="M 11.707031 15.265625 L 12.472656 15.265625 L 12.472656 16.011719 L 11.707031 16.011719 Z M 11.707031 15.265625 " fill-opacity="1" fill-rule="nonzero"/><path fill="#000000" d="M 12.851562 15.265625 L 13.617188 15.265625 L 13.617188 16.011719 L 12.851562 16.011719 Z M 12.851562 15.265625 " fill-opacity="1" fill-rule="nonzero"/><path fill="#000000" d="M 10.179688 13.769531 L 12.089844 13.769531 L 12.089844 13.019531 L 9.796875 13.019531 C 9.585938 13.019531 9.414062 13.1875 9.414062 13.394531 L 9.414062 15.640625 L 10.179688 15.640625 Z M 10.179688 13.769531 " fill-opacity="1" fill-rule="nonzero"/><path fill="#000000" d="M 18.203125 13.769531 L 20.109375 13.769531 L 20.109375 15.640625 L 20.875 15.640625 L 20.875 13.394531 C 20.875 13.1875 20.703125 13.019531 20.492188 13.019531 L 18.203125 13.019531 Z M 18.203125 13.769531 " fill-opacity="1" fill-rule="nonzero"/><path fill="#000000" d="M 20.875 23.871094 L 20.875 21.625 L 20.109375 21.625 L 20.109375 23.496094 L 18.203125 23.496094 L 18.203125 24.246094 L 20.492188 24.246094 C 20.703125 24.246094 20.875 24.078125 20.875 23.871094 Z M 20.875 23.871094 " fill-opacity="1" fill-rule="nonzero"/><path fill="#000000" d="M 10.179688 21.625 L 9.414062 21.625 L 9.414062 23.871094 C 9.414062 24.078125 9.585938 24.246094 9.796875 24.246094 L 12.089844 24.246094 L 12.089844 23.496094 L 10.179688 23.496094 Z M 10.179688 21.625 " fill-opacity="1" fill-rule="nonzero"/><g clip-path="url(#624d8b2ee7)"><path fill="#000000" d="M 22.402344 24.246094 L 22.402344 4.785156 C 22.402344 3.753906 21.546875 2.914062 20.492188 2.914062 L 9.796875 2.914062 C 8.742188 2.914062 7.886719 3.753906 7.886719 4.785156 L 7.886719 24.246094 C 7.886719 25.277344 8.742188 26.117188 9.796875 26.117188 L 20.492188 26.117188 C 21.546875 26.117188 22.402344 25.277344 22.402344 24.246094 Z M 8.652344 24.246094 L 8.652344 4.785156 C 8.652344 4.167969 9.164062 3.664062 9.796875 3.664062 L 20.492188 3.664062 C 21.125 3.664062 21.640625 4.167969 21.640625 4.785156 L 21.640625 24.246094 C 21.640625 24.867188 21.125 25.371094 20.492188 25.371094 L 9.796875 25.371094 C 9.164062 25.371094 8.652344 24.867188 8.652344 24.246094 Z M 8.652344 24.246094 " fill-opacity="1" fill-rule="nonzero"/></g><path fill="#000000" d="M 13.617188 24.246094 L 16.671875 24.246094 L 16.671875 24.996094 L 13.617188 24.996094 Z M 13.617188 24.246094 " fill-opacity="1" fill-rule="nonzero"/><path fill="#000000" d="M 14 10.179688 L 14.167969 10.496094 C 13.148438 10.710938 12.472656 11.246094 12.472656 11.894531 C 12.472656 12.75 13.621094 13.394531 15.144531 13.394531 C 16.667969 13.394531 17.820312 12.75 17.820312 11.894531 C 17.820312 11.246094 17.144531 10.710938 16.121094 10.496094 L 16.289062 10.179688 C 17.441406 9.722656 18.203125 8.628906 18.203125 7.40625 C 18.203125 5.753906 16.832031 4.410156 15.144531 4.410156 C 13.460938 4.410156 12.089844 5.753906 12.089844 7.40625 C 12.089844 8.628906 12.851562 9.722656 14 10.179688 Z M 17.054688 11.894531 C 17.054688 12.203125 16.3125 12.644531 15.144531 12.644531 C 13.980469 12.644531 13.234375 12.203125 13.234375 11.894531 C 13.234375 11.671875 13.699219 11.320312 14.539062 11.195312 L 14.808594 11.695312 C 14.871094 11.820312 15.003906 11.894531 15.144531 11.894531 C 15.289062 11.894531 15.417969 11.820312 15.484375 11.695312 L 15.75 11.195312 C 16.589844 11.320312 17.054688 11.671875 17.054688 11.894531 Z M 15.144531 5.160156 C 16.410156 5.160156 17.4375 6.167969 17.4375 7.40625 C 17.4375 8.359375 16.816406 9.210938 15.894531 9.523438 C 15.800781 9.558594 15.726562 9.621094 15.679688 9.707031 L 15.144531 10.710938 L 14.609375 9.707031 C 14.566406 9.621094 14.488281 9.558594 14.394531 9.527344 C 13.472656 9.210938 12.851562 8.359375 12.851562 7.40625 C 12.851562 6.167969 13.882812 5.160156 15.144531 5.160156 Z M 15.144531 5.160156 " fill-opacity="1" fill-rule="nonzero"/><path fill="#000000" d="M 15.144531 8.902344 C 15.988281 8.902344 16.671875 8.230469 16.671875 7.40625 L 15.910156 7.40625 C 15.910156 7.816406 15.566406 8.152344 15.144531 8.152344 Z M 15.144531 8.902344 " fill-opacity="1" fill-rule="nonzero"/><path fill="#000000" d="M 15.144531 6.65625 L 15.144531 5.910156 C 14.300781 5.910156 13.617188 6.578125 13.617188 7.40625 L 14.382812 7.40625 C 14.382812 6.992188 14.722656 6.65625 15.144531 6.65625 Z M 15.144531 6.65625 " fill-opacity="1" fill-rule="nonzero"/></svg>