<svg xmlns="http://www.w3.org/2000/svg" xmlns:xlink="http://www.w3.org/1999/xlink" width="40" zoomAndPan="magnify" viewBox="0 0 30 30.000001" height="40" preserveAspectRatio="xMidYMid meet" version="1.0"><defs><clipPath id="72cedaea89"><path d="M 3.386719 17 L 21 17 L 21 21.003906 L 3.386719 21.003906 Z M 3.386719 17 " clip-rule="nonzero"/></clipPath><clipPath id="449fd5f532"><path d="M 13 17 L 21 17 L 21 21.003906 L 13 21.003906 Z M 13 17 " clip-rule="nonzero"/></clipPath><clipPath id="4b3f08a000"><path d="M 19 7.941406 L 26.613281 7.941406 L 26.613281 16 L 19 16 Z M 19 7.941406 " clip-rule="nonzero"/></clipPath><clipPath id="a67ad9c841"><path d="M 8 7.941406 L 16 7.941406 L 16 16 L 8 16 Z M 8 7.941406 " clip-rule="nonzero"/></clipPath><clipPath id="99f7ab1b60"><path d="M 8 7.941406 L 16 7.941406 L 16 15 L 8 15 Z M 8 7.941406 " clip-rule="nonzero"/></clipPath></defs><g clip-path="url(#72cedaea89)"><path fill="#f3c350" d="M 5.335938 17.164062 L 18.480469 17.164062 C 18.734375 17.164062 18.980469 17.210938 19.21875 17.308594 C 19.457031 17.40625 19.664062 17.542969 19.847656 17.726562 C 20.027344 17.90625 20.167969 18.113281 20.265625 18.347656 C 20.363281 18.582031 20.414062 18.828125 20.414062 19.082031 C 20.414062 19.339844 20.363281 19.582031 20.265625 19.820312 C 20.167969 20.054688 20.027344 20.261719 19.847656 20.441406 C 19.664062 20.621094 19.457031 20.761719 19.21875 20.859375 C 18.980469 20.957031 18.734375 21.003906 18.480469 21.003906 L 5.335938 21.003906 C 5.078125 21.003906 4.832031 20.957031 4.59375 20.859375 C 4.359375 20.761719 4.148438 20.621094 3.96875 20.441406 C 3.789062 20.261719 3.648438 20.054688 3.550781 19.820312 C 3.453125 19.582031 3.402344 19.339844 3.402344 19.082031 C 3.402344 18.828125 3.453125 18.582031 3.550781 18.347656 C 3.648438 18.113281 3.789062 17.90625 3.96875 17.726562 C 4.148438 17.542969 4.359375 17.40625 4.59375 17.308594 C 4.832031 17.210938 5.078125 17.164062 5.335938 17.164062 Z M 5.335938 17.164062 " fill-opacity="1" fill-rule="nonzero"/></g><path fill="#fce95f" d="M 18.480469 17.164062 L 5.335938 17.164062 C 5.257812 17.164062 5.179688 17.171875 5.101562 17.1875 C 5.039062 17.332031 4.996094 17.484375 4.972656 17.640625 C 4.945312 17.796875 4.941406 17.953125 4.957031 18.109375 C 4.972656 18.269531 5.007812 18.421875 5.058594 18.570312 C 5.113281 18.722656 5.183594 18.863281 5.273438 18.992188 C 5.359375 19.125 5.460938 19.246094 5.582031 19.351562 C 5.699219 19.457031 5.828125 19.550781 5.96875 19.625 C 6.109375 19.699219 6.257812 19.753906 6.410156 19.792969 C 6.566406 19.832031 6.722656 19.851562 6.882812 19.851562 L 20.027344 19.851562 C 20.105469 19.847656 20.183594 19.839844 20.261719 19.828125 C 20.324219 19.683594 20.367188 19.53125 20.390625 19.375 C 20.414062 19.21875 20.417969 19.0625 20.402344 18.902344 C 20.390625 18.746094 20.355469 18.59375 20.300781 18.441406 C 20.25 18.292969 20.175781 18.152344 20.089844 18.019531 C 20 17.886719 19.898438 17.769531 19.78125 17.664062 C 19.664062 17.554688 19.535156 17.464844 19.394531 17.390625 C 19.253906 17.316406 19.105469 17.257812 18.949219 17.21875 C 18.796875 17.179688 18.636719 17.164062 18.480469 17.164062 Z M 18.480469 17.164062 " fill-opacity="1" fill-rule="nonzero"/><g clip-path="url(#449fd5f532)"><path fill="#55b4f0" d="M 18.480469 17.164062 L 13.453125 17.164062 L 13.453125 21.003906 L 18.480469 21.003906 C 18.734375 21.003906 18.980469 20.957031 19.21875 20.859375 C 19.457031 20.761719 19.664062 20.621094 19.847656 20.441406 C 20.027344 20.261719 20.167969 20.054688 20.265625 19.820312 C 20.363281 19.582031 20.414062 19.339844 20.414062 19.082031 C 20.414062 18.828125 20.363281 18.582031 20.265625 18.347656 C 20.167969 18.113281 20.027344 17.90625 19.847656 17.726562 C 19.664062 17.542969 19.457031 17.40625 19.21875 17.308594 C 18.980469 17.210938 18.734375 17.164062 18.480469 17.164062 Z M 18.480469 17.164062 " fill-opacity="1" fill-rule="nonzero"/></g><path fill="#7ec8f2" d="M 20.027344 19.851562 C 20.105469 19.847656 20.183594 19.839844 20.261719 19.828125 L 20.261719 19.824219 C 20.308594 19.707031 20.347656 19.589844 20.375 19.46875 C 20.429688 19.183594 20.425781 18.902344 20.355469 18.625 C 20.285156 18.34375 20.160156 18.089844 19.976562 17.867188 C 19.792969 17.644531 19.570312 17.472656 19.308594 17.347656 C 19.046875 17.222656 18.769531 17.164062 18.480469 17.164062 L 13.453125 17.164062 L 13.453125 19.851562 Z M 20.027344 19.851562 " fill-opacity="1" fill-rule="nonzero"/><path fill="#bcbdbc" d="M 13.453125 18.316406 L 16.160156 18.316406 C 16.375 18.316406 16.554688 18.390625 16.707031 18.539062 C 16.859375 18.691406 16.933594 18.871094 16.933594 19.082031 C 16.933594 19.296875 16.859375 19.476562 16.707031 19.628906 C 16.554688 19.777344 16.375 19.851562 16.160156 19.851562 L 13.453125 19.851562 " fill-opacity="1" fill-rule="nonzero"/><path fill="#47a7ed" d="M 22.730469 15.242188 L 21.957031 15.242188 C 21.957031 14.882812 21.890625 14.542969 21.75 14.210938 C 21.613281 13.882812 21.417969 13.59375 21.164062 13.339844 C 20.910156 13.089844 20.617188 12.894531 20.289062 12.757812 C 19.957031 12.621094 19.609375 12.550781 19.253906 12.550781 L 19.253906 11.78125 C 19.714844 11.785156 20.15625 11.871094 20.582031 12.046875 C 21.007812 12.222656 21.386719 12.472656 21.710938 12.796875 C 22.039062 13.121094 22.289062 13.496094 22.464844 13.917969 C 22.640625 14.339844 22.730469 14.78125 22.730469 15.242188 Z M 22.730469 15.242188 " fill-opacity="1" fill-rule="nonzero"/><path fill="#47a7ed" d="M 24.664062 15.242188 L 23.890625 15.242188 C 23.890625 14.9375 23.859375 14.640625 23.800781 14.34375 C 23.742188 14.046875 23.652344 13.757812 23.535156 13.476562 C 23.421875 13.199219 23.277344 12.933594 23.109375 12.679688 C 22.9375 12.429688 22.746094 12.195312 22.53125 11.980469 C 22.316406 11.769531 22.082031 11.578125 21.828125 11.410156 C 21.574219 11.242188 21.308594 11.097656 21.027344 10.980469 C 20.746094 10.867188 20.457031 10.777344 20.15625 10.71875 C 19.859375 10.660156 19.558594 10.628906 19.253906 10.628906 L 19.253906 9.863281 C 19.609375 9.863281 19.960938 9.898438 20.308594 9.964844 C 20.65625 10.035156 20.996094 10.136719 21.324219 10.273438 C 21.652344 10.40625 21.960938 10.574219 22.257812 10.769531 C 22.554688 10.964844 22.828125 11.1875 23.078125 11.4375 C 23.328125 11.6875 23.554688 11.960938 23.75 12.253906 C 23.949219 12.546875 24.113281 12.855469 24.25 13.183594 C 24.386719 13.507812 24.488281 13.847656 24.558594 14.191406 C 24.628906 14.539062 24.664062 14.886719 24.664062 15.242188 Z M 24.664062 15.242188 " fill-opacity="1" fill-rule="nonzero"/><g clip-path="url(#4b3f08a000)"><path fill="#47a7ed" d="M 26.597656 15.242188 L 25.824219 15.242188 C 25.824219 14.8125 25.78125 14.386719 25.695312 13.96875 C 25.613281 13.546875 25.488281 13.136719 25.320312 12.742188 C 25.15625 12.347656 24.953125 11.96875 24.714844 11.613281 C 24.476562 11.257812 24.203125 10.925781 23.898438 10.625 C 23.59375 10.320312 23.261719 10.050781 22.902344 9.8125 C 22.542969 9.574219 22.164062 9.371094 21.765625 9.207031 C 21.367188 9.042969 20.957031 8.917969 20.535156 8.835938 C 20.109375 8.75 19.683594 8.710938 19.253906 8.707031 L 19.253906 7.941406 C 19.734375 7.941406 20.210938 7.988281 20.683594 8.082031 C 21.15625 8.175781 21.617188 8.316406 22.0625 8.5 C 22.507812 8.683594 22.929688 8.90625 23.332031 9.171875 C 23.730469 9.441406 24.101562 9.742188 24.445312 10.082031 C 24.785156 10.417969 25.089844 10.789062 25.355469 11.1875 C 25.625 11.585938 25.851562 12.003906 26.035156 12.449219 C 26.222656 12.890625 26.359375 13.347656 26.457031 13.816406 C 26.550781 14.289062 26.597656 14.761719 26.597656 15.242188 Z M 26.597656 15.242188 " fill-opacity="1" fill-rule="nonzero"/></g><path fill="#47a7ed" d="M 20.414062 14.855469 C 20.414062 15.070312 20.335938 15.25 20.1875 15.398438 C 20.035156 15.550781 19.851562 15.625 19.640625 15.625 C 19.425781 15.625 19.242188 15.550781 19.09375 15.398438 C 18.941406 15.25 18.867188 15.070312 18.867188 14.855469 C 18.867188 14.644531 18.941406 14.464844 19.09375 14.3125 C 19.242188 14.164062 19.425781 14.089844 19.640625 14.089844 C 19.851562 14.089844 20.035156 14.164062 20.1875 14.3125 C 20.335938 14.464844 20.414062 14.644531 20.414062 14.855469 Z M 20.414062 14.855469 " fill-opacity="1" fill-rule="nonzero"/><path fill="#dfe0df" d="M 13.453125 18.316406 L 13.453125 19.46875 L 15.773438 19.46875 C 15.90625 19.46875 16.027344 19.4375 16.144531 19.375 C 16.257812 19.3125 16.351562 19.226562 16.421875 19.117188 C 16.496094 19.007812 16.535156 18.886719 16.542969 18.757812 C 16.554688 18.628906 16.53125 18.503906 16.476562 18.382812 C 16.375 18.339844 16.269531 18.316406 16.160156 18.316406 Z M 13.453125 18.316406 " fill-opacity="1" fill-rule="nonzero"/><g clip-path="url(#a67ad9c841)"><path fill="#745749" d="M 15.773438 11.78125 C 15.773438 12.035156 15.75 12.285156 15.699219 12.53125 C 15.648438 12.78125 15.574219 13.019531 15.480469 13.253906 C 15.382812 13.488281 15.261719 13.707031 15.121094 13.917969 C 14.980469 14.128906 14.820312 14.320312 14.640625 14.5 C 14.460938 14.679688 14.265625 14.835938 14.054688 14.976562 C 13.84375 15.117188 13.621094 15.234375 13.386719 15.332031 C 13.152344 15.429688 12.910156 15.503906 12.660156 15.550781 C 12.414062 15.601562 12.160156 15.625 11.90625 15.625 C 11.652344 15.625 11.402344 15.601562 11.152344 15.550781 C 10.902344 15.503906 10.664062 15.429688 10.429688 15.332031 C 10.195312 15.234375 9.96875 15.117188 9.757812 14.976562 C 9.546875 14.835938 9.351562 14.679688 9.171875 14.5 C 8.996094 14.320312 8.835938 14.128906 8.691406 13.917969 C 8.550781 13.707031 8.433594 13.488281 8.335938 13.253906 C 8.238281 13.019531 8.164062 12.78125 8.117188 12.53125 C 8.066406 12.285156 8.042969 12.035156 8.042969 11.78125 C 8.042969 11.53125 8.066406 11.28125 8.117188 11.03125 C 8.164062 10.785156 8.238281 10.546875 8.335938 10.3125 C 8.433594 10.078125 8.550781 9.859375 8.691406 9.648438 C 8.835938 9.4375 8.996094 9.246094 9.171875 9.066406 C 9.351562 8.886719 9.546875 8.726562 9.757812 8.589844 C 9.96875 8.449219 10.195312 8.328125 10.429688 8.234375 C 10.664062 8.136719 10.902344 8.0625 11.152344 8.015625 C 11.402344 7.964844 11.652344 7.941406 11.90625 7.941406 C 12.160156 7.941406 12.414062 7.964844 12.660156 8.015625 C 12.910156 8.0625 13.152344 8.136719 13.386719 8.234375 C 13.621094 8.328125 13.84375 8.449219 14.054688 8.589844 C 14.265625 8.726562 14.460938 8.886719 14.640625 9.066406 C 14.820312 9.246094 14.980469 9.4375 15.121094 9.648438 C 15.261719 9.859375 15.382812 10.078125 15.480469 10.3125 C 15.574219 10.546875 15.648438 10.785156 15.699219 11.03125 C 15.75 11.28125 15.773438 11.53125 15.773438 11.78125 Z M 15.773438 11.78125 " fill-opacity="1" fill-rule="nonzero"/></g><g clip-path="url(#99f7ab1b60)"><path fill="#886f65" d="M 11.90625 7.941406 C 11.046875 7.941406 10.277344 8.199219 9.589844 8.710938 C 9.3125 9.082031 9.105469 9.488281 8.972656 9.929688 C 8.839844 10.375 8.792969 10.828125 8.824219 11.289062 C 8.855469 11.75 8.96875 12.191406 9.164062 12.613281 C 9.355469 13.03125 9.617188 13.40625 9.945312 13.734375 C 10.273438 14.058594 10.652344 14.320312 11.074219 14.511719 C 11.496094 14.703125 11.941406 14.816406 12.40625 14.847656 C 12.867188 14.878906 13.324219 14.832031 13.769531 14.699219 C 14.214844 14.566406 14.625 14.363281 14.996094 14.085938 C 15.4375 13.503906 15.691406 12.851562 15.757812 12.125 C 15.824219 11.402344 15.691406 10.714844 15.367188 10.0625 C 15.039062 9.410156 14.5625 8.894531 13.941406 8.511719 C 13.316406 8.128906 12.640625 7.9375 11.90625 7.941406 Z M 11.90625 7.941406 " fill-opacity="1" fill-rule="nonzero"/></g><path fill="#392823" d="M 13.121094 11.671875 L 13.109375 11.652344 C 12.824219 11.226562 12.421875 11.015625 11.90625 11.015625 C 11.390625 11.015625 10.992188 11.226562 10.707031 11.652344 C 10.476562 11.996094 10.359375 12.371094 10.359375 12.785156 L 10.359375 12.992188 C 10.359375 13.1875 10.429688 13.355469 10.570312 13.496094 C 10.710938 13.632812 10.878906 13.703125 11.078125 13.703125 C 11.371094 13.703125 11.585938 13.574219 11.71875 13.308594 L 11.90625 12.9375 L 12.097656 13.308594 C 12.226562 13.574219 12.441406 13.703125 12.738281 13.703125 C 12.933594 13.703125 13.105469 13.632812 13.242188 13.496094 C 13.382812 13.355469 13.453125 13.1875 13.453125 12.992188 L 13.453125 12.761719 C 13.453125 12.363281 13.34375 12 13.121094 11.671875 Z M 13.121094 11.671875 " fill-opacity="1" fill-rule="nonzero"/><path fill="#392823" d="M 11.90625 10.246094 C 11.90625 10.457031 11.832031 10.640625 11.679688 10.789062 C 11.53125 10.9375 11.347656 11.015625 11.132812 11.015625 C 10.921875 11.015625 10.738281 10.9375 10.585938 10.789062 C 10.4375 10.640625 10.359375 10.457031 10.359375 10.246094 C 10.359375 10.035156 10.4375 9.851562 10.585938 9.703125 C 10.738281 9.550781 10.921875 9.476562 11.132812 9.476562 C 11.347656 9.476562 11.53125 9.550781 11.679688 9.703125 C 11.832031 9.851562 11.90625 10.035156 11.90625 10.246094 Z M 11.90625 10.246094 " fill-opacity="1" fill-rule="nonzero"/><path fill="#392823" d="M 13.453125 10.246094 C 13.453125 10.457031 13.378906 10.640625 13.226562 10.789062 C 13.078125 10.9375 12.894531 11.015625 12.679688 11.015625 C 12.46875 11.015625 12.285156 10.9375 12.132812 10.789062 C 11.984375 10.640625 11.90625 10.457031 11.90625 10.246094 C 11.90625 10.035156 11.984375 9.851562 12.132812 9.703125 C 12.285156 9.550781 12.46875 9.476562 12.679688 9.476562 C 12.894531 9.476562 13.078125 9.550781 13.226562 9.703125 C 13.378906 9.851562 13.453125 10.035156 13.453125 10.246094 Z M 13.453125 10.246094 " fill-opacity="1" fill-rule="nonzero"/><path fill="#392823" d="M 15 11.398438 C 15 11.609375 14.925781 11.792969 14.773438 11.941406 C 14.621094 12.09375 14.441406 12.167969 14.226562 12.167969 C 14.011719 12.167969 13.832031 12.09375 13.679688 11.941406 C 13.527344 11.792969 13.453125 11.609375 13.453125 11.398438 C 13.453125 11.1875 13.527344 11.003906 13.679688 10.855469 C 13.832031 10.707031 14.011719 10.628906 14.226562 10.628906 C 14.441406 10.628906 14.621094 10.707031 14.773438 10.855469 C 14.925781 11.003906 15 11.1875 15 11.398438 Z M 15 11.398438 " fill-opacity="1" fill-rule="nonzero"/><path fill="#392823" d="M 10.359375 11.398438 C 10.359375 11.609375 10.285156 11.792969 10.132812 11.941406 C 9.984375 12.09375 9.800781 12.167969 9.585938 12.167969 C 9.375 12.167969 9.191406 12.09375 9.042969 11.941406 C 8.890625 11.792969 8.816406 11.609375 8.816406 11.398438 C 8.816406 11.1875 8.890625 11.003906 9.042969 10.855469 C 9.191406 10.707031 9.375 10.628906 9.585938 10.628906 C 9.800781 10.628906 9.984375 10.707031 10.132812 10.855469 C 10.285156 11.003906 10.359375 11.1875 10.359375 11.398438 Z M 10.359375 11.398438 " fill-opacity="1" fill-rule="nonzero"/></svg>