<svg xmlns="http://www.w3.org/2000/svg" xmlns:xlink="http://www.w3.org/1999/xlink" width="40" zoomAndPan="magnify" viewBox="0 0 30 30.000001" height="40" preserveAspectRatio="xMidYMid meet" version="1.0"><defs><clipPath id="0f30a4f3d4"><path d="M 3.386719 21 L 26.613281 21 L 26.613281 26.128906 L 3.386719 26.128906 Z M 3.386719 21 " clip-rule="nonzero"/></clipPath><clipPath id="d1d18decbc"><path d="M 5 21 L 26.613281 21 L 26.613281 26.128906 L 5 26.128906 Z M 5 21 " clip-rule="nonzero"/></clipPath><clipPath id="d3bdb490dc"><path d="M 3.386719 12 L 16 12 L 16 20 L 3.386719 20 Z M 3.386719 12 " clip-rule="nonzero"/></clipPath><clipPath id="e66b571a0a"><path d="M 3.386719 6 L 5 6 L 5 10 L 3.386719 10 Z M 3.386719 6 " clip-rule="nonzero"/></clipPath><clipPath id="9f34cb8247"><path d="M 4 2.902344 L 12 2.902344 L 12 7 L 4 7 Z M 4 2.902344 " clip-rule="nonzero"/></clipPath><clipPath id="877da53e7f"><path d="M 5 2.902344 L 12 2.902344 L 12 6 L 5 6 Z M 5 2.902344 " clip-rule="nonzero"/></clipPath><clipPath id="d1a3928da5"><path d="M 3.386719 16 L 10 16 L 10 19 L 3.386719 19 Z M 3.386719 16 " clip-rule="nonzero"/></clipPath><clipPath id="d19e9547d7"><path d="M 3.386719 19 L 26.613281 19 L 26.613281 22 L 3.386719 22 Z M 3.386719 19 " clip-rule="nonzero"/></clipPath><clipPath id="7acf194acb"><path d="M 5 19 L 26.613281 19 L 26.613281 21 L 5 21 Z M 5 19 " clip-rule="nonzero"/></clipPath></defs><g clip-path="url(#0f30a4f3d4)"><path fill="#eeb8ab" d="M 3.773438 21.484375 L 3.773438 26.128906 L 26.226562 26.128906 L 26.226562 21.484375 " fill-opacity="1" fill-rule="nonzero"/></g><g clip-path="url(#d1d18decbc)"><path fill="#ffe1d3" d="M 26.226562 26.128906 L 26.226562 21.871094 L 10.355469 21.871094 C 9.753906 21.871094 9.171875 21.976562 8.609375 22.183594 C 8.046875 22.390625 7.539062 22.691406 7.085938 23.082031 C 6.628906 23.472656 6.253906 23.929688 5.964844 24.453125 C 5.671875 24.976562 5.480469 25.535156 5.386719 26.128906 Z M 26.226562 26.128906 " fill-opacity="1" fill-rule="nonzero"/></g><g clip-path="url(#d3bdb490dc)"><path fill="#447b3b" d="M 14.417969 18 L 13.453125 18 C 13.238281 18 13.054688 17.925781 12.902344 17.773438 C 12.753906 17.621094 12.675781 17.441406 12.675781 17.226562 L 12.675781 14.175781 C 12.675781 13.816406 12.570312 13.496094 12.355469 13.210938 C 12.140625 12.925781 11.859375 12.734375 11.515625 12.636719 L 9.195312 12.195312 L 6.871094 12.195312 L 4.546875 12.636719 C 4.203125 12.734375 3.925781 12.925781 3.710938 13.210938 C 3.496094 13.496094 3.386719 13.816406 3.386719 14.175781 L 3.386719 17.613281 C 3.386719 17.765625 3.417969 17.914062 3.476562 18.058594 C 3.535156 18.199219 3.617188 18.324219 3.726562 18.433594 C 3.835938 18.542969 3.960938 18.625 4.105469 18.6875 C 4.246094 18.746094 4.394531 18.773438 4.546875 18.773438 L 8.417969 18.773438 C 8.660156 18.773438 8.871094 18.691406 9.050781 18.535156 L 11.515625 19.933594 L 14.417969 19.933594 C 14.546875 19.933594 14.671875 19.910156 14.789062 19.863281 C 14.910156 19.8125 15.011719 19.742188 15.105469 19.652344 C 15.195312 19.5625 15.265625 19.457031 15.3125 19.339844 C 15.363281 19.21875 15.386719 19.097656 15.386719 18.96875 C 15.386719 18.839844 15.363281 18.714844 15.3125 18.597656 C 15.265625 18.480469 15.195312 18.375 15.105469 18.285156 C 15.011719 18.191406 14.910156 18.121094 14.789062 18.074219 C 14.671875 18.023438 14.546875 18 14.417969 18 Z M 14.417969 18 " fill-opacity="1" fill-rule="nonzero"/></g><path fill="#ddaca2" d="M 11.128906 6.773438 L 11.515625 6.773438 C 11.671875 6.773438 11.816406 6.804688 11.960938 6.863281 C 12.101562 6.921875 12.226562 7.003906 12.335938 7.113281 C 12.445312 7.222656 12.53125 7.347656 12.589844 7.492188 C 12.648438 7.632812 12.675781 7.78125 12.675781 7.933594 C 12.675781 8.089844 12.648438 8.238281 12.589844 8.378906 C 12.53125 8.523438 12.445312 8.648438 12.335938 8.757812 C 12.226562 8.867188 12.101562 8.949219 11.960938 9.007812 C 11.816406 9.066406 11.671875 9.097656 11.515625 9.097656 L 11.105469 9.097656 " fill-opacity="1" fill-rule="nonzero"/><g clip-path="url(#e66b571a0a)"><path fill="#ddaca2" d="M 4.933594 6.773438 L 4.546875 6.773438 C 4.394531 6.773438 4.246094 6.804688 4.105469 6.863281 C 3.960938 6.921875 3.835938 7.003906 3.726562 7.113281 C 3.617188 7.222656 3.535156 7.347656 3.476562 7.492188 C 3.417969 7.632812 3.386719 7.78125 3.386719 7.933594 C 3.386719 8.089844 3.417969 8.238281 3.476562 8.378906 C 3.535156 8.523438 3.617188 8.648438 3.726562 8.757812 C 3.835938 8.867188 3.960938 8.949219 4.105469 9.007812 C 4.246094 9.066406 4.394531 9.097656 4.546875 9.097656 L 4.960938 9.097656 " fill-opacity="1" fill-rule="nonzero"/></g><g clip-path="url(#9f34cb8247)"><path fill="#392823" d="M 4.546875 6.773438 L 4.546875 5.226562 C 4.546875 4.917969 4.605469 4.621094 4.726562 4.335938 C 4.84375 4.050781 5.011719 3.800781 5.230469 3.582031 C 5.445312 3.367188 5.699219 3.199219 5.980469 3.078125 C 6.265625 2.960938 6.5625 2.902344 6.871094 2.902344 L 8.804688 2.902344 C 8.960938 2.902344 9.109375 2.933594 9.25 2.992188 C 9.394531 3.050781 9.519531 3.132812 9.628906 3.242188 C 9.738281 3.351562 9.820312 3.476562 9.878906 3.621094 C 9.9375 3.761719 9.96875 3.910156 9.96875 4.066406 L 11.515625 4.066406 L 11.515625 6.773438 " fill-opacity="1" fill-rule="nonzero"/></g><g clip-path="url(#877da53e7f)"><path fill="#574138" d="M 8.804688 2.902344 L 6.871094 2.902344 C 6.4375 2.902344 6.035156 3.015625 5.664062 3.246094 C 5.4375 3.613281 5.324219 4.015625 5.324219 4.453125 C 5.324219 4.65625 5.363281 4.855469 5.441406 5.042969 C 5.519531 5.234375 5.632812 5.402344 5.777344 5.546875 C 5.921875 5.691406 6.089844 5.804688 6.277344 5.882812 C 6.46875 5.960938 6.664062 6 6.871094 6 L 11.515625 6 L 11.515625 4.066406 L 9.96875 4.066406 C 9.96875 3.910156 9.9375 3.761719 9.878906 3.621094 C 9.820312 3.476562 9.738281 3.351562 9.628906 3.242188 C 9.519531 3.132812 9.394531 3.050781 9.25 2.992188 C 9.109375 2.933594 8.960938 2.902344 8.804688 2.902344 Z M 8.804688 2.902344 " fill-opacity="1" fill-rule="nonzero"/></g><path fill="#eeb8ab" d="M 11.128906 6.773438 L 11.128906 8.710938 C 11.128906 9.121094 11.050781 9.515625 10.894531 9.894531 C 10.734375 10.273438 10.511719 10.609375 10.222656 10.898438 C 9.929688 11.191406 9.597656 11.414062 9.21875 11.570312 C 8.839844 11.726562 8.441406 11.804688 8.03125 11.804688 C 7.621094 11.804688 7.226562 11.726562 6.847656 11.570312 C 6.46875 11.414062 6.132812 11.191406 5.84375 10.898438 C 5.550781 10.609375 5.328125 10.273438 5.171875 9.894531 C 5.015625 9.515625 4.933594 9.121094 4.933594 8.710938 L 4.933594 6.773438 L 5.960938 6.519531 C 6.308594 6.429688 6.664062 6.386719 7.023438 6.386719 C 7.460938 6.386719 7.871094 6.285156 8.253906 6.078125 C 8.636719 5.871094 8.953125 5.589844 9.195312 5.226562 L 9.289062 5.367188 C 9.742188 6.046875 10.355469 6.515625 11.128906 6.773438 Z M 11.128906 6.773438 " fill-opacity="1" fill-rule="nonzero"/><path fill="#ffe1d3" d="M 9.289062 5.753906 L 9.195312 5.613281 C 8.953125 5.976562 8.636719 6.261719 8.253906 6.464844 C 7.871094 6.671875 7.460938 6.773438 7.023438 6.773438 C 6.664062 6.773438 6.308594 6.816406 5.960938 6.90625 L 4.933594 7.160156 L 4.933594 8.710938 C 4.933594 9.121094 5.015625 9.515625 5.171875 9.894531 C 5.328125 10.273438 5.550781 10.609375 5.84375 10.898438 C 6.132812 11.191406 6.46875 11.414062 6.847656 11.570312 C 7.226562 11.726562 7.621094 11.804688 8.03125 11.804688 C 8.441406 11.804688 8.839844 11.726562 9.21875 11.570312 C 9.597656 11.414062 9.929688 11.191406 10.222656 10.898438 C 10.511719 10.609375 10.734375 10.273438 10.894531 9.894531 C 11.050781 9.515625 11.128906 9.121094 11.128906 8.710938 L 11.128906 7.160156 C 10.355469 6.902344 9.742188 6.433594 9.289062 5.753906 Z M 9.289062 5.753906 " fill-opacity="1" fill-rule="nonzero"/><path fill="#eeb8ab" d="M 6.871094 11.582031 L 6.871094 12.195312 C 6.871094 12.347656 6.902344 12.496094 6.960938 12.636719 C 7.019531 12.78125 7.101562 12.90625 7.210938 13.015625 C 7.320312 13.125 7.445312 13.207031 7.585938 13.265625 C 7.730469 13.324219 7.878906 13.355469 8.03125 13.355469 C 8.1875 13.355469 8.335938 13.324219 8.476562 13.265625 C 8.617188 13.207031 8.746094 13.125 8.851562 13.015625 C 8.960938 12.90625 9.046875 12.78125 9.105469 12.636719 C 9.164062 12.496094 9.195312 12.347656 9.195312 12.195312 L 9.195312 11.582031 " fill-opacity="1" fill-rule="nonzero"/><path fill="#9d9e9d" d="M 11.128906 6.773438 C 11.007812 6.730469 10.886719 6.683594 10.769531 6.628906 L 9.019531 10.128906 L 9.710938 10.472656 L 11.128906 7.640625 Z M 11.128906 6.773438 " fill-opacity="1" fill-rule="nonzero"/><path fill="#9d9e9d" d="M 4.933594 6.773438 L 4.933594 7.640625 L 6.300781 10.371094 L 6.992188 10.023438 L 5.320312 6.679688 Z M 4.933594 6.773438 " fill-opacity="1" fill-rule="nonzero"/><path fill="#55b4f0" d="M 9.96875 9.097656 L 9.96875 11.128906 C 9.691406 11.347656 9.390625 11.515625 9.058594 11.632812 C 8.726562 11.75 8.382812 11.808594 8.03125 11.804688 C 7.679688 11.804688 7.339844 11.746094 7.007812 11.628906 C 6.675781 11.515625 6.371094 11.34375 6.097656 11.125 L 6.097656 9.097656 Z M 9.96875 9.097656 " fill-opacity="1" fill-rule="nonzero"/><path fill="#7ec8f2" d="M 6.484375 9.417969 C 6.480469 9.679688 6.527344 9.929688 6.621094 10.167969 C 6.714844 10.410156 6.851562 10.625 7.03125 10.8125 C 7.210938 10.996094 7.417969 11.144531 7.65625 11.25 C 7.890625 11.355469 8.136719 11.410156 8.398438 11.417969 L 8.417969 11.417969 C 8.972656 11.417969 9.488281 11.28125 9.96875 11.003906 L 9.96875 9.097656 L 6.484375 9.097656 Z M 6.484375 9.417969 " fill-opacity="1" fill-rule="nonzero"/><path fill="#ffe1d3" d="M 8.03125 13.355469 C 8.1875 13.355469 8.335938 13.324219 8.476562 13.265625 C 8.617188 13.207031 8.746094 13.125 8.851562 13.015625 C 8.960938 12.90625 9.046875 12.78125 9.105469 12.636719 C 9.164062 12.496094 9.195312 12.347656 9.195312 12.195312 L 6.871094 12.195312 C 6.871094 12.347656 6.902344 12.496094 6.960938 12.636719 C 7.019531 12.78125 7.101562 12.90625 7.210938 13.015625 C 7.320312 13.125 7.445312 13.207031 7.585938 13.265625 C 7.730469 13.324219 7.878906 13.355469 8.03125 13.355469 Z M 8.03125 13.355469 " fill-opacity="1" fill-rule="nonzero"/><path fill="#eeab45" d="M 11.515625 20.710938 L 11.515625 18 L 10.355469 14.902344 L 5.710938 14.902344 L 5.359375 16.066406 L 4.546875 18.773438 L 4.546875 20.710938 Z M 11.515625 20.710938 " fill-opacity="1" fill-rule="nonzero"/><path fill="#f3c350" d="M 11.515625 18 L 10.355469 14.902344 L 5.710938 14.902344 L 5.359375 16.066406 L 5.324219 16.195312 L 5.324219 16.839844 C 5.320312 18.25 5.714844 19.539062 6.503906 20.710938 L 11.515625 20.710938 Z M 11.515625 18 " fill-opacity="1" fill-rule="nonzero"/><g clip-path="url(#d1a3928da5)"><path fill="#447b3b" d="M 3.386719 16.839844 L 3.386719 17.613281 C 3.386719 17.765625 3.417969 17.914062 3.476562 18.058594 C 3.535156 18.199219 3.617188 18.324219 3.726562 18.433594 C 3.835938 18.542969 3.960938 18.625 4.105469 18.6875 C 4.246094 18.746094 4.394531 18.773438 4.546875 18.773438 L 8.417969 18.773438 C 8.546875 18.773438 8.671875 18.75 8.789062 18.699219 C 8.910156 18.652344 9.011719 18.582031 9.105469 18.492188 C 9.195312 18.398438 9.265625 18.296875 9.3125 18.175781 C 9.363281 18.058594 9.386719 17.933594 9.386719 17.804688 C 9.386719 17.679688 9.363281 17.554688 9.3125 17.4375 C 9.265625 17.316406 9.195312 17.214844 9.105469 17.121094 C 9.011719 17.03125 8.910156 16.960938 8.789062 16.914062 C 8.671875 16.863281 8.546875 16.839844 8.417969 16.839844 L 4.933594 16.839844 " fill-opacity="1" fill-rule="nonzero"/></g><path fill="#ffe1d3" d="M 9.386719 17.804688 C 9.386719 17.933594 9.363281 18.058594 9.3125 18.175781 C 9.265625 18.296875 9.195312 18.398438 9.105469 18.492188 C 9.011719 18.582031 8.910156 18.652344 8.789062 18.699219 C 8.671875 18.75 8.546875 18.773438 8.417969 18.773438 L 7.644531 18.773438 L 7.644531 16.839844 L 8.417969 16.839844 C 8.546875 16.839844 8.671875 16.863281 8.789062 16.910156 C 8.910156 16.960938 9.015625 17.03125 9.105469 17.121094 C 9.195312 17.210938 9.265625 17.316406 9.3125 17.4375 C 9.363281 17.554688 9.386719 17.679688 9.386719 17.804688 Z M 9.386719 17.804688 " fill-opacity="1" fill-rule="nonzero"/><g clip-path="url(#d19e9547d7)"><path fill="#574138" d="M 3.386719 19.933594 L 26.613281 19.933594 L 26.613281 21.484375 L 3.386719 21.484375 Z M 3.386719 19.933594 " fill-opacity="1" fill-rule="nonzero"/></g><g clip-path="url(#7acf194acb)"><path fill="#745749" d="M 6.097656 20.710938 L 26.613281 20.710938 L 26.613281 19.933594 L 5.324219 19.933594 C 5.324219 20.148438 5.398438 20.332031 5.550781 20.484375 C 5.699219 20.632812 5.882812 20.710938 6.097656 20.710938 Z M 6.097656 20.710938 " fill-opacity="1" fill-rule="nonzero"/></g><path fill="#eeab45" d="M 9.96875 12.335938 L 9.96875 14.515625 L 6.097656 14.515625 L 6.097656 12.34375 L 5.324219 12.492188 L 5.324219 14.902344 C 5.324219 15.011719 5.359375 15.101562 5.4375 15.175781 C 5.511719 15.253906 5.601562 15.289062 5.710938 15.289062 L 10.355469 15.289062 C 10.460938 15.289062 10.554688 15.253906 10.628906 15.175781 C 10.703125 15.101562 10.742188 15.011719 10.742188 14.902344 L 10.742188 12.484375 Z M 9.96875 12.335938 " fill-opacity="1" fill-rule="nonzero"/><path fill="#ffe1d3" d="M 15.386719 18.96875 C 15.386719 19.097656 15.363281 19.21875 15.3125 19.339844 C 15.265625 19.457031 15.195312 19.5625 15.105469 19.652344 C 15.015625 19.742188 14.910156 19.8125 14.789062 19.863281 C 14.671875 19.910156 14.546875 19.9375 14.417969 19.933594 L 13.839844 19.933594 L 13.839844 18 L 14.417969 18 C 14.546875 18 14.671875 18.023438 14.789062 18.074219 C 14.910156 18.121094 15.011719 18.191406 15.105469 18.285156 C 15.195312 18.375 15.265625 18.480469 15.3125 18.597656 C 15.363281 18.714844 15.386719 18.839844 15.386719 18.96875 Z M 15.386719 18.96875 " fill-opacity="1" fill-rule="nonzero"/><path fill="#745749" d="M 25.453125 11.804688 C 25.453125 12.136719 25.417969 12.464844 25.355469 12.789062 C 25.289062 13.113281 25.195312 13.425781 25.070312 13.730469 C 24.941406 14.039062 24.785156 14.328125 24.605469 14.601562 C 24.421875 14.878906 24.210938 15.132812 23.976562 15.363281 C 23.742188 15.597656 23.488281 15.808594 23.214844 15.992188 C 22.941406 16.175781 22.648438 16.328125 22.34375 16.457031 C 22.039062 16.582031 21.726562 16.675781 21.402344 16.742188 C 21.078125 16.804688 20.75 16.839844 20.417969 16.839844 C 20.089844 16.839844 19.761719 16.804688 19.4375 16.742188 C 19.113281 16.675781 18.800781 16.582031 18.492188 16.457031 C 18.1875 16.328125 17.898438 16.175781 17.625 15.992188 C 17.347656 15.808594 17.09375 15.597656 16.859375 15.363281 C 16.628906 15.132812 16.417969 14.878906 16.234375 14.601562 C 16.050781 14.328125 15.898438 14.039062 15.769531 13.730469 C 15.644531 13.425781 15.546875 13.113281 15.484375 12.789062 C 15.417969 12.464844 15.386719 12.136719 15.386719 11.804688 C 15.386719 11.476562 15.417969 11.148438 15.484375 10.824219 C 15.546875 10.5 15.644531 10.1875 15.769531 9.878906 C 15.898438 9.574219 16.050781 9.285156 16.234375 9.011719 C 16.417969 8.734375 16.628906 8.480469 16.859375 8.25 C 17.09375 8.015625 17.347656 7.804688 17.625 7.621094 C 17.898438 7.4375 18.1875 7.285156 18.492188 7.15625 C 18.800781 7.03125 19.113281 6.933594 19.4375 6.871094 C 19.761719 6.804688 20.089844 6.773438 20.417969 6.773438 C 20.75 6.773438 21.078125 6.804688 21.402344 6.871094 C 21.726562 6.933594 22.039062 7.03125 22.34375 7.15625 C 22.648438 7.285156 22.941406 7.4375 23.214844 7.621094 C 23.488281 7.804688 23.742188 8.015625 23.976562 8.25 C 24.210938 8.480469 24.421875 8.734375 24.605469 9.011719 C 24.785156 9.285156 24.941406 9.574219 25.070312 9.878906 C 25.195312 10.1875 25.289062 10.5 25.355469 10.824219 C 25.417969 11.148438 25.453125 11.476562 25.453125 11.804688 Z M 25.453125 11.804688 " fill-opacity="1" fill-rule="nonzero"/><path fill="#886f65" d="M 20.417969 6.773438 C 19.34375 6.773438 18.367188 7.089844 17.492188 7.71875 C 17.144531 8.203125 16.890625 8.730469 16.730469 9.304688 C 16.570312 9.878906 16.515625 10.464844 16.566406 11.058594 C 16.613281 11.652344 16.761719 12.21875 17.011719 12.761719 C 17.261719 13.300781 17.597656 13.785156 18.019531 14.207031 C 18.441406 14.628906 18.921875 14.960938 19.464844 15.214844 C 20.003906 15.464844 20.574219 15.613281 21.167969 15.660156 C 21.761719 15.710938 22.34375 15.652344 22.917969 15.496094 C 23.492188 15.335938 24.023438 15.082031 24.507812 14.734375 C 24.777344 14.359375 24.992188 13.953125 25.148438 13.515625 C 25.308594 13.082031 25.402344 12.632812 25.4375 12.171875 C 25.472656 11.710938 25.441406 11.253906 25.351562 10.800781 C 25.257812 10.347656 25.109375 9.914062 24.894531 9.503906 C 24.683594 9.09375 24.421875 8.71875 24.105469 8.378906 C 23.792969 8.039062 23.4375 7.75 23.042969 7.507812 C 22.648438 7.269531 22.226562 7.085938 21.78125 6.960938 C 21.335938 6.835938 20.882812 6.773438 20.417969 6.773438 Z M 20.417969 6.773438 " fill-opacity="1" fill-rule="nonzero"/><path fill="#392823" d="M 21.808594 14.515625 C 21.957031 14.515625 22.085938 14.460938 22.195312 14.355469 C 22.300781 14.25 22.355469 14.121094 22.355469 13.96875 L 22.355469 13.449219 C 22.355469 12.871094 22.148438 12.375 21.742188 11.964844 C 21.375 11.601562 20.933594 11.417969 20.417969 11.417969 C 19.902344 11.417969 19.460938 11.601562 19.097656 11.964844 C 18.6875 12.375 18.484375 12.871094 18.484375 13.449219 L 18.484375 13.96875 C 18.484375 14.121094 18.539062 14.25 18.644531 14.355469 C 18.75 14.460938 18.878906 14.515625 19.03125 14.515625 C 19.183594 14.515625 19.3125 14.460938 19.417969 14.355469 L 19.757812 14.015625 C 19.941406 13.832031 20.160156 13.742188 20.417969 13.742188 C 20.675781 13.742188 20.898438 13.832031 21.082031 14.015625 L 21.421875 14.355469 C 21.527344 14.460938 21.65625 14.515625 21.808594 14.515625 Z M 21.808594 14.515625 " fill-opacity="1" fill-rule="nonzero"/><path fill="#392823" d="M 20.03125 9.871094 C 20.03125 10.085938 19.957031 10.265625 19.804688 10.417969 C 19.65625 10.570312 19.472656 10.644531 19.257812 10.644531 C 19.042969 10.644531 18.863281 10.570312 18.710938 10.417969 C 18.558594 10.265625 18.484375 10.085938 18.484375 9.871094 C 18.484375 9.65625 18.558594 9.476562 18.710938 9.324219 C 18.863281 9.171875 19.042969 9.097656 19.257812 9.097656 C 19.472656 9.097656 19.65625 9.171875 19.804688 9.324219 C 19.957031 9.476562 20.03125 9.65625 20.03125 9.871094 Z M 20.03125 9.871094 " fill-opacity="1" fill-rule="nonzero"/><path fill="#392823" d="M 22.355469 9.871094 C 22.355469 10.085938 22.277344 10.265625 22.128906 10.417969 C 21.976562 10.570312 21.792969 10.644531 21.582031 10.644531 C 21.367188 10.644531 21.183594 10.570312 21.035156 10.417969 C 20.882812 10.265625 20.804688 10.085938 20.804688 9.871094 C 20.804688 9.65625 20.882812 9.476562 21.035156 9.324219 C 21.183594 9.171875 21.367188 9.097656 21.582031 9.097656 C 21.792969 9.097656 21.976562 9.171875 22.128906 9.324219 C 22.277344 9.476562 22.355469 9.65625 22.355469 9.871094 Z M 22.355469 9.871094 " fill-opacity="1" fill-rule="nonzero"/><path fill="#392823" d="M 24.289062 11.417969 C 24.289062 11.632812 24.214844 11.816406 24.0625 11.964844 C 23.914062 12.117188 23.730469 12.195312 23.515625 12.195312 C 23.300781 12.195312 23.121094 12.117188 22.96875 11.964844 C 22.816406 11.816406 22.742188 11.632812 22.742188 11.417969 C 22.742188 11.207031 22.816406 11.023438 22.96875 10.871094 C 23.121094 10.722656 23.300781 10.644531 23.515625 10.644531 C 23.730469 10.644531 23.914062 10.722656 24.0625 10.871094 C 24.214844 11.023438 24.289062 11.207031 24.289062 11.417969 Z M 24.289062 11.417969 " fill-opacity="1" fill-rule="nonzero"/><path fill="#392823" d="M 18.097656 11.417969 C 18.097656 11.632812 18.019531 11.816406 17.871094 11.964844 C 17.71875 12.117188 17.535156 12.195312 17.324219 12.195312 C 17.109375 12.195312 16.925781 12.117188 16.773438 11.964844 C 16.625 11.816406 16.546875 11.632812 16.546875 11.417969 C 16.546875 11.207031 16.625 11.023438 16.773438 10.871094 C 16.925781 10.722656 17.109375 10.644531 17.324219 10.644531 C 17.535156 10.644531 17.71875 10.722656 17.871094 10.871094 C 18.019531 11.023438 18.097656 11.207031 18.097656 11.417969 Z M 18.097656 11.417969 " fill-opacity="1" fill-rule="nonzero"/></svg>