<svg xmlns="http://www.w3.org/2000/svg" xmlns:xlink="http://www.w3.org/1999/xlink" width="40" zoomAndPan="magnify" viewBox="0 0 30 30.000001" height="40" preserveAspectRatio="xMidYMid meet" version="1.0"><defs><clipPath id="1ca231be66"><path d="M 17 9 L 26.613281 9 L 26.613281 18 L 17 18 Z M 17 9 " clip-rule="nonzero"/></clipPath><clipPath id="dfd980fc47"><path d="M 20 9 L 26.613281 9 L 26.613281 17 L 20 17 Z M 20 9 " clip-rule="nonzero"/></clipPath><clipPath id="578a384cdf"><path d="M 3.386719 16 L 7 16 L 7 25 L 3.386719 25 Z M 3.386719 16 " clip-rule="nonzero"/></clipPath><clipPath id="3f0e81bde0"><path d="M 9 2.902344 L 26.613281 2.902344 L 26.613281 26.128906 L 9 26.128906 Z M 9 2.902344 " clip-rule="nonzero"/></clipPath><clipPath id="f9f98667de"><path d="M 3.386719 14 L 14 14 L 14 26.128906 L 3.386719 26.128906 Z M 3.386719 14 " clip-rule="nonzero"/></clipPath></defs><path fill="#684d42" d="M 15.75 12.269531 L 15 12.269531 L 15 5.753906 L 12.28125 8.773438 L 11.726562 8.273438 L 15.097656 4.527344 C 15.210938 4.398438 15.347656 4.363281 15.507812 4.425781 C 15.667969 4.488281 15.75 4.605469 15.75 4.777344 Z M 15.75 12.269531 " fill-opacity="1" fill-rule="nonzero"/><path fill="#ffe1d3" d="M 18.746094 9.273438 L 15.582031 7.523438 C 15.445312 7.441406 15.292969 7.398438 15.128906 7.398438 C 14.886719 7.398438 14.679688 7.484375 14.507812 7.65625 C 14.335938 7.828125 14.25 8.035156 14.25 8.277344 C 14.25 8.691406 14.425781 9.007812 14.773438 9.230469 L 17.996094 11.144531 " fill-opacity="1" fill-rule="nonzero"/><g clip-path="url(#1ca231be66)"><path fill="#2b66b9" d="M 23.617188 10.019531 L 23.992188 10.019531 C 24.289062 10.019531 24.574219 10.078125 24.851562 10.191406 C 25.125 10.304688 25.371094 10.46875 25.578125 10.679688 C 25.789062 10.890625 25.953125 11.132812 26.066406 11.410156 C 26.179688 11.683594 26.238281 11.96875 26.238281 12.269531 L 26.238281 13.390625 L 24.367188 13.390625 L 24.367188 17.511719 L 19.871094 17.511719 L 19.871094 12.644531 L 17.621094 11.519531 L 18.746094 9.273438 L 21.367188 10.019531 Z M 23.617188 10.019531 " fill-opacity="1" fill-rule="nonzero"/></g><g clip-path="url(#dfd980fc47)"><path fill="#3377cc" d="M 23.992188 10.019531 L 21.367188 10.019531 L 20.621094 9.808594 L 20.621094 10.019531 C 20.621094 10.648438 20.707031 11.261719 20.878906 11.867188 C 21.050781 12.46875 21.300781 13.039062 21.632812 13.570312 C 21.964844 14.105469 22.359375 14.582031 22.824219 15.003906 C 23.289062 15.425781 23.804688 15.777344 24.367188 16.054688 L 24.367188 13.390625 L 26.238281 13.390625 L 26.238281 12.269531 C 26.238281 11.96875 26.179688 11.683594 26.066406 11.410156 C 25.953125 11.132812 25.789062 10.890625 25.578125 10.679688 C 25.371094 10.46875 25.125 10.304688 24.851562 10.191406 C 24.574219 10.078125 24.289062 10.019531 23.992188 10.019531 Z M 23.992188 10.019531 " fill-opacity="1" fill-rule="nonzero"/></g><path fill="#684d42" d="M 19.871094 6.273438 L 19.871094 5.152344 C 19.871094 4.902344 19.917969 4.664062 20.011719 4.433594 C 20.109375 4.203125 20.242188 4.003906 20.417969 3.828125 C 20.59375 3.652344 20.796875 3.515625 21.027344 3.421875 C 21.253906 3.324219 21.496094 3.277344 21.742188 3.277344 L 23.617188 3.277344 C 23.824219 3.277344 24 3.351562 24.144531 3.496094 C 24.292969 3.644531 24.367188 3.820312 24.367188 4.027344 L 25.113281 4.027344 L 25.113281 6.273438 " fill-opacity="1" fill-rule="nonzero"/><path fill="#886f65" d="M 25.113281 4.027344 L 24.367188 4.027344 C 24.367188 3.820312 24.292969 3.644531 24.144531 3.496094 C 24 3.351562 23.824219 3.277344 23.617188 3.277344 L 21.742188 3.277344 C 21.425781 3.28125 21.128906 3.359375 20.851562 3.511719 C 20.699219 3.789062 20.621094 4.085938 20.621094 4.402344 C 20.621094 4.550781 20.648438 4.695312 20.703125 4.832031 C 20.761719 4.96875 20.84375 5.089844 20.949219 5.195312 C 21.054688 5.300781 21.175781 5.382812 21.3125 5.441406 C 21.449219 5.496094 21.59375 5.527344 21.742188 5.527344 L 25.113281 5.527344 Z M 25.113281 4.027344 " fill-opacity="1" fill-rule="nonzero"/><path fill="#886f65" d="M 12.003906 24.257812 L 11.753906 23.253906 C 11.667969 22.921875 11.703125 22.605469 11.855469 22.300781 C 11.953125 22.105469 12.003906 21.898438 12.003906 21.683594 L 12.003906 20.519531 C 12.003906 20.261719 11.910156 20.042969 11.730469 19.859375 C 11.585938 19.71875 11.5 19.546875 11.46875 19.351562 C 11.4375 19.152344 11.464844 18.960938 11.554688 18.78125 L 11.628906 18.636719 C 11.828125 18.636719 12.019531 18.597656 12.203125 18.523438 C 12.386719 18.445312 12.546875 18.339844 12.6875 18.199219 C 12.828125 18.058594 12.9375 17.894531 13.011719 17.710938 C 13.089844 17.527344 13.125 17.335938 13.125 17.136719 L 12.792969 16.636719 C 12.515625 16.222656 12.128906 16.015625 11.628906 16.015625 L 11.253906 16.015625 L 11.253906 14.515625 C 10.898438 14.632812 10.589844 14.824219 10.328125 15.089844 C 10.0625 15.351562 9.875 15.660156 9.753906 16.015625 L 9.722656 16.03125 C 9.503906 16.140625 9.332031 16.300781 9.203125 16.507812 C 9.074219 16.71875 9.011719 16.945312 9.011719 17.191406 L 9.011719 17.21875 C 9.015625 17.90625 8.8125 18.519531 8.402344 19.066406 L 8.386719 19.085938 C 8.050781 19.539062 7.648438 19.929688 7.1875 20.257812 C 6.679688 20.621094 6 21.105469 5.601562 21.390625 C 5.375 21.554688 5.199219 21.757812 5.074219 22.007812 L 5.066406 22.019531 C 4.945312 22.261719 4.886719 22.519531 4.886719 22.792969 L 4.886719 24.476562 C 4.886719 24.828125 5.007812 25.128906 5.257812 25.375 C 5.507812 25.628906 5.808594 25.753906 6.164062 25.753906 L 10.128906 25.753906 C 10.128906 25.605469 10.101562 25.460938 10.042969 25.324219 C 9.988281 25.1875 9.90625 25.066406 9.800781 24.960938 C 9.695312 24.855469 9.574219 24.773438 9.4375 24.714844 C 9.296875 24.660156 9.15625 24.628906 9.007812 24.628906 C 9.503906 24.132812 9.753906 23.527344 9.753906 22.820312 L 9.753906 22.382812 L 11.253906 25.753906 L 12.753906 25.753906 L 12.753906 25.46875 C 12.753906 25.210938 12.683594 24.972656 12.550781 24.753906 C 12.414062 24.539062 12.234375 24.371094 12.003906 24.257812 Z M 12.003906 24.257812 " fill-opacity="1" fill-rule="nonzero"/><path fill="#9d8980" d="M 12.003906 24.257812 L 11.753906 23.253906 C 11.667969 22.921875 11.703125 22.605469 11.855469 22.300781 C 11.953125 22.105469 12.003906 21.898438 12.003906 21.683594 L 12.003906 20.519531 C 12.003906 20.261719 11.910156 20.042969 11.730469 19.859375 C 11.585938 19.71875 11.5 19.546875 11.46875 19.351562 C 11.4375 19.152344 11.464844 18.960938 11.554688 18.78125 L 11.628906 18.636719 C 11.828125 18.636719 12.019531 18.597656 12.203125 18.523438 C 12.386719 18.445312 12.546875 18.339844 12.6875 18.199219 C 12.828125 18.058594 12.9375 17.894531 13.011719 17.710938 C 13.089844 17.527344 13.125 17.335938 13.125 17.136719 L 12.792969 16.636719 C 12.515625 16.222656 12.128906 16.015625 11.628906 16.015625 L 11.253906 16.015625 L 11.253906 15.316406 C 11.089844 15.527344 10.964844 15.761719 10.878906 16.015625 L 10.847656 16.03125 C 10.628906 16.140625 10.453125 16.300781 10.324219 16.507812 C 10.199219 16.71875 10.132812 16.945312 10.136719 17.191406 L 10.136719 17.21875 C 10.140625 17.90625 9.9375 18.519531 9.527344 19.066406 L 9.511719 19.085938 C 9.171875 19.539062 8.773438 19.929688 8.3125 20.257812 C 7.800781 20.621094 7.125 21.105469 6.722656 21.390625 C 6.496094 21.554688 6.320312 21.757812 6.195312 22.007812 L 6.191406 22.019531 C 6.070312 22.261719 6.007812 22.519531 6.007812 22.792969 L 6.007812 24.476562 C 6.007812 24.828125 6.132812 25.128906 6.382812 25.375 C 6.632812 25.628906 6.933594 25.753906 7.289062 25.753906 L 10.128906 25.753906 C 10.128906 25.605469 10.101562 25.460938 10.042969 25.324219 C 9.988281 25.1875 9.90625 25.066406 9.800781 24.960938 C 9.695312 24.855469 9.574219 24.773438 9.4375 24.714844 C 9.296875 24.660156 9.15625 24.628906 9.007812 24.628906 C 9.503906 24.132812 9.753906 23.527344 9.753906 22.820312 L 9.753906 22.382812 L 10.523438 24.113281 L 10.886719 24.929688 L 11.253906 25.753906 L 12.753906 25.753906 L 12.753906 25.46875 C 12.753906 25.210938 12.683594 24.972656 12.550781 24.753906 C 12.414062 24.539062 12.234375 24.371094 12.003906 24.257812 Z M 12.003906 24.257812 " fill-opacity="1" fill-rule="nonzero"/><path fill="#684d42" d="M 11.253906 16.765625 L 12.003906 16.765625 L 12.003906 17.511719 L 11.253906 17.511719 Z M 11.253906 16.765625 " fill-opacity="1" fill-rule="nonzero"/><path fill="#d3a59c" d="M 20.246094 6.273438 L 20.058594 6.273438 C 19.796875 6.273438 19.578125 6.367188 19.394531 6.550781 C 19.210938 6.730469 19.121094 6.953125 19.121094 7.210938 C 19.121094 7.46875 19.210938 7.691406 19.394531 7.875 C 19.578125 8.054688 19.796875 8.148438 20.058594 8.148438 L 20.371094 8.148438 " fill-opacity="1" fill-rule="nonzero"/><path fill="#d3a59c" d="M 24.738281 6.273438 L 24.925781 6.273438 C 25.1875 6.273438 25.40625 6.367188 25.589844 6.550781 C 25.773438 6.730469 25.863281 6.953125 25.863281 7.210938 C 25.863281 7.46875 25.773438 7.691406 25.589844 7.875 C 25.40625 8.054688 25.1875 8.148438 24.925781 8.148438 L 24.613281 8.148438 " fill-opacity="1" fill-rule="nonzero"/><path fill="#eeb8ab" d="M 21.367188 9.347656 L 21.367188 10.019531 C 21.367188 10.167969 21.398438 10.3125 21.453125 10.449219 C 21.511719 10.589844 21.59375 10.710938 21.699219 10.816406 C 21.804688 10.921875 21.925781 11.003906 22.0625 11.058594 C 22.199219 11.117188 22.34375 11.144531 22.492188 11.144531 C 22.640625 11.144531 22.785156 11.117188 22.921875 11.058594 C 23.058594 11.003906 23.179688 10.921875 23.285156 10.816406 C 23.390625 10.710938 23.472656 10.589844 23.53125 10.449219 C 23.585938 10.3125 23.617188 10.167969 23.617188 10.019531 L 23.617188 9.347656 " fill-opacity="1" fill-rule="nonzero"/><path fill="#eeab45" d="M 12.753906 9.273438 C 12.753906 9.46875 12.714844 9.660156 12.636719 9.84375 C 12.5625 10.027344 12.453125 10.191406 12.3125 10.332031 C 12.171875 10.472656 12.011719 10.578125 11.828125 10.65625 C 11.644531 10.730469 11.453125 10.769531 11.253906 10.769531 C 11.054688 10.769531 10.863281 10.730469 10.679688 10.65625 C 10.496094 10.578125 10.335938 10.472656 10.195312 10.332031 C 10.054688 10.191406 9.945312 10.027344 9.871094 9.84375 C 9.792969 9.660156 9.753906 9.46875 9.753906 9.273438 C 9.753906 9.074219 9.792969 8.882812 9.871094 8.699219 C 9.945312 8.515625 10.054688 8.351562 10.195312 8.210938 C 10.335938 8.070312 10.496094 7.964844 10.679688 7.886719 C 10.863281 7.8125 11.054688 7.773438 11.253906 7.773438 C 11.453125 7.773438 11.644531 7.8125 11.828125 7.886719 C 12.011719 7.964844 12.171875 8.070312 12.3125 8.210938 C 12.453125 8.351562 12.5625 8.515625 12.636719 8.699219 C 12.714844 8.882812 12.753906 9.074219 12.753906 9.273438 Z M 12.753906 9.273438 " fill-opacity="1" fill-rule="nonzero"/><g clip-path="url(#578a384cdf)"><path fill="#745749" d="M 4.886719 24.628906 C 4.6875 24.628906 4.496094 24.59375 4.3125 24.515625 C 4.128906 24.441406 3.964844 24.332031 3.824219 24.191406 C 3.683594 24.050781 3.578125 23.890625 3.5 23.707031 C 3.425781 23.523438 3.386719 23.332031 3.386719 23.132812 L 3.386719 23.09375 C 3.382812 21.859375 3.617188 20.667969 4.09375 19.523438 C 4.566406 18.382812 5.242188 17.375 6.117188 16.5 L 6.648438 17.03125 C 5.84375 17.832031 5.222656 18.761719 4.785156 19.8125 C 4.351562 20.863281 4.132812 21.957031 4.136719 23.09375 L 4.136719 23.132812 C 4.136719 23.339844 4.210938 23.515625 4.355469 23.660156 C 4.503906 23.808594 4.679688 23.882812 4.886719 23.882812 Z M 4.886719 24.628906 " fill-opacity="1" fill-rule="nonzero"/></g><path fill="#9d9e9d" d="M 19.871094 17.511719 L 19.871094 24.257812 L 24.367188 24.257812 L 24.367188 17.511719 " fill-opacity="1" fill-rule="nonzero"/><path fill="#bcbdbc" d="M 20.621094 19.011719 C 20.621094 19.542969 20.710938 20.058594 20.894531 20.554688 C 21.078125 21.054688 21.339844 21.503906 21.683594 21.910156 C 22.023438 22.316406 22.425781 22.648438 22.886719 22.914062 C 23.347656 23.175781 23.839844 23.351562 24.367188 23.4375 L 24.367188 17.511719 L 20.621094 17.511719 Z M 20.621094 19.011719 " fill-opacity="1" fill-rule="nonzero"/><path fill="#745749" d="M 19.871094 24.257812 L 19.652344 24.476562 C 19.296875 24.828125 19.121094 25.253906 19.121094 25.753906 L 25.113281 25.753906 C 25.113281 25.253906 24.9375 24.828125 24.585938 24.476562 L 24.367188 24.257812 " fill-opacity="1" fill-rule="nonzero"/><path fill="#747574" d="M 21.742188 19.011719 L 22.492188 19.011719 L 22.492188 24.257812 L 21.742188 24.257812 Z M 21.742188 19.011719 " fill-opacity="1" fill-rule="nonzero"/><path fill="#684d42" d="M 21.742188 24.257812 L 22.492188 24.257812 L 22.492188 25.753906 L 21.742188 25.753906 Z M 21.742188 24.257812 " fill-opacity="1" fill-rule="nonzero"/><path fill="#ffe1d3" d="M 24.367188 13.390625 L 24.367188 19.011719 C 24.5625 19.011719 24.753906 18.972656 24.9375 18.898438 C 25.121094 18.820312 25.285156 18.714844 25.425781 18.574219 C 25.566406 18.433594 25.671875 18.269531 25.75 18.085938 C 25.824219 17.902344 25.863281 17.710938 25.863281 17.511719 L 25.863281 13.390625 " fill-opacity="1" fill-rule="nonzero"/><path fill="#684d42" d="M 7.132812 24.257812 L 9.007812 24.257812 L 9.007812 25.003906 L 7.132812 25.003906 Z M 7.132812 24.257812 " fill-opacity="1" fill-rule="nonzero"/><path fill="#747574" d="M 11.640625 19.757812 C 11.472656 19.53125 11.421875 19.28125 11.480469 19.007812 C 10.554688 18.972656 9.734375 18.664062 9.015625 18.085938 L 8.902344 18 C 8.839844 18.253906 8.742188 18.496094 8.617188 18.722656 C 9.457031 19.375 10.410156 19.722656 11.472656 19.757812 Z M 11.640625 19.757812 " fill-opacity="1" fill-rule="nonzero"/><path fill="#9d9e9d" d="M 11.640625 19.757812 C 11.601562 19.707031 11.570312 19.652344 11.542969 19.59375 C 11.542969 19.585938 11.539062 19.578125 11.535156 19.570312 C 11.511719 19.519531 11.496094 19.464844 11.480469 19.410156 L 11.480469 19.394531 C 11.453125 19.265625 11.453125 19.136719 11.480469 19.007812 C 10.894531 18.984375 10.339844 18.847656 9.816406 18.589844 C 9.734375 18.757812 9.636719 18.917969 9.527344 19.066406 L 9.511719 19.085938 C 9.476562 19.132812 9.441406 19.175781 9.402344 19.21875 C 10.054688 19.550781 10.746094 19.730469 11.472656 19.757812 Z M 11.640625 19.757812 " fill-opacity="1" fill-rule="nonzero"/><path fill="#eeb8ab" d="M 24.738281 6.273438 L 24.738281 7.398438 C 24.738281 7.695312 24.683594 7.984375 24.570312 8.257812 C 24.453125 8.535156 24.292969 8.777344 24.082031 8.988281 C 23.871094 9.199219 23.628906 9.359375 23.351562 9.476562 C 23.078125 9.589844 22.789062 9.644531 22.492188 9.644531 C 22.195312 9.644531 21.90625 9.589844 21.632812 9.476562 C 21.355469 9.359375 21.113281 9.199219 20.902344 8.988281 C 20.691406 8.777344 20.53125 8.535156 20.414062 8.257812 C 20.300781 7.984375 20.246094 7.695312 20.246094 7.398438 L 20.246094 6.273438 L 21.4375 5.976562 C 21.640625 5.925781 21.847656 5.898438 22.058594 5.898438 L 22.183594 5.898438 C 22.886719 5.898438 23.492188 5.652344 23.992188 5.152344 Z M 24.738281 6.273438 " fill-opacity="1" fill-rule="nonzero"/><path fill="#ffe1d3" d="M 22.183594 6.273438 L 22.058594 6.273438 C 21.847656 6.273438 21.640625 6.300781 21.4375 6.351562 L 20.246094 6.648438 L 20.246094 7.398438 C 20.246094 7.695312 20.300781 7.984375 20.414062 8.257812 C 20.53125 8.535156 20.691406 8.777344 20.902344 8.988281 C 21.113281 9.199219 21.355469 9.359375 21.632812 9.476562 C 21.90625 9.589844 22.195312 9.644531 22.492188 9.644531 C 22.789062 9.644531 23.078125 9.589844 23.351562 9.476562 C 23.628906 9.359375 23.871094 9.199219 24.082031 8.988281 C 24.292969 8.777344 24.453125 8.535156 24.570312 8.257812 C 24.683594 7.984375 24.738281 7.695312 24.738281 7.398438 L 24.738281 6.648438 L 23.992188 5.527344 C 23.492188 6.023438 22.886719 6.273438 22.183594 6.273438 Z M 22.183594 6.273438 " fill-opacity="1" fill-rule="nonzero"/><path fill="#ffe1d3" d="M 22.492188 11.144531 C 22.640625 11.144531 22.785156 11.117188 22.921875 11.058594 C 23.058594 11.003906 23.179688 10.921875 23.285156 10.816406 C 23.390625 10.710938 23.472656 10.589844 23.53125 10.449219 C 23.585938 10.3125 23.617188 10.167969 23.617188 10.019531 L 21.367188 10.019531 C 21.367188 10.167969 21.398438 10.3125 21.453125 10.449219 C 21.511719 10.589844 21.59375 10.710938 21.699219 10.816406 C 21.804688 10.921875 21.925781 11.003906 22.0625 11.058594 C 22.199219 11.117188 22.34375 11.144531 22.492188 11.144531 Z M 22.492188 11.144531 " fill-opacity="1" fill-rule="nonzero"/><path fill="#9d9e9d" d="M 21.742188 21.976562 C 21.96875 22.230469 22.21875 22.457031 22.492188 22.65625 L 22.492188 19.011719 L 21.742188 19.011719 Z M 21.742188 21.976562 " fill-opacity="1" fill-rule="nonzero"/><path fill="#f3c350" d="M 11.253906 7.773438 C 10.976562 7.773438 10.714844 7.84375 10.476562 7.988281 C 10.238281 8.132812 10.054688 8.328125 9.925781 8.578125 C 9.796875 8.824219 9.742188 9.085938 9.757812 9.363281 C 9.777344 9.644531 9.863281 9.898438 10.023438 10.125 C 10.320312 10.332031 10.652344 10.421875 11.011719 10.390625 C 11.375 10.359375 11.683594 10.214844 11.941406 9.957031 C 12.195312 9.699219 12.339844 9.390625 12.371094 9.03125 C 12.402344 8.667969 12.316406 8.339844 12.109375 8.042969 C 11.851562 7.863281 11.566406 7.773438 11.253906 7.773438 Z M 11.253906 7.773438 " fill-opacity="1" fill-rule="nonzero"/><path fill="#000000" d="M 11.253906 16.765625 L 12.003906 16.765625 L 12.003906 17.511719 L 11.253906 17.511719 Z M 11.253906 16.765625 " fill-opacity="1" fill-rule="nonzero"/><g clip-path="url(#3f0e81bde0)"><path fill="#000000" d="M 23.992188 9.644531 L 23.992188 9.546875 C 24.371094 9.28125 24.660156 8.941406 24.859375 8.523438 L 24.925781 8.523438 C 25.234375 8.523438 25.507812 8.429688 25.746094 8.238281 C 25.984375 8.046875 26.136719 7.800781 26.207031 7.503906 C 26.273438 7.203125 26.238281 6.917969 26.105469 6.640625 C 25.972656 6.367188 25.765625 6.164062 25.488281 6.03125 L 25.488281 4.027344 C 25.488281 3.921875 25.453125 3.835938 25.378906 3.761719 C 25.304688 3.6875 25.21875 3.652344 25.113281 3.652344 L 24.675781 3.652344 C 24.597656 3.429688 24.460938 3.246094 24.265625 3.109375 C 24.070312 2.972656 23.855469 2.902344 23.617188 2.902344 L 21.742188 2.902344 C 21.445312 2.902344 21.160156 2.960938 20.882812 3.074219 C 20.609375 3.1875 20.363281 3.351562 20.152344 3.5625 C 19.945312 3.773438 19.78125 4.015625 19.667969 4.292969 C 19.554688 4.566406 19.496094 4.851562 19.496094 5.152344 L 19.496094 6.03125 C 19.21875 6.164062 19.011719 6.367188 18.878906 6.640625 C 18.746094 6.917969 18.710938 7.203125 18.777344 7.503906 C 18.847656 7.800781 19 8.046875 19.238281 8.238281 C 19.476562 8.429688 19.75 8.523438 20.058594 8.523438 L 20.125 8.523438 C 20.316406 8.917969 20.589844 9.25 20.945312 9.511719 L 18.890625 8.921875 L 15.777344 7.203125 C 15.769531 7.199219 15.757812 7.195312 15.75 7.1875 L 15.75 4.777344 C 15.75 4.605469 15.667969 4.488281 15.507812 4.425781 C 15.347656 4.363281 15.210938 4.398438 15.097656 4.527344 L 12.25 7.691406 C 12.121094 7.609375 11.980469 7.546875 11.835938 7.496094 C 11.691406 7.449219 11.539062 7.421875 11.386719 7.410156 C 11.234375 7.402344 11.082031 7.410156 10.929688 7.4375 C 10.78125 7.464844 10.636719 7.507812 10.496094 7.570312 C 10.355469 7.632812 10.226562 7.710938 10.105469 7.808594 C 9.984375 7.902344 9.878906 8.011719 9.785156 8.132812 C 9.691406 8.253906 9.613281 8.382812 9.550781 8.523438 C 9.488281 8.664062 9.445312 8.808594 9.417969 8.960938 C 9.394531 9.113281 9.386719 9.265625 9.398438 9.417969 C 9.410156 9.570312 9.441406 9.71875 9.488281 9.863281 C 9.535156 10.007812 9.601562 10.148438 9.683594 10.277344 C 9.765625 10.40625 9.863281 10.523438 9.972656 10.628906 C 10.085938 10.734375 10.207031 10.824219 10.339844 10.902344 C 10.472656 10.976562 10.613281 11.035156 10.761719 11.074219 C 10.910156 11.117188 11.058594 11.136719 11.214844 11.140625 C 11.367188 11.144531 11.519531 11.132812 11.667969 11.097656 C 11.816406 11.0625 11.960938 11.011719 12.097656 10.945312 C 12.234375 10.875 12.363281 10.792969 12.476562 10.691406 C 12.59375 10.589844 12.695312 10.480469 12.785156 10.355469 C 12.875 10.230469 12.945312 10.09375 13 9.953125 C 13.054688 9.808594 13.09375 9.660156 13.113281 9.507812 C 13.132812 9.359375 13.132812 9.207031 13.113281 9.054688 C 13.097656 8.902344 13.058594 8.753906 13.003906 8.609375 C 12.953125 8.46875 12.878906 8.332031 12.792969 8.207031 L 15 5.753906 L 15 7.035156 C 14.679688 7.070312 14.414062 7.207031 14.199219 7.441406 C 13.984375 7.679688 13.878906 7.957031 13.875 8.277344 C 13.875 8.835938 14.109375 9.257812 14.582031 9.550781 L 15 9.800781 L 15 12.269531 L 15.75 12.269531 L 15.75 10.246094 L 17.359375 11.203125 L 17.285156 11.351562 C 17.238281 11.445312 17.230469 11.542969 17.265625 11.640625 C 17.296875 11.738281 17.359375 11.808594 17.453125 11.855469 L 19.496094 12.875 L 19.496094 24.101562 L 19.386719 24.210938 C 18.957031 24.636719 18.746094 25.152344 18.746094 25.753906 C 18.746094 25.859375 18.78125 25.945312 18.855469 26.019531 C 18.929688 26.09375 19.015625 26.128906 19.121094 26.128906 L 25.113281 26.128906 C 25.21875 26.128906 25.304688 26.09375 25.378906 26.019531 C 25.453125 25.945312 25.488281 25.859375 25.488281 25.753906 C 25.488281 25.152344 25.273438 24.636719 24.851562 24.210938 L 24.738281 24.101562 L 24.738281 19.347656 C 24.953125 19.304688 25.148438 19.226562 25.332031 19.117188 C 25.519531 19.003906 25.679688 18.863281 25.816406 18.695312 C 25.953125 18.53125 26.054688 18.34375 26.128906 18.140625 C 26.203125 17.9375 26.238281 17.730469 26.238281 17.511719 L 26.238281 13.765625 C 26.339844 13.765625 26.429688 13.730469 26.503906 13.65625 C 26.578125 13.585938 26.613281 13.496094 26.613281 13.390625 L 26.613281 12.269531 C 26.613281 11.921875 26.546875 11.585938 26.414062 11.265625 C 26.277344 10.945312 26.089844 10.660156 25.84375 10.414062 C 25.597656 10.167969 25.316406 9.980469 24.992188 9.847656 C 24.671875 9.714844 24.339844 9.648438 23.992188 9.644531 Z M 11.253906 10.394531 C 11.105469 10.394531 10.960938 10.367188 10.824219 10.308594 C 10.6875 10.253906 10.566406 10.171875 10.460938 10.066406 C 10.355469 9.960938 10.273438 9.839844 10.214844 9.703125 C 10.160156 9.5625 10.128906 9.421875 10.128906 9.273438 C 10.128906 9.121094 10.160156 8.980469 10.214844 8.839844 C 10.273438 8.703125 10.355469 8.582031 10.460938 8.476562 C 10.566406 8.371094 10.6875 8.289062 10.824219 8.234375 C 10.960938 8.175781 11.105469 8.148438 11.253906 8.148438 C 11.402344 8.148438 11.546875 8.175781 11.683594 8.234375 C 11.820312 8.289062 11.941406 8.371094 12.046875 8.476562 C 12.152344 8.582031 12.234375 8.703125 12.292969 8.839844 C 12.347656 8.980469 12.378906 9.121094 12.378906 9.273438 C 12.378906 9.421875 12.347656 9.5625 12.292969 9.703125 C 12.234375 9.839844 12.152344 9.960938 12.046875 10.066406 C 11.941406 10.171875 11.820312 10.253906 11.683594 10.308594 C 11.546875 10.367188 11.402344 10.394531 11.253906 10.394531 Z M 21.742188 9.910156 C 22.242188 10.058594 22.742188 10.058594 23.242188 9.910156 L 23.242188 10.019531 C 23.242188 10.226562 23.167969 10.402344 23.023438 10.550781 C 22.875 10.695312 22.699219 10.769531 22.492188 10.769531 C 22.285156 10.769531 22.109375 10.695312 21.960938 10.550781 C 21.816406 10.402344 21.742188 10.226562 21.742188 10.019531 Z M 25.089844 7.746094 C 25.105469 7.628906 25.113281 7.515625 25.113281 7.398438 L 25.113281 6.683594 C 25.371094 6.773438 25.496094 6.953125 25.488281 7.222656 C 25.484375 7.496094 25.347656 7.671875 25.089844 7.746094 Z M 21.742188 3.652344 L 23.617188 3.652344 C 23.71875 3.652344 23.808594 3.6875 23.882812 3.761719 C 23.953125 3.835938 23.992188 3.921875 23.992188 4.027344 C 23.992188 4.128906 24.027344 4.21875 24.101562 4.292969 C 24.171875 4.363281 24.261719 4.402344 24.367188 4.402344 L 24.738281 4.402344 L 24.738281 5.601562 L 24.300781 4.941406 C 24.238281 4.84375 24.144531 4.789062 24.027344 4.777344 C 23.910156 4.765625 23.808594 4.804688 23.726562 4.886719 C 23.296875 5.3125 22.785156 5.523438 22.183594 5.527344 L 22.058594 5.527344 C 21.816406 5.527344 21.578125 5.554688 21.347656 5.613281 L 20.246094 5.890625 L 20.246094 5.152344 C 20.246094 4.953125 20.28125 4.761719 20.359375 4.578125 C 20.433594 4.394531 20.542969 4.230469 20.683594 4.089844 C 20.824219 3.949219 20.984375 3.84375 21.167969 3.765625 C 21.351562 3.691406 21.542969 3.652344 21.742188 3.652344 Z M 19.496094 7.210938 C 19.496094 6.949219 19.621094 6.773438 19.871094 6.683594 L 19.871094 7.398438 C 19.871094 7.515625 19.878906 7.632812 19.894531 7.746094 C 19.628906 7.667969 19.496094 7.488281 19.496094 7.210938 Z M 20.621094 7.398438 L 20.621094 6.566406 L 21.527344 6.339844 C 21.703125 6.296875 21.878906 6.273438 22.058594 6.273438 L 22.183594 6.273438 C 22.820312 6.273438 23.398438 6.085938 23.914062 5.707031 L 24.367188 6.386719 L 24.367188 7.398438 C 24.367188 7.648438 24.316406 7.886719 24.222656 8.117188 C 24.128906 8.34375 23.992188 8.546875 23.816406 8.722656 C 23.640625 8.898438 23.4375 9.035156 23.207031 9.128906 C 22.980469 9.222656 22.742188 9.273438 22.492188 9.273438 C 22.242188 9.273438 22.003906 9.222656 21.777344 9.128906 C 21.546875 9.035156 21.34375 8.898438 21.167969 8.722656 C 20.992188 8.546875 20.855469 8.34375 20.761719 8.117188 C 20.667969 7.886719 20.621094 7.648438 20.621094 7.398438 Z M 14.972656 8.914062 C 14.742188 8.765625 14.625 8.554688 14.625 8.277344 C 14.628906 8.082031 14.714844 7.933594 14.890625 7.839844 C 15.0625 7.742188 15.234375 7.746094 15.402344 7.851562 L 18.25 9.425781 L 17.695312 10.53125 Z M 21.742188 19.011719 L 21.742188 23.882812 L 20.246094 23.882812 L 20.246094 17.886719 L 23.992188 17.886719 L 23.992188 23.882812 L 22.492188 23.882812 L 22.492188 19.011719 Z M 19.914062 24.742188 L 20.023438 24.628906 L 21.742188 24.628906 L 21.742188 25.378906 L 19.546875 25.378906 C 19.613281 25.132812 19.734375 24.921875 19.914062 24.742188 Z M 22.492188 25.378906 L 22.492188 24.628906 L 24.210938 24.628906 L 24.320312 24.742188 C 24.5 24.921875 24.621094 25.132812 24.6875 25.378906 Z M 25.488281 17.511719 C 25.488281 17.75 25.417969 17.964844 25.28125 18.160156 C 25.144531 18.351562 24.964844 18.488281 24.738281 18.566406 L 24.738281 13.765625 L 25.488281 13.765625 Z M 25.863281 13.019531 L 24.367188 13.019531 C 24.261719 13.019531 24.171875 13.054688 24.101562 13.128906 C 24.027344 13.199219 23.992188 13.289062 23.992188 13.390625 L 23.992188 17.136719 L 20.246094 17.136719 L 20.246094 12.644531 C 20.246094 12.488281 20.175781 12.375 20.039062 12.308594 L 18.125 11.351562 L 18.941406 9.71875 L 21.023438 10.3125 C 21.089844 10.65625 21.257812 10.9375 21.523438 11.164062 C 21.789062 11.390625 22.097656 11.507812 22.445312 11.519531 C 22.796875 11.527344 23.109375 11.429688 23.390625 11.21875 C 23.667969 11.007812 23.851562 10.734375 23.9375 10.394531 L 23.992188 10.394531 C 24.238281 10.394531 24.476562 10.445312 24.707031 10.539062 C 24.9375 10.632812 25.140625 10.769531 25.3125 10.945312 C 25.488281 11.121094 25.625 11.324219 25.71875 11.550781 C 25.816406 11.78125 25.863281 12.019531 25.863281 12.269531 Z M 25.863281 13.019531 " fill-opacity="1" fill-rule="nonzero"/></g><g clip-path="url(#f9f98667de)"><path fill="#000000" d="M 4.519531 24.582031 C 4.542969 24.992188 4.699219 25.347656 4.992188 25.640625 C 5.316406 25.964844 5.707031 26.128906 6.164062 26.128906 L 10.128906 26.128906 C 10.234375 26.128906 10.320312 26.09375 10.394531 26.019531 C 10.46875 25.945312 10.503906 25.859375 10.503906 25.753906 C 10.503906 25.46875 10.429688 25.203125 10.277344 24.960938 C 10.125 24.71875 9.921875 24.535156 9.664062 24.40625 C 9.789062 24.210938 9.890625 24.003906 9.964844 23.78125 L 10.910156 25.90625 C 10.976562 26.054688 11.089844 26.128906 11.253906 26.128906 L 12.753906 26.128906 C 12.855469 26.128906 12.945312 26.09375 13.015625 26.019531 C 13.089844 25.945312 13.125 25.859375 13.125 25.753906 L 13.125 25.46875 C 13.128906 25.171875 13.058594 24.894531 12.914062 24.636719 C 12.773438 24.375 12.578125 24.167969 12.328125 24.011719 L 12.117188 23.164062 C 12.054688 22.921875 12.082031 22.691406 12.191406 22.46875 C 12.316406 22.21875 12.375 21.957031 12.378906 21.679688 L 12.378906 20.519531 C 12.378906 20.15625 12.25 19.851562 11.996094 19.59375 C 11.820312 19.421875 11.78125 19.222656 11.871094 18.996094 C 12.097656 18.964844 12.308594 18.898438 12.507812 18.789062 C 12.710938 18.683594 12.886719 18.542969 13.035156 18.375 C 13.183594 18.203125 13.300781 18.011719 13.378906 17.796875 C 13.460938 17.585938 13.5 17.367188 13.5 17.136719 C 13.5 17.0625 13.480469 16.992188 13.4375 16.929688 L 13.105469 16.429688 C 12.753906 15.902344 12.261719 15.640625 11.628906 15.640625 L 11.628906 14.515625 C 11.628906 14.386719 11.578125 14.285156 11.472656 14.210938 C 11.371094 14.136719 11.257812 14.121094 11.136719 14.160156 C 10.328125 14.433594 9.769531 14.960938 9.453125 15.753906 C 9.195312 15.90625 8.992188 16.113281 8.84375 16.378906 C 8.699219 16.640625 8.628906 16.921875 8.636719 17.222656 C 8.636719 17.832031 8.453125 18.378906 8.089844 18.863281 C 7.773438 19.285156 7.398438 19.648438 6.972656 19.953125 L 5.382812 21.085938 C 5.101562 21.289062 4.886719 21.542969 4.734375 21.847656 C 4.585938 22.144531 4.511719 22.460938 4.511719 22.792969 L 4.511719 23.777344 C 4.261719 23.632812 4.136719 23.417969 4.136719 23.132812 L 4.136719 23.09375 C 4.132812 21.957031 4.347656 20.863281 4.785156 19.808594 C 5.21875 18.757812 5.84375 17.832031 6.648438 17.03125 L 6.117188 16.5 C 5.242188 17.371094 4.566406 18.378906 4.09375 19.523438 C 3.617188 20.667969 3.382812 21.855469 3.386719 23.09375 L 3.386719 23.132812 C 3.386719 23.476562 3.496094 23.78125 3.707031 24.050781 C 3.917969 24.320312 4.1875 24.496094 4.519531 24.582031 Z M 9.921875 16.351562 C 10.015625 16.304688 10.078125 16.234375 10.109375 16.132812 C 10.25 15.707031 10.507812 15.367188 10.878906 15.117188 L 10.878906 16.015625 C 10.878906 16.117188 10.914062 16.207031 10.988281 16.28125 C 11.0625 16.351562 11.152344 16.390625 11.253906 16.390625 L 11.628906 16.390625 C 11.996094 16.390625 12.277344 16.542969 12.480469 16.847656 L 12.746094 17.246094 C 12.71875 17.53125 12.597656 17.773438 12.382812 17.96875 C 12.171875 18.164062 11.917969 18.261719 11.628906 18.261719 C 11.472656 18.261719 11.363281 18.332031 11.292969 18.46875 L 11.21875 18.617188 C 11.160156 18.730469 11.125 18.851562 11.101562 18.976562 C 10.417969 18.886719 9.792969 18.644531 9.230469 18.246094 C 9.335938 17.902344 9.386719 17.550781 9.382812 17.1875 C 9.382812 16.796875 9.5625 16.515625 9.921875 16.351562 Z M 5.261719 22.792969 C 5.261719 22.574219 5.3125 22.367188 5.410156 22.175781 C 5.507812 21.980469 5.644531 21.820312 5.816406 21.695312 L 7.40625 20.5625 C 7.90625 20.207031 8.339844 19.785156 8.703125 19.292969 C 8.785156 19.179688 8.859375 19.066406 8.929688 18.945312 C 9.621094 19.398438 10.375 19.664062 11.199219 19.738281 C 11.265625 19.882812 11.355469 20.011719 11.464844 20.128906 C 11.574219 20.238281 11.628906 20.367188 11.628906 20.523438 L 11.628906 21.683594 C 11.628906 21.839844 11.59375 21.992188 11.523438 22.132812 C 11.328125 22.519531 11.285156 22.921875 11.390625 23.34375 L 11.640625 24.347656 C 11.667969 24.457031 11.734375 24.539062 11.835938 24.589844 C 12.164062 24.753906 12.34375 25.015625 12.375 25.378906 L 11.496094 25.378906 L 10.097656 22.230469 C 10.015625 22.046875 9.875 21.972656 9.675781 22.015625 C 9.480469 22.058594 9.378906 22.179688 9.378906 22.382812 L 9.378906 22.820312 C 9.378906 23.367188 9.199219 23.84375 8.84375 24.257812 L 7.132812 24.257812 L 7.132812 25.003906 L 9.007812 25.003906 C 9.292969 25.003906 9.511719 25.128906 9.65625 25.378906 L 6.164062 25.378906 C 5.914062 25.378906 5.699219 25.289062 5.523438 25.113281 C 5.347656 24.9375 5.257812 24.726562 5.261719 24.476562 Z M 5.261719 22.792969 " fill-opacity="1" fill-rule="nonzero"/></g></svg>