<svg xmlns="http://www.w3.org/2000/svg" xmlns:xlink="http://www.w3.org/1999/xlink" width="40" zoomAndPan="magnify" viewBox="0 0 30 30.000001" height="40" preserveAspectRatio="xMidYMid meet" version="1.0"><defs><clipPath id="179bf92938"><path d="M 4.15625 4 L 25.929688 4 L 25.929688 26.128906 L 4.15625 26.128906 Z M 4.15625 4 " clip-rule="nonzero"/></clipPath><clipPath id="fc59d71158"><path d="M 4.15625 4 L 25.929688 4 L 25.929688 26 L 4.15625 26 Z M 4.15625 4 " clip-rule="nonzero"/></clipPath><clipPath id="def58a9fc0"><path d="M 4.15625 4 L 25.929688 4 L 25.929688 12 L 4.15625 12 Z M 4.15625 4 " clip-rule="nonzero"/></clipPath><clipPath id="944c28acbe"><path d="M 6 2.902344 L 8 2.902344 L 8 7 L 6 7 Z M 6 2.902344 " clip-rule="nonzero"/></clipPath><clipPath id="cb7ac9bf3b"><path d="M 9 2.902344 L 11 2.902344 L 11 7 L 9 7 Z M 9 2.902344 " clip-rule="nonzero"/></clipPath><clipPath id="7641058d38"><path d="M 19 2.902344 L 21 2.902344 L 21 7 L 19 7 Z M 19 2.902344 " clip-rule="nonzero"/></clipPath><clipPath id="b4b6aff646"><path d="M 22 2.902344 L 24 2.902344 L 24 7 L 22 7 Z M 22 2.902344 " clip-rule="nonzero"/></clipPath></defs><g clip-path="url(#179bf92938)"><path fill="#55b4f0" d="M 4.160156 4.453125 L 25.925781 4.453125 L 25.925781 26.128906 L 4.160156 26.128906 Z M 4.160156 4.453125 " fill-opacity="1" fill-rule="nonzero"/></g><g clip-path="url(#fc59d71158)"><path fill="#7ec8f2" d="M 25.925781 25.335938 L 25.925781 4.453125 L 4.957031 4.453125 C 4.980469 5.128906 5.035156 5.804688 5.125 6.476562 C 5.210938 7.148438 5.332031 7.8125 5.480469 8.472656 C 5.632812 9.132812 5.8125 9.785156 6.027344 10.429688 C 6.238281 11.074219 6.480469 11.707031 6.75 12.328125 C 7.023438 12.949219 7.324219 13.554688 7.652344 14.148438 C 7.980469 14.742188 8.335938 15.320312 8.71875 15.878906 C 9.101562 16.4375 9.511719 16.980469 9.945312 17.5 C 10.378906 18.023438 10.835938 18.523438 11.316406 19.003906 C 11.796875 19.480469 12.300781 19.9375 12.824219 20.367188 C 13.347656 20.800781 13.890625 21.207031 14.453125 21.589844 C 15.015625 21.96875 15.59375 22.324219 16.191406 22.652344 C 16.785156 22.980469 17.394531 23.277344 18.019531 23.546875 C 18.644531 23.820312 19.277344 24.058594 19.925781 24.269531 C 20.570312 24.480469 21.226562 24.660156 21.890625 24.8125 C 22.550781 24.960938 23.222656 25.082031 23.894531 25.167969 C 24.570312 25.253906 25.246094 25.3125 25.925781 25.335938 Z M 25.925781 25.335938 " fill-opacity="1" fill-rule="nonzero"/></g><g clip-path="url(#def58a9fc0)"><path fill="#f3c350" d="M 4.160156 4.453125 L 25.925781 4.453125 L 25.925781 11.417969 L 4.160156 11.417969 Z M 4.160156 4.453125 " fill-opacity="1" fill-rule="nonzero"/><path fill="#fce95f" d="M 4.957031 4.453125 C 5.039062 6.851562 5.511719 9.175781 6.375 11.417969 L 25.925781 11.417969 L 25.925781 4.453125 Z M 4.957031 4.453125 " fill-opacity="1" fill-rule="nonzero"/></g><path fill="#574138" d="M 20.097656 11.417969 C 20.097656 11.75 20.066406 12.078125 20 12.402344 C 19.933594 12.726562 19.839844 13.039062 19.710938 13.34375 C 19.585938 13.648438 19.429688 13.941406 19.246094 14.214844 C 19.0625 14.488281 18.851562 14.742188 18.617188 14.976562 C 18.382812 15.210938 18.125 15.421875 17.851562 15.605469 C 17.574219 15.785156 17.285156 15.941406 16.976562 16.070312 C 16.671875 16.195312 16.355469 16.289062 16.03125 16.355469 C 15.703125 16.417969 15.375 16.453125 15.042969 16.453125 C 14.710938 16.453125 14.382812 16.417969 14.058594 16.355469 C 13.730469 16.289062 13.417969 16.195312 13.109375 16.070312 C 12.804688 15.941406 12.511719 15.785156 12.234375 15.605469 C 11.960938 15.421875 11.703125 15.210938 11.46875 14.976562 C 11.234375 14.742188 11.027344 14.488281 10.84375 14.214844 C 10.65625 13.941406 10.5 13.648438 10.375 13.34375 C 10.246094 13.039062 10.152344 12.726562 10.085938 12.402344 C 10.023438 12.078125 9.988281 11.75 9.988281 11.417969 C 9.988281 11.089844 10.023438 10.761719 10.085938 10.4375 C 10.152344 10.113281 10.246094 9.800781 10.375 9.492188 C 10.5 9.1875 10.65625 8.898438 10.84375 8.625 C 11.027344 8.347656 11.234375 8.09375 11.46875 7.859375 C 11.703125 7.628906 11.960938 7.417969 12.234375 7.234375 C 12.511719 7.050781 12.804688 6.898438 13.109375 6.769531 C 13.417969 6.644531 13.730469 6.546875 14.058594 6.484375 C 14.382812 6.417969 14.710938 6.386719 15.042969 6.386719 C 15.375 6.386719 15.703125 6.417969 16.03125 6.484375 C 16.355469 6.546875 16.671875 6.644531 16.976562 6.769531 C 17.285156 6.898438 17.574219 7.050781 17.851562 7.234375 C 18.125 7.417969 18.382812 7.628906 18.617188 7.859375 C 18.851562 8.09375 19.0625 8.347656 19.246094 8.625 C 19.429688 8.898438 19.585938 9.1875 19.710938 9.492188 C 19.839844 9.800781 19.933594 10.113281 20 10.4375 C 20.066406 10.761719 20.097656 11.089844 20.097656 11.417969 Z M 20.097656 11.417969 " fill-opacity="1" fill-rule="nonzero"/><path fill="#745749" d="M 15.042969 6.386719 C 13.960938 6.386719 12.980469 6.703125 12.105469 7.332031 C 11.753906 7.816406 11.5 8.34375 11.339844 8.917969 C 11.179688 9.492188 11.125 10.078125 11.171875 10.671875 C 11.222656 11.265625 11.371094 11.832031 11.621094 12.375 C 11.875 12.914062 12.210938 13.398438 12.632812 13.816406 C 13.058594 14.238281 13.542969 14.574219 14.085938 14.824219 C 14.628906 15.078125 15.199219 15.226562 15.792969 15.273438 C 16.390625 15.324219 16.976562 15.265625 17.554688 15.105469 C 18.132812 14.949219 18.664062 14.695312 19.148438 14.347656 C 19.417969 13.96875 19.632812 13.566406 19.792969 13.128906 C 19.953125 12.695312 20.046875 12.246094 20.082031 11.785156 C 20.117188 11.324219 20.089844 10.867188 19.996094 10.414062 C 19.902344 9.960938 19.75 9.527344 19.539062 9.117188 C 19.328125 8.707031 19.0625 8.332031 18.746094 7.992188 C 18.429688 7.652344 18.074219 7.363281 17.675781 7.121094 C 17.28125 6.882812 16.859375 6.699219 16.410156 6.574219 C 15.964844 6.449219 15.507812 6.386719 15.042969 6.386719 Z M 15.042969 6.386719 " fill-opacity="1" fill-rule="nonzero"/><g clip-path="url(#944c28acbe)"><path fill="#392823" d="M 6.878906 2.902344 C 7.09375 2.902344 7.277344 2.980469 7.429688 3.128906 C 7.582031 3.28125 7.65625 3.464844 7.65625 3.675781 L 7.65625 6 C 7.65625 6.214844 7.582031 6.394531 7.429688 6.546875 C 7.277344 6.699219 7.09375 6.773438 6.878906 6.773438 C 6.664062 6.773438 6.484375 6.699219 6.332031 6.546875 C 6.179688 6.394531 6.101562 6.214844 6.101562 6 L 6.101562 3.675781 C 6.101562 3.464844 6.179688 3.28125 6.332031 3.128906 C 6.484375 2.980469 6.664062 2.902344 6.878906 2.902344 Z M 6.878906 2.902344 " fill-opacity="1" fill-rule="nonzero"/></g><g clip-path="url(#cb7ac9bf3b)"><path fill="#392823" d="M 9.988281 2.902344 C 10.203125 2.902344 10.386719 2.980469 10.539062 3.128906 C 10.691406 3.28125 10.769531 3.464844 10.769531 3.675781 L 10.769531 6 C 10.769531 6.214844 10.691406 6.394531 10.539062 6.546875 C 10.386719 6.699219 10.203125 6.773438 9.988281 6.773438 C 9.777344 6.773438 9.59375 6.699219 9.441406 6.546875 C 9.289062 6.394531 9.210938 6.214844 9.210938 6 L 9.210938 3.675781 C 9.210938 3.464844 9.289062 3.28125 9.441406 3.128906 C 9.59375 2.980469 9.777344 2.902344 9.988281 2.902344 Z M 9.988281 2.902344 " fill-opacity="1" fill-rule="nonzero"/></g><g clip-path="url(#7641058d38)"><path fill="#392823" d="M 20.097656 2.902344 C 20.3125 2.902344 20.496094 2.980469 20.648438 3.128906 C 20.796875 3.28125 20.875 3.464844 20.875 3.675781 L 20.875 6 C 20.875 6.214844 20.796875 6.394531 20.648438 6.546875 C 20.496094 6.699219 20.3125 6.773438 20.097656 6.773438 C 19.882812 6.773438 19.699219 6.699219 19.546875 6.546875 C 19.394531 6.394531 19.320312 6.214844 19.320312 6 L 19.320312 3.675781 C 19.320312 3.464844 19.394531 3.28125 19.546875 3.128906 C 19.699219 2.980469 19.882812 2.902344 20.097656 2.902344 Z M 20.097656 2.902344 " fill-opacity="1" fill-rule="nonzero"/></g><g clip-path="url(#b4b6aff646)"><path fill="#392823" d="M 23.207031 2.902344 C 23.421875 2.902344 23.605469 2.980469 23.757812 3.128906 C 23.90625 3.28125 23.984375 3.464844 23.984375 3.675781 L 23.984375 6 C 23.984375 6.214844 23.90625 6.394531 23.757812 6.546875 C 23.605469 6.699219 23.421875 6.773438 23.207031 6.773438 C 22.992188 6.773438 22.808594 6.699219 22.65625 6.546875 C 22.503906 6.394531 22.429688 6.214844 22.429688 6 L 22.429688 3.675781 C 22.429688 3.464844 22.503906 3.28125 22.65625 3.128906 C 22.808594 2.980469 22.992188 2.902344 23.207031 2.902344 Z M 23.207031 2.902344 " fill-opacity="1" fill-rule="nonzero"/></g><path fill="#fce95f" d="M 8.433594 23.417969 C 8.433594 23.574219 8.40625 23.722656 8.347656 23.863281 C 8.289062 24.007812 8.203125 24.132812 8.09375 24.242188 C 7.984375 24.347656 7.859375 24.433594 7.714844 24.492188 C 7.574219 24.550781 7.425781 24.582031 7.269531 24.582031 C 7.113281 24.582031 6.964844 24.550781 6.824219 24.492188 C 6.679688 24.433594 6.554688 24.347656 6.445312 24.242188 C 6.335938 24.132812 6.25 24.007812 6.191406 23.863281 C 6.132812 23.722656 6.101562 23.574219 6.101562 23.417969 C 6.101562 23.265625 6.132812 23.117188 6.191406 22.976562 C 6.25 22.832031 6.335938 22.707031 6.445312 22.597656 C 6.554688 22.488281 6.679688 22.40625 6.824219 22.347656 C 6.964844 22.289062 7.113281 22.257812 7.269531 22.257812 C 7.425781 22.257812 7.574219 22.289062 7.714844 22.347656 C 7.859375 22.40625 7.984375 22.488281 8.09375 22.597656 C 8.203125 22.707031 8.289062 22.832031 8.347656 22.976562 C 8.40625 23.117188 8.433594 23.265625 8.433594 23.417969 Z M 8.433594 23.417969 " fill-opacity="1" fill-rule="nonzero"/><path fill="#fce95f" d="M 12.324219 23.417969 C 12.324219 23.574219 12.292969 23.722656 12.234375 23.863281 C 12.175781 24.007812 12.089844 24.132812 11.980469 24.242188 C 11.871094 24.347656 11.746094 24.433594 11.601562 24.492188 C 11.460938 24.550781 11.3125 24.582031 11.15625 24.582031 C 11 24.582031 10.851562 24.550781 10.710938 24.492188 C 10.566406 24.433594 10.441406 24.347656 10.332031 24.242188 C 10.222656 24.132812 10.136719 24.007812 10.078125 23.863281 C 10.019531 23.722656 9.988281 23.574219 9.988281 23.417969 C 9.988281 23.265625 10.019531 23.117188 10.078125 22.976562 C 10.136719 22.832031 10.222656 22.707031 10.332031 22.597656 C 10.441406 22.488281 10.566406 22.40625 10.710938 22.347656 C 10.851562 22.289062 11 22.257812 11.15625 22.257812 C 11.3125 22.257812 11.460938 22.289062 11.601562 22.347656 C 11.746094 22.40625 11.871094 22.488281 11.980469 22.597656 C 12.089844 22.707031 12.175781 22.832031 12.234375 22.976562 C 12.292969 23.117188 12.324219 23.265625 12.324219 23.417969 Z M 12.324219 23.417969 " fill-opacity="1" fill-rule="nonzero"/><path fill="#fdf3a8" d="M 16.210938 19.160156 C 16.210938 19.316406 16.179688 19.464844 16.121094 19.605469 C 16.0625 19.746094 15.976562 19.875 15.867188 19.984375 C 15.757812 20.089844 15.632812 20.175781 15.488281 20.234375 C 15.347656 20.292969 15.199219 20.324219 15.042969 20.324219 C 14.890625 20.324219 14.738281 20.292969 14.597656 20.234375 C 14.453125 20.175781 14.328125 20.089844 14.21875 19.984375 C 14.109375 19.875 14.023438 19.746094 13.964844 19.605469 C 13.90625 19.464844 13.878906 19.316406 13.878906 19.160156 C 13.878906 19.007812 13.90625 18.859375 13.964844 18.71875 C 14.023438 18.574219 14.109375 18.449219 14.21875 18.339844 C 14.328125 18.230469 14.453125 18.148438 14.597656 18.089844 C 14.738281 18.03125 14.890625 18 15.042969 18 C 15.199219 18 15.347656 18.03125 15.488281 18.089844 C 15.632812 18.148438 15.757812 18.230469 15.867188 18.339844 C 15.976562 18.449219 16.0625 18.574219 16.121094 18.71875 C 16.179688 18.859375 16.210938 19.007812 16.210938 19.160156 Z M 16.210938 19.160156 " fill-opacity="1" fill-rule="nonzero"/><path fill="#fce95f" d="M 16.210938 23.417969 C 16.210938 23.574219 16.179688 23.722656 16.121094 23.863281 C 16.0625 24.007812 15.976562 24.132812 15.867188 24.242188 C 15.757812 24.347656 15.632812 24.433594 15.488281 24.492188 C 15.347656 24.550781 15.199219 24.582031 15.042969 24.582031 C 14.890625 24.582031 14.738281 24.550781 14.597656 24.492188 C 14.453125 24.433594 14.328125 24.347656 14.21875 24.242188 C 14.109375 24.132812 14.023438 24.007812 13.964844 23.863281 C 13.90625 23.722656 13.878906 23.574219 13.878906 23.417969 C 13.878906 23.265625 13.90625 23.117188 13.964844 22.976562 C 14.023438 22.832031 14.109375 22.707031 14.21875 22.597656 C 14.328125 22.488281 14.453125 22.40625 14.597656 22.347656 C 14.738281 22.289062 14.890625 22.257812 15.042969 22.257812 C 15.199219 22.257812 15.347656 22.289062 15.488281 22.347656 C 15.632812 22.40625 15.757812 22.488281 15.867188 22.597656 C 15.976562 22.707031 16.0625 22.832031 16.121094 22.976562 C 16.179688 23.117188 16.210938 23.265625 16.210938 23.417969 Z M 16.210938 23.417969 " fill-opacity="1" fill-rule="nonzero"/><path fill="#fdf3a8" d="M 20.097656 19.160156 C 20.097656 19.316406 20.066406 19.464844 20.007812 19.605469 C 19.949219 19.746094 19.863281 19.875 19.753906 19.984375 C 19.644531 20.089844 19.519531 20.175781 19.378906 20.234375 C 19.234375 20.292969 19.085938 20.324219 18.929688 20.324219 C 18.777344 20.324219 18.628906 20.292969 18.484375 20.234375 C 18.339844 20.175781 18.214844 20.089844 18.105469 19.984375 C 17.996094 19.875 17.914062 19.746094 17.851562 19.605469 C 17.792969 19.464844 17.765625 19.316406 17.765625 19.160156 C 17.765625 19.007812 17.792969 18.859375 17.851562 18.71875 C 17.914062 18.574219 17.996094 18.449219 18.105469 18.339844 C 18.214844 18.230469 18.339844 18.148438 18.484375 18.089844 C 18.628906 18.03125 18.777344 18 18.929688 18 C 19.085938 18 19.234375 18.03125 19.378906 18.089844 C 19.519531 18.148438 19.644531 18.230469 19.753906 18.339844 C 19.863281 18.449219 19.949219 18.574219 20.007812 18.71875 C 20.066406 18.859375 20.097656 19.007812 20.097656 19.160156 Z M 20.097656 19.160156 " fill-opacity="1" fill-rule="nonzero"/><path fill="#fce95f" d="M 20.097656 23.417969 C 20.097656 23.574219 20.066406 23.722656 20.007812 23.863281 C 19.949219 24.007812 19.863281 24.132812 19.753906 24.242188 C 19.644531 24.347656 19.519531 24.433594 19.378906 24.492188 C 19.234375 24.550781 19.085938 24.582031 18.929688 24.582031 C 18.777344 24.582031 18.628906 24.550781 18.484375 24.492188 C 18.339844 24.433594 18.214844 24.347656 18.105469 24.242188 C 17.996094 24.132812 17.914062 24.007812 17.851562 23.863281 C 17.792969 23.722656 17.765625 23.574219 17.765625 23.417969 C 17.765625 23.265625 17.792969 23.117188 17.851562 22.976562 C 17.914062 22.832031 17.996094 22.707031 18.105469 22.597656 C 18.214844 22.488281 18.339844 22.40625 18.484375 22.347656 C 18.628906 22.289062 18.777344 22.257812 18.929688 22.257812 C 19.085938 22.257812 19.234375 22.289062 19.378906 22.347656 C 19.519531 22.40625 19.644531 22.488281 19.753906 22.597656 C 19.863281 22.707031 19.949219 22.832031 20.007812 22.976562 C 20.066406 23.117188 20.097656 23.265625 20.097656 23.417969 Z M 20.097656 23.417969 " fill-opacity="1" fill-rule="nonzero"/><path fill="#fdf3a8" d="M 23.984375 19.160156 C 23.984375 19.316406 23.953125 19.464844 23.894531 19.605469 C 23.835938 19.746094 23.75 19.875 23.640625 19.984375 C 23.53125 20.089844 23.40625 20.175781 23.265625 20.234375 C 23.121094 20.292969 22.972656 20.324219 22.816406 20.324219 C 22.664062 20.324219 22.515625 20.292969 22.371094 20.234375 C 22.230469 20.175781 22.101562 20.089844 21.992188 19.984375 C 21.882812 19.875 21.800781 19.746094 21.742188 19.605469 C 21.679688 19.464844 21.652344 19.316406 21.652344 19.160156 C 21.652344 19.007812 21.679688 18.859375 21.742188 18.71875 C 21.800781 18.574219 21.882812 18.449219 21.992188 18.339844 C 22.101562 18.230469 22.230469 18.148438 22.371094 18.089844 C 22.515625 18.03125 22.664062 18 22.816406 18 C 22.972656 18 23.121094 18.03125 23.265625 18.089844 C 23.40625 18.148438 23.53125 18.230469 23.640625 18.339844 C 23.75 18.449219 23.835938 18.574219 23.894531 18.71875 C 23.953125 18.859375 23.984375 19.007812 23.984375 19.160156 Z M 23.984375 19.160156 " fill-opacity="1" fill-rule="nonzero"/><path fill="#fdf3a8" d="M 23.984375 23.417969 C 23.984375 23.574219 23.953125 23.722656 23.894531 23.863281 C 23.835938 24.007812 23.75 24.132812 23.640625 24.242188 C 23.53125 24.347656 23.40625 24.433594 23.265625 24.492188 C 23.121094 24.550781 22.972656 24.582031 22.816406 24.582031 C 22.664062 24.582031 22.515625 24.550781 22.371094 24.492188 C 22.230469 24.433594 22.101562 24.347656 21.992188 24.242188 C 21.882812 24.132812 21.800781 24.007812 21.742188 23.863281 C 21.679688 23.722656 21.652344 23.574219 21.652344 23.417969 C 21.652344 23.265625 21.679688 23.117188 21.742188 22.976562 C 21.800781 22.832031 21.882812 22.707031 21.992188 22.597656 C 22.101562 22.488281 22.230469 22.40625 22.371094 22.347656 C 22.515625 22.289062 22.664062 22.257812 22.816406 22.257812 C 22.972656 22.257812 23.121094 22.289062 23.265625 22.347656 C 23.40625 22.40625 23.53125 22.488281 23.640625 22.597656 C 23.75 22.707031 23.835938 22.832031 23.894531 22.976562 C 23.953125 23.117188 23.984375 23.265625 23.984375 23.417969 Z M 23.984375 23.417969 " fill-opacity="1" fill-rule="nonzero"/><path fill="#c33e37" d="M 18.65625 18.886719 L 20.988281 16.566406 L 21.539062 17.113281 L 19.207031 19.433594 Z M 18.65625 18.886719 " fill-opacity="1" fill-rule="nonzero"/><path fill="#c33e37" d="M 10.882812 23.144531 L 13.214844 20.824219 L 13.761719 21.371094 L 11.429688 23.691406 Z M 10.882812 23.144531 " fill-opacity="1" fill-rule="nonzero"/><path fill="#392823" d="M 16.4375 14.128906 C 16.589844 14.128906 16.71875 14.074219 16.824219 13.96875 C 16.933594 13.863281 16.988281 13.734375 16.988281 13.582031 L 16.988281 13.0625 C 16.988281 12.484375 16.78125 11.988281 16.371094 11.578125 C 16.003906 11.214844 15.5625 11.03125 15.042969 11.03125 C 14.523438 11.03125 14.082031 11.214844 13.714844 11.578125 C 13.304688 11.988281 13.101562 12.484375 13.101562 13.0625 L 13.101562 13.582031 C 13.101562 13.734375 13.152344 13.863281 13.261719 13.96875 C 13.367188 14.074219 13.496094 14.128906 13.648438 14.128906 C 13.800781 14.128906 13.929688 14.074219 14.039062 13.96875 L 14.378906 13.628906 C 14.5625 13.445312 14.785156 13.355469 15.042969 13.355469 C 15.300781 13.355469 15.523438 13.445312 15.707031 13.628906 L 16.046875 13.96875 C 16.15625 14.074219 16.285156 14.128906 16.4375 14.128906 Z M 16.4375 14.128906 " fill-opacity="1" fill-rule="nonzero"/><path fill="#392823" d="M 14.65625 9.097656 C 14.65625 9.3125 14.578125 9.492188 14.425781 9.644531 C 14.273438 9.796875 14.09375 9.871094 13.878906 9.871094 C 13.664062 9.871094 13.480469 9.796875 13.328125 9.644531 C 13.175781 9.492188 13.101562 9.3125 13.101562 9.097656 C 13.101562 8.882812 13.175781 8.699219 13.328125 8.550781 C 13.480469 8.398438 13.664062 8.324219 13.878906 8.324219 C 14.09375 8.324219 14.273438 8.398438 14.425781 8.550781 C 14.578125 8.699219 14.65625 8.882812 14.65625 9.097656 Z M 14.65625 9.097656 " fill-opacity="1" fill-rule="nonzero"/><path fill="#392823" d="M 16.988281 9.097656 C 16.988281 9.3125 16.910156 9.492188 16.757812 9.644531 C 16.609375 9.796875 16.425781 9.871094 16.210938 9.871094 C 15.996094 9.871094 15.8125 9.796875 15.660156 9.644531 C 15.507812 9.492188 15.433594 9.3125 15.433594 9.097656 C 15.433594 8.882812 15.507812 8.699219 15.660156 8.550781 C 15.8125 8.398438 15.996094 8.324219 16.210938 8.324219 C 16.425781 8.324219 16.609375 8.398438 16.757812 8.550781 C 16.910156 8.699219 16.988281 8.882812 16.988281 9.097656 Z M 16.988281 9.097656 " fill-opacity="1" fill-rule="nonzero"/><path fill="#392823" d="M 18.929688 11.03125 C 18.929688 11.246094 18.855469 11.429688 18.703125 11.578125 C 18.550781 11.730469 18.367188 11.804688 18.152344 11.804688 C 17.9375 11.804688 17.753906 11.730469 17.605469 11.578125 C 17.453125 11.429688 17.375 11.246094 17.375 11.03125 C 17.375 10.820312 17.453125 10.636719 17.605469 10.484375 C 17.753906 10.332031 17.9375 10.257812 18.152344 10.257812 C 18.367188 10.257812 18.550781 10.332031 18.703125 10.484375 C 18.855469 10.636719 18.929688 10.820312 18.929688 11.03125 Z M 18.929688 11.03125 " fill-opacity="1" fill-rule="nonzero"/><path fill="#392823" d="M 12.710938 11.03125 C 12.710938 11.246094 12.636719 11.429688 12.484375 11.578125 C 12.332031 11.730469 12.148438 11.804688 11.933594 11.804688 C 11.71875 11.804688 11.535156 11.730469 11.382812 11.578125 C 11.230469 11.429688 11.15625 11.246094 11.15625 11.03125 C 11.15625 10.820312 11.230469 10.636719 11.382812 10.484375 C 11.535156 10.332031 11.71875 10.257812 11.933594 10.257812 C 12.148438 10.257812 12.332031 10.332031 12.484375 10.484375 C 12.636719 10.636719 12.710938 10.820312 12.710938 11.03125 Z M 12.710938 11.03125 " fill-opacity="1" fill-rule="nonzero"/><path fill="#fdf3a8" d="M 18.929688 22.257812 C 18.777344 22.257812 18.628906 22.289062 18.484375 22.347656 C 18.339844 22.40625 18.214844 22.488281 18.105469 22.597656 C 17.996094 22.707031 17.914062 22.832031 17.851562 22.976562 C 17.792969 23.117188 17.765625 23.265625 17.765625 23.417969 C 17.765625 23.425781 17.765625 23.433594 17.765625 23.441406 C 18.421875 23.734375 19.089844 23.996094 19.769531 24.222656 C 19.929688 24.058594 20.035156 23.859375 20.078125 23.628906 C 20.121094 23.402344 20.09375 23.179688 20.003906 22.964844 C 19.914062 22.75 19.769531 22.578125 19.574219 22.449219 C 19.378906 22.320312 19.164062 22.257812 18.929688 22.257812 Z M 18.929688 22.257812 " fill-opacity="1" fill-rule="nonzero"/></svg>