<svg xmlns="http://www.w3.org/2000/svg" xmlns:xlink="http://www.w3.org/1999/xlink" width="40" zoomAndPan="magnify" viewBox="0 0 30 30.000001" height="40" preserveAspectRatio="xMidYMid meet" version="1.0"><defs><clipPath id="284b0f1c33"><path d="M 4.128906 4 L 25.902344 4 L 25.902344 26 L 4.128906 26 Z M 4.128906 4 " clip-rule="nonzero"/></clipPath><clipPath id="0942ddbd0a"><path d="M 5 4 L 25.902344 4 L 25.902344 25 L 5 25 Z M 5 4 " clip-rule="nonzero"/></clipPath><clipPath id="38ebf412b4"><path d="M 4.128906 4 L 25.902344 4 L 25.902344 12 L 4.128906 12 Z M 4.128906 4 " clip-rule="nonzero"/></clipPath><clipPath id="6590a5b291"><path d="M 5 4 L 25.902344 4 L 25.902344 12 L 5 12 Z M 5 4 " clip-rule="nonzero"/></clipPath><clipPath id="a43e2eaf59"><path d="M 4.128906 2.902344 L 25.902344 2.902344 L 25.902344 26.128906 L 4.128906 26.128906 Z M 4.128906 2.902344 " clip-rule="nonzero"/></clipPath></defs><g clip-path="url(#284b0f1c33)"><path fill="#55b4f0" d="M 4.507812 4.777344 L 25.519531 4.777344 L 25.519531 25.753906 L 4.507812 25.753906 Z M 4.507812 4.777344 " fill-opacity="1" fill-rule="nonzero"/></g><g clip-path="url(#0942ddbd0a)"><path fill="#7ec8f2" d="M 25.519531 24.984375 L 25.519531 4.777344 L 5.277344 4.777344 C 5.300781 5.429688 5.355469 6.085938 5.441406 6.734375 C 5.527344 7.382812 5.640625 8.027344 5.785156 8.667969 C 5.929688 9.308594 6.105469 9.9375 6.308594 10.5625 C 6.515625 11.183594 6.75 11.796875 7.011719 12.398438 C 7.273438 13 7.5625 13.585938 7.878906 14.160156 C 8.195312 14.734375 8.539062 15.292969 8.910156 15.835938 C 9.277344 16.375 9.671875 16.898438 10.09375 17.40625 C 10.511719 17.910156 10.953125 18.394531 11.417969 18.855469 C 11.882812 19.320312 12.367188 19.761719 12.871094 20.179688 C 13.378906 20.597656 13.902344 20.992188 14.445312 21.359375 C 14.988281 21.730469 15.546875 22.074219 16.121094 22.390625 C 16.695312 22.707031 17.285156 22.996094 17.886719 23.257812 C 18.488281 23.519531 19.101562 23.75 19.726562 23.957031 C 20.347656 24.160156 20.980469 24.335938 21.621094 24.480469 C 22.261719 24.625 22.90625 24.738281 23.558594 24.824219 C 24.210938 24.910156 24.863281 24.960938 25.519531 24.984375 Z M 25.519531 24.984375 " fill-opacity="1" fill-rule="nonzero"/></g><g clip-path="url(#38ebf412b4)"><path fill="#f3c350" d="M 4.507812 4.777344 L 25.519531 4.777344 L 25.519531 11.519531 L 4.507812 11.519531 Z M 4.507812 4.777344 " fill-opacity="1" fill-rule="nonzero"/></g><g clip-path="url(#6590a5b291)"><path fill="#fce95f" d="M 5.277344 4.777344 C 5.359375 7.101562 5.816406 9.347656 6.648438 11.519531 L 25.519531 11.519531 L 25.519531 4.777344 Z M 5.277344 4.777344 " fill-opacity="1" fill-rule="nonzero"/></g><path fill="#574138" d="M 19.890625 11.519531 C 19.890625 11.839844 19.859375 12.15625 19.796875 12.46875 C 19.734375 12.78125 19.644531 13.085938 19.519531 13.382812 C 19.398438 13.679688 19.246094 13.957031 19.070312 14.226562 C 18.890625 14.492188 18.691406 14.738281 18.464844 14.960938 C 18.238281 15.1875 17.992188 15.390625 17.722656 15.570312 C 17.457031 15.746094 17.175781 15.894531 16.882812 16.019531 C 16.585938 16.140625 16.28125 16.234375 15.964844 16.296875 C 15.652344 16.359375 15.335938 16.390625 15.015625 16.390625 C 14.695312 16.390625 14.378906 16.359375 14.0625 16.296875 C 13.75 16.234375 13.445312 16.140625 13.148438 16.019531 C 12.851562 15.894531 12.570312 15.746094 12.304688 15.570312 C 12.039062 15.390625 11.792969 15.1875 11.566406 14.960938 C 11.339844 14.738281 11.136719 14.492188 10.957031 14.226562 C 10.78125 13.957031 10.628906 13.679688 10.507812 13.382812 C 10.386719 13.085938 10.292969 12.78125 10.230469 12.46875 C 10.167969 12.15625 10.136719 11.839844 10.136719 11.519531 C 10.136719 11.199219 10.167969 10.882812 10.230469 10.570312 C 10.292969 10.253906 10.386719 9.949219 10.507812 9.65625 C 10.628906 9.359375 10.78125 9.078125 10.957031 8.8125 C 11.136719 8.546875 11.339844 8.300781 11.566406 8.074219 C 11.792969 7.847656 12.039062 7.648438 12.304688 7.46875 C 12.570312 7.292969 12.851562 7.140625 13.148438 7.019531 C 13.445312 6.898438 13.75 6.804688 14.0625 6.742188 C 14.378906 6.679688 14.695312 6.648438 15.015625 6.648438 C 15.335938 6.648438 15.652344 6.679688 15.964844 6.742188 C 16.28125 6.804688 16.585938 6.898438 16.882812 7.019531 C 17.175781 7.140625 17.457031 7.292969 17.722656 7.46875 C 17.992188 7.648438 18.238281 7.847656 18.464844 8.074219 C 18.691406 8.300781 18.890625 8.546875 19.070312 8.8125 C 19.246094 9.078125 19.398438 9.359375 19.519531 9.65625 C 19.644531 9.949219 19.734375 10.253906 19.796875 10.570312 C 19.859375 10.882812 19.890625 11.199219 19.890625 11.519531 Z M 19.890625 11.519531 " fill-opacity="1" fill-rule="nonzero"/><path fill="#745749" d="M 15.015625 6.648438 C 13.96875 6.648438 13.023438 6.953125 12.175781 7.5625 C 11.839844 8.03125 11.59375 8.542969 11.441406 9.097656 C 11.285156 9.65625 11.230469 10.222656 11.277344 10.796875 C 11.324219 11.371094 11.46875 11.921875 11.710938 12.445312 C 11.957031 12.96875 12.28125 13.433594 12.6875 13.839844 C 13.097656 14.25 13.5625 14.574219 14.089844 14.816406 C 14.613281 15.058594 15.164062 15.203125 15.738281 15.25 C 16.316406 15.296875 16.882812 15.242188 17.4375 15.089844 C 17.996094 14.933594 18.507812 14.6875 18.976562 14.351562 C 19.238281 13.988281 19.445312 13.597656 19.597656 13.175781 C 19.753906 12.753906 19.84375 12.320312 19.878906 11.875 C 19.910156 11.429688 19.882812 10.984375 19.792969 10.546875 C 19.707031 10.109375 19.558594 9.6875 19.355469 9.292969 C 19.148438 8.894531 18.894531 8.53125 18.589844 8.203125 C 18.285156 7.875 17.9375 7.59375 17.554688 7.359375 C 17.171875 7.128906 16.765625 6.949219 16.335938 6.828125 C 15.902344 6.707031 15.464844 6.648438 15.015625 6.648438 Z M 15.015625 6.648438 " fill-opacity="1" fill-rule="nonzero"/><path fill="#392823" d="M 7.136719 3.277344 C 7.34375 3.277344 7.519531 3.351562 7.664062 3.496094 C 7.8125 3.644531 7.886719 3.820312 7.886719 4.027344 L 7.886719 6.273438 C 7.886719 6.480469 7.8125 6.65625 7.664062 6.804688 C 7.519531 6.949219 7.34375 7.023438 7.136719 7.023438 C 6.929688 7.023438 6.75 6.949219 6.605469 6.804688 C 6.457031 6.65625 6.386719 6.480469 6.386719 6.273438 L 6.386719 4.027344 C 6.386719 3.820312 6.457031 3.644531 6.605469 3.496094 C 6.75 3.351562 6.929688 3.277344 7.136719 3.277344 Z M 7.136719 3.277344 " fill-opacity="1" fill-rule="nonzero"/><path fill="#392823" d="M 10.136719 3.277344 C 10.34375 3.277344 10.519531 3.351562 10.667969 3.496094 C 10.8125 3.644531 10.886719 3.820312 10.886719 4.027344 L 10.886719 6.273438 C 10.886719 6.480469 10.8125 6.65625 10.667969 6.804688 C 10.519531 6.949219 10.34375 7.023438 10.136719 7.023438 C 9.929688 7.023438 9.753906 6.949219 9.605469 6.804688 C 9.460938 6.65625 9.386719 6.480469 9.386719 6.273438 L 9.386719 4.027344 C 9.386719 3.820312 9.460938 3.644531 9.605469 3.496094 C 9.753906 3.351562 9.929688 3.277344 10.136719 3.277344 Z M 10.136719 3.277344 " fill-opacity="1" fill-rule="nonzero"/><path fill="#392823" d="M 19.890625 3.277344 C 20.097656 3.277344 20.277344 3.351562 20.421875 3.496094 C 20.570312 3.644531 20.640625 3.820312 20.640625 4.027344 L 20.640625 6.273438 C 20.640625 6.480469 20.570312 6.65625 20.421875 6.804688 C 20.277344 6.949219 20.097656 7.023438 19.890625 7.023438 C 19.683594 7.023438 19.507812 6.949219 19.363281 6.804688 C 19.214844 6.65625 19.140625 6.480469 19.140625 6.273438 L 19.140625 4.027344 C 19.140625 3.820312 19.214844 3.644531 19.363281 3.496094 C 19.507812 3.351562 19.683594 3.277344 19.890625 3.277344 Z M 19.890625 3.277344 " fill-opacity="1" fill-rule="nonzero"/><path fill="#392823" d="M 22.894531 3.277344 C 23.101562 3.277344 23.277344 3.351562 23.425781 3.496094 C 23.570312 3.644531 23.644531 3.820312 23.644531 4.027344 L 23.644531 6.273438 C 23.644531 6.480469 23.570312 6.65625 23.425781 6.804688 C 23.277344 6.949219 23.101562 7.023438 22.894531 7.023438 C 22.6875 7.023438 22.507812 6.949219 22.363281 6.804688 C 22.214844 6.65625 22.144531 6.480469 22.144531 6.273438 L 22.144531 4.027344 C 22.144531 3.820312 22.214844 3.644531 22.363281 3.496094 C 22.507812 3.351562 22.6875 3.277344 22.894531 3.277344 Z M 22.894531 3.277344 " fill-opacity="1" fill-rule="nonzero"/><path fill="#fce95f" d="M 8.636719 23.132812 C 8.636719 23.28125 8.609375 23.425781 8.550781 23.5625 C 8.492188 23.699219 8.410156 23.820312 8.304688 23.925781 C 8.199219 24.03125 8.078125 24.113281 7.941406 24.171875 C 7.804688 24.226562 7.660156 24.257812 7.511719 24.257812 C 7.363281 24.257812 7.21875 24.226562 7.078125 24.171875 C 6.941406 24.113281 6.820312 24.03125 6.714844 23.925781 C 6.609375 23.820312 6.527344 23.699219 6.46875 23.5625 C 6.414062 23.425781 6.386719 23.28125 6.386719 23.132812 C 6.386719 22.984375 6.414062 22.839844 6.46875 22.703125 C 6.527344 22.5625 6.609375 22.441406 6.714844 22.335938 C 6.820312 22.230469 6.941406 22.152344 7.078125 22.09375 C 7.21875 22.035156 7.363281 22.007812 7.511719 22.007812 C 7.660156 22.007812 7.804688 22.035156 7.941406 22.09375 C 8.078125 22.152344 8.199219 22.230469 8.304688 22.335938 C 8.410156 22.441406 8.492188 22.5625 8.550781 22.703125 C 8.609375 22.839844 8.636719 22.984375 8.636719 23.132812 Z M 8.636719 23.132812 " fill-opacity="1" fill-rule="nonzero"/><path fill="#fce95f" d="M 12.386719 23.132812 C 12.386719 23.28125 12.359375 23.425781 12.300781 23.5625 C 12.246094 23.699219 12.164062 23.820312 12.058594 23.925781 C 11.953125 24.03125 11.832031 24.113281 11.691406 24.171875 C 11.554688 24.226562 11.410156 24.257812 11.261719 24.257812 C 11.113281 24.257812 10.96875 24.226562 10.832031 24.171875 C 10.695312 24.113281 10.570312 24.03125 10.464844 23.925781 C 10.359375 23.820312 10.28125 23.699219 10.222656 23.5625 C 10.164062 23.425781 10.136719 23.28125 10.136719 23.132812 C 10.136719 22.984375 10.164062 22.839844 10.222656 22.703125 C 10.28125 22.5625 10.359375 22.441406 10.464844 22.335938 C 10.570312 22.230469 10.695312 22.152344 10.832031 22.09375 C 10.96875 22.035156 11.113281 22.007812 11.261719 22.007812 C 11.410156 22.007812 11.554688 22.035156 11.691406 22.09375 C 11.832031 22.152344 11.953125 22.230469 12.058594 22.335938 C 12.164062 22.441406 12.246094 22.5625 12.300781 22.703125 C 12.359375 22.839844 12.386719 22.984375 12.386719 23.132812 Z M 12.386719 23.132812 " fill-opacity="1" fill-rule="nonzero"/><path fill="#fdf3a8" d="M 16.140625 19.011719 C 16.140625 19.160156 16.113281 19.304688 16.054688 19.441406 C 15.996094 19.578125 15.914062 19.699219 15.808594 19.804688 C 15.703125 19.910156 15.582031 19.992188 15.445312 20.050781 C 15.308594 20.105469 15.164062 20.136719 15.015625 20.136719 C 14.867188 20.136719 14.722656 20.105469 14.582031 20.050781 C 14.445312 19.992188 14.324219 19.910156 14.21875 19.804688 C 14.113281 19.699219 14.03125 19.578125 13.972656 19.441406 C 13.917969 19.304688 13.890625 19.160156 13.890625 19.011719 C 13.890625 18.863281 13.917969 18.71875 13.972656 18.582031 C 14.03125 18.445312 14.113281 18.320312 14.21875 18.214844 C 14.324219 18.113281 14.445312 18.03125 14.582031 17.972656 C 14.722656 17.917969 14.867188 17.886719 15.015625 17.886719 C 15.164062 17.886719 15.308594 17.917969 15.445312 17.972656 C 15.582031 18.03125 15.703125 18.113281 15.808594 18.214844 C 15.914062 18.320312 15.996094 18.445312 16.054688 18.582031 C 16.113281 18.71875 16.140625 18.863281 16.140625 19.011719 Z M 16.140625 19.011719 " fill-opacity="1" fill-rule="nonzero"/><path fill="#fce95f" d="M 16.140625 23.132812 C 16.140625 23.28125 16.113281 23.425781 16.054688 23.5625 C 15.996094 23.699219 15.914062 23.820312 15.808594 23.925781 C 15.703125 24.03125 15.582031 24.113281 15.445312 24.171875 C 15.308594 24.226562 15.164062 24.257812 15.015625 24.257812 C 14.867188 24.257812 14.722656 24.226562 14.582031 24.171875 C 14.445312 24.113281 14.324219 24.03125 14.21875 23.925781 C 14.113281 23.820312 14.03125 23.699219 13.972656 23.5625 C 13.917969 23.425781 13.890625 23.28125 13.890625 23.132812 C 13.890625 22.984375 13.917969 22.839844 13.972656 22.703125 C 14.03125 22.5625 14.113281 22.441406 14.21875 22.335938 C 14.324219 22.230469 14.445312 22.152344 14.582031 22.09375 C 14.722656 22.035156 14.867188 22.007812 15.015625 22.007812 C 15.164062 22.007812 15.308594 22.035156 15.445312 22.09375 C 15.582031 22.152344 15.703125 22.230469 15.808594 22.335938 C 15.914062 22.441406 15.996094 22.5625 16.054688 22.703125 C 16.113281 22.839844 16.140625 22.984375 16.140625 23.132812 Z M 16.140625 23.132812 " fill-opacity="1" fill-rule="nonzero"/><path fill="#fdf3a8" d="M 19.890625 19.011719 C 19.890625 19.160156 19.863281 19.304688 19.804688 19.441406 C 19.75 19.578125 19.667969 19.699219 19.5625 19.804688 C 19.457031 19.910156 19.335938 19.992188 19.195312 20.050781 C 19.058594 20.105469 18.914062 20.136719 18.765625 20.136719 C 18.617188 20.136719 18.472656 20.105469 18.335938 20.050781 C 18.199219 19.992188 18.074219 19.910156 17.96875 19.804688 C 17.863281 19.699219 17.785156 19.578125 17.726562 19.441406 C 17.667969 19.304688 17.640625 19.160156 17.640625 19.011719 C 17.640625 18.863281 17.667969 18.71875 17.726562 18.582031 C 17.785156 18.445312 17.863281 18.320312 17.96875 18.214844 C 18.074219 18.113281 18.199219 18.03125 18.335938 17.972656 C 18.472656 17.917969 18.617188 17.886719 18.765625 17.886719 C 18.914062 17.886719 19.058594 17.917969 19.195312 17.972656 C 19.335938 18.03125 19.457031 18.113281 19.5625 18.214844 C 19.667969 18.320312 19.75 18.445312 19.804688 18.582031 C 19.863281 18.71875 19.890625 18.863281 19.890625 19.011719 Z M 19.890625 19.011719 " fill-opacity="1" fill-rule="nonzero"/><path fill="#fce95f" d="M 19.890625 23.132812 C 19.890625 23.28125 19.863281 23.425781 19.804688 23.5625 C 19.75 23.699219 19.667969 23.820312 19.5625 23.925781 C 19.457031 24.03125 19.335938 24.113281 19.195312 24.171875 C 19.058594 24.226562 18.914062 24.257812 18.765625 24.257812 C 18.617188 24.257812 18.472656 24.226562 18.335938 24.171875 C 18.199219 24.113281 18.074219 24.03125 17.96875 23.925781 C 17.863281 23.820312 17.785156 23.699219 17.726562 23.5625 C 17.667969 23.425781 17.640625 23.28125 17.640625 23.132812 C 17.640625 22.984375 17.667969 22.839844 17.726562 22.703125 C 17.785156 22.5625 17.863281 22.441406 17.96875 22.335938 C 18.074219 22.230469 18.199219 22.152344 18.335938 22.09375 C 18.472656 22.035156 18.617188 22.007812 18.765625 22.007812 C 18.914062 22.007812 19.058594 22.035156 19.195312 22.09375 C 19.335938 22.152344 19.457031 22.230469 19.5625 22.335938 C 19.667969 22.441406 19.75 22.5625 19.804688 22.703125 C 19.863281 22.839844 19.890625 22.984375 19.890625 23.132812 Z M 19.890625 23.132812 " fill-opacity="1" fill-rule="nonzero"/><path fill="#fdf3a8" d="M 23.644531 19.011719 C 23.644531 19.160156 23.617188 19.304688 23.558594 19.441406 C 23.5 19.578125 23.417969 19.699219 23.3125 19.804688 C 23.207031 19.910156 23.085938 19.992188 22.949219 20.050781 C 22.8125 20.105469 22.667969 20.136719 22.519531 20.136719 C 22.371094 20.136719 22.226562 20.105469 22.085938 20.050781 C 21.949219 19.992188 21.828125 19.910156 21.722656 19.804688 C 21.617188 19.699219 21.535156 19.578125 21.480469 19.441406 C 21.421875 19.304688 21.394531 19.160156 21.394531 19.011719 C 21.394531 18.863281 21.421875 18.71875 21.480469 18.582031 C 21.535156 18.445312 21.617188 18.320312 21.722656 18.214844 C 21.828125 18.113281 21.949219 18.03125 22.085938 17.972656 C 22.226562 17.917969 22.371094 17.886719 22.519531 17.886719 C 22.667969 17.886719 22.8125 17.917969 22.949219 17.972656 C 23.085938 18.03125 23.207031 18.113281 23.3125 18.214844 C 23.417969 18.320312 23.5 18.445312 23.558594 18.582031 C 23.617188 18.71875 23.644531 18.863281 23.644531 19.011719 Z M 23.644531 19.011719 " fill-opacity="1" fill-rule="nonzero"/><path fill="#fdf3a8" d="M 23.644531 23.132812 C 23.644531 23.28125 23.617188 23.425781 23.558594 23.5625 C 23.5 23.699219 23.417969 23.820312 23.3125 23.925781 C 23.207031 24.03125 23.085938 24.113281 22.949219 24.171875 C 22.8125 24.226562 22.667969 24.257812 22.519531 24.257812 C 22.371094 24.257812 22.226562 24.226562 22.085938 24.171875 C 21.949219 24.113281 21.828125 24.03125 21.722656 23.925781 C 21.617188 23.820312 21.535156 23.699219 21.480469 23.5625 C 21.421875 23.425781 21.394531 23.28125 21.394531 23.132812 C 21.394531 22.984375 21.421875 22.839844 21.480469 22.703125 C 21.535156 22.5625 21.617188 22.441406 21.722656 22.335938 C 21.828125 22.230469 21.949219 22.152344 22.085938 22.09375 C 22.226562 22.035156 22.371094 22.007812 22.519531 22.007812 C 22.667969 22.007812 22.8125 22.035156 22.949219 22.09375 C 23.085938 22.152344 23.207031 22.230469 23.3125 22.335938 C 23.417969 22.441406 23.5 22.5625 23.558594 22.703125 C 23.617188 22.839844 23.644531 22.984375 23.644531 23.132812 Z M 23.644531 23.132812 " fill-opacity="1" fill-rule="nonzero"/><path fill="#c33e37" d="M 18.5 18.746094 L 20.753906 16.5 L 21.28125 17.027344 L 19.03125 19.277344 Z M 18.5 18.746094 " fill-opacity="1" fill-rule="nonzero"/><path fill="#c33e37" d="M 10.996094 22.867188 L 13.25 20.621094 L 13.777344 21.148438 L 11.527344 23.398438 Z M 10.996094 22.867188 " fill-opacity="1" fill-rule="nonzero"/><path fill="#392823" d="M 16.359375 14.140625 C 16.507812 14.140625 16.632812 14.089844 16.734375 13.988281 C 16.839844 13.882812 16.890625 13.757812 16.890625 13.613281 L 16.890625 13.109375 C 16.890625 12.546875 16.691406 12.070312 16.296875 11.675781 C 15.941406 11.320312 15.515625 11.144531 15.015625 11.144531 C 14.515625 11.144531 14.085938 11.320312 13.734375 11.675781 C 13.335938 12.070312 13.136719 12.546875 13.136719 13.109375 L 13.136719 13.613281 C 13.136719 13.757812 13.191406 13.882812 13.292969 13.984375 C 13.398438 14.089844 13.523438 14.140625 13.667969 14.140625 C 13.816406 14.140625 13.941406 14.089844 14.042969 13.988281 L 14.375 13.65625 C 14.550781 13.480469 14.765625 13.390625 15.015625 13.390625 C 15.265625 13.390625 15.476562 13.480469 15.65625 13.65625 L 15.984375 13.988281 C 16.089844 14.089844 16.214844 14.140625 16.359375 14.140625 Z M 16.359375 14.140625 " fill-opacity="1" fill-rule="nonzero"/><path fill="#392823" d="M 14.640625 9.273438 C 14.640625 9.476562 14.566406 9.65625 14.417969 9.800781 C 14.273438 9.949219 14.097656 10.019531 13.890625 10.019531 C 13.683594 10.019531 13.503906 9.949219 13.359375 9.800781 C 13.210938 9.65625 13.136719 9.476562 13.136719 9.273438 C 13.136719 9.066406 13.210938 8.886719 13.359375 8.742188 C 13.503906 8.59375 13.683594 8.523438 13.890625 8.523438 C 14.097656 8.523438 14.273438 8.59375 14.417969 8.742188 C 14.566406 8.886719 14.640625 9.066406 14.640625 9.273438 Z M 14.640625 9.273438 " fill-opacity="1" fill-rule="nonzero"/><path fill="#392823" d="M 16.890625 9.273438 C 16.890625 9.476562 16.816406 9.65625 16.671875 9.800781 C 16.523438 9.949219 16.347656 10.019531 16.140625 10.019531 C 15.933594 10.019531 15.757812 9.949219 15.609375 9.800781 C 15.464844 9.65625 15.390625 9.476562 15.390625 9.273438 C 15.390625 9.066406 15.464844 8.886719 15.609375 8.742188 C 15.757812 8.59375 15.933594 8.523438 16.140625 8.523438 C 16.347656 8.523438 16.523438 8.59375 16.671875 8.742188 C 16.816406 8.886719 16.890625 9.066406 16.890625 9.273438 Z M 16.890625 9.273438 " fill-opacity="1" fill-rule="nonzero"/><path fill="#392823" d="M 18.765625 11.144531 C 18.765625 11.351562 18.691406 11.527344 18.546875 11.675781 C 18.398438 11.820312 18.222656 11.894531 18.015625 11.894531 C 17.808594 11.894531 17.632812 11.820312 17.484375 11.675781 C 17.339844 11.527344 17.265625 11.351562 17.265625 11.144531 C 17.265625 10.9375 17.339844 10.761719 17.484375 10.613281 C 17.632812 10.46875 17.808594 10.394531 18.015625 10.394531 C 18.222656 10.394531 18.398438 10.46875 18.546875 10.613281 C 18.691406 10.761719 18.765625 10.9375 18.765625 11.144531 Z M 18.765625 11.144531 " fill-opacity="1" fill-rule="nonzero"/><path fill="#392823" d="M 12.761719 11.144531 C 12.761719 11.351562 12.691406 11.527344 12.542969 11.675781 C 12.398438 11.820312 12.21875 11.894531 12.011719 11.894531 C 11.804688 11.894531 11.628906 11.820312 11.480469 11.675781 C 11.335938 11.527344 11.261719 11.351562 11.261719 11.144531 C 11.261719 10.9375 11.335938 10.761719 11.480469 10.613281 C 11.628906 10.46875 11.804688 10.394531 12.011719 10.394531 C 12.21875 10.394531 12.398438 10.46875 12.542969 10.613281 C 12.691406 10.761719 12.761719 10.9375 12.761719 11.144531 Z M 12.761719 11.144531 " fill-opacity="1" fill-rule="nonzero"/><path fill="#fdf3a8" d="M 18.765625 22.007812 C 18.617188 22.007812 18.472656 22.035156 18.335938 22.09375 C 18.199219 22.152344 18.074219 22.230469 17.96875 22.335938 C 17.863281 22.441406 17.785156 22.5625 17.726562 22.703125 C 17.667969 22.839844 17.640625 22.984375 17.640625 23.132812 C 17.640625 23.140625 17.644531 23.144531 17.644531 23.152344 C 18.273438 23.4375 18.917969 23.691406 19.574219 23.910156 C 19.734375 23.75 19.832031 23.558594 19.875 23.335938 C 19.914062 23.113281 19.890625 22.898438 19.800781 22.691406 C 19.714844 22.484375 19.574219 22.320312 19.386719 22.195312 C 19.199219 22.070312 18.992188 22.007812 18.765625 22.007812 Z M 18.765625 22.007812 " fill-opacity="1" fill-rule="nonzero"/><path fill="#000000" d="M 15.015625 10.769531 C 14.410156 10.769531 13.894531 10.980469 13.46875 11.410156 C 12.996094 11.878906 12.761719 12.445312 12.761719 13.109375 L 12.761719 13.613281 C 12.761719 13.792969 12.8125 13.960938 12.917969 14.113281 C 13.019531 14.265625 13.152344 14.378906 13.324219 14.445312 C 13.492188 14.515625 13.667969 14.535156 13.847656 14.5 C 14.027344 14.464844 14.179688 14.378906 14.308594 14.25 L 14.640625 13.921875 C 14.746094 13.820312 14.871094 13.773438 15.015625 13.773438 C 15.160156 13.773438 15.285156 13.820312 15.390625 13.921875 L 15.71875 14.25 C 15.847656 14.378906 16.003906 14.464844 16.183594 14.5 C 16.363281 14.535156 16.539062 14.515625 16.707031 14.445312 C 16.875 14.378906 17.011719 14.265625 17.113281 14.113281 C 17.214844 13.960938 17.265625 13.792969 17.265625 13.613281 L 17.265625 13.109375 C 17.265625 12.445312 17.03125 11.878906 16.5625 11.410156 C 16.132812 10.980469 15.617188 10.769531 15.015625 10.769531 Z M 16.515625 13.613281 C 16.511719 13.675781 16.476562 13.722656 16.417969 13.746094 C 16.355469 13.773438 16.300781 13.765625 16.25 13.722656 L 15.921875 13.390625 C 15.800781 13.273438 15.660156 13.179688 15.503906 13.113281 C 15.347656 13.050781 15.183594 13.019531 15.015625 13.019531 C 14.84375 13.019531 14.679688 13.050781 14.523438 13.113281 C 14.367188 13.179688 14.230469 13.273438 14.109375 13.390625 L 13.78125 13.722656 C 13.730469 13.765625 13.675781 13.773438 13.613281 13.746094 C 13.550781 13.722656 13.519531 13.675781 13.515625 13.613281 L 13.515625 13.109375 C 13.511719 12.652344 13.675781 12.261719 14 11.9375 C 14.277344 11.65625 14.617188 11.519531 15.015625 11.519531 C 15.410156 11.519531 15.75 11.660156 16.03125 11.9375 C 16.355469 12.261719 16.515625 12.652344 16.515625 13.109375 Z M 16.515625 13.613281 " fill-opacity="1" fill-rule="nonzero"/><path fill="#000000" d="M 13.890625 10.394531 C 14.039062 10.394531 14.183594 10.367188 14.320312 10.308594 C 14.457031 10.253906 14.578125 10.171875 14.683594 10.066406 C 14.789062 9.960938 14.871094 9.839844 14.929688 9.703125 C 14.984375 9.5625 15.015625 9.421875 15.015625 9.273438 C 15.015625 9.121094 14.984375 8.980469 14.929688 8.839844 C 14.871094 8.703125 14.789062 8.582031 14.683594 8.476562 C 14.578125 8.371094 14.457031 8.289062 14.320312 8.234375 C 14.183594 8.175781 14.039062 8.148438 13.890625 8.148438 C 13.738281 8.148438 13.597656 8.175781 13.457031 8.234375 C 13.320312 8.289062 13.199219 8.371094 13.09375 8.476562 C 12.988281 8.582031 12.90625 8.703125 12.847656 8.839844 C 12.792969 8.980469 12.761719 9.121094 12.761719 9.273438 C 12.761719 9.421875 12.792969 9.5625 12.847656 9.703125 C 12.90625 9.839844 12.988281 9.960938 13.09375 10.066406 C 13.199219 10.171875 13.320312 10.253906 13.457031 10.308594 C 13.597656 10.367188 13.738281 10.394531 13.890625 10.394531 Z M 13.890625 8.898438 C 13.992188 8.898438 14.082031 8.933594 14.152344 9.007812 C 14.226562 9.078125 14.265625 9.167969 14.265625 9.273438 C 14.265625 9.375 14.226562 9.464844 14.152344 9.535156 C 14.082031 9.609375 13.992188 9.644531 13.890625 9.644531 C 13.785156 9.644531 13.695312 9.609375 13.625 9.535156 C 13.550781 9.464844 13.515625 9.375 13.515625 9.273438 C 13.515625 9.167969 13.550781 9.078125 13.625 9.007812 C 13.695312 8.933594 13.785156 8.898438 13.890625 8.898438 Z M 13.890625 8.898438 " fill-opacity="1" fill-rule="nonzero"/><path fill="#000000" d="M 16.140625 10.394531 C 16.289062 10.394531 16.433594 10.367188 16.570312 10.308594 C 16.707031 10.253906 16.832031 10.171875 16.9375 10.066406 C 17.042969 9.960938 17.121094 9.839844 17.179688 9.703125 C 17.238281 9.5625 17.265625 9.421875 17.265625 9.273438 C 17.265625 9.121094 17.238281 8.980469 17.179688 8.839844 C 17.121094 8.703125 17.042969 8.582031 16.9375 8.476562 C 16.832031 8.371094 16.707031 8.289062 16.570312 8.234375 C 16.433594 8.175781 16.289062 8.148438 16.140625 8.148438 C 15.992188 8.148438 15.847656 8.175781 15.710938 8.234375 C 15.570312 8.289062 15.449219 8.371094 15.34375 8.476562 C 15.238281 8.582031 15.15625 8.703125 15.101562 8.839844 C 15.042969 8.980469 15.015625 9.121094 15.015625 9.273438 C 15.015625 9.421875 15.042969 9.5625 15.101562 9.703125 C 15.15625 9.839844 15.238281 9.960938 15.34375 10.066406 C 15.449219 10.171875 15.570312 10.253906 15.710938 10.308594 C 15.847656 10.367188 15.992188 10.394531 16.140625 10.394531 Z M 16.140625 8.898438 C 16.242188 8.898438 16.332031 8.933594 16.40625 9.007812 C 16.480469 9.078125 16.515625 9.167969 16.515625 9.273438 C 16.515625 9.375 16.480469 9.464844 16.40625 9.535156 C 16.332031 9.609375 16.242188 9.644531 16.140625 9.644531 C 16.035156 9.644531 15.949219 9.609375 15.875 9.535156 C 15.800781 9.464844 15.765625 9.375 15.765625 9.273438 C 15.765625 9.167969 15.800781 9.078125 15.875 9.007812 C 15.949219 8.933594 16.035156 8.898438 16.140625 8.898438 Z M 16.140625 8.898438 " fill-opacity="1" fill-rule="nonzero"/><path fill="#000000" d="M 16.890625 11.144531 C 16.890625 11.292969 16.917969 11.4375 16.976562 11.574219 C 17.035156 11.710938 17.113281 11.832031 17.21875 11.9375 C 17.324219 12.042969 17.449219 12.125 17.585938 12.183594 C 17.722656 12.238281 17.867188 12.269531 18.015625 12.269531 C 18.164062 12.269531 18.308594 12.238281 18.445312 12.183594 C 18.585938 12.125 18.707031 12.042969 18.8125 11.9375 C 18.917969 11.832031 19 11.710938 19.054688 11.574219 C 19.113281 11.4375 19.140625 11.292969 19.140625 11.144531 C 19.140625 10.996094 19.113281 10.851562 19.054688 10.714844 C 19 10.578125 18.917969 10.457031 18.8125 10.351562 C 18.707031 10.246094 18.585938 10.164062 18.445312 10.105469 C 18.308594 10.050781 18.164062 10.019531 18.015625 10.019531 C 17.867188 10.019531 17.722656 10.050781 17.585938 10.105469 C 17.449219 10.164062 17.324219 10.246094 17.21875 10.351562 C 17.113281 10.457031 17.035156 10.578125 16.976562 10.714844 C 16.917969 10.851562 16.890625 10.996094 16.890625 11.144531 Z M 18.390625 11.144531 C 18.390625 11.25 18.355469 11.335938 18.28125 11.410156 C 18.207031 11.484375 18.121094 11.519531 18.015625 11.519531 C 17.914062 11.519531 17.824219 11.484375 17.75 11.410156 C 17.675781 11.335938 17.640625 11.25 17.640625 11.144531 C 17.640625 11.042969 17.675781 10.953125 17.75 10.878906 C 17.824219 10.804688 17.914062 10.769531 18.015625 10.769531 C 18.121094 10.769531 18.207031 10.804688 18.28125 10.878906 C 18.355469 10.953125 18.390625 11.042969 18.390625 11.144531 Z M 18.390625 11.144531 " fill-opacity="1" fill-rule="nonzero"/><path fill="#000000" d="M 13.136719 11.144531 C 13.136719 10.996094 13.109375 10.851562 13.054688 10.714844 C 12.996094 10.578125 12.914062 10.457031 12.808594 10.351562 C 12.703125 10.246094 12.582031 10.164062 12.445312 10.105469 C 12.304688 10.050781 12.164062 10.019531 12.011719 10.019531 C 11.863281 10.019531 11.71875 10.050781 11.582031 10.105469 C 11.445312 10.164062 11.324219 10.246094 11.21875 10.351562 C 11.113281 10.457031 11.03125 10.578125 10.972656 10.714844 C 10.914062 10.851562 10.886719 10.996094 10.886719 11.144531 C 10.886719 11.292969 10.914062 11.4375 10.972656 11.574219 C 11.03125 11.710938 11.113281 11.832031 11.21875 11.9375 C 11.324219 12.042969 11.445312 12.125 11.582031 12.183594 C 11.71875 12.238281 11.863281 12.269531 12.011719 12.269531 C 12.164062 12.269531 12.304688 12.238281 12.445312 12.183594 C 12.582031 12.125 12.703125 12.042969 12.808594 11.9375 C 12.914062 11.832031 12.996094 11.710938 13.054688 11.574219 C 13.109375 11.4375 13.136719 11.292969 13.136719 11.144531 Z M 12.011719 11.519531 C 11.910156 11.519531 11.820312 11.484375 11.746094 11.410156 C 11.675781 11.335938 11.636719 11.25 11.636719 11.144531 C 11.636719 11.042969 11.675781 10.953125 11.746094 10.878906 C 11.820312 10.804688 11.910156 10.769531 12.011719 10.769531 C 12.117188 10.769531 12.203125 10.804688 12.277344 10.878906 C 12.351562 10.953125 12.386719 11.042969 12.386719 11.144531 C 12.386719 11.25 12.351562 11.335938 12.277344 11.410156 C 12.203125 11.484375 12.117188 11.519531 12.011719 11.519531 Z M 12.011719 11.519531 " fill-opacity="1" fill-rule="nonzero"/><g clip-path="url(#a43e2eaf59)"><path fill="#000000" d="M 25.519531 4.40625 L 24.019531 4.40625 L 24.019531 4.027344 C 24.019531 3.878906 23.992188 3.734375 23.933594 3.597656 C 23.875 3.460938 23.796875 3.335938 23.691406 3.230469 C 23.585938 3.128906 23.460938 3.046875 23.324219 2.988281 C 23.1875 2.933594 23.042969 2.902344 22.894531 2.902344 C 22.746094 2.902344 22.601562 2.933594 22.460938 2.988281 C 22.324219 3.046875 22.203125 3.128906 22.097656 3.230469 C 21.992188 3.335938 21.910156 3.460938 21.855469 3.597656 C 21.796875 3.734375 21.769531 3.878906 21.769531 4.027344 L 21.769531 4.40625 L 21.019531 4.40625 L 21.019531 4.027344 C 21.019531 3.878906 20.988281 3.734375 20.933594 3.597656 C 20.875 3.460938 20.792969 3.335938 20.6875 3.230469 C 20.582031 3.128906 20.460938 3.046875 20.324219 2.988281 C 20.183594 2.933594 20.042969 2.902344 19.890625 2.902344 C 19.742188 2.902344 19.597656 2.933594 19.460938 2.988281 C 19.324219 3.046875 19.203125 3.128906 19.097656 3.230469 C 18.992188 3.335938 18.910156 3.460938 18.851562 3.597656 C 18.796875 3.734375 18.765625 3.878906 18.765625 4.027344 L 18.765625 4.40625 L 11.261719 4.40625 L 11.261719 4.027344 C 11.261719 3.878906 11.234375 3.734375 11.175781 3.597656 C 11.121094 3.460938 11.039062 3.335938 10.933594 3.230469 C 10.828125 3.128906 10.707031 3.046875 10.566406 2.988281 C 10.429688 2.933594 10.285156 2.902344 10.136719 2.902344 C 9.988281 2.902344 9.84375 2.933594 9.707031 2.988281 C 9.566406 3.046875 9.445312 3.128906 9.339844 3.230469 C 9.234375 3.335938 9.152344 3.460938 9.097656 3.597656 C 9.039062 3.734375 9.011719 3.878906 9.011719 4.027344 L 9.011719 4.40625 L 8.261719 4.40625 L 8.261719 4.027344 C 8.261719 3.878906 8.234375 3.734375 8.175781 3.597656 C 8.117188 3.460938 8.035156 3.335938 7.929688 3.230469 C 7.824219 3.128906 7.703125 3.046875 7.566406 2.988281 C 7.429688 2.933594 7.285156 2.902344 7.136719 2.902344 C 6.984375 2.902344 6.84375 2.933594 6.703125 2.988281 C 6.566406 3.046875 6.445312 3.128906 6.339844 3.230469 C 6.234375 3.335938 6.152344 3.460938 6.09375 3.597656 C 6.039062 3.734375 6.011719 3.878906 6.011719 4.027344 L 6.011719 4.40625 L 4.507812 4.40625 C 4.40625 4.40625 4.320312 4.441406 4.246094 4.515625 C 4.171875 4.585938 4.136719 4.675781 4.136719 4.777344 L 4.136719 25.753906 C 4.136719 25.855469 4.171875 25.945312 4.246094 26.015625 C 4.320312 26.089844 4.40625 26.125 4.507812 26.125 L 25.519531 26.125 C 25.621094 26.125 25.710938 26.089844 25.78125 26.015625 C 25.855469 25.945312 25.890625 25.855469 25.890625 25.753906 L 25.890625 4.777344 C 25.890625 4.675781 25.855469 4.585938 25.78125 4.515625 C 25.710938 4.441406 25.621094 4.40625 25.519531 4.40625 Z M 22.519531 4.027344 C 22.519531 3.921875 22.554688 3.835938 22.628906 3.761719 C 22.703125 3.6875 22.789062 3.652344 22.894531 3.652344 C 22.996094 3.652344 23.085938 3.6875 23.160156 3.761719 C 23.230469 3.835938 23.269531 3.921875 23.269531 4.027344 L 23.269531 6.273438 C 23.269531 6.378906 23.230469 6.464844 23.160156 6.539062 C 23.085938 6.613281 22.996094 6.648438 22.894531 6.648438 C 22.789062 6.648438 22.703125 6.613281 22.628906 6.539062 C 22.554688 6.464844 22.519531 6.378906 22.519531 6.273438 Z M 19.515625 4.027344 C 19.515625 3.921875 19.554688 3.835938 19.625 3.761719 C 19.699219 3.6875 19.789062 3.652344 19.890625 3.652344 C 19.996094 3.652344 20.085938 3.6875 20.15625 3.761719 C 20.230469 3.835938 20.265625 3.921875 20.265625 4.027344 L 20.265625 6.273438 C 20.265625 6.378906 20.230469 6.464844 20.15625 6.539062 C 20.085938 6.613281 19.996094 6.648438 19.890625 6.648438 C 19.789062 6.648438 19.699219 6.613281 19.625 6.539062 C 19.554688 6.464844 19.515625 6.378906 19.515625 6.273438 Z M 9.761719 4.027344 C 9.761719 3.921875 9.796875 3.835938 9.871094 3.761719 C 9.945312 3.6875 10.035156 3.652344 10.136719 3.652344 C 10.242188 3.652344 10.328125 3.6875 10.402344 3.761719 C 10.476562 3.835938 10.511719 3.921875 10.511719 4.027344 L 10.511719 6.273438 C 10.511719 6.378906 10.476562 6.464844 10.402344 6.539062 C 10.328125 6.613281 10.242188 6.648438 10.136719 6.648438 C 10.035156 6.648438 9.945312 6.613281 9.871094 6.539062 C 9.796875 6.464844 9.761719 6.378906 9.761719 6.273438 Z M 6.761719 4.027344 C 6.761719 3.921875 6.796875 3.835938 6.871094 3.761719 C 6.941406 3.6875 7.03125 3.652344 7.136719 3.652344 C 7.238281 3.652344 7.328125 3.6875 7.402344 3.761719 C 7.472656 3.835938 7.511719 3.921875 7.511719 4.027344 L 7.511719 6.273438 C 7.511719 6.378906 7.472656 6.464844 7.402344 6.539062 C 7.328125 6.613281 7.238281 6.648438 7.136719 6.648438 C 7.03125 6.648438 6.941406 6.613281 6.871094 6.539062 C 6.796875 6.464844 6.761719 6.378906 6.761719 6.273438 Z M 6.011719 5.148438 L 6.011719 6.273438 C 6.011719 6.421875 6.039062 6.566406 6.09375 6.703125 C 6.152344 6.84375 6.234375 6.964844 6.339844 7.070312 C 6.445312 7.175781 6.566406 7.257812 6.703125 7.3125 C 6.84375 7.371094 6.984375 7.398438 7.136719 7.398438 C 7.285156 7.398438 7.429688 7.371094 7.566406 7.3125 C 7.703125 7.257812 7.824219 7.175781 7.929688 7.070312 C 8.035156 6.964844 8.117188 6.84375 8.175781 6.703125 C 8.234375 6.566406 8.261719 6.421875 8.261719 6.273438 L 8.261719 5.148438 L 9.011719 5.148438 L 9.011719 6.273438 C 9.011719 6.421875 9.039062 6.566406 9.097656 6.703125 C 9.152344 6.84375 9.234375 6.964844 9.339844 7.070312 C 9.445312 7.175781 9.566406 7.257812 9.707031 7.3125 C 9.84375 7.371094 9.988281 7.398438 10.136719 7.398438 C 10.285156 7.398438 10.429688 7.371094 10.566406 7.3125 C 10.707031 7.257812 10.828125 7.175781 10.933594 7.070312 C 11.039062 6.964844 11.121094 6.84375 11.175781 6.703125 C 11.234375 6.566406 11.261719 6.421875 11.261719 6.273438 L 11.261719 5.148438 L 18.765625 5.148438 L 18.765625 6.273438 C 18.765625 6.421875 18.796875 6.566406 18.851562 6.703125 C 18.910156 6.84375 18.992188 6.964844 19.097656 7.070312 C 19.203125 7.175781 19.324219 7.257812 19.460938 7.3125 C 19.597656 7.371094 19.742188 7.398438 19.890625 7.398438 C 20.042969 7.398438 20.183594 7.371094 20.324219 7.3125 C 20.460938 7.257812 20.582031 7.175781 20.6875 7.070312 C 20.792969 6.964844 20.875 6.84375 20.933594 6.703125 C 20.988281 6.566406 21.019531 6.421875 21.019531 6.273438 L 21.019531 5.148438 L 21.769531 5.148438 L 21.769531 6.273438 C 21.769531 6.421875 21.796875 6.566406 21.855469 6.703125 C 21.910156 6.84375 21.992188 6.964844 22.097656 7.070312 C 22.203125 7.175781 22.324219 7.257812 22.460938 7.3125 C 22.601562 7.371094 22.746094 7.398438 22.894531 7.398438 C 23.042969 7.398438 23.1875 7.371094 23.324219 7.3125 C 23.460938 7.257812 23.585938 7.175781 23.691406 7.070312 C 23.796875 6.964844 23.875 6.84375 23.933594 6.703125 C 23.992188 6.566406 24.019531 6.421875 24.019531 6.273438 L 24.019531 5.148438 L 25.148438 5.148438 L 25.148438 11.144531 L 20.25 11.144531 C 20.226562 10.816406 20.171875 10.492188 20.089844 10.175781 C 20.003906 9.859375 19.890625 9.550781 19.75 9.253906 C 19.609375 8.957031 19.441406 8.675781 19.246094 8.414062 C 19.050781 8.148438 18.832031 7.902344 18.59375 7.679688 C 18.351562 7.453125 18.09375 7.253906 17.8125 7.078125 C 17.535156 6.902344 17.242188 6.757812 16.9375 6.636719 C 16.632812 6.515625 16.316406 6.425781 15.992188 6.363281 C 15.667969 6.300781 15.34375 6.269531 15.015625 6.269531 C 14.683594 6.269531 14.359375 6.300781 14.035156 6.363281 C 13.710938 6.425781 13.398438 6.515625 13.089844 6.636719 C 12.785156 6.757812 12.492188 6.902344 12.214844 7.078125 C 11.9375 7.253906 11.675781 7.453125 11.4375 7.679688 C 11.195312 7.902344 10.976562 8.148438 10.78125 8.414062 C 10.589844 8.675781 10.421875 8.957031 10.277344 9.253906 C 10.136719 9.550781 10.023438 9.859375 9.941406 10.175781 C 9.855469 10.492188 9.804688 10.816406 9.78125 11.144531 L 4.878906 11.144531 L 4.878906 5.148438 Z M 19.515625 11.519531 C 19.515625 11.8125 19.488281 12.105469 19.429688 12.394531 C 19.371094 12.6875 19.289062 12.96875 19.175781 13.238281 C 19.0625 13.511719 18.921875 13.769531 18.757812 14.015625 C 18.59375 14.261719 18.40625 14.488281 18.199219 14.699219 C 17.988281 14.90625 17.761719 15.09375 17.515625 15.257812 C 17.269531 15.421875 17.011719 15.558594 16.738281 15.671875 C 16.464844 15.785156 16.183594 15.871094 15.894531 15.929688 C 15.601562 15.984375 15.308594 16.015625 15.015625 16.015625 C 14.71875 16.015625 14.425781 15.984375 14.136719 15.929688 C 13.847656 15.871094 13.566406 15.785156 13.292969 15.671875 C 13.019531 15.558594 12.757812 15.421875 12.511719 15.257812 C 12.265625 15.09375 12.039062 14.90625 11.832031 14.699219 C 11.621094 14.488281 11.433594 14.261719 11.269531 14.015625 C 11.105469 13.769531 10.96875 13.511719 10.855469 13.238281 C 10.742188 12.96875 10.65625 12.6875 10.597656 12.394531 C 10.539062 12.105469 10.511719 11.8125 10.511719 11.519531 C 10.511719 11.222656 10.539062 10.933594 10.597656 10.640625 C 10.65625 10.351562 10.742188 10.070312 10.855469 9.800781 C 10.96875 9.527344 11.105469 9.265625 11.269531 9.023438 C 11.433594 8.777344 11.621094 8.550781 11.832031 8.339844 C 12.039062 8.132812 12.265625 7.945312 12.511719 7.78125 C 12.757812 7.617188 13.019531 7.480469 13.292969 7.367188 C 13.566406 7.253906 13.847656 7.167969 14.136719 7.109375 C 14.425781 7.050781 14.71875 7.023438 15.015625 7.023438 C 15.308594 7.023438 15.601562 7.054688 15.890625 7.109375 C 16.183594 7.167969 16.464844 7.253906 16.738281 7.367188 C 17.007812 7.480469 17.269531 7.617188 17.515625 7.78125 C 17.761719 7.945312 17.988281 8.132812 18.195312 8.34375 C 18.40625 8.550781 18.59375 8.777344 18.757812 9.023438 C 18.921875 9.269531 19.058594 9.527344 19.171875 9.800781 C 19.285156 10.074219 19.371094 10.351562 19.429688 10.644531 C 19.488281 10.933594 19.515625 11.222656 19.515625 11.519531 Z M 4.878906 25.382812 L 4.878906 11.894531 L 9.78125 11.894531 C 9.804688 12.222656 9.855469 12.542969 9.941406 12.863281 C 10.023438 13.179688 10.136719 13.488281 10.277344 13.785156 C 10.421875 14.082031 10.589844 14.359375 10.785156 14.625 C 10.976562 14.890625 11.195312 15.136719 11.4375 15.359375 C 11.675781 15.585938 11.9375 15.785156 12.214844 15.960938 C 12.492188 16.132812 12.785156 16.28125 13.09375 16.402344 C 13.398438 16.523438 13.710938 16.613281 14.035156 16.675781 C 14.359375 16.738281 14.6875 16.765625 15.015625 16.765625 C 15.34375 16.765625 15.671875 16.738281 15.992188 16.675781 C 16.316406 16.613281 16.632812 16.523438 16.9375 16.402344 C 17.242188 16.28125 17.535156 16.132812 17.816406 15.960938 C 18.09375 15.785156 18.351562 15.585938 18.59375 15.359375 C 18.832031 15.136719 19.050781 14.890625 19.246094 14.625 C 19.441406 14.359375 19.609375 14.082031 19.75 13.785156 C 19.890625 13.488281 20.003906 13.179688 20.089844 12.863281 C 20.171875 12.542969 20.226562 12.222656 20.25 11.894531 L 25.148438 11.894531 L 25.148438 25.382812 Z M 4.878906 25.382812 " fill-opacity="1" fill-rule="nonzero"/></g><path fill="#000000" d="M 7.511719 21.632812 C 7.3125 21.632812 7.121094 21.671875 6.9375 21.746094 C 6.753906 21.824219 6.589844 21.933594 6.449219 22.074219 C 6.308594 22.214844 6.199219 22.375 6.125 22.558594 C 6.046875 22.742188 6.011719 22.933594 6.011719 23.132812 C 6.011719 23.332031 6.046875 23.523438 6.125 23.707031 C 6.199219 23.890625 6.308594 24.050781 6.449219 24.191406 C 6.589844 24.332031 6.753906 24.441406 6.9375 24.515625 C 7.121094 24.59375 7.3125 24.628906 7.511719 24.628906 C 7.710938 24.628906 7.902344 24.59375 8.085938 24.515625 C 8.269531 24.441406 8.429688 24.332031 8.570312 24.191406 C 8.710938 24.050781 8.820312 23.890625 8.898438 23.707031 C 8.972656 23.523438 9.011719 23.332031 9.011719 23.132812 C 9.011719 22.933594 8.972656 22.742188 8.898438 22.558594 C 8.820312 22.375 8.710938 22.214844 8.570312 22.074219 C 8.429688 21.933594 8.269531 21.824219 8.085938 21.746094 C 7.902344 21.671875 7.710938 21.632812 7.511719 21.632812 Z M 7.511719 23.882812 C 7.304688 23.882812 7.125 23.808594 6.980469 23.660156 C 6.832031 23.515625 6.761719 23.339844 6.761719 23.132812 C 6.761719 22.925781 6.832031 22.75 6.980469 22.601562 C 7.125 22.457031 7.304688 22.382812 7.511719 22.382812 C 7.71875 22.382812 7.894531 22.457031 8.042969 22.601562 C 8.1875 22.75 8.261719 22.925781 8.261719 23.132812 C 8.261719 23.339844 8.1875 23.515625 8.042969 23.660156 C 7.894531 23.808594 7.71875 23.882812 7.511719 23.882812 Z M 7.511719 23.882812 " fill-opacity="1" fill-rule="nonzero"/><path fill="#000000" d="M 15.015625 17.511719 C 14.816406 17.511719 14.625 17.550781 14.441406 17.628906 C 14.257812 17.703125 14.09375 17.8125 13.953125 17.953125 C 13.8125 18.09375 13.703125 18.253906 13.628906 18.4375 C 13.550781 18.621094 13.515625 18.8125 13.515625 19.011719 C 13.515625 19.210938 13.550781 19.402344 13.628906 19.585938 C 13.703125 19.769531 13.8125 19.929688 13.953125 20.070312 C 14.09375 20.210938 14.257812 20.320312 14.441406 20.394531 C 14.625 20.472656 14.816406 20.511719 15.015625 20.511719 C 15.214844 20.511719 15.40625 20.472656 15.589844 20.394531 C 15.773438 20.320312 15.933594 20.210938 16.074219 20.070312 C 16.214844 19.929688 16.324219 19.769531 16.402344 19.585938 C 16.476562 19.402344 16.515625 19.210938 16.515625 19.011719 C 16.515625 18.8125 16.476562 18.621094 16.402344 18.4375 C 16.324219 18.253906 16.214844 18.09375 16.074219 17.953125 C 15.933594 17.8125 15.773438 17.703125 15.589844 17.628906 C 15.40625 17.550781 15.214844 17.511719 15.015625 17.511719 Z M 15.015625 19.761719 C 14.808594 19.761719 14.628906 19.6875 14.484375 19.542969 C 14.335938 19.394531 14.265625 19.21875 14.265625 19.011719 C 14.265625 18.804688 14.335938 18.628906 14.484375 18.480469 C 14.628906 18.335938 14.808594 18.261719 15.015625 18.261719 C 15.222656 18.261719 15.398438 18.335938 15.546875 18.480469 C 15.691406 18.628906 15.765625 18.804688 15.765625 19.011719 C 15.765625 19.21875 15.691406 19.394531 15.546875 19.542969 C 15.398438 19.6875 15.222656 19.761719 15.015625 19.761719 Z M 15.015625 19.761719 " fill-opacity="1" fill-rule="nonzero"/><path fill="#000000" d="M 15.015625 21.632812 C 14.816406 21.632812 14.625 21.671875 14.441406 21.746094 C 14.257812 21.824219 14.09375 21.933594 13.953125 22.074219 C 13.8125 22.214844 13.703125 22.375 13.628906 22.558594 C 13.550781 22.742188 13.515625 22.933594 13.515625 23.132812 C 13.515625 23.332031 13.550781 23.523438 13.628906 23.707031 C 13.703125 23.890625 13.8125 24.050781 13.953125 24.191406 C 14.09375 24.332031 14.257812 24.441406 14.441406 24.515625 C 14.625 24.59375 14.816406 24.628906 15.015625 24.628906 C 15.214844 24.628906 15.40625 24.59375 15.589844 24.515625 C 15.773438 24.441406 15.933594 24.332031 16.074219 24.191406 C 16.214844 24.050781 16.324219 23.890625 16.402344 23.707031 C 16.476562 23.523438 16.515625 23.332031 16.515625 23.132812 C 16.515625 22.933594 16.476562 22.742188 16.402344 22.558594 C 16.324219 22.375 16.214844 22.214844 16.074219 22.074219 C 15.933594 21.933594 15.773438 21.824219 15.589844 21.746094 C 15.40625 21.671875 15.214844 21.632812 15.015625 21.632812 Z M 15.015625 23.882812 C 14.808594 23.882812 14.628906 23.808594 14.484375 23.660156 C 14.335938 23.515625 14.265625 23.339844 14.265625 23.132812 C 14.265625 22.925781 14.335938 22.75 14.484375 22.601562 C 14.628906 22.457031 14.808594 22.382812 15.015625 22.382812 C 15.222656 22.382812 15.398438 22.457031 15.546875 22.601562 C 15.691406 22.75 15.765625 22.925781 15.765625 23.132812 C 15.765625 23.339844 15.691406 23.515625 15.546875 23.660156 C 15.398438 23.808594 15.222656 23.882812 15.015625 23.882812 Z M 15.015625 23.882812 " fill-opacity="1" fill-rule="nonzero"/><path fill="#000000" d="M 18.765625 21.632812 C 18.566406 21.632812 18.375 21.671875 18.191406 21.746094 C 18.007812 21.824219 17.847656 21.933594 17.707031 22.074219 C 17.566406 22.214844 17.457031 22.375 17.378906 22.558594 C 17.304688 22.742188 17.265625 22.933594 17.265625 23.132812 C 17.265625 23.332031 17.304688 23.523438 17.378906 23.707031 C 17.457031 23.890625 17.566406 24.050781 17.707031 24.191406 C 17.847656 24.332031 18.007812 24.441406 18.191406 24.515625 C 18.375 24.59375 18.566406 24.628906 18.765625 24.628906 C 18.964844 24.628906 19.15625 24.59375 19.339844 24.515625 C 19.523438 24.441406 19.6875 24.332031 19.828125 24.191406 C 19.96875 24.050781 20.078125 23.890625 20.152344 23.707031 C 20.230469 23.523438 20.265625 23.332031 20.265625 23.132812 C 20.265625 22.933594 20.230469 22.742188 20.152344 22.558594 C 20.078125 22.375 19.96875 22.214844 19.828125 22.074219 C 19.6875 21.933594 19.523438 21.824219 19.339844 21.746094 C 19.15625 21.671875 18.964844 21.632812 18.765625 21.632812 Z M 18.765625 23.882812 C 18.558594 23.882812 18.382812 23.808594 18.234375 23.660156 C 18.089844 23.515625 18.015625 23.339844 18.015625 23.132812 C 18.015625 22.925781 18.089844 22.75 18.234375 22.601562 C 18.382812 22.457031 18.558594 22.382812 18.765625 22.382812 C 18.972656 22.382812 19.152344 22.457031 19.296875 22.601562 C 19.445312 22.75 19.515625 22.925781 19.515625 23.132812 C 19.515625 23.339844 19.445312 23.515625 19.296875 23.660156 C 19.152344 23.808594 18.972656 23.882812 18.765625 23.882812 Z M 18.765625 23.882812 " fill-opacity="1" fill-rule="nonzero"/><path fill="#000000" d="M 22.519531 17.511719 C 22.320312 17.511719 22.128906 17.550781 21.945312 17.628906 C 21.761719 17.703125 21.597656 17.8125 21.457031 17.953125 C 21.316406 18.09375 21.207031 18.253906 21.132812 18.4375 C 21.054688 18.621094 21.019531 18.8125 21.019531 19.011719 C 21.019531 19.210938 21.054688 19.402344 21.132812 19.585938 C 21.207031 19.769531 21.316406 19.929688 21.457031 20.070312 C 21.597656 20.210938 21.761719 20.320312 21.945312 20.394531 C 22.128906 20.472656 22.320312 20.511719 22.519531 20.511719 C 22.71875 20.511719 22.910156 20.472656 23.09375 20.394531 C 23.277344 20.320312 23.4375 20.210938 23.578125 20.070312 C 23.71875 19.929688 23.828125 19.769531 23.90625 19.585938 C 23.980469 19.402344 24.019531 19.210938 24.019531 19.011719 C 24.019531 18.8125 23.980469 18.621094 23.90625 18.4375 C 23.828125 18.253906 23.71875 18.09375 23.578125 17.953125 C 23.4375 17.8125 23.277344 17.703125 23.09375 17.628906 C 22.910156 17.550781 22.71875 17.511719 22.519531 17.511719 Z M 22.519531 19.761719 C 22.3125 19.761719 22.132812 19.6875 21.988281 19.542969 C 21.839844 19.394531 21.769531 19.21875 21.769531 19.011719 C 21.769531 18.804688 21.839844 18.628906 21.988281 18.480469 C 22.132812 18.335938 22.3125 18.261719 22.519531 18.261719 C 22.726562 18.261719 22.902344 18.335938 23.050781 18.480469 C 23.195312 18.628906 23.269531 18.804688 23.269531 19.011719 C 23.269531 19.21875 23.195312 19.394531 23.050781 19.542969 C 22.902344 19.6875 22.726562 19.761719 22.519531 19.761719 Z M 22.519531 19.761719 " fill-opacity="1" fill-rule="nonzero"/><path fill="#000000" d="M 22.519531 21.632812 C 22.320312 21.632812 22.128906 21.671875 21.945312 21.746094 C 21.761719 21.824219 21.597656 21.933594 21.457031 22.074219 C 21.316406 22.214844 21.207031 22.375 21.132812 22.558594 C 21.054688 22.742188 21.019531 22.933594 21.019531 23.132812 C 21.019531 23.332031 21.054688 23.523438 21.132812 23.707031 C 21.207031 23.890625 21.316406 24.050781 21.457031 24.191406 C 21.597656 24.332031 21.761719 24.441406 21.945312 24.515625 C 22.128906 24.59375 22.320312 24.628906 22.519531 24.628906 C 22.71875 24.628906 22.910156 24.59375 23.09375 24.515625 C 23.277344 24.441406 23.4375 24.332031 23.578125 24.191406 C 23.71875 24.050781 23.828125 23.890625 23.90625 23.707031 C 23.980469 23.523438 24.019531 23.332031 24.019531 23.132812 C 24.019531 22.933594 23.980469 22.742188 23.90625 22.558594 C 23.828125 22.375 23.71875 22.214844 23.578125 22.074219 C 23.4375 21.933594 23.277344 21.824219 23.09375 21.746094 C 22.910156 21.671875 22.71875 21.632812 22.519531 21.632812 Z M 22.519531 23.882812 C 22.3125 23.882812 22.132812 23.808594 21.988281 23.660156 C 21.839844 23.515625 21.769531 23.339844 21.769531 23.132812 C 21.769531 22.925781 21.839844 22.75 21.988281 22.601562 C 22.132812 22.457031 22.3125 22.382812 22.519531 22.382812 C 22.726562 22.382812 22.902344 22.457031 23.050781 22.601562 C 23.195312 22.75 23.269531 22.925781 23.269531 23.132812 C 23.269531 23.339844 23.195312 23.515625 23.050781 23.660156 C 22.902344 23.808594 22.726562 23.882812 22.519531 23.882812 Z M 22.519531 23.882812 " fill-opacity="1" fill-rule="nonzero"/><path fill="#000000" d="M 21.28125 17.027344 L 20.753906 16.5 L 19.523438 17.726562 C 19.292969 17.585938 19.039062 17.515625 18.765625 17.511719 C 18.566406 17.511719 18.375 17.550781 18.191406 17.628906 C 18.007812 17.703125 17.847656 17.8125 17.707031 17.953125 C 17.566406 18.09375 17.457031 18.253906 17.378906 18.4375 C 17.304688 18.621094 17.265625 18.8125 17.265625 19.011719 C 17.265625 19.210938 17.304688 19.402344 17.378906 19.585938 C 17.457031 19.769531 17.566406 19.929688 17.707031 20.070312 C 17.847656 20.210938 18.007812 20.320312 18.191406 20.394531 C 18.375 20.472656 18.566406 20.511719 18.765625 20.511719 C 18.964844 20.511719 19.15625 20.472656 19.339844 20.394531 C 19.523438 20.320312 19.6875 20.210938 19.828125 20.070312 C 19.96875 19.929688 20.078125 19.769531 20.152344 19.585938 C 20.230469 19.402344 20.265625 19.210938 20.265625 19.011719 C 20.265625 18.738281 20.195312 18.488281 20.054688 18.253906 Z M 19.515625 19.011719 C 19.515625 19.21875 19.445312 19.394531 19.296875 19.542969 C 19.152344 19.6875 18.972656 19.761719 18.765625 19.761719 C 18.558594 19.761719 18.382812 19.6875 18.234375 19.542969 C 18.089844 19.394531 18.015625 19.21875 18.015625 19.011719 C 18.015625 18.804688 18.089844 18.628906 18.234375 18.480469 C 18.382812 18.335938 18.558594 18.261719 18.765625 18.261719 C 18.832031 18.261719 18.894531 18.273438 18.957031 18.289062 L 18.5 18.746094 L 19.03125 19.277344 L 19.488281 18.820312 C 19.507812 18.882812 19.515625 18.945312 19.515625 19.011719 Z M 19.515625 19.011719 " fill-opacity="1" fill-rule="nonzero"/><path fill="#000000" d="M 13.777344 21.148438 L 13.25 20.621094 L 12.019531 21.847656 C 11.785156 21.707031 11.535156 21.636719 11.261719 21.632812 C 11.0625 21.632812 10.871094 21.671875 10.6875 21.746094 C 10.503906 21.824219 10.34375 21.933594 10.203125 22.074219 C 10.0625 22.214844 9.953125 22.375 9.875 22.558594 C 9.800781 22.742188 9.761719 22.933594 9.761719 23.132812 C 9.761719 23.332031 9.800781 23.523438 9.875 23.707031 C 9.953125 23.890625 10.0625 24.050781 10.203125 24.191406 C 10.34375 24.332031 10.503906 24.441406 10.6875 24.515625 C 10.871094 24.59375 11.0625 24.628906 11.261719 24.628906 C 11.460938 24.628906 11.652344 24.59375 11.835938 24.515625 C 12.019531 24.441406 12.183594 24.332031 12.324219 24.191406 C 12.464844 24.050781 12.574219 23.890625 12.648438 23.707031 C 12.726562 23.523438 12.761719 23.332031 12.761719 23.132812 C 12.761719 22.859375 12.691406 22.609375 12.550781 22.375 Z M 12.011719 23.132812 C 12.011719 23.339844 11.941406 23.515625 11.792969 23.660156 C 11.648438 23.808594 11.46875 23.882812 11.261719 23.882812 C 11.054688 23.882812 10.878906 23.808594 10.730469 23.660156 C 10.585938 23.515625 10.511719 23.339844 10.511719 23.132812 C 10.511719 22.925781 10.585938 22.75 10.730469 22.601562 C 10.878906 22.457031 11.054688 22.382812 11.261719 22.382812 C 11.328125 22.382812 11.390625 22.394531 11.453125 22.410156 L 10.996094 22.867188 L 11.527344 23.398438 L 11.984375 22.941406 C 12.003906 23.003906 12.011719 23.066406 12.011719 23.132812 Z M 12.011719 23.132812 " fill-opacity="1" fill-rule="nonzero"/></svg>