<svg xmlns="http://www.w3.org/2000/svg" xmlns:xlink="http://www.w3.org/1999/xlink" width="40" zoomAndPan="magnify" viewBox="0 0 30 30.000001" height="40" preserveAspectRatio="xMidYMid meet" version="1.0"><defs><clipPath id="f8f070535a"><path d="M 4 2.902344 L 15 2.902344 L 15 25 L 4 25 Z M 4 2.902344 " clip-rule="nonzero"/></clipPath><clipPath id="9e081e5582"><path d="M 7 2.902344 L 15 2.902344 L 15 25 L 7 25 Z M 7 2.902344 " clip-rule="nonzero"/></clipPath><clipPath id="384face177"><path d="M 4 16 L 26.613281 16 L 26.613281 19 L 4 19 Z M 4 16 " clip-rule="nonzero"/></clipPath><clipPath id="d9c6cffece"><path d="M 3.386719 24 L 26.613281 24 L 26.613281 26.128906 L 3.386719 26.128906 Z M 3.386719 24 " clip-rule="nonzero"/></clipPath><clipPath id="ee3ffc7335"><path d="M 4 10 L 26.613281 10 L 26.613281 13 L 4 13 Z M 4 10 " clip-rule="nonzero"/></clipPath><clipPath id="58461f4eaf"><path d="M 5 24 L 9 24 L 9 26.128906 L 5 26.128906 Z M 5 24 " clip-rule="nonzero"/></clipPath><clipPath id="ec3719da09"><path d="M 10 24 L 13 24 L 13 26.128906 L 10 26.128906 Z M 10 24 " clip-rule="nonzero"/></clipPath><clipPath id="c46f5e969f"><path d="M 15 24 L 18 24 L 18 26.128906 L 15 26.128906 Z M 15 24 " clip-rule="nonzero"/></clipPath><clipPath id="862cace507"><path d="M 19 24 L 22 24 L 22 26.128906 L 19 26.128906 Z M 19 24 " clip-rule="nonzero"/></clipPath><clipPath id="32f958de9d"><path d="M 24 24 L 26.613281 24 L 26.613281 26.128906 L 24 26.128906 Z M 24 24 " clip-rule="nonzero"/></clipPath></defs><path fill="#dfe0df" d="M 14.226562 12.195312 L 25.839844 12.195312 L 25.839844 16.839844 L 14.226562 16.839844 Z M 14.226562 12.195312 " fill-opacity="1" fill-rule="nonzero"/><path fill="#55b4f0" d="M 16.546875 12.195312 L 20.03125 12.195312 L 20.03125 14.515625 L 16.546875 14.515625 Z M 16.546875 12.195312 " fill-opacity="1" fill-rule="nonzero"/><path fill="#55b4f0" d="M 23.515625 12.195312 L 25.839844 12.195312 L 25.839844 14.515625 L 23.515625 14.515625 Z M 23.515625 12.195312 " fill-opacity="1" fill-rule="nonzero"/><path fill="#55b4f0" d="M 18.097656 14.515625 L 22.355469 14.515625 L 22.355469 16.839844 L 18.097656 16.839844 Z M 18.097656 14.515625 " fill-opacity="1" fill-rule="nonzero"/><path fill="#55b4f0" d="M 14.226562 14.515625 L 18.097656 14.515625 L 18.097656 16.839844 L 14.226562 16.839844 Z M 14.226562 14.515625 " fill-opacity="1" fill-rule="nonzero"/><path fill="#dfe0df" d="M 14.226562 18.386719 L 25.839844 18.386719 L 25.839844 24.582031 L 14.226562 24.582031 Z M 14.226562 18.386719 " fill-opacity="1" fill-rule="nonzero"/><path fill="#edeeed" d="M 21.195312 23.804688 L 25.839844 23.804688 L 25.839844 18.386719 L 15.054688 18.386719 C 15.101562 18.757812 15.179688 19.121094 15.292969 19.476562 C 15.40625 19.835938 15.546875 20.179688 15.722656 20.507812 C 15.898438 20.839844 16.101562 21.152344 16.332031 21.445312 C 16.5625 21.738281 16.820312 22.007812 17.097656 22.257812 C 17.378906 22.503906 17.679688 22.726562 18 22.917969 C 18.320312 23.109375 18.65625 23.273438 19.003906 23.40625 C 19.355469 23.539062 19.714844 23.636719 20.082031 23.707031 C 20.449219 23.773438 20.820312 23.804688 21.195312 23.804688 Z M 21.195312 23.804688 " fill-opacity="1" fill-rule="nonzero"/><g clip-path="url(#f8f070535a)"><path fill="#dfe0df" d="M 4.160156 24.582031 L 4.160156 2.902344 L 14.226562 2.902344 L 14.226562 24.582031 " fill-opacity="1" fill-rule="nonzero"/></g><g clip-path="url(#9e081e5582)"><path fill="#edeeed" d="M 14.226562 24.09375 L 14.226562 2.902344 L 7.257812 2.902344 L 7.257812 14.515625 C 7.257812 15.578125 7.421875 16.617188 7.753906 17.628906 C 8.082031 18.640625 8.558594 19.578125 9.183594 20.4375 C 9.8125 21.296875 10.554688 22.039062 11.414062 22.664062 C 12.277344 23.289062 13.214844 23.765625 14.226562 24.09375 Z M 14.226562 24.09375 " fill-opacity="1" fill-rule="nonzero"/></g><path fill="#747574" d="M 4.160156 18.386719 L 14.226562 18.386719 L 14.226562 24.582031 L 4.160156 24.582031 Z M 4.160156 18.386719 " fill-opacity="1" fill-rule="nonzero"/><path fill="#9d9e9d" d="M 11.128906 23.804688 L 14.226562 23.804688 L 14.226562 18.386719 L 4.988281 18.386719 C 5.035156 18.757812 5.113281 19.121094 5.226562 19.476562 C 5.339844 19.835938 5.484375 20.179688 5.660156 20.507812 C 5.832031 20.839844 6.035156 21.152344 6.265625 21.445312 C 6.5 21.738281 6.753906 22.007812 7.035156 22.257812 C 7.316406 22.503906 7.617188 22.726562 7.9375 22.917969 C 8.253906 23.109375 8.589844 23.273438 8.941406 23.40625 C 9.289062 23.539062 9.648438 23.636719 10.015625 23.707031 C 10.382812 23.773438 10.753906 23.804688 11.128906 23.804688 Z M 11.128906 23.804688 " fill-opacity="1" fill-rule="nonzero"/><g clip-path="url(#384face177)"><path fill="#c33e37" d="M 4.160156 16.839844 L 25.839844 16.839844 C 26.050781 16.839844 26.234375 16.914062 26.386719 17.066406 C 26.539062 17.214844 26.613281 17.398438 26.613281 17.613281 C 26.613281 17.828125 26.539062 18.007812 26.386719 18.160156 C 26.234375 18.3125 26.050781 18.386719 25.839844 18.386719 L 4.160156 18.386719 " fill-opacity="1" fill-rule="nonzero"/></g><g clip-path="url(#d9c6cffece)"><path fill="#bcbdbc" d="M 3.386719 24.582031 L 26.613281 24.582031 L 26.613281 26.128906 L 3.386719 26.128906 Z M 3.386719 24.582031 " fill-opacity="1" fill-rule="nonzero"/></g><path fill="#c33e37" d="M 9.96875 6 L 9.96875 4.453125 L 8.417969 4.453125 L 8.417969 6 L 6.871094 6 L 6.871094 7.546875 L 8.417969 7.546875 L 8.417969 9.097656 L 9.96875 9.097656 L 9.96875 7.546875 L 11.515625 7.546875 L 11.515625 6 Z M 9.96875 6 " fill-opacity="1" fill-rule="nonzero"/><g clip-path="url(#ee3ffc7335)"><path fill="#c33e37" d="M 4.160156 10.644531 L 25.839844 10.644531 C 26.050781 10.644531 26.234375 10.722656 26.386719 10.871094 C 26.539062 11.023438 26.613281 11.207031 26.613281 11.417969 C 26.613281 11.632812 26.539062 11.816406 26.386719 11.964844 C 26.234375 12.117188 26.050781 12.195312 25.839844 12.195312 L 4.160156 12.195312 " fill-opacity="1" fill-rule="nonzero"/></g><path fill="#747574" d="M 25.839844 14.128906 L 23.902344 14.128906 L 23.902344 12.195312 L 23.128906 12.195312 L 23.128906 14.128906 L 20.417969 14.128906 L 20.417969 12.195312 L 19.644531 12.195312 L 19.644531 14.128906 L 16.933594 14.128906 L 16.933594 12.195312 L 16.160156 12.195312 L 16.160156 14.128906 L 14.226562 14.128906 L 14.226562 14.902344 L 17.710938 14.902344 L 17.710938 16.839844 L 18.484375 16.839844 L 18.484375 14.902344 L 21.96875 14.902344 L 21.96875 16.839844 L 22.742188 16.839844 L 22.742188 14.902344 L 25.839844 14.902344 Z M 25.839844 14.128906 " fill-opacity="1" fill-rule="nonzero"/><path fill="#55b4f0" d="M 15.773438 19.933594 L 24.289062 19.933594 L 24.289062 23.03125 L 15.773438 23.03125 Z M 15.773438 19.933594 " fill-opacity="1" fill-rule="nonzero"/><path fill="#6cc2f1" d="M 15.773438 20.597656 C 16.351562 21.644531 17.164062 22.453125 18.207031 23.03125 L 24.289062 23.03125 L 24.289062 19.933594 L 15.773438 19.933594 Z M 15.773438 20.597656 " fill-opacity="1" fill-rule="nonzero"/><path fill="#dfe0df" d="M 19.644531 19.933594 L 20.417969 19.933594 L 20.417969 23.03125 L 19.644531 23.03125 Z M 19.644531 19.933594 " fill-opacity="1" fill-rule="nonzero"/><path fill="#dfe0df" d="M 17.324219 19.933594 L 18.097656 19.933594 L 18.097656 23.03125 L 17.324219 23.03125 Z M 17.324219 19.933594 " fill-opacity="1" fill-rule="nonzero"/><path fill="#dfe0df" d="M 21.96875 19.933594 L 22.742188 19.933594 L 22.742188 23.03125 L 21.96875 23.03125 Z M 21.96875 19.933594 " fill-opacity="1" fill-rule="nonzero"/><g clip-path="url(#58461f4eaf)"><path fill="#414241" d="M 5.710938 24.582031 L 5.710938 26.128906 L 8.03125 26.128906 L 8.03125 24.582031 " fill-opacity="1" fill-rule="nonzero"/></g><g clip-path="url(#ec3719da09)"><path fill="#414241" d="M 10.355469 24.582031 L 10.355469 26.128906 L 12.675781 26.128906 L 12.675781 24.582031 " fill-opacity="1" fill-rule="nonzero"/></g><g clip-path="url(#c46f5e969f)"><path fill="#414241" d="M 15 24.582031 L 15 26.128906 L 17.324219 26.128906 L 17.324219 24.582031 " fill-opacity="1" fill-rule="nonzero"/></g><g clip-path="url(#862cace507)"><path fill="#414241" d="M 19.644531 24.582031 L 19.644531 26.128906 L 21.96875 26.128906 L 21.96875 24.582031 " fill-opacity="1" fill-rule="nonzero"/></g><g clip-path="url(#32f958de9d)"><path fill="#414241" d="M 24.289062 24.582031 L 24.289062 26.128906 L 26.613281 26.128906 L 26.613281 24.582031 " fill-opacity="1" fill-rule="nonzero"/></g><path fill="#55b4f0" d="M 5.710938 18.386719 L 12.675781 18.386719 L 12.675781 24.582031 L 5.710938 24.582031 Z M 5.710938 18.386719 " fill-opacity="1" fill-rule="nonzero"/><path fill="#6cc2f1" d="M 11.128906 23.804688 L 12.675781 23.804688 L 12.675781 18.386719 L 5.710938 18.386719 L 5.710938 20.597656 C 5.976562 21.082031 6.300781 21.523438 6.6875 21.921875 C 7.070312 22.320312 7.503906 22.660156 7.980469 22.945312 C 8.457031 23.226562 8.960938 23.441406 9.496094 23.585938 C 10.03125 23.734375 10.574219 23.804688 11.128906 23.804688 Z M 11.128906 23.804688 " fill-opacity="1" fill-rule="nonzero"/><path fill="#747574" d="M 8.804688 18.386719 L 9.582031 18.386719 L 9.582031 24.582031 L 8.804688 24.582031 Z M 8.804688 18.386719 " fill-opacity="1" fill-rule="nonzero"/><path fill="#9d9e9d" d="M 9.582031 23.609375 L 9.582031 18.386719 L 8.804688 18.386719 L 8.804688 23.351562 C 9.058594 23.453125 9.316406 23.539062 9.582031 23.609375 Z M 9.582031 23.609375 " fill-opacity="1" fill-rule="nonzero"/></svg>