<svg xmlns="http://www.w3.org/2000/svg" xmlns:xlink="http://www.w3.org/1999/xlink" width="40" zoomAndPan="magnify" viewBox="0 0 30 30.000001" height="40" preserveAspectRatio="xMidYMid meet" version="1.0"><defs><clipPath id="6c03bee72f"><path d="M 10 24 L 25.714844 24 L 25.714844 26 L 10 26 Z M 10 24 " clip-rule="nonzero"/></clipPath><clipPath id="ad0d57959e"><path d="M 4 2.902344 L 25.714844 2.902344 L 25.714844 26.128906 L 4 26.128906 Z M 4 2.902344 " clip-rule="nonzero"/></clipPath></defs><path fill="#9d9e9d" d="M 23.808594 3.277344 L 23.808594 25.753906 L 10.527344 25.753906 C 10.332031 25.753906 10.144531 25.714844 9.964844 25.640625 C 9.785156 25.5625 9.625 25.457031 9.484375 25.316406 C 9.347656 25.175781 9.242188 25.011719 9.164062 24.828125 C 9.089844 24.644531 9.054688 24.453125 9.054688 24.257812 L 9.054688 3.277344 Z M 23.808594 3.277344 " fill-opacity="1" fill-rule="nonzero"/><path fill="#bcbdbc" d="M 10.160156 9.273438 C 10.160156 10.207031 10.246094 11.136719 10.417969 12.054688 C 10.589844 12.976562 10.84375 13.871094 11.179688 14.742188 C 11.515625 15.617188 11.929688 16.449219 12.421875 17.242188 C 12.910156 18.035156 13.46875 18.773438 14.097656 19.460938 C 14.726562 20.148438 15.410156 20.769531 16.152344 21.324219 C 16.894531 21.878906 17.679688 22.359375 18.511719 22.765625 C 19.339844 23.175781 20.203125 23.5 21.09375 23.742188 C 21.984375 23.984375 22.886719 24.140625 23.808594 24.210938 L 23.808594 3.277344 L 10.160156 3.277344 Z M 10.160156 9.273438 " fill-opacity="1" fill-rule="nonzero"/><path fill="#55b4f0" d="M 10.527344 25.753906 L 10.527344 5.898438 L 11.636719 5.898438 L 11.636719 4.777344 L 21.226562 4.777344 L 21.226562 5.898438 L 22.332031 5.898438 L 22.332031 24.257812 " fill-opacity="1" fill-rule="nonzero"/><path fill="#7ec8f2" d="M 21.226562 4.777344 L 11.636719 4.777344 L 11.636719 5.898438 L 10.527344 5.898438 L 10.527344 12.597656 C 10.6875 13.3125 10.898438 14.007812 11.160156 14.691406 C 11.421875 15.375 11.730469 16.035156 12.089844 16.671875 C 12.445312 17.308594 12.84375 17.914062 13.289062 18.492188 C 13.730469 19.066406 14.214844 19.609375 14.738281 20.113281 C 15.257812 20.621094 15.8125 21.082031 16.402344 21.503906 C 16.992188 21.929688 17.609375 22.304688 18.25 22.636719 C 18.894531 22.964844 19.558594 23.246094 20.242188 23.480469 C 20.925781 23.710938 21.621094 23.894531 22.332031 24.019531 L 22.332031 5.898438 L 21.226562 5.898438 Z M 21.226562 4.777344 " fill-opacity="1" fill-rule="nonzero"/><path fill="#508c45" d="M 14.953125 9.273438 L 14.953125 12.644531 L 16.429688 11.519531 L 17.90625 12.644531 L 17.90625 9.273438 " fill-opacity="1" fill-rule="nonzero"/><path fill="#5c9d51" d="M 16.429688 9.273438 L 16.429688 11.519531 L 17.90625 12.644531 L 17.90625 9.273438 Z M 16.429688 9.273438 " fill-opacity="1" fill-rule="nonzero"/><path fill="#ffffff" d="M 11.636719 13.765625 L 13.109375 13.765625 L 13.109375 14.515625 L 11.636719 14.515625 Z M 11.636719 13.765625 " fill-opacity="1" fill-rule="nonzero"/><path fill="#ffffff" d="M 13.847656 13.765625 L 21.226562 13.765625 L 21.226562 14.515625 L 13.847656 14.515625 Z M 13.847656 13.765625 " fill-opacity="1" fill-rule="nonzero"/><path fill="#ffffff" d="M 14.953125 15.265625 L 19.011719 15.265625 L 19.011719 16.015625 L 14.953125 16.015625 Z M 14.953125 15.265625 " fill-opacity="1" fill-rule="nonzero"/><path fill="#ffffff" d="M 19.75 15.265625 L 21.226562 15.265625 L 21.226562 16.015625 L 19.75 16.015625 Z M 19.75 15.265625 " fill-opacity="1" fill-rule="nonzero"/><path fill="#ffffff" d="M 15.691406 16.765625 L 18.273438 16.765625 L 18.273438 17.511719 L 15.691406 17.511719 Z M 15.691406 16.765625 " fill-opacity="1" fill-rule="nonzero"/><path fill="#ffffff" d="M 19.011719 16.765625 L 20.117188 16.765625 L 20.117188 17.511719 L 19.011719 17.511719 Z M 19.011719 16.765625 " fill-opacity="1" fill-rule="nonzero"/><path fill="#ffffff" d="M 19.011719 23.132812 C 18.898438 23.132812 18.808594 23.089844 18.734375 23.003906 C 18.660156 22.917969 18.632812 22.816406 18.648438 22.703125 L 18.921875 20.746094 C 18.945312 20.613281 18.890625 20.535156 18.761719 20.511719 C 18.632812 20.484375 18.554688 20.535156 18.523438 20.667969 L 18.261719 21.722656 C 18.21875 21.914062 18.097656 22.007812 17.90625 22.007812 L 17.167969 22.007812 L 17.167969 21.257812 L 17.617188 21.257812 L 17.808594 20.484375 C 17.871094 20.238281 18.003906 20.046875 18.21875 19.910156 C 18.429688 19.773438 18.65625 19.730469 18.902344 19.78125 C 19.148438 19.828125 19.34375 19.957031 19.488281 20.164062 C 19.632812 20.371094 19.6875 20.601562 19.652344 20.851562 L 19.503906 21.914062 L 20.265625 21.335938 C 20.332031 21.285156 20.40625 21.257812 20.488281 21.257812 L 21.226562 21.257812 L 21.226562 22.007812 L 20.609375 22.007812 L 19.234375 23.058594 C 19.167969 23.105469 19.09375 23.132812 19.011719 23.132812 Z M 19.011719 23.132812 " fill-opacity="1" fill-rule="nonzero"/><g clip-path="url(#6c03bee72f)"><path fill="#dfe0df" d="M 25.28125 24.257812 C 25.28125 24.453125 25.246094 24.644531 25.171875 24.828125 C 25.09375 25.011719 24.988281 25.175781 24.851562 25.316406 C 24.710938 25.457031 24.550781 25.5625 24.371094 25.640625 C 24.191406 25.714844 24.003906 25.753906 23.808594 25.753906 L 10.527344 25.753906 C 10.722656 25.753906 10.914062 25.714844 11.09375 25.640625 C 11.273438 25.5625 11.433594 25.457031 11.570312 25.316406 C 11.710938 25.175781 11.816406 25.011719 11.890625 24.828125 C 11.964844 24.644531 12.003906 24.453125 12.003906 24.257812 Z M 25.28125 24.257812 " fill-opacity="1" fill-rule="nonzero"/></g><path fill="#eeab45" d="M 18.273438 8.148438 C 18.273438 8.394531 18.226562 8.636719 18.132812 8.863281 C 18.039062 9.09375 17.90625 9.296875 17.734375 9.472656 C 17.5625 9.648438 17.363281 9.78125 17.136719 9.878906 C 16.910156 9.972656 16.675781 10.019531 16.429688 10.019531 C 16.1875 10.019531 15.949219 9.972656 15.722656 9.878906 C 15.5 9.78125 15.300781 9.648438 15.125 9.472656 C 14.953125 9.296875 14.820312 9.09375 14.726562 8.863281 C 14.632812 8.636719 14.585938 8.394531 14.585938 8.148438 C 14.585938 7.898438 14.632812 7.660156 14.726562 7.429688 C 14.820312 7.203125 14.953125 7 15.125 6.824219 C 15.300781 6.648438 15.5 6.511719 15.722656 6.417969 C 15.949219 6.320312 16.1875 6.273438 16.429688 6.273438 C 16.675781 6.273438 16.910156 6.320312 17.136719 6.417969 C 17.363281 6.511719 17.5625 6.648438 17.734375 6.824219 C 17.90625 7 18.039062 7.203125 18.132812 7.429688 C 18.226562 7.660156 18.273438 7.898438 18.273438 8.148438 Z M 18.273438 8.148438 " fill-opacity="1" fill-rule="nonzero"/><path fill="#f3c350" d="M 17.90625 8.148438 C 17.90625 8.347656 17.867188 8.539062 17.792969 8.722656 C 17.71875 8.90625 17.613281 9.066406 17.472656 9.207031 C 17.335938 9.347656 17.175781 9.457031 16.996094 9.53125 C 16.8125 9.609375 16.625 9.644531 16.429688 9.644531 C 16.234375 9.644531 16.046875 9.609375 15.867188 9.53125 C 15.683594 9.457031 15.523438 9.347656 15.386719 9.207031 C 15.25 9.066406 15.140625 8.90625 15.066406 8.722656 C 14.992188 8.539062 14.953125 8.347656 14.953125 8.148438 C 14.953125 7.949219 14.992188 7.757812 15.066406 7.574219 C 15.140625 7.390625 15.25 7.230469 15.386719 7.089844 C 15.523438 6.949219 15.683594 6.839844 15.867188 6.761719 C 16.046875 6.6875 16.234375 6.648438 16.429688 6.648438 C 16.625 6.648438 16.8125 6.6875 16.996094 6.761719 C 17.175781 6.839844 17.335938 6.949219 17.472656 7.089844 C 17.613281 7.230469 17.71875 7.390625 17.792969 7.574219 C 17.867188 7.757812 17.90625 7.949219 17.90625 8.148438 Z M 17.90625 8.148438 " fill-opacity="1" fill-rule="nonzero"/><path fill="#574138" d="M 14.953125 20.511719 C 14.953125 20.855469 14.921875 21.195312 14.855469 21.53125 C 14.789062 21.871094 14.691406 22.199219 14.5625 22.515625 C 14.433594 22.835938 14.273438 23.136719 14.085938 23.421875 C 13.894531 23.710938 13.683594 23.976562 13.441406 24.21875 C 13.203125 24.460938 12.941406 24.679688 12.660156 24.871094 C 12.378906 25.0625 12.082031 25.222656 11.765625 25.355469 C 11.453125 25.488281 11.132812 25.585938 10.796875 25.652344 C 10.464844 25.722656 10.128906 25.753906 9.792969 25.753906 C 9.453125 25.753906 9.117188 25.722656 8.785156 25.652344 C 8.449219 25.585938 8.128906 25.488281 7.816406 25.355469 C 7.5 25.222656 7.203125 25.0625 6.921875 24.871094 C 6.640625 24.679688 6.378906 24.460938 6.140625 24.21875 C 5.898438 23.976562 5.6875 23.710938 5.496094 23.421875 C 5.308594 23.136719 5.148438 22.835938 5.019531 22.515625 C 4.890625 22.199219 4.792969 21.871094 4.726562 21.53125 C 4.660156 21.195312 4.628906 20.855469 4.628906 20.511719 C 4.628906 20.164062 4.660156 19.824219 4.726562 19.488281 C 4.792969 19.148438 4.890625 18.820312 5.019531 18.503906 C 5.148438 18.183594 5.308594 17.882812 5.496094 17.597656 C 5.6875 17.308594 5.898438 17.046875 6.140625 16.800781 C 6.378906 16.558594 6.640625 16.339844 6.921875 16.148438 C 7.203125 15.957031 7.5 15.796875 7.816406 15.664062 C 8.128906 15.53125 8.449219 15.433594 8.785156 15.367188 C 9.117188 15.300781 9.453125 15.265625 9.792969 15.265625 C 10.128906 15.265625 10.464844 15.300781 10.796875 15.367188 C 11.132812 15.433594 11.453125 15.53125 11.765625 15.664062 C 12.082031 15.796875 12.378906 15.957031 12.660156 16.148438 C 12.941406 16.339844 13.203125 16.558594 13.441406 16.800781 C 13.683594 17.046875 13.894531 17.308594 14.085938 17.597656 C 14.273438 17.882812 14.433594 18.183594 14.5625 18.503906 C 14.691406 18.820312 14.789062 19.148438 14.855469 19.488281 C 14.921875 19.824219 14.953125 20.164062 14.953125 20.511719 Z M 14.953125 20.511719 " fill-opacity="1" fill-rule="nonzero"/><path fill="#745749" d="M 9.792969 15.265625 C 8.664062 15.265625 7.644531 15.605469 6.738281 16.285156 C 6.371094 16.789062 6.105469 17.34375 5.933594 17.945312 C 5.765625 18.546875 5.703125 19.160156 5.75 19.785156 C 5.792969 20.410156 5.945312 21.007812 6.203125 21.578125 C 6.460938 22.148438 6.808594 22.652344 7.246094 23.097656 C 7.679688 23.539062 8.179688 23.890625 8.738281 24.152344 C 9.300781 24.414062 9.886719 24.570312 10.503906 24.617188 C 11.117188 24.664062 11.722656 24.601562 12.316406 24.425781 C 12.910156 24.253906 13.453125 23.980469 13.949219 23.609375 C 14.234375 23.21875 14.457031 22.796875 14.625 22.34375 C 14.792969 21.890625 14.898438 21.421875 14.9375 20.9375 C 14.976562 20.457031 14.949219 19.976562 14.859375 19.5 C 14.769531 19.023438 14.613281 18.570312 14.398438 18.136719 C 14.183594 17.707031 13.914062 17.3125 13.589844 16.953125 C 13.265625 16.597656 12.902344 16.292969 12.496094 16.039062 C 12.089844 15.785156 11.65625 15.59375 11.195312 15.460938 C 10.738281 15.332031 10.269531 15.265625 9.792969 15.265625 Z M 9.792969 15.265625 " fill-opacity="1" fill-rule="nonzero"/><path fill="#392823" d="M 10.488281 23.675781 C 10.761719 23.8125 11.050781 23.882812 11.351562 23.882812 C 11.53125 23.882812 11.6875 23.816406 11.8125 23.6875 C 11.941406 23.558594 12.003906 23.402344 12.003906 23.21875 C 12.003906 22.414062 11.722656 21.722656 11.160156 21.152344 L 11.050781 21.039062 C 10.703125 20.6875 10.28125 20.511719 9.792969 20.511719 C 9.300781 20.511719 8.878906 20.6875 8.53125 21.039062 L 8.421875 21.152344 C 7.859375 21.722656 7.578125 22.414062 7.578125 23.21875 C 7.578125 23.402344 7.640625 23.558594 7.769531 23.6875 C 7.894531 23.816406 8.050781 23.882812 8.230469 23.882812 C 8.53125 23.882812 8.820312 23.8125 9.09375 23.675781 C 9.3125 23.5625 9.546875 23.507812 9.792969 23.507812 C 10.035156 23.507812 10.269531 23.5625 10.488281 23.675781 Z M 10.488281 23.675781 " fill-opacity="1" fill-rule="nonzero"/><path fill="#392823" d="M 9.421875 18.261719 C 9.421875 18.574219 9.351562 18.835938 9.207031 19.058594 C 9.0625 19.277344 8.886719 19.386719 8.683594 19.386719 C 8.480469 19.386719 8.308594 19.277344 8.164062 19.058594 C 8.019531 18.835938 7.945312 18.574219 7.945312 18.261719 C 7.945312 17.953125 8.019531 17.6875 8.164062 17.46875 C 8.308594 17.25 8.480469 17.136719 8.683594 17.136719 C 8.886719 17.136719 9.0625 17.25 9.207031 17.46875 C 9.351562 17.6875 9.421875 17.953125 9.421875 18.261719 Z M 9.421875 18.261719 " fill-opacity="1" fill-rule="nonzero"/><path fill="#392823" d="M 11.636719 18.261719 C 11.636719 18.574219 11.5625 18.835938 11.417969 19.058594 C 11.273438 19.277344 11.101562 19.386719 10.898438 19.386719 C 10.695312 19.386719 10.519531 19.277344 10.375 19.058594 C 10.230469 18.835938 10.160156 18.574219 10.160156 18.261719 C 10.160156 17.953125 10.230469 17.6875 10.375 17.46875 C 10.519531 17.25 10.695312 17.136719 10.898438 17.136719 C 11.101562 17.136719 11.273438 17.25 11.417969 17.46875 C 11.5625 17.6875 11.636719 17.953125 11.636719 18.261719 Z M 11.636719 18.261719 " fill-opacity="1" fill-rule="nonzero"/><path fill="#392823" d="M 12.003906 20.277344 C 12.003906 20.445312 12.0625 20.589844 12.179688 20.707031 C 12.296875 20.824219 12.4375 20.882812 12.601562 20.882812 C 12.695312 20.882812 12.785156 20.863281 12.867188 20.820312 C 13.277344 20.613281 13.582031 20.304688 13.785156 19.890625 C 13.828125 19.804688 13.847656 19.714844 13.847656 19.617188 C 13.847656 19.449219 13.789062 19.308594 13.671875 19.1875 C 13.558594 19.070312 13.417969 19.011719 13.25 19.011719 C 13.15625 19.011719 13.070312 19.03125 12.984375 19.074219 C 12.578125 19.28125 12.269531 19.59375 12.066406 20.007812 C 12.023438 20.09375 12.003906 20.183594 12.003906 20.277344 Z M 12.003906 20.277344 " fill-opacity="1" fill-rule="nonzero"/><path fill="#392823" d="M 7.578125 20.277344 C 7.578125 20.445312 7.519531 20.589844 7.402344 20.707031 C 7.285156 20.824219 7.144531 20.882812 6.980469 20.882812 C 6.886719 20.882812 6.796875 20.863281 6.714844 20.820312 C 6.304688 20.613281 6 20.304688 5.796875 19.890625 C 5.753906 19.804688 5.734375 19.714844 5.734375 19.617188 C 5.734375 19.449219 5.792969 19.308594 5.910156 19.1875 C 6.023438 19.070312 6.164062 19.011719 6.332031 19.011719 C 6.425781 19.011719 6.511719 19.03125 6.597656 19.074219 C 7.003906 19.28125 7.3125 19.59375 7.515625 20.007812 C 7.558594 20.09375 7.578125 20.183594 7.578125 20.277344 Z M 7.578125 20.277344 " fill-opacity="1" fill-rule="nonzero"/><path fill="#000000" d="M 11.3125 20.773438 C 11.109375 20.570312 10.878906 20.414062 10.613281 20.300781 C 10.351562 20.191406 10.074219 20.136719 9.792969 20.136719 C 9.507812 20.136719 9.230469 20.191406 8.96875 20.300781 C 8.703125 20.414062 8.472656 20.570312 8.269531 20.773438 L 8.160156 20.886719 C 7.523438 21.53125 7.207031 22.308594 7.210938 23.21875 C 7.210938 23.359375 7.234375 23.488281 7.285156 23.617188 C 7.339844 23.742188 7.414062 23.855469 7.507812 23.953125 C 7.605469 24.050781 7.714844 24.125 7.839844 24.175781 C 7.964844 24.230469 8.09375 24.253906 8.230469 24.257812 C 8.589844 24.253906 8.933594 24.171875 9.257812 24.007812 C 9.613281 23.832031 9.96875 23.832031 10.324219 24.007812 C 10.648438 24.171875 10.992188 24.253906 11.351562 24.257812 C 11.488281 24.253906 11.617188 24.230469 11.742188 24.175781 C 11.867188 24.125 11.976562 24.050781 12.074219 23.953125 C 12.167969 23.855469 12.242188 23.742188 12.296875 23.617188 C 12.347656 23.488281 12.371094 23.359375 12.371094 23.21875 C 12.375 22.308594 12.058594 21.53125 11.421875 20.886719 Z M 11.351562 23.507812 C 11.109375 23.507812 10.875 23.449219 10.65625 23.339844 C 10.078125 23.046875 9.503906 23.046875 8.925781 23.339844 C 8.707031 23.449219 8.472656 23.507812 8.230469 23.507812 C 8.152344 23.507812 8.085938 23.480469 8.03125 23.421875 C 7.972656 23.367188 7.945312 23.300781 7.945312 23.21875 C 7.945312 22.515625 8.191406 21.914062 8.683594 21.417969 L 8.796875 21.304688 C 8.925781 21.167969 9.082031 21.066406 9.253906 20.992188 C 9.425781 20.921875 9.605469 20.882812 9.792969 20.882812 C 9.980469 20.882812 10.160156 20.921875 10.332031 20.992188 C 10.507812 21.066406 10.660156 21.167969 10.792969 21.304688 L 10.902344 21.417969 C 11.394531 21.914062 11.640625 22.515625 11.640625 23.21875 C 11.640625 23.300781 11.613281 23.367188 11.554688 23.425781 C 11.5 23.480469 11.433594 23.507812 11.351562 23.507812 Z M 11.351562 23.507812 " fill-opacity="1" fill-rule="nonzero"/><path fill="#000000" d="M 8.683594 19.761719 C 9.304688 19.761719 9.792969 19.101562 9.792969 18.261719 C 9.792969 17.421875 9.304688 16.765625 8.683594 16.765625 C 8.0625 16.765625 7.578125 17.421875 7.578125 18.261719 C 7.578125 19.101562 8.0625 19.761719 8.683594 19.761719 Z M 8.683594 17.511719 C 8.835938 17.511719 9.054688 17.804688 9.054688 18.261719 C 9.054688 18.71875 8.835938 19.011719 8.683594 19.011719 C 8.535156 19.011719 8.316406 18.71875 8.316406 18.261719 C 8.316406 17.804688 8.535156 17.511719 8.683594 17.511719 Z M 8.683594 17.511719 " fill-opacity="1" fill-rule="nonzero"/><path fill="#000000" d="M 10.898438 19.761719 C 11.519531 19.761719 12.003906 19.101562 12.003906 18.261719 C 12.003906 17.421875 11.519531 16.765625 10.898438 16.765625 C 10.277344 16.765625 9.792969 17.421875 9.792969 18.261719 C 9.792969 19.101562 10.277344 19.761719 10.898438 19.761719 Z M 10.898438 17.511719 C 11.046875 17.511719 11.265625 17.804688 11.265625 18.261719 C 11.265625 18.71875 11.046875 19.011719 10.898438 19.011719 C 10.746094 19.011719 10.527344 18.71875 10.527344 18.261719 C 10.527344 17.804688 10.746094 17.511719 10.898438 17.511719 Z M 10.898438 17.511719 " fill-opacity="1" fill-rule="nonzero"/><path fill="#000000" d="M 14.117188 20.054688 C 14.207031 19.867188 14.238281 19.667969 14.203125 19.460938 C 14.171875 19.253906 14.082031 19.074219 13.933594 18.925781 C 13.789062 18.773438 13.609375 18.683594 13.40625 18.648438 C 13.199219 18.617188 13.003906 18.644531 12.820312 18.738281 C 12.339844 18.984375 11.976562 19.351562 11.738281 19.839844 C 11.644531 20.027344 11.613281 20.226562 11.648438 20.433594 C 11.679688 20.644531 11.769531 20.824219 11.917969 20.972656 C 12.066406 21.121094 12.242188 21.210938 12.445312 21.246094 C 12.652344 21.28125 12.847656 21.25 13.03125 21.15625 C 13.511719 20.910156 13.875 20.542969 14.117188 20.054688 Z M 13.457031 19.722656 C 13.289062 20.0625 13.035156 20.316406 12.703125 20.488281 C 12.628906 20.523438 12.554688 20.515625 12.484375 20.472656 C 12.414062 20.425781 12.375 20.363281 12.371094 20.277344 C 12.371094 20.242188 12.382812 20.207031 12.398438 20.175781 C 12.566406 19.835938 12.816406 19.582031 13.148438 19.410156 C 13.246094 19.359375 13.335938 19.375 13.414062 19.453125 C 13.488281 19.53125 13.503906 19.621094 13.457031 19.722656 Z M 13.457031 19.722656 " fill-opacity="1" fill-rule="nonzero"/><path fill="#000000" d="M 7.945312 20.277344 C 7.945312 20.125 7.914062 19.976562 7.84375 19.839844 C 7.605469 19.351562 7.242188 18.984375 6.761719 18.738281 C 6.578125 18.644531 6.382812 18.617188 6.175781 18.648438 C 5.972656 18.683594 5.792969 18.773438 5.648438 18.925781 C 5.5 19.074219 5.410156 19.253906 5.378906 19.460938 C 5.34375 19.667969 5.375 19.867188 5.464844 20.054688 C 5.707031 20.542969 6.070312 20.910156 6.550781 21.15625 C 6.699219 21.230469 6.855469 21.265625 7.023438 21.257812 C 7.191406 21.25 7.347656 21.203125 7.488281 21.113281 C 7.632812 21.023438 7.742188 20.902344 7.824219 20.757812 C 7.90625 20.609375 7.945312 20.449219 7.945312 20.277344 Z M 6.878906 20.484375 C 6.546875 20.316406 6.292969 20.058594 6.125 19.722656 C 6.078125 19.621094 6.09375 19.53125 6.167969 19.453125 C 6.246094 19.375 6.335938 19.359375 6.433594 19.410156 C 6.765625 19.582031 7.015625 19.835938 7.183594 20.175781 C 7.203125 20.207031 7.210938 20.242188 7.210938 20.277344 C 7.207031 20.363281 7.167969 20.425781 7.097656 20.46875 C 7.027344 20.515625 6.953125 20.519531 6.878906 20.484375 Z M 6.878906 20.484375 " fill-opacity="1" fill-rule="nonzero"/><g clip-path="url(#ad0d57959e)"><path fill="#000000" d="M 25.28125 23.882812 L 24.175781 23.882812 L 24.175781 3.277344 C 24.175781 3.175781 24.140625 3.085938 24.066406 3.011719 C 23.996094 2.941406 23.910156 2.902344 23.808594 2.902344 L 9.054688 2.902344 C 8.953125 2.902344 8.863281 2.941406 8.792969 3.011719 C 8.71875 3.085938 8.683594 3.175781 8.683594 3.277344 L 8.683594 15.003906 C 8.351562 15.070312 8.027344 15.171875 7.710938 15.300781 C 7.394531 15.429688 7.09375 15.585938 6.808594 15.773438 C 6.523438 15.960938 6.253906 16.171875 6.007812 16.40625 C 5.757812 16.640625 5.53125 16.898438 5.332031 17.175781 C 5.128906 17.457031 4.953125 17.75 4.804688 18.0625 C 4.65625 18.371094 4.539062 18.695312 4.449219 19.027344 C 4.359375 19.359375 4.300781 19.699219 4.273438 20.042969 C 4.242188 20.386719 4.246094 20.730469 4.28125 21.074219 C 4.316406 21.417969 4.378906 21.757812 4.476562 22.085938 C 4.570312 22.417969 4.695312 22.738281 4.847656 23.046875 C 5.003906 23.355469 5.183594 23.648438 5.390625 23.921875 C 5.59375 24.195312 5.824219 24.449219 6.078125 24.679688 C 6.328125 24.910156 6.601562 25.117188 6.890625 25.296875 C 7.179688 25.480469 7.484375 25.632812 7.800781 25.753906 C 8.117188 25.878906 8.445312 25.972656 8.777344 26.035156 C 9.113281 26.097656 9.449219 26.128906 9.792969 26.128906 L 23.808594 26.128906 C 24.050781 26.128906 24.285156 26.082031 24.511719 25.984375 C 24.738281 25.890625 24.9375 25.753906 25.109375 25.578125 C 25.285156 25.402344 25.417969 25.203125 25.511719 24.972656 C 25.605469 24.742188 25.652344 24.503906 25.652344 24.257812 C 25.652344 24.152344 25.617188 24.0625 25.542969 23.992188 C 25.472656 23.917969 25.382812 23.882812 25.28125 23.882812 Z M 9.421875 3.652344 L 23.4375 3.652344 L 23.4375 23.882812 L 22.699219 23.882812 L 22.699219 5.898438 C 22.699219 5.796875 22.664062 5.707031 22.59375 5.636719 C 22.519531 5.5625 22.433594 5.527344 22.332031 5.527344 L 21.59375 5.527344 L 21.59375 4.777344 C 21.59375 4.671875 21.558594 4.585938 21.484375 4.511719 C 21.414062 4.4375 21.328125 4.402344 21.226562 4.402344 L 11.636719 4.402344 C 11.535156 4.402344 11.445312 4.4375 11.375 4.511719 C 11.300781 4.585938 11.265625 4.671875 11.265625 4.777344 L 11.265625 5.527344 L 10.527344 5.527344 C 10.425781 5.527344 10.339844 5.5625 10.269531 5.636719 C 10.195312 5.707031 10.160156 5.796875 10.160156 5.898438 L 10.160156 14.910156 C 10.039062 14.902344 9.914062 14.890625 9.792969 14.890625 C 9.667969 14.890625 9.542969 14.902344 9.421875 14.910156 Z M 21.226562 6.273438 L 21.964844 6.273438 L 21.964844 23.882812 L 14.207031 23.882812 C 14.347656 23.691406 14.476562 23.496094 14.589844 23.292969 C 14.707031 23.085938 14.808594 22.875 14.898438 22.65625 C 14.988281 22.441406 15.0625 22.21875 15.125 21.988281 C 15.1875 21.761719 15.234375 21.53125 15.269531 21.296875 C 15.300781 21.0625 15.320312 20.828125 15.324219 20.59375 C 15.328125 20.355469 15.316406 20.121094 15.292969 19.886719 C 15.265625 19.652344 15.226562 19.417969 15.171875 19.191406 C 15.117188 18.960938 15.046875 18.734375 14.964844 18.515625 C 14.882812 18.292969 14.789062 18.078125 14.679688 17.871094 C 14.570312 17.660156 14.449219 17.460938 14.316406 17.269531 C 14.179688 17.074219 14.035156 16.890625 13.878906 16.714844 C 13.722656 16.542969 13.554688 16.378906 13.378906 16.226562 C 13.199219 16.074219 13.015625 15.933594 12.820312 15.804688 C 12.625 15.675781 12.421875 15.558594 12.214844 15.453125 C 12.003906 15.351562 11.789062 15.261719 11.570312 15.1875 C 11.347656 15.109375 11.125 15.050781 10.898438 15.003906 L 10.898438 6.273438 L 11.636719 6.273438 C 11.738281 6.273438 11.824219 6.238281 11.894531 6.164062 C 11.96875 6.09375 12.003906 6.003906 12.003906 5.898438 L 12.003906 5.152344 L 20.855469 5.152344 L 20.855469 5.898438 C 20.855469 6.003906 20.890625 6.09375 20.964844 6.164062 C 21.035156 6.238281 21.125 6.273438 21.226562 6.273438 Z M 4.996094 20.511719 C 4.996094 20.191406 5.027344 19.875 5.089844 19.558594 C 5.148438 19.246094 5.242188 18.941406 5.359375 18.644531 C 5.480469 18.351562 5.628906 18.070312 5.804688 17.804688 C 5.980469 17.539062 6.179688 17.292969 6.402344 17.066406 C 6.625 16.839844 6.867188 16.636719 7.128906 16.460938 C 7.390625 16.28125 7.664062 16.132812 7.957031 16.011719 C 8.246094 15.886719 8.546875 15.796875 8.855469 15.734375 C 9.164062 15.671875 9.476562 15.640625 9.792969 15.640625 C 10.105469 15.640625 10.417969 15.671875 10.726562 15.734375 C 11.035156 15.796875 11.335938 15.886719 11.625 16.011719 C 11.917969 16.132812 12.191406 16.28125 12.453125 16.460938 C 12.714844 16.636719 12.960938 16.839844 13.179688 17.066406 C 13.402344 17.292969 13.601562 17.539062 13.777344 17.804688 C 13.953125 18.070312 14.101562 18.351562 14.222656 18.644531 C 14.339844 18.941406 14.433594 19.246094 14.492188 19.558594 C 14.554688 19.875 14.585938 20.191406 14.585938 20.511719 C 14.585938 20.828125 14.554688 21.144531 14.492188 21.460938 C 14.433594 21.773438 14.339844 22.078125 14.222656 22.375 C 14.101562 22.667969 13.953125 22.949219 13.777344 23.214844 C 13.601562 23.480469 13.402344 23.726562 13.179688 23.953125 C 12.960938 24.179688 12.714844 24.382812 12.453125 24.558594 C 12.191406 24.738281 11.917969 24.886719 11.625 25.007812 C 11.335938 25.132812 11.035156 25.222656 10.726562 25.285156 C 10.417969 25.347656 10.105469 25.378906 9.792969 25.378906 C 9.476562 25.378906 9.164062 25.347656 8.855469 25.285156 C 8.546875 25.222656 8.246094 25.128906 7.957031 25.007812 C 7.667969 24.886719 7.390625 24.734375 7.128906 24.558594 C 6.867188 24.378906 6.625 24.179688 6.402344 23.953125 C 6.179688 23.726562 5.980469 23.480469 5.804688 23.214844 C 5.632812 22.949219 5.484375 22.667969 5.363281 22.371094 C 5.242188 22.078125 5.152344 21.773438 5.089844 21.460938 C 5.027344 21.144531 4.996094 20.828125 4.996094 20.511719 Z M 23.808594 25.378906 L 12.539062 25.378906 C 12.902344 25.167969 13.234375 24.917969 13.539062 24.628906 L 24.851562 24.628906 C 24.773438 24.855469 24.636719 25.035156 24.445312 25.171875 C 24.253906 25.3125 24.042969 25.378906 23.808594 25.378906 Z M 23.808594 25.378906 " fill-opacity="1" fill-rule="nonzero"/></g><path fill="#000000" d="M 14.585938 12.644531 C 14.585938 12.796875 14.652344 12.910156 14.789062 12.976562 C 14.925781 13.046875 15.054688 13.035156 15.175781 12.941406 L 16.429688 11.988281 L 17.683594 12.941406 C 17.75 12.992188 17.824219 13.019531 17.90625 13.019531 C 18.007812 13.019531 18.09375 12.980469 18.167969 12.90625 C 18.238281 12.835938 18.273438 12.746094 18.273438 12.644531 L 18.273438 9.386719 C 18.421875 9.160156 18.527344 8.914062 18.585938 8.648438 C 18.648438 8.382812 18.660156 8.117188 18.625 7.847656 C 18.589844 7.578125 18.507812 7.324219 18.378906 7.082031 C 18.253906 6.84375 18.089844 6.632812 17.886719 6.453125 C 17.6875 6.273438 17.460938 6.136719 17.207031 6.042969 C 16.957031 5.945312 16.699219 5.898438 16.429688 5.898438 C 16.164062 5.898438 15.902344 5.945312 15.652344 6.042969 C 15.402344 6.136719 15.175781 6.273438 14.972656 6.453125 C 14.769531 6.632812 14.605469 6.84375 14.480469 7.082031 C 14.355469 7.324219 14.273438 7.578125 14.238281 7.847656 C 14.203125 8.117188 14.214844 8.382812 14.273438 8.648438 C 14.332031 8.914062 14.4375 9.160156 14.585938 9.386719 Z M 16.652344 11.21875 C 16.503906 11.105469 16.355469 11.105469 16.207031 11.21875 L 15.324219 11.894531 L 15.324219 10.089844 C 15.664062 10.292969 16.035156 10.394531 16.429688 10.394531 C 16.824219 10.394531 17.195312 10.292969 17.535156 10.089844 L 17.535156 11.894531 Z M 16.429688 6.648438 C 16.625 6.648438 16.8125 6.6875 16.996094 6.761719 C 17.175781 6.839844 17.335938 6.949219 17.472656 7.089844 C 17.613281 7.230469 17.71875 7.390625 17.792969 7.574219 C 17.867188 7.757812 17.90625 7.949219 17.90625 8.148438 C 17.90625 8.347656 17.867188 8.539062 17.792969 8.722656 C 17.71875 8.90625 17.613281 9.066406 17.472656 9.207031 C 17.335938 9.347656 17.175781 9.457031 16.996094 9.53125 C 16.8125 9.609375 16.625 9.644531 16.429688 9.644531 C 16.234375 9.644531 16.046875 9.609375 15.867188 9.53125 C 15.683594 9.457031 15.523438 9.347656 15.386719 9.207031 C 15.25 9.066406 15.140625 8.90625 15.066406 8.722656 C 14.992188 8.539062 14.953125 8.347656 14.953125 8.148438 C 14.953125 7.949219 14.992188 7.757812 15.066406 7.574219 C 15.140625 7.390625 15.25 7.230469 15.386719 7.089844 C 15.523438 6.949219 15.683594 6.839844 15.867188 6.761719 C 16.046875 6.6875 16.234375 6.648438 16.429688 6.648438 Z M 16.429688 6.648438 " fill-opacity="1" fill-rule="nonzero"/><path fill="#000000" d="M 11.636719 13.765625 L 13.109375 13.765625 L 13.109375 14.515625 L 11.636719 14.515625 Z M 11.636719 13.765625 " fill-opacity="1" fill-rule="nonzero"/><path fill="#000000" d="M 13.847656 13.765625 L 21.226562 13.765625 L 21.226562 14.515625 L 13.847656 14.515625 Z M 13.847656 13.765625 " fill-opacity="1" fill-rule="nonzero"/><path fill="#000000" d="M 14.953125 15.265625 L 19.011719 15.265625 L 19.011719 16.015625 L 14.953125 16.015625 Z M 14.953125 15.265625 " fill-opacity="1" fill-rule="nonzero"/><path fill="#000000" d="M 19.75 15.265625 L 21.226562 15.265625 L 21.226562 16.015625 L 19.75 16.015625 Z M 19.75 15.265625 " fill-opacity="1" fill-rule="nonzero"/><path fill="#000000" d="M 15.691406 16.765625 L 18.273438 16.765625 L 18.273438 17.511719 L 15.691406 17.511719 Z M 15.691406 16.765625 " fill-opacity="1" fill-rule="nonzero"/><path fill="#000000" d="M 19.011719 16.765625 L 20.117188 16.765625 L 20.117188 17.511719 L 19.011719 17.511719 Z M 19.011719 16.765625 " fill-opacity="1" fill-rule="nonzero"/><path fill="#000000" d="M 20.265625 21.335938 L 19.503906 21.914062 L 19.652344 20.851562 C 19.6875 20.601562 19.632812 20.371094 19.488281 20.164062 C 19.34375 19.957031 19.148438 19.828125 18.902344 19.78125 C 18.65625 19.730469 18.429688 19.773438 18.21875 19.910156 C 18.003906 20.046875 17.871094 20.238281 17.808594 20.484375 L 17.617188 21.257812 L 17.167969 21.257812 L 17.167969 22.007812 L 17.90625 22.007812 C 18.097656 22.007812 18.21875 21.914062 18.261719 21.722656 L 18.523438 20.667969 C 18.550781 20.5625 18.613281 20.511719 18.722656 20.511719 C 18.78125 20.511719 18.835938 20.535156 18.875 20.582031 C 18.914062 20.628906 18.929688 20.683594 18.921875 20.746094 L 18.648438 22.703125 C 18.625 22.871094 18.683594 22.996094 18.824219 23.078125 C 18.964844 23.164062 19.101562 23.15625 19.234375 23.058594 L 20.609375 22.007812 L 21.226562 22.007812 L 21.226562 21.257812 L 20.488281 21.257812 C 20.40625 21.257812 20.332031 21.285156 20.265625 21.335938 Z M 20.265625 21.335938 " fill-opacity="1" fill-rule="nonzero"/></svg>