<svg xmlns="http://www.w3.org/2000/svg" xmlns:xlink="http://www.w3.org/1999/xlink" width="470" zoomAndPan="magnify" viewBox="0 0 352.5 217.499994" height="290" preserveAspectRatio="xMidYMid meet" version="1.0"><defs><clipPath id="1fc6e8caf9"><path d="M 0.15625 124 L 260 124 L 260 208 L 0.15625 208 Z M 0.15625 124 " clip-rule="nonzero"/></clipPath><clipPath id="487f462067"><path d="M 46 70.039062 L 351.847656 70.039062 L 351.847656 203 L 46 203 Z M 46 70.039062 " clip-rule="nonzero"/></clipPath><clipPath id="948e31fe56"><path d="M 0.15625 109 L 351.847656 109 L 351.847656 217 L 0.15625 217 Z M 0.15625 109 " clip-rule="nonzero"/></clipPath></defs><g clip-path="url(#1fc6e8caf9)"><path fill="#dcd6f7" d="M 0.761719 207.933594 L 199.054688 207.933594 L 259.171875 143.332031 C 259.171875 143.332031 190.925781 182.289062 124.082031 155.800781 C 88.207031 141.648438 34.53125 116.144531 0.902344 126.375 L 0.902344 207.933594 Z M 0.761719 207.933594 " fill-opacity="1" fill-rule="nonzero"/></g><g clip-path="url(#487f462067)"><path fill="#b83564" d="M 351.101562 70.597656 C 335.40625 70.039062 290 121.328125 226.660156 149.214844 C 120.15625 196.160156 46.726562 181.585938 46.726562 181.585938 L 105.441406 202.1875 L 351.101562 183.6875 Z M 351.101562 70.597656 " fill-opacity="1" fill-rule="nonzero"/></g><g clip-path="url(#948e31fe56)"><path fill="#272d4d" d="M 351.242188 109.558594 C 326.71875 109.558594 263.9375 166.3125 167.242188 179.34375 C 42.378906 196.300781 0.761719 149.214844 0.761719 149.214844 L 0.761719 217.742188 L 351.101562 217.742188 Z M 351.242188 109.558594 " fill-opacity="1" fill-rule="nonzero"/></g></svg>