<svg xmlns="http://www.w3.org/2000/svg" xmlns:xlink="http://www.w3.org/1999/xlink" width="40" zoomAndPan="magnify" viewBox="0 0 30 30.000001" height="40" preserveAspectRatio="xMidYMid meet" version="1.0"><defs><clipPath id="c8222280ea"><path d="M 3.386719 3 L 26.613281 3 L 26.613281 26 L 3.386719 26 Z M 3.386719 3 " clip-rule="nonzero"/></clipPath><clipPath id="e3fb8f5449"><path d="M 3.386719 5 L 26.613281 5 L 26.613281 26 L 3.386719 26 Z M 3.386719 5 " clip-rule="nonzero"/></clipPath><clipPath id="7cf343dd59"><path d="M 3.386719 8 L 26.613281 8 L 26.613281 26 L 3.386719 26 Z M 3.386719 8 " clip-rule="nonzero"/></clipPath><clipPath id="bf9ba70983"><path d="M 3.386719 10 L 26.613281 10 L 26.613281 26 L 3.386719 26 Z M 3.386719 10 " clip-rule="nonzero"/></clipPath><clipPath id="7273ce6dbc"><path d="M 3.386719 13 L 26.613281 13 L 26.613281 26 L 3.386719 26 Z M 3.386719 13 " clip-rule="nonzero"/></clipPath><clipPath id="ab4df6d009"><path d="M 3.386719 15 L 26 15 L 26 26 L 3.386719 26 Z M 3.386719 15 " clip-rule="nonzero"/></clipPath><clipPath id="0cf255a0b7"><path d="M 3.386719 2.902344 L 26.613281 2.902344 L 26.613281 26.128906 L 3.386719 26.128906 Z M 3.386719 2.902344 " clip-rule="nonzero"/></clipPath><clipPath id="f3c3ca0df6"><path d="M 3.386719 2.902344 L 26.613281 2.902344 L 26.613281 26.128906 L 3.386719 26.128906 Z M 3.386719 2.902344 " clip-rule="nonzero"/></clipPath></defs><g clip-path="url(#c8222280ea)"><path fill="#8585cc" d="M 21.417969 25.824219 C 24.117188 25.824219 26.308594 23.632812 26.308594 20.933594 L 26.308594 8.097656 C 26.308594 5.398438 24.117188 3.207031 21.417969 3.207031 L 8.582031 3.207031 C 5.882812 3.207031 3.691406 5.398438 3.691406 8.097656 L 3.691406 20.933594 C 3.691406 23.632812 5.882812 25.824219 8.582031 25.824219 Z M 21.417969 25.824219 " fill-opacity="1" fill-rule="nonzero"/><path fill="#8d8dd8" d="M 4.855469 4.9375 C 4.132812 5.792969 3.691406 6.894531 3.691406 8.097656 L 3.691406 20.933594 C 3.691406 23.632812 5.882812 25.824219 8.582031 25.824219 L 21.417969 25.824219 C 24.117188 25.824219 26.308594 23.632812 26.308594 20.933594 L 26.308594 8.097656 C 26.308594 7.792969 26.277344 7.492188 26.222656 7.199219 C 22.417969 4.871094 17.953125 3.515625 13.167969 3.515625 C 10.25 3.515625 7.457031 4.023438 4.855469 4.9375 Z M 4.855469 4.9375 " fill-opacity="1" fill-rule="nonzero"/></g><g clip-path="url(#e3fb8f5449)"><path fill="#bd82f4" d="M 3.695312 8.039062 C 3.695312 8.058594 3.691406 8.078125 3.691406 8.097656 L 3.691406 20.933594 C 3.691406 23.632812 5.882812 25.824219 8.582031 25.824219 L 21.417969 25.824219 C 24.117188 25.824219 26.308594 23.632812 26.308594 20.933594 L 26.308594 10.175781 C 22.601562 7.523438 18.070312 5.960938 13.167969 5.960938 C 9.785156 5.960938 6.578125 6.707031 3.695312 8.039062 Z M 3.695312 8.039062 " fill-opacity="1" fill-rule="nonzero"/></g><g clip-path="url(#7cf343dd59)"><path fill="#ed73f4" d="M 3.691406 10.777344 L 3.691406 20.933594 C 3.691406 23.632812 5.882812 25.824219 8.582031 25.824219 L 21.417969 25.824219 C 24.117188 25.824219 26.308594 23.632812 26.308594 20.933594 L 26.308594 13.28125 C 22.777344 10.246094 18.1875 8.402344 13.167969 8.402344 C 9.738281 8.402344 6.519531 9.269531 3.691406 10.777344 Z M 3.691406 10.777344 " fill-opacity="1" fill-rule="nonzero"/></g><g clip-path="url(#bf9ba70983)"><path fill="#f97dcd" d="M 13.167969 10.847656 C 9.679688 10.847656 6.433594 11.867188 3.691406 13.605469 L 3.691406 20.933594 C 3.691406 23.632812 5.882812 25.824219 8.582031 25.824219 L 21.417969 25.824219 C 24.117188 25.824219 26.308594 23.632812 26.308594 20.933594 L 26.308594 16.695312 C 23.0625 13.109375 18.382812 10.847656 13.167969 10.847656 Z M 13.167969 10.847656 " fill-opacity="1" fill-rule="nonzero"/></g><g clip-path="url(#7273ce6dbc)"><path fill="#fc9c95" d="M 13.167969 13.292969 C 9.585938 13.292969 6.296875 14.535156 3.691406 16.601562 L 3.691406 20.933594 C 3.691406 23.632812 5.882812 25.824219 8.582031 25.824219 L 21.417969 25.824219 C 24.117188 25.824219 26.308594 23.632812 26.308594 20.933594 L 26.308594 20.789062 C 23.644531 16.304688 18.761719 13.292969 13.167969 13.292969 Z M 13.167969 13.292969 " fill-opacity="1" fill-rule="nonzero"/></g><g clip-path="url(#ab4df6d009)"><path fill="#ffac99" d="M 13.167969 15.738281 C 9.410156 15.738281 6.039062 17.359375 3.691406 19.929688 L 3.691406 20.933594 C 3.691406 23.632812 5.882812 25.824219 8.582031 25.824219 L 21.417969 25.824219 C 22.925781 25.824219 24.269531 25.140625 25.167969 24.070312 C 23.339844 19.207031 18.667969 15.738281 13.167969 15.738281 Z M 13.167969 15.738281 " fill-opacity="1" fill-rule="nonzero"/></g><path fill="#ffc49c" d="M 21.417969 25.824219 C 22.003906 25.824219 22.5625 25.714844 23.082031 25.527344 C 21.777344 21.277344 17.839844 18.183594 13.167969 18.183594 C 9.386719 18.183594 6.082031 20.207031 4.261719 23.222656 C 5.085938 24.769531 6.710938 25.824219 8.582031 25.824219 Z M 21.417969 25.824219 " fill-opacity="1" fill-rule="nonzero"/><path fill="#ffde8d" d="M 13.167969 20.628906 C 10.027344 20.628906 7.316406 22.453125 6.023438 25.09375 C 6.769531 25.554688 7.644531 25.824219 8.582031 25.824219 L 20.613281 25.824219 C 19.492188 22.792969 16.585938 20.628906 13.167969 20.628906 Z M 13.167969 20.628906 " fill-opacity="1" fill-rule="nonzero"/><path fill="#fff69f" d="M 13.167969 23.074219 C 11.136719 23.074219 9.382812 24.179688 8.425781 25.816406 C 8.480469 25.816406 8.53125 25.824219 8.582031 25.824219 L 17.910156 25.824219 C 16.957031 24.183594 15.199219 23.074219 13.167969 23.074219 Z M 13.167969 23.074219 " fill-opacity="1" fill-rule="nonzero"/><g clip-path="url(#0cf255a0b7)"><path fill="#8b75a1" d="M 21.722656 3.515625 C 24.082031 3.515625 26 5.433594 26 7.792969 L 26 21.238281 C 26 23.597656 24.082031 25.519531 21.722656 25.519531 L 8.277344 25.519531 C 5.917969 25.519531 4 23.597656 4 21.238281 L 4 7.792969 C 4 5.433594 5.917969 3.515625 8.277344 3.515625 L 21.722656 3.515625 M 21.722656 2.902344 L 8.277344 2.902344 C 5.578125 2.902344 3.386719 5.09375 3.386719 7.792969 L 3.386719 21.238281 C 3.386719 23.941406 5.578125 26.128906 8.277344 26.128906 L 21.722656 26.128906 C 24.421875 26.128906 26.613281 23.941406 26.613281 21.238281 L 26.613281 7.792969 C 26.613281 5.09375 24.421875 2.902344 21.722656 2.902344 Z M 21.722656 2.902344 " fill-opacity="1" fill-rule="nonzero"/></g><path fill="#ffffff" d="M 19.585938 9.015625 C 19.332031 9.015625 19.113281 9.105469 18.9375 9.285156 C 18.757812 9.460938 18.667969 9.679688 18.667969 9.933594 C 18.667969 10.183594 18.757812 10.402344 18.9375 10.582031 C 19.113281 10.757812 19.332031 10.847656 19.585938 10.847656 C 19.835938 10.847656 20.054688 10.757812 20.230469 10.582031 C 20.410156 10.402344 20.5 10.183594 20.5 9.933594 C 20.5 9.679688 20.410156 9.460938 20.230469 9.285156 C 20.054688 9.105469 19.835938 9.015625 19.585938 9.015625 Z M 19.585938 9.015625 " fill-opacity="1" fill-rule="nonzero"/><g clip-path="url(#f3c3ca0df6)"><path stroke-linecap="butt" transform="matrix(0.611205, 0, 0, 0.611205, 2.775891, 2.292022)" fill="none" stroke-linejoin="miter" d="M 20.000001 13.997968 C 19.20751 13.997968 18.440583 14.151353 17.705611 14.458124 C 16.970639 14.758504 16.318751 15.193096 15.756338 15.755509 C 15.193925 16.317922 14.759333 16.96981 14.458953 17.704782 C 14.152182 18.439754 13.998797 19.206681 13.998797 19.999173 C 13.998797 20.798055 14.152182 21.558591 14.458953 22.293563 C 14.759333 23.028535 15.193925 23.680423 15.756338 24.242836 C 16.318751 24.805249 16.970639 25.239841 17.705611 25.540221 C 18.440583 25.846992 19.20751 26.000377 20.000001 26.000377 C 20.792492 26.000377 21.55942 25.846992 22.294391 25.540221 C 23.029363 25.239841 23.681251 24.805249 24.243664 24.242836 C 24.806078 23.680423 25.24067 23.028535 25.541049 22.293563 C 25.84782 21.558591 26.001206 20.798055 26.001206 19.999173 C 26.001206 19.206681 25.84782 18.439754 25.541049 17.704782 C 25.24067 16.96981 24.806078 16.317922 24.243664 15.755509 C 23.681251 15.193096 23.029363 14.758504 22.294391 14.458124 C 21.55942 14.151353 20.792492 13.997968 20.000001 13.997968 Z M 20.000001 13.997968 " stroke="#ffffff" stroke-width="2" stroke-opacity="1" stroke-miterlimit="10"/><path stroke-linecap="butt" transform="matrix(0.611205, 0, 0, 0.611205, 2.775891, 2.292022)" fill="none" stroke-linejoin="miter" d="M 32.999416 14.502862 C 32.999416 10.355064 29.644109 6.999758 25.502703 6.999758 C 23.323352 6.999758 16.67665 6.999758 14.497299 6.999758 C 10.355893 6.999758 7.000587 10.355064 7.000587 14.502862 C 7.000587 16.675822 7.000587 23.322523 7.000587 25.501874 C 7.000587 29.643281 10.355893 32.998587 14.497299 32.998587 C 16.67665 32.998587 23.323352 32.998587 25.502703 32.998587 C 29.644109 32.998587 32.999416 29.643281 32.999416 25.501874 C 32.999416 23.322523 32.999416 16.675822 32.999416 14.502862 Z M 32.999416 14.502862 " stroke="#ffffff" stroke-width="2" stroke-opacity="1" stroke-miterlimit="10"/></g></svg>