<svg xmlns="http://www.w3.org/2000/svg" xmlns:xlink="http://www.w3.org/1999/xlink" width="40" zoomAndPan="magnify" viewBox="0 0 30 30.000001" height="40" preserveAspectRatio="xMidYMid meet" version="1.0"><defs><clipPath id="4eb177d5a2"><path d="M 3.386719 2.902344 L 26.613281 2.902344 L 26.613281 26.128906 L 3.386719 26.128906 Z M 3.386719 2.902344 " clip-rule="nonzero"/></clipPath></defs><g clip-path="url(#4eb177d5a2)"><path fill="#ffe6e2" d="M 22.257812 26.128906 L 7.742188 26.128906 C 5.335938 26.128906 3.386719 24.179688 3.386719 21.773438 L 3.386719 7.257812 C 3.386719 4.851562 5.335938 2.902344 7.742188 2.902344 L 22.257812 2.902344 C 24.664062 2.902344 26.613281 4.851562 26.613281 7.257812 L 26.613281 21.773438 C 26.613281 24.179688 24.664062 26.128906 22.257812 26.128906 Z M 22.257812 26.128906 " fill-opacity="1" fill-rule="nonzero"/></g><path fill="#fc573b" d="M 9.917969 18.871094 L 10.644531 18.871094 L 10.644531 12.285156 L 15 15.410156 L 19.355469 12.285156 L 19.355469 18.871094 L 20.082031 18.871094 C 20.492188 18.871094 20.804688 18.558594 20.804688 18.144531 L 20.804688 10.886719 C 20.804688 10.683594 20.730469 10.5 20.597656 10.371094 C 20.46875 10.238281 20.285156 10.160156 20.082031 10.160156 L 19.839844 10.160156 L 15 13.667969 L 10.160156 10.160156 L 9.917969 10.160156 C 9.714844 10.160156 9.53125 10.238281 9.402344 10.371094 C 9.273438 10.5 9.195312 10.683594 9.195312 10.886719 L 9.195312 18.144531 C 9.195312 18.558594 9.507812 18.871094 9.917969 18.871094 Z M 9.917969 18.871094 " fill-opacity="1" fill-rule="nonzero"/></svg>