<svg xmlns="http://www.w3.org/2000/svg" xmlns:xlink="http://www.w3.org/1999/xlink" width="40" zoomAndPan="magnify" viewBox="0 0 30 30.000001" height="40" preserveAspectRatio="xMidYMid meet" version="1.0"><defs><clipPath id="b6b93319ea"><path d="M 4.898438 10 L 14 10 L 14 24 L 4.898438 24 Z M 4.898438 10 " clip-rule="nonzero"/></clipPath><clipPath id="f7030b2d77"><path d="M 10 2.902344 L 25 2.902344 L 25 23 L 10 23 Z M 10 2.902344 " clip-rule="nonzero"/></clipPath><clipPath id="9c31f28ed1"><path d="M 7 8 L 25.21875 8 L 25.21875 26 L 7 26 Z M 7 8 " clip-rule="nonzero"/></clipPath></defs><path fill="#87f1e9" d="M 12.882812 11.957031 L 12.882812 11.09375 C 8.882812 10.527344 5.226562 13.652344 5.226562 17.734375 C 5.226562 20.003906 6.367188 22.011719 8.105469 23.226562 C 6.941406 21.988281 6.292969 20.355469 6.292969 18.660156 C 6.292969 15.015625 9.238281 12.039062 12.882812 11.957031 " fill-opacity="1" fill-rule="nonzero"/><path fill="#87f1e9" d="M 13.042969 21.722656 C 14.703125 21.722656 16.058594 20.410156 16.121094 18.773438 L 16.125 4.167969 L 18.8125 4.167969 C 18.753906 3.863281 18.726562 3.554688 18.722656 3.246094 L 15.058594 3.246094 L 15.050781 17.851562 C 14.96875 20.105469 12.53125 21.488281 10.546875 20.445312 C 11.121094 21.246094 12.050781 21.722656 13.042969 21.722656 M 23.824219 9.128906 L 23.824219 8.316406 C 22.839844 8.316406 21.875 8.03125 21.046875 7.496094 C 21.773438 8.324219 22.746094 8.894531 23.828125 9.128906 " fill-opacity="1" fill-rule="nonzero"/><path fill="#da004f" d="M 21.046875 7.492188 C 20.238281 6.574219 19.792969 5.390625 19.792969 4.171875 L 18.8125 4.171875 C 19.066406 5.535156 19.875 6.738281 21.046875 7.492188 M 11.976562 14.671875 C 10.273438 14.671875 8.894531 16.042969 8.894531 17.734375 C 8.894531 18.875 9.53125 19.917969 10.542969 20.445312 C 10.164062 19.925781 9.960938 19.300781 9.960938 18.660156 C 9.964844 16.96875 11.34375 15.597656 13.042969 15.597656 C 13.363281 15.597656 13.664062 15.648438 13.953125 15.738281 L 13.953125 12.015625 C 13.539062 11.957031 13.226562 11.949219 12.886719 11.957031 L 12.886719 14.8125 C 12.589844 14.71875 12.285156 14.671875 11.976562 14.671875 " fill-opacity="1" fill-rule="nonzero"/><path fill="#da004f" d="M 23.824219 9.128906 L 23.824219 11.960938 C 21.925781 11.960938 20.164062 11.355469 18.722656 10.328125 L 18.722656 17.734375 C 18.722656 21.433594 15.695312 24.441406 11.976562 24.441406 C 10.539062 24.441406 9.203125 23.992188 8.109375 23.226562 C 9.382812 24.59375 11.171875 25.367188 13.042969 25.367188 C 16.765625 25.367188 19.792969 22.359375 19.792969 18.660156 L 19.792969 11.253906 C 21.28125 12.316406 23.0625 12.886719 24.894531 12.882812 L 24.894531 9.238281 C 24.527344 9.238281 24.171875 9.199219 23.824219 9.125 " fill-opacity="1" fill-rule="nonzero"/><path fill="#1c1c1c" d="M 18.722656 17.734375 L 18.722656 10.328125 C 20.210938 11.390625 21.996094 11.960938 23.824219 11.960938 L 23.824219 9.128906 C 22.746094 8.894531 21.773438 8.324219 21.046875 7.492188 C 19.875 6.738281 19.066406 5.535156 18.808594 4.171875 L 16.125 4.171875 L 16.121094 18.773438 C 16.058594 20.410156 14.703125 21.722656 13.042969 21.722656 C 12.050781 21.722656 11.121094 21.246094 10.546875 20.445312 C 9.53125 19.917969 8.894531 18.875 8.894531 17.734375 C 8.894531 15.675781 10.90625 14.195312 12.882812 14.8125 L 12.882812 11.957031 C 9.238281 12.039062 6.292969 15.015625 6.292969 18.660156 C 6.292969 20.421875 6.984375 22.027344 8.105469 23.226562 C 9.238281 24.019531 10.589844 24.445312 11.976562 24.441406 C 15.695312 24.441406 18.722656 21.433594 18.722656 17.734375 " fill-opacity="1" fill-rule="nonzero"/><g clip-path="url(#b6b93319ea)"><path fill="#000000" d="M 7.917969 23.492188 C 6.027344 22.175781 4.898438 20.019531 4.898438 17.734375 C 4.898438 13.460938 8.722656 10.175781 12.929688 10.769531 C 13.09375 10.792969 13.210938 10.929688 13.210938 11.09375 L 13.210938 11.957031 C 13.210938 12.132812 13.070312 12.277344 12.890625 12.28125 C 9.433594 12.363281 6.621094 15.222656 6.621094 18.660156 C 6.621094 20.28125 7.234375 21.824219 8.347656 23.003906 C 8.460938 23.125 8.464844 23.316406 8.355469 23.441406 C 8.246094 23.566406 8.054688 23.589844 7.917969 23.492188 Z M 5.554688 17.734375 C 5.554688 18.742188 5.792969 19.71875 6.238281 20.59375 C 6.058594 19.972656 5.96875 19.320312 5.96875 18.660156 C 5.96875 14.949219 8.871094 11.894531 12.558594 11.644531 L 12.558594 11.382812 C 8.839844 11.027344 5.554688 13.964844 5.554688 17.734375 Z M 5.554688 17.734375 " fill-opacity="1" fill-rule="nonzero"/></g><g clip-path="url(#f7030b2d77)"><path fill="#000000" d="M 13.042969 22.050781 C 11.949219 22.046875 10.914062 21.519531 10.277344 20.636719 C 10.191406 20.511719 10.199219 20.347656 10.296875 20.234375 C 10.398438 20.117188 10.5625 20.089844 10.699219 20.160156 C 11.089844 20.363281 11.53125 20.472656 11.972656 20.472656 C 11.972656 20.472656 11.972656 20.472656 11.976562 20.472656 C 13.460938 20.472656 14.664062 19.320312 14.722656 17.84375 L 14.730469 3.246094 C 14.730469 3.066406 14.875 2.917969 15.058594 2.917969 L 18.722656 2.917969 C 18.90625 2.917969 19.050781 3.066406 19.050781 3.246094 C 19.050781 3.535156 19.078125 3.824219 19.132812 4.109375 C 19.171875 4.308594 19.015625 4.496094 18.8125 4.496094 L 16.453125 4.496094 C 16.449219 19.238281 16.449219 18.777344 16.449219 18.785156 C 16.378906 20.617188 14.882812 22.050781 13.042969 22.050781 Z M 11.84375 21.121094 C 13.605469 21.972656 15.714844 20.769531 15.792969 18.769531 L 15.796875 4.167969 C 15.796875 3.988281 15.945312 3.84375 16.125 3.84375 L 18.429688 3.84375 C 18.421875 3.753906 18.414062 3.660156 18.40625 3.570312 L 15.386719 3.570312 C 15.378906 18.316406 15.378906 17.851562 15.378906 17.863281 C 15.308594 19.75 13.726562 21.195312 11.84375 21.121094 Z M 23.746094 9.441406 C 22.609375 9.195312 21.5625 8.582031 20.800781 7.707031 C 20.691406 7.585938 20.695312 7.402344 20.800781 7.28125 C 20.910156 7.15625 21.089844 7.132812 21.226562 7.222656 C 22 7.722656 22.898438 7.988281 23.820312 7.988281 C 24.023438 7.992188 24.152344 8.148438 24.152344 8.316406 C 24.152344 9.214844 24.15625 9.148438 24.148438 9.195312 C 24.109375 9.363281 23.929688 9.488281 23.746094 9.441406 Z M 23.210938 8.605469 C 23.304688 8.644531 23.402344 8.675781 23.5 8.707031 L 23.5 8.632812 C 23.402344 8.625 23.304688 8.617188 23.210938 8.605469 Z M 23.210938 8.605469 " fill-opacity="1" fill-rule="nonzero"/></g><path fill="#000000" d="M 10.390625 20.734375 C 9.265625 20.148438 8.566406 19 8.566406 17.734375 C 8.566406 15.625 10.5 14.03125 12.558594 14.398438 L 12.558594 11.957031 C 12.558594 11.777344 12.699219 11.632812 12.878906 11.628906 C 13.253906 11.621094 13.585938 11.636719 14 11.695312 C 14.160156 11.71875 14.28125 11.855469 14.28125 12.015625 L 14.28125 15.738281 C 14.28125 15.839844 14.230469 15.9375 14.148438 16 C 14.0625 16.0625 13.953125 16.078125 13.855469 16.046875 C 12.074219 15.492188 10.289062 16.839844 10.289062 18.660156 C 10.289062 19.238281 10.46875 19.789062 10.808594 20.253906 C 10.898438 20.378906 10.890625 20.546875 10.792969 20.660156 C 10.691406 20.773438 10.527344 20.804688 10.390625 20.734375 Z M 11.972656 14.996094 C 9.765625 15 8.472656 17.460938 9.6875 19.257812 C 9.265625 16.925781 11.335938 14.914062 13.625 15.324219 L 13.625 12.304688 C 13.488281 12.292969 13.351562 12.285156 13.210938 12.28125 L 13.210938 14.8125 C 13.210938 14.917969 13.164062 15.015625 13.078125 15.078125 C 12.992188 15.136719 12.886719 15.15625 12.785156 15.125 C 12.523438 15.039062 12.25 15 11.972656 14.996094 Z M 20.871094 7.765625 C 19.628906 6.964844 18.761719 5.675781 18.488281 4.230469 C 18.449219 4.03125 18.605469 3.84375 18.8125 3.84375 L 19.792969 3.84375 C 19.972656 3.84375 20.121094 3.992188 20.121094 4.171875 C 20.121094 5.3125 20.539062 6.417969 21.292969 7.28125 C 21.402344 7.402344 21.402344 7.585938 21.296875 7.707031 C 21.1875 7.828125 21.007812 7.855469 20.871094 7.765625 Z M 19.222656 4.496094 C 19.320312 4.847656 19.460938 5.191406 19.636719 5.507812 C 19.550781 5.179688 19.496094 4.839844 19.476562 4.496094 Z M 19.222656 4.496094 " fill-opacity="1" fill-rule="nonzero"/><g clip-path="url(#9c31f28ed1)"><path fill="#000000" d="M 7.867188 23.449219 C 7.753906 23.328125 7.75 23.136719 7.859375 23.011719 C 7.972656 22.886719 8.160156 22.863281 8.296875 22.960938 C 9.378906 23.71875 10.652344 24.117188 11.976562 24.117188 C 15.515625 24.117188 18.398438 21.253906 18.398438 17.734375 L 18.398438 10.328125 C 18.398438 10.207031 18.464844 10.09375 18.574219 10.039062 C 18.683594 9.984375 18.816406 9.992188 18.914062 10.066406 C 20.265625 11.027344 21.84375 11.566406 23.5 11.628906 L 23.5 9.140625 C 23.488281 8.925781 23.683594 8.761719 23.894531 8.808594 C 24.222656 8.878906 24.5625 8.914062 24.894531 8.914062 C 25.074219 8.914062 25.222656 9.058594 25.222656 9.238281 L 25.222656 12.886719 C 25.222656 13.054688 25.089844 13.210938 24.882812 13.210938 C 23.1875 13.210938 21.550781 12.746094 20.121094 11.863281 L 20.121094 18.660156 C 20.121094 22.539062 16.945312 25.695312 13.042969 25.695312 C 12.996094 25.683594 10.09375 25.832031 7.867188 23.449219 Z M 10.96875 24.699219 C 15.128906 26.117188 19.464844 23.023438 19.464844 18.660156 C 19.46875 10.761719 19.457031 11.25 19.472656 11.183594 C 19.332031 11.105469 19.191406 11.023438 19.050781 10.9375 L 19.050781 17.734375 C 19.050781 21.992188 15.246094 25.304688 10.96875 24.699219 Z M 22.3125 12.160156 C 23.039062 12.390625 23.792969 12.523438 24.566406 12.554688 L 24.566406 9.554688 C 24.429688 9.546875 24.289062 9.53125 24.152344 9.515625 L 24.152344 11.960938 C 24.152344 12.140625 24.007812 12.285156 23.824219 12.285156 C 23.316406 12.285156 22.808594 12.242188 22.3125 12.160156 Z M 22.3125 12.160156 " fill-opacity="1" fill-rule="nonzero"/></g><path fill="#000000" d="M 7.917969 23.492188 C 7.898438 23.480469 7.882812 23.464844 7.867188 23.449219 C 6.640625 22.140625 5.96875 20.441406 5.96875 18.660156 C 5.96875 14.835938 9.046875 11.71875 12.875 11.628906 C 13.066406 11.625 13.210938 11.777344 13.210938 11.957031 L 13.210938 14.8125 C 13.210938 14.917969 13.164062 15.015625 13.078125 15.074219 C 12.996094 15.136719 12.886719 15.15625 12.785156 15.125 C 12.519531 15.039062 12.246094 14.996094 11.976562 14.996094 C 10.457031 15 9.222656 16.226562 9.21875 17.734375 C 9.222656 18.753906 9.789062 19.683594 10.699219 20.160156 C 10.742188 20.183594 10.78125 20.214844 10.8125 20.257812 C 11.324219 20.972656 12.160156 21.398438 13.042969 21.398438 C 14.527344 21.398438 15.734375 20.242188 15.792969 18.769531 L 15.796875 4.171875 C 15.796875 3.988281 15.945312 3.84375 16.125 3.84375 L 18.8125 3.84375 C 18.96875 3.84375 19.105469 3.957031 19.132812 4.109375 C 19.371094 5.382812 20.136719 6.515625 21.226562 7.222656 C 21.253906 7.238281 21.273438 7.257812 21.296875 7.28125 C 21.96875 8.050781 22.890625 8.59375 23.894531 8.808594 C 24.046875 8.839844 24.152344 8.972656 24.152344 9.128906 L 24.152344 11.960938 C 24.152344 12.128906 24.019531 12.285156 23.816406 12.285156 C 22.117188 12.285156 20.484375 11.820312 19.050781 10.9375 L 19.050781 17.734375 C 19.050781 21.613281 15.878906 24.769531 11.976562 24.769531 C 10.460938 24.769531 9.070312 24.300781 7.917969 23.492188 Z M 8.324219 22.980469 C 9.398438 23.722656 10.660156 24.117188 11.96875 24.117188 C 15.527344 24.117188 18.394531 21.246094 18.394531 17.734375 L 18.394531 10.328125 C 18.394531 10.0625 18.699219 9.910156 18.914062 10.066406 C 20.265625 11.03125 21.84375 11.566406 23.496094 11.628906 L 23.496094 9.382812 C 22.472656 9.109375 21.535156 8.535156 20.832031 7.742188 C 19.6875 6.988281 18.867188 5.816406 18.546875 4.496094 L 16.453125 4.496094 L 16.449219 18.777344 C 16.449219 18.78125 16.449219 18.785156 16.449219 18.789062 C 16.378906 20.617188 14.882812 22.050781 13.042969 22.050781 C 11.976562 22.046875 10.964844 21.542969 10.324219 20.699219 C 9.238281 20.101562 8.566406 18.972656 8.566406 17.734375 C 8.566406 15.621094 10.503906 14.03125 12.558594 14.398438 L 12.558594 12.296875 C 9.253906 12.546875 6.621094 15.335938 6.621094 18.660156 C 6.621094 20.265625 7.226562 21.796875 8.324219 22.980469 Z M 8.324219 22.980469 " fill-opacity="1" fill-rule="nonzero"/></svg>