<svg xmlns="http://www.w3.org/2000/svg" xmlns:xlink="http://www.w3.org/1999/xlink" width="40" zoomAndPan="magnify" viewBox="0 0 30 30.000001" height="40" preserveAspectRatio="xMidYMid meet" version="1.0"><defs><clipPath id="0bb22a87ad"><path d="M 3.792969 2.902344 L 9 2.902344 L 9 9 L 3.792969 9 Z M 3.792969 2.902344 " clip-rule="nonzero"/></clipPath><clipPath id="9c4d29604a"><path d="M 14.105469 17.53125 L 22.746094 17.53125 L 22.746094 26.128906 L 14.105469 26.128906 Z M 14.105469 17.53125 " clip-rule="nonzero"/></clipPath><clipPath id="cce5951551"><path d="M 25 13 L 26.292969 13 L 26.292969 16 L 25 16 Z M 25 13 " clip-rule="nonzero"/></clipPath></defs><path fill="#b83564" d="M 22.699219 15.117188 C 22.820312 15.117188 22.921875 15.019531 22.921875 14.894531 C 22.921875 14.773438 22.820312 14.671875 22.699219 14.671875 C 22.574219 14.671875 22.476562 14.773438 22.476562 14.894531 C 22.476562 15.019531 22.574219 15.117188 22.699219 15.117188 " fill-opacity="1" fill-rule="nonzero"/><g clip-path="url(#0bb22a87ad)"><path fill="#b83564" d="M 8.984375 4.800781 C 8.988281 4.542969 8.976562 3.28125 8.976562 3.265625 C 8.976562 3.066406 8.816406 2.902344 8.617188 2.902344 L 6.789062 2.902344 C 5.269531 3.015625 4.785156 4.042969 4.628906 4.644531 C 4.59375 4.785156 4.582031 4.875 4.582031 4.875 C 4.578125 4.929688 4.554688 4.976562 4.515625 5.011719 C 4.472656 5.050781 4.414062 5.074219 4.355469 5.070312 L 4.34375 5.070312 C 4.042969 5.074219 3.800781 5.316406 3.800781 5.609375 C 3.800781 5.902344 4.046875 6.144531 4.347656 6.144531 C 4.351562 6.144531 4.355469 6.144531 4.359375 6.144531 C 4.359375 6.144531 4.363281 6.144531 4.363281 6.144531 C 4.476562 6.144531 4.566406 6.230469 4.578125 6.339844 C 4.683594 7.445312 5.648438 8.3125 6.78125 8.3125 C 7.90625 8.3125 8.871094 7.453125 8.980469 6.351562 L 8.988281 4.863281 L 8.984375 4.824219 C 8.984375 4.816406 8.984375 4.808594 8.984375 4.800781 " fill-opacity="1" fill-rule="nonzero"/></g><path fill="#b83564" d="M 6.394531 24.855469 C 6.394531 25.335938 6.78125 25.722656 7.257812 25.722656 C 7.738281 25.722656 8.125 25.335938 8.125 24.855469 C 8.125 24.851562 8.125 24.84375 8.125 24.835938 L 8.171875 24.347656 L 6.394531 24.347656 L 6.394531 24.855469 " fill-opacity="1" fill-rule="nonzero"/><path fill="#b83564" d="M 8.535156 19.527344 C 8.53125 19.519531 8.527344 19.511719 8.523438 19.503906 C 8.511719 19.449219 8.496094 19.40625 8.480469 19.363281 L 7.464844 16.90625 C 7.421875 16.796875 7.46875 16.675781 7.574219 16.625 C 8.394531 16.253906 8.933594 15.46875 8.976562 14.578125 L 8.984375 14.429688 L 4.21875 14.25 L 4.214844 14.332031 C 4.199219 14.605469 4.234375 14.882812 4.320312 15.152344 C 4.324219 15.167969 4.328125 15.179688 4.328125 15.191406 C 4.339844 15.300781 4.367188 15.402344 4.40625 15.5 L 6.359375 20.238281 L 6.363281 20.246094 C 6.367188 20.253906 6.371094 20.261719 6.375 20.269531 C 6.386719 20.296875 6.394531 20.328125 6.394531 20.359375 L 6.394531 23.914062 L 8.214844 23.914062 L 8.605469 19.894531 C 8.605469 19.769531 8.582031 19.648438 8.535156 19.527344 " fill-opacity="1" fill-rule="nonzero"/><path fill="#b83564" d="M 8.558594 24.867188 C 8.558594 24.917969 8.554688 24.964844 8.546875 25.011719 L 8.601562 25.179688 C 8.722656 25.527344 9.050781 25.761719 9.417969 25.761719 C 9.898438 25.761719 10.285156 25.371094 10.285156 24.894531 C 10.285156 24.886719 10.285156 24.882812 10.285156 24.875 L 10.335938 24.347656 L 8.609375 24.347656 L 8.558594 24.867188 " fill-opacity="1" fill-rule="nonzero"/><path fill="#b83564" d="M 7.941406 16.925781 L 8.878906 19.199219 C 8.902344 19.253906 8.921875 19.3125 8.941406 19.378906 C 9.003906 19.550781 9.039062 19.726562 9.039062 19.902344 C 9.039062 19.910156 9.039062 19.917969 9.039062 19.921875 L 8.648438 23.914062 L 10.378906 23.914062 L 10.765625 19.929688 C 10.765625 19.808594 10.738281 19.683594 10.691406 19.566406 C 10.691406 19.558594 10.6875 19.550781 10.683594 19.542969 C 10.671875 19.488281 10.65625 19.441406 10.640625 19.402344 L 9.117188 15.714844 C 8.863281 16.21875 8.457031 16.644531 7.941406 16.925781 " fill-opacity="1" fill-rule="nonzero"/><path fill="#b83564" d="M 10.863281 12.585938 C 10.863281 12.585938 10.863281 12.589844 10.867188 12.597656 C 10.867188 12.59375 10.863281 12.589844 10.863281 12.585938 " fill-opacity="1" fill-rule="nonzero"/><path fill="#b83564" d="M 22.402344 12.976562 C 22.464844 12.984375 22.519531 12.933594 22.519531 12.871094 L 22.519531 11.917969 C 22.519531 11.847656 22.480469 11.800781 22.460938 11.796875 C 22.335938 11.800781 22.214844 11.832031 22.101562 11.890625 C 22.019531 11.933594 21.96875 12.015625 21.96875 12.109375 L 21.96875 12.871094 C 21.96875 12.933594 22.023438 12.984375 22.085938 12.976562 C 22.136719 12.976562 22.1875 12.972656 22.242188 12.972656 C 22.296875 12.972656 22.351562 12.976562 22.402344 12.976562 " fill-opacity="1" fill-rule="nonzero"/><path fill="#b83564" d="M 21.464844 13.109375 C 21.507812 13.09375 21.535156 13.054688 21.535156 13.007812 L 21.535156 11.917969 C 21.535156 11.910156 21.535156 11.90625 21.535156 11.898438 C 21.535156 11.898438 21.535156 11.894531 21.535156 11.890625 C 21.527344 11.832031 21.492188 11.796875 21.472656 11.796875 C 20.90625 11.796875 20.445312 12.375 20.445312 13.089844 C 20.445312 13.089844 20.445312 13.09375 20.445312 13.09375 L 20.429688 13.574219 C 20.425781 13.671875 20.542969 13.722656 20.609375 13.65625 C 20.847656 13.414062 21.140625 13.226562 21.464844 13.109375 " fill-opacity="1" fill-rule="nonzero"/><path fill="#b83564" d="M 9.039062 13.398438 L 7.152344 11.300781 C 7.074219 11.210938 7.082031 11.074219 7.167969 10.992188 C 7.257812 10.914062 7.394531 10.921875 7.476562 11.011719 L 8.152344 11.765625 L 9.378906 10.8125 C 8.992188 10.351562 8.589844 9.871094 8.246094 9.457031 C 8.144531 9.378906 7.492188 8.882812 6.914062 8.9375 C 6.90625 8.9375 6.902344 8.9375 6.898438 8.9375 C 6.890625 8.9375 6.886719 8.9375 6.882812 8.9375 C 5.570312 8.871094 4.445312 9.882812 4.375 11.195312 L 4.242188 13.820312 L 9.007812 14 L 9.039062 13.398438 " fill-opacity="1" fill-rule="nonzero"/><path fill="#b83564" d="M 12.398438 14.832031 C 12.3125 14.800781 12.21875 14.84375 12.183594 14.925781 L 12.078125 15.179688 C 12.074219 15.1875 12.070312 15.199219 12.070312 15.207031 C 12.042969 15.285156 11.988281 15.34375 11.914062 15.378906 C 11.871094 15.398438 11.828125 15.410156 11.78125 15.410156 C 11.75 15.410156 11.714844 15.402344 11.683594 15.390625 C 11.605469 15.363281 11.546875 15.308594 11.511719 15.234375 C 11.476562 15.164062 11.472656 15.082031 11.5 15.003906 L 11.609375 14.722656 C 11.644531 14.636719 11.601562 14.539062 11.511719 14.503906 L 11.5 14.5 C 11.414062 14.46875 11.316406 14.511719 11.285156 14.601562 L 11.179688 14.894531 C 11.0625 15.226562 11.238281 15.589844 11.570312 15.707031 C 11.730469 15.765625 11.902344 15.757812 12.058594 15.683594 C 12.210938 15.609375 12.328125 15.480469 12.386719 15.320312 C 12.386719 15.316406 12.390625 15.3125 12.390625 15.304688 L 12.496094 15.054688 C 12.53125 14.964844 12.488281 14.867188 12.398438 14.832031 " fill-opacity="1" fill-rule="nonzero"/><path fill="#b83564" d="M 13.96875 13.792969 L 10.972656 12.675781 C 10.929688 12.664062 10.894531 12.632812 10.871094 12.597656 C 10.816406 12.53125 10.289062 11.898438 9.65625 11.144531 L 8.441406 12.085938 L 9.675781 13.457031 C 9.730469 13.519531 10.050781 13.730469 10.128906 13.761719 L 13.515625 15.019531 C 13.851562 15.144531 14.230469 14.972656 14.355469 14.632812 C 14.480469 14.296875 14.308594 13.917969 13.96875 13.792969 " fill-opacity="1" fill-rule="nonzero"/><path fill="#b83564" d="M 22.699219 15.550781 C 22.335938 15.550781 22.042969 15.257812 22.042969 14.894531 C 22.042969 14.535156 22.335938 14.238281 22.699219 14.238281 C 23.058594 14.238281 23.351562 14.535156 23.351562 14.894531 C 23.351562 15.257812 23.058594 15.550781 22.699219 15.550781 Z M 25.1875 14.859375 C 25.1875 14.800781 25.140625 14.75 25.082031 14.75 L 24.164062 14.75 C 24.070312 14.75 23.988281 14.6875 23.960938 14.59375 C 23.71875 13.808594 23.003906 13.277344 22.179688 13.277344 C 21.152344 13.277344 20.316406 14.152344 20.316406 15.175781 L 20.316406 15.882812 C 20.316406 16.226562 20.242188 16.550781 20.113281 16.847656 L 22.492188 17.960938 L 22.550781 17.433594 C 22.550781 17.433594 22.578125 17.003906 22.699219 17.003906 L 23.589844 17.003906 C 24.507812 17.003906 25.316406 16.351562 25.535156 15.480469 C 25.546875 15.433594 25.527344 15.382812 25.480469 15.359375 C 25.308594 15.257812 25.1875 15.074219 25.1875 14.859375 " fill-opacity="1" fill-rule="nonzero"/><g clip-path="url(#9c4d29604a)"><path fill="#b83564" d="M 22.480469 25.195312 L 21.910156 25.195312 C 21.851562 25.195312 21.792969 25.171875 21.75 25.125 C 21.707031 25.078125 21.6875 25.015625 21.695312 24.957031 L 22.394531 18.816406 L 19.652344 17.539062 C 19.214844 18.003906 18.59375 18.296875 17.902344 18.296875 L 16.476562 18.296875 C 15.90625 18.296875 15.394531 18.527344 15.023438 18.902344 C 15.019531 18.910156 15.015625 18.914062 15.007812 18.917969 C 15.007812 18.921875 15.007812 18.921875 15.003906 18.921875 C 14.652344 19.289062 14.433594 19.789062 14.433594 20.335938 L 14.457031 22.332031 C 14.457031 22.40625 14.417969 22.476562 14.355469 22.519531 C 14.203125 22.617188 14.109375 22.78125 14.109375 22.960938 L 14.109375 25.601562 C 14.109375 25.890625 14.34375 26.125 14.632812 26.128906 C 14.632812 26.128906 14.636719 26.128906 14.640625 26.128906 C 14.644531 26.128906 14.648438 26.128906 14.652344 26.128906 L 15.84375 26.128906 C 16.039062 26.128906 16.199219 25.96875 16.199219 25.769531 C 16.199219 25.574219 16.039062 25.414062 15.84375 25.414062 L 15.378906 25.414062 C 15.257812 25.414062 15.164062 25.316406 15.164062 25.195312 L 15.164062 23.5625 C 15.164062 23.496094 15.191406 23.433594 15.246094 23.390625 C 15.296875 23.351562 15.367188 23.335938 15.429688 23.351562 C 15.535156 23.375 15.636719 23.390625 15.734375 23.390625 C 16.398438 23.390625 16.945312 22.894531 17.027344 22.253906 C 17.035156 22.199219 17.039062 22.144531 17.039062 22.085938 L 17.039062 20.554688 C 17.039062 20.433594 17.136719 20.335938 17.253906 20.335938 C 17.375 20.335938 17.472656 20.433594 17.472656 20.554688 L 17.472656 22.085938 C 17.472656 22.089844 17.472656 22.09375 17.472656 22.097656 C 18.234375 22.179688 19.835938 22.21875 20.136719 21.582031 C 20.140625 21.574219 20.144531 21.566406 20.148438 21.5625 L 20.117188 20.515625 C 20.113281 20.394531 20.207031 20.292969 20.324219 20.289062 C 20.445312 20.285156 20.546875 20.378906 20.550781 20.5 L 20.699219 25.296875 C 20.699219 25.296875 20.699219 25.300781 20.699219 25.300781 C 20.699219 25.632812 20.925781 25.914062 21.191406 25.914062 L 21.214844 25.910156 C 21.226562 25.910156 21.234375 25.910156 21.246094 25.910156 C 21.253906 25.914062 21.257812 25.914062 21.261719 25.914062 L 22.480469 25.914062 C 22.621094 25.914062 22.742188 25.757812 22.742188 25.570312 L 22.742188 25.539062 C 22.742188 25.351562 22.621094 25.195312 22.480469 25.195312 " fill-opacity="1" fill-rule="nonzero"/></g><path fill="#b83564" d="M 22.730469 18.28125 L 22.46875 18.160156 L 20.027344 17.023438 L 19.636719 16.839844 L 14.816406 14.589844 L 14.089844 14.238281 C 13.980469 14.1875 13.851562 14.234375 13.800781 14.34375 C 13.75 14.449219 13.796875 14.578125 13.90625 14.628906 L 14.65625 14.992188 L 19.378906 17.199219 L 19.785156 17.386719 L 22.417969 18.613281 L 22.550781 18.675781 C 22.578125 18.6875 22.609375 18.695312 22.640625 18.695312 C 22.722656 18.695312 22.800781 18.648438 22.835938 18.570312 C 22.886719 18.460938 22.839844 18.332031 22.730469 18.28125 " fill-opacity="1" fill-rule="nonzero"/><g clip-path="url(#cce5951551)"><path fill="#b83564" d="M 25.800781 13.929688 C 25.582031 13.929688 25.40625 14.105469 25.40625 14.324219 L 25.40625 14.695312 C 25.40625 14.914062 25.582031 15.089844 25.800781 15.089844 C 26.015625 15.089844 26.195312 14.914062 26.195312 14.695312 L 26.195312 14.324219 C 26.195312 14.105469 26.015625 13.929688 25.800781 13.929688 " fill-opacity="1" fill-rule="nonzero"/></g><path fill="#b83564" d="M 14.824219 18.492188 C 14.332031 17.773438 14.285156 16.710938 14.285156 16.667969 L 14.285156 16.660156 C 14.285156 16.570312 14.25 16.488281 14.191406 16.425781 C 14.128906 16.363281 14.046875 16.328125 13.957031 16.328125 C 13.871094 16.328125 13.789062 16.359375 13.730469 16.421875 C 13.667969 16.480469 13.632812 16.5625 13.628906 16.648438 L 13.628906 16.65625 C 13.628906 16.671875 13.570312 18.226562 14.226562 19.171875 L 14.355469 19.359375 L 14.46875 19.160156 C 14.570312 18.984375 14.6875 18.820312 14.8125 18.667969 L 14.882812 18.582031 L 14.824219 18.492188 " fill-opacity="1" fill-rule="nonzero"/></svg>