<svg xmlns="http://www.w3.org/2000/svg" xmlns:xlink="http://www.w3.org/1999/xlink" width="40" zoomAndPan="magnify" viewBox="0 0 30 30.000001" height="40" preserveAspectRatio="xMidYMid meet" version="1.0"><defs><clipPath id="f7331517bd"><path d="M 16.085938 12.457031 L 26.601562 12.457031 L 26.601562 25.59375 L 16.085938 25.59375 Z M 16.085938 12.457031 " clip-rule="nonzero"/></clipPath><clipPath id="5a84b5446f"><path d="M 3.394531 3.09375 L 21.125 3.09375 L 21.125 25.59375 L 3.394531 25.59375 Z M 3.394531 3.09375 " clip-rule="nonzero"/></clipPath></defs><path fill="#b83564" d="M 15.605469 10.253906 C 15.9375 10.253906 16.21875 9.769531 16.21875 9.195312 C 16.21875 8.621094 15.9375 8.132812 15.605469 8.132812 C 15.269531 8.132812 14.988281 8.621094 14.988281 9.195312 C 14.988281 9.769531 15.269531 10.253906 15.605469 10.253906 " fill-opacity="1" fill-rule="nonzero"/><g clip-path="url(#f7331517bd)"><path fill="#b83564" d="M 18.4375 18.089844 C 18.777344 17.75 19.328125 17.75 19.667969 18.089844 L 20.621094 19.042969 C 20.746094 19.167969 20.945312 19.167969 21.066406 19.042969 L 22.929688 17.191406 C 23.332031 16.785156 24.039062 16.863281 24.328125 17.425781 C 24.347656 17.460938 24.363281 17.5 24.375 17.539062 C 24.472656 17.867188 24.386719 18.195312 24.160156 18.421875 L 21.457031 21.113281 C 21.292969 21.277344 21.074219 21.367188 20.84375 21.367188 C 20.609375 21.367188 20.390625 21.277344 20.226562 21.113281 L 18.4375 19.320312 C 18.273438 19.15625 18.183594 18.9375 18.183594 18.707031 C 18.183594 18.472656 18.273438 18.253906 18.4375 18.089844 Z M 16.09375 21.734375 C 16.09375 21.835938 16.109375 21.9375 16.148438 22.03125 C 16.25 22.269531 16.480469 22.726562 16.972656 23.269531 C 17.617188 23.976562 18.84375 24.980469 21.070312 25.816406 C 21.25 25.882812 21.445312 25.882812 21.625 25.816406 C 25.285156 24.441406 26.304688 22.617188 26.542969 22.039062 C 26.582031 21.941406 26.601562 21.839844 26.601562 21.738281 L 26.601562 15.164062 C 26.601562 15.023438 26.523438 14.894531 26.398438 14.835938 L 21.601562 12.519531 C 21.441406 12.441406 21.253906 12.441406 21.09375 12.519531 L 16.296875 14.835938 C 16.171875 14.894531 16.09375 15.023438 16.09375 15.164062 L 16.09375 21.734375 " fill-opacity="1" fill-rule="nonzero"/></g><path fill="#b83564" d="M 20.546875 20.792969 C 20.625 20.875 20.730469 20.917969 20.84375 20.917969 C 20.957031 20.917969 21.0625 20.875 21.140625 20.792969 L 23.839844 18.105469 C 23.921875 18.023438 23.964844 17.917969 23.964844 17.808594 C 23.964844 17.695312 23.921875 17.589844 23.839844 17.511719 C 23.675781 17.347656 23.410156 17.347656 23.246094 17.511719 L 21.003906 19.746094 C 20.914062 19.832031 20.773438 19.832031 20.683594 19.746094 L 19.347656 18.410156 C 19.1875 18.246094 18.917969 18.246094 18.753906 18.410156 C 18.675781 18.488281 18.632812 18.59375 18.632812 18.707031 C 18.632812 18.820312 18.675781 18.925781 18.753906 19.003906 L 20.546875 20.792969 " fill-opacity="1" fill-rule="nonzero"/><path fill="#b83564" d="M 11.007812 7.527344 C 11.339844 7.527344 11.621094 7.042969 11.621094 6.46875 C 11.621094 5.894531 11.339844 5.40625 11.007812 5.40625 C 10.675781 5.40625 10.394531 5.894531 10.394531 6.46875 C 10.394531 7.042969 10.675781 7.527344 11.007812 7.527344 " fill-opacity="1" fill-rule="nonzero"/><g clip-path="url(#5a84b5446f)"><path fill="#b83564" d="M 5.863281 22.976562 L 14.339844 22.976562 C 14.457031 22.976562 14.5625 23.0625 14.574219 23.179688 C 14.589844 23.3125 14.484375 23.425781 14.351562 23.425781 L 5.871094 23.425781 C 5.753906 23.425781 5.648438 23.339844 5.636719 23.222656 C 5.625 23.089844 5.730469 22.976562 5.863281 22.976562 Z M 5.863281 19.472656 L 9.035156 19.472656 C 9.152344 19.472656 9.257812 19.558594 9.269531 19.675781 C 9.28125 19.808594 9.179688 19.921875 9.046875 19.921875 L 5.871094 19.921875 C 5.753906 19.921875 5.648438 19.835938 5.636719 19.71875 C 5.625 19.585938 5.730469 19.472656 5.863281 19.472656 Z M 14.152344 19.71875 C 14.140625 19.835938 14.035156 19.921875 13.917969 19.921875 L 10.777344 19.921875 C 10.660156 19.921875 10.554688 19.835938 10.542969 19.71875 C 10.53125 19.585938 10.636719 19.472656 10.769531 19.472656 L 13.925781 19.472656 C 14.058594 19.472656 14.164062 19.585938 14.152344 19.71875 Z M 5.863281 15.964844 L 13.917969 15.964844 C 14.035156 15.964844 14.140625 16.050781 14.152344 16.167969 C 14.164062 16.304688 14.058594 16.417969 13.925781 16.417969 L 5.871094 16.417969 C 5.753906 16.417969 5.648438 16.332031 5.636719 16.214844 C 5.625 16.078125 5.730469 15.964844 5.863281 15.964844 Z M 8.914062 7.683594 C 9.511719 7.683594 9.980469 8.347656 9.980469 9.195312 C 9.980469 10.042969 9.511719 10.707031 8.914062 10.707031 C 8.316406 10.707031 7.847656 10.042969 7.847656 9.195312 C 7.847656 8.347656 8.316406 7.683594 8.914062 7.683594 Z M 11.007812 4.957031 C 11.605469 4.957031 12.074219 5.621094 12.074219 6.46875 C 12.074219 7.316406 11.605469 7.980469 11.007812 7.980469 C 10.410156 7.980469 9.941406 7.316406 9.941406 6.46875 C 9.941406 5.621094 10.410156 4.957031 11.007812 4.957031 Z M 13.238281 8.421875 C 13.789062 8.84375 14.0625 9.453125 14.019531 10.179688 C 13.988281 10.726562 14.382812 10.992188 14.84375 11.296875 C 15.3125 11.609375 15.847656 11.964844 15.855469 12.683594 C 15.859375 13.210938 15.609375 13.496094 15.398438 13.640625 C 15.136719 13.820312 14.792969 13.890625 14.433594 13.890625 C 13.957031 13.890625 13.449219 13.769531 13.050781 13.617188 C 12.796875 13.519531 12.53125 13.464844 12.257812 13.464844 C 11.988281 13.464844 11.71875 13.519531 11.46875 13.617188 C 10.761719 13.890625 9.726562 14.058594 9.121094 13.640625 C 8.910156 13.496094 8.660156 13.210938 8.664062 12.683594 C 8.671875 11.964844 9.203125 11.609375 9.675781 11.296875 C 10.136719 10.992188 10.53125 10.726562 10.5 10.179688 C 10.457031 9.453125 10.726562 8.84375 11.28125 8.421875 C 11.859375 7.976562 12.660156 7.976562 13.238281 8.421875 Z M 13.511719 4.957031 C 14.109375 4.957031 14.578125 5.621094 14.578125 6.46875 C 14.578125 7.316406 14.109375 7.980469 13.511719 7.980469 C 12.914062 7.980469 12.445312 7.316406 12.445312 6.46875 C 12.445312 5.621094 12.914062 4.957031 13.511719 4.957031 Z M 15.605469 7.683594 C 16.203125 7.683594 16.671875 8.347656 16.671875 9.195312 C 16.671875 10.042969 16.203125 10.707031 15.605469 10.707031 C 15.007812 10.707031 14.539062 10.042969 14.539062 9.195312 C 14.539062 8.347656 15.007812 7.683594 15.605469 7.683594 Z M 4.445312 25.933594 L 19.445312 25.933594 C 19.609375 25.933594 19.660156 25.710938 19.511719 25.636719 C 16.167969 23.992188 15.667969 22.050781 15.648438 21.957031 C 15.644531 21.9375 15.640625 21.921875 15.640625 21.902344 L 15.640625 14.792969 C 15.640625 14.707031 15.691406 14.625 15.769531 14.589844 L 20.773438 12.171875 C 20.988281 12.070312 21.121094 11.855469 21.121094 11.621094 L 21.121094 4.140625 C 21.121094 3.5625 20.652344 3.09375 20.070312 3.09375 L 4.445312 3.09375 C 3.867188 3.09375 3.394531 3.5625 3.394531 4.140625 L 3.394531 24.882812 C 3.394531 25.460938 3.867188 25.933594 4.445312 25.933594 " fill-opacity="1" fill-rule="nonzero"/></g><path fill="#b83564" d="M 8.914062 10.253906 C 9.246094 10.253906 9.527344 9.769531 9.527344 9.195312 C 9.527344 8.621094 9.246094 8.132812 8.914062 8.132812 C 8.582031 8.132812 8.300781 8.621094 8.300781 9.195312 C 8.300781 9.769531 8.582031 10.253906 8.914062 10.253906 " fill-opacity="1" fill-rule="nonzero"/><path fill="#b83564" d="M 10.949219 10.152344 C 10.996094 10.957031 10.425781 11.335938 9.925781 11.671875 C 9.492188 11.960938 9.121094 12.207031 9.113281 12.6875 C 9.113281 12.957031 9.199219 13.148438 9.375 13.269531 C 9.804688 13.566406 10.679688 13.4375 11.3125 13.191406 C 11.613281 13.074219 11.933594 13.015625 12.257812 13.015625 C 12.585938 13.015625 12.902344 13.074219 13.207031 13.191406 C 13.839844 13.4375 14.710938 13.566406 15.144531 13.269531 C 15.320312 13.148438 15.40625 12.957031 15.402344 12.6875 C 15.398438 12.207031 15.027344 11.960938 14.59375 11.671875 C 14.089844 11.335938 13.523438 10.957031 13.570312 10.152344 C 13.601562 9.574219 13.398438 9.113281 12.964844 8.78125 C 12.550781 8.460938 11.96875 8.460938 11.554688 8.78125 C 11.121094 9.113281 10.917969 9.574219 10.949219 10.152344 " fill-opacity="1" fill-rule="nonzero"/><path fill="#b83564" d="M 13.511719 7.527344 C 13.84375 7.527344 14.125 7.042969 14.125 6.46875 C 14.125 5.894531 13.84375 5.40625 13.511719 5.40625 C 13.175781 5.40625 12.894531 5.894531 12.894531 6.46875 C 12.894531 7.042969 13.175781 7.527344 13.511719 7.527344 " fill-opacity="1" fill-rule="nonzero"/></svg>