<svg xmlns="http://www.w3.org/2000/svg" xmlns:xlink="http://www.w3.org/1999/xlink" width="40" zoomAndPan="magnify" viewBox="0 0 30 30.000001" height="40" preserveAspectRatio="xMidYMid meet" version="1.0"><defs><clipPath id="8a754f7fd5"><path d="M 3.386719 7.921875 L 26.613281 7.921875 L 26.613281 20.984375 L 3.386719 20.984375 Z M 3.386719 7.921875 " clip-rule="nonzero"/></clipPath></defs><g clip-path="url(#8a754f7fd5)"><path fill="#b83564" d="M 4.675781 10.175781 C 4.863281 9.640625 5.410156 8.738281 6.933594 8.738281 C 7.300781 8.738281 7.644531 8.777344 7.953125 8.855469 C 8.0625 8.882812 8.132812 8.996094 8.101562 9.109375 C 8.074219 9.21875 7.964844 9.285156 7.851562 9.257812 C 7.574219 9.1875 7.265625 9.152344 6.933594 9.152344 C 5.664062 9.152344 5.21875 9.878906 5.0625 10.3125 C 5.035156 10.398438 4.953125 10.449219 4.867188 10.449219 C 4.847656 10.449219 4.824219 10.445312 4.800781 10.4375 C 4.691406 10.402344 4.636719 10.28125 4.675781 10.175781 Z M 22.09375 8.855469 C 22.402344 8.777344 22.746094 8.738281 23.113281 8.738281 C 24.636719 8.738281 25.183594 9.640625 25.371094 10.175781 C 25.410156 10.28125 25.355469 10.402344 25.246094 10.4375 C 25.222656 10.445312 25.199219 10.449219 25.175781 10.449219 C 25.09375 10.449219 25.011719 10.398438 24.984375 10.3125 C 24.828125 9.878906 24.382812 9.152344 23.113281 9.152344 C 22.78125 9.152344 22.472656 9.1875 22.195312 9.257812 C 22.082031 9.285156 21.972656 9.21875 21.941406 9.109375 C 21.914062 8.996094 21.984375 8.882812 22.09375 8.855469 Z M 4 19.960938 C 4.527344 20.714844 5.414062 21.109375 6.5625 21.109375 C 8.757812 21.109375 9.71875 20.105469 10.40625 19.320312 C 10.414062 19.285156 10.429688 19.253906 10.457031 19.226562 C 10.519531 19.164062 10.605469 19.082031 10.699219 18.984375 C 10.773438 18.898438 10.851562 18.816406 10.929688 18.738281 C 11.410156 18.226562 12.011719 17.519531 12.164062 17.097656 C 12.203125 16.992188 12.320312 16.9375 12.429688 16.976562 C 12.535156 17.015625 12.589844 17.132812 12.550781 17.242188 C 12.445312 17.539062 12.171875 17.925781 11.871094 18.292969 L 18.101562 18.292969 C 17.804688 17.929688 17.535156 17.542969 17.425781 17.242188 C 17.386719 17.132812 17.441406 17.015625 17.546875 16.976562 C 17.65625 16.9375 17.773438 16.992188 17.8125 17.097656 C 17.957031 17.492188 18.46875 18.113281 18.910156 18.59375 C 19.109375 18.757812 19.300781 18.976562 19.503906 19.210938 C 20.195312 20.011719 21.144531 21.109375 23.4375 21.109375 C 24.585938 21.109375 25.472656 20.714844 26 19.960938 C 26.554688 19.167969 26.613281 18.117188 26.382812 17.488281 C 26.25 17.125 26.109375 16.800781 25.972656 16.484375 C 25.664062 15.777344 25.398438 15.167969 25.398438 14.453125 C 25.398438 13.761719 25.648438 13.21875 25.941406 12.589844 C 26.085938 12.269531 26.242188 11.9375 26.382812 11.542969 C 26.613281 10.914062 26.554688 9.863281 26 9.070312 C 25.472656 8.316406 24.585938 7.921875 23.4375 7.921875 C 21.144531 7.921875 20.195312 9.019531 19.503906 9.820312 C 19.078125 10.3125 18.707031 10.738281 18.167969 10.738281 L 11.832031 10.738281 C 11.292969 10.738281 10.921875 10.3125 10.496094 9.820312 C 9.804688 9.019531 8.855469 7.921875 6.5625 7.921875 C 5.414062 7.921875 4.527344 8.316406 4 9.070312 C 3.445312 9.863281 3.386719 10.914062 3.617188 11.542969 C 3.757812 11.9375 3.917969 12.277344 4.070312 12.605469 C 4.367188 13.253906 4.628906 13.8125 4.601562 14.460938 C 4.574219 15.132812 4.3125 15.769531 4.003906 16.507812 C 3.875 16.816406 3.742188 17.136719 3.617188 17.488281 C 3.386719 18.117188 3.445312 19.167969 4 19.960938 " fill-opacity="1" fill-rule="nonzero"/></g></svg>