<svg xmlns="http://www.w3.org/2000/svg" xmlns:xlink="http://www.w3.org/1999/xlink" width="40" zoomAndPan="magnify" viewBox="0 0 30 30.000001" height="40" preserveAspectRatio="xMidYMid meet" version="1.0"><defs><clipPath id="37baa30691"><path d="M 3.808594 6 L 10 6 L 10 11 L 3.808594 11 Z M 3.808594 6 " clip-rule="nonzero"/></clipPath><clipPath id="a7ae0b8bca"><path d="M 14.203125 14.6875 L 26.183594 14.6875 L 26.183594 26.128906 L 14.203125 26.128906 Z M 14.203125 14.6875 " clip-rule="nonzero"/></clipPath><clipPath id="52d8843894"><path d="M 18.703125 25.371094 L 21.683594 25.371094 L 21.683594 26.128906 L 18.703125 26.128906 Z M 18.703125 25.371094 " clip-rule="nonzero"/></clipPath><clipPath id="39f700fdd0"><path d="M 3.808594 11.289062 L 23.367188 11.289062 L 23.367188 26.128906 L 3.808594 26.128906 Z M 3.808594 11.289062 " clip-rule="nonzero"/></clipPath><clipPath id="bc6967ae0e"><path d="M 7 2.902344 L 12 2.902344 L 12 10 L 7 10 Z M 7 2.902344 " clip-rule="nonzero"/></clipPath><clipPath id="db476ec5f3"><path d="M 15 2.902344 L 20 2.902344 L 20 10 L 15 10 Z M 15 2.902344 " clip-rule="nonzero"/></clipPath></defs><g clip-path="url(#37baa30691)"><path fill="#b83564" d="M 9.003906 9.789062 C 7.882812 9.511719 7.042969 8.496094 7.042969 7.285156 L 7.042969 6.574219 L 5.277344 6.574219 C 4.46875 6.574219 3.808594 7.230469 3.808594 8.042969 L 3.808594 10.457031 L 9.566406 10.457031 C 9.308594 10.308594 9.109375 10.070312 9.003906 9.789062 " fill-opacity="1" fill-rule="nonzero"/></g><path fill="#b83564" d="M 9.371094 13.746094 L 6.660156 13.746094 C 6.546875 13.746094 6.453125 13.839844 6.453125 13.957031 L 6.453125 16.664062 C 6.453125 16.78125 6.546875 16.875 6.660156 16.875 L 9.371094 16.875 C 9.484375 16.875 9.578125 16.78125 9.578125 16.664062 L 9.578125 13.957031 C 9.578125 13.839844 9.484375 13.746094 9.371094 13.746094 " fill-opacity="1" fill-rule="nonzero"/><path fill="#b83564" d="M 16.558594 9.789062 C 15.433594 9.511719 14.59375 8.496094 14.59375 7.285156 L 14.59375 6.574219 L 12.503906 6.574219 C 12.339844 7.03125 11.921875 7.367188 11.414062 7.40625 C 11.433594 7.488281 11.441406 7.574219 11.441406 7.664062 L 11.441406 9.363281 C 11.441406 9.832031 11.1875 10.238281 10.804688 10.457031 L 17.121094 10.457031 C 16.859375 10.308594 16.660156 10.070312 16.558594 9.789062 " fill-opacity="1" fill-rule="nonzero"/><path fill="#b83564" d="M 23.363281 8.042969 C 23.363281 7.230469 22.703125 6.574219 21.894531 6.574219 L 20.054688 6.574219 C 19.894531 7.03125 19.472656 7.367188 18.96875 7.40625 C 18.984375 7.488281 18.996094 7.574219 18.996094 7.664062 L 18.996094 9.363281 C 18.996094 9.832031 18.738281 10.238281 18.359375 10.457031 L 23.363281 10.457031 L 23.363281 8.042969 " fill-opacity="1" fill-rule="nonzero"/><path fill="#b83564" d="M 9.371094 20.355469 L 6.660156 20.355469 C 6.546875 20.355469 6.453125 20.449219 6.453125 20.566406 L 6.453125 23.273438 C 6.453125 23.390625 6.546875 23.484375 6.660156 23.484375 L 9.371094 23.484375 C 9.484375 23.484375 9.578125 23.390625 9.578125 23.273438 L 9.578125 20.566406 C 9.578125 20.449219 9.484375 20.355469 9.371094 20.355469 " fill-opacity="1" fill-rule="nonzero"/><g clip-path="url(#a7ae0b8bca)"><path fill="#b83564" d="M 22.082031 21.675781 L 20.195312 21.675781 C 19.960938 21.675781 19.773438 21.488281 19.773438 21.257812 L 19.773438 18.050781 C 19.773438 17.816406 19.960938 17.628906 20.195312 17.628906 C 20.425781 17.628906 20.613281 17.816406 20.613281 18.050781 L 20.613281 20.839844 L 22.082031 20.839844 C 22.3125 20.839844 22.5 21.027344 22.5 21.257812 C 22.5 21.488281 22.3125 21.675781 22.082031 21.675781 Z M 26.039062 19.511719 C 26.171875 19.382812 26.214844 19.199219 26.160156 19.023438 C 26.101562 18.847656 25.957031 18.726562 25.773438 18.699219 L 22.429688 18.214844 C 22.292969 18.195312 22.175781 18.109375 22.117188 17.984375 L 20.621094 14.957031 C 20.539062 14.789062 20.378906 14.691406 20.195312 14.691406 C 20.007812 14.691406 19.847656 14.789062 19.765625 14.957031 L 18.273438 17.984375 C 18.210938 18.109375 18.09375 18.195312 17.957031 18.214844 L 14.613281 18.699219 C 14.429688 18.726562 14.285156 18.847656 14.230469 19.023438 C 14.171875 19.199219 14.21875 19.382812 14.351562 19.511719 L 16.769531 21.871094 C 16.867188 21.96875 16.914062 22.105469 16.890625 22.242188 L 16.316406 25.570312 C 16.285156 25.753906 16.359375 25.929688 16.507812 26.035156 C 16.582031 26.089844 16.664062 26.121094 16.75 26.125 L 16.765625 26.125 C 16.847656 26.128906 16.929688 26.113281 17.007812 26.074219 L 20 24.5 C 20.121094 24.4375 20.265625 24.4375 20.386719 24.5 L 23.378906 26.074219 C 23.542969 26.160156 23.730469 26.144531 23.878906 26.035156 C 24.03125 25.929688 24.101562 25.753906 24.070312 25.570312 L 23.5 22.242188 C 23.476562 22.105469 23.519531 21.96875 23.617188 21.871094 L 26.039062 19.511719 " fill-opacity="1" fill-rule="nonzero"/></g><g clip-path="url(#52d8843894)"><path fill="#b83564" d="M 18.707031 26.125 L 21.683594 26.125 L 20.292969 25.394531 C 20.230469 25.363281 20.15625 25.363281 20.097656 25.394531 L 18.707031 26.125 " fill-opacity="1" fill-rule="nonzero"/></g><g clip-path="url(#39f700fdd0)"><path fill="#b83564" d="M 14.53125 24.320312 L 13.207031 24.320312 C 12.664062 24.320312 12.222656 23.878906 12.222656 23.335938 L 12.222656 20.503906 C 12.222656 20.273438 12.410156 20.085938 12.640625 20.085938 C 12.871094 20.085938 13.058594 20.273438 13.058594 20.503906 L 13.058594 23.335938 C 13.058594 23.417969 13.125 23.484375 13.207031 23.484375 L 14.53125 23.484375 C 14.761719 23.484375 14.949219 23.671875 14.949219 23.902344 C 14.949219 24.132812 14.761719 24.320312 14.53125 24.320312 Z M 10.417969 16.664062 C 10.417969 17.242188 9.949219 17.710938 9.371094 17.710938 L 6.660156 17.710938 C 6.082031 17.710938 5.613281 17.242188 5.613281 16.664062 L 5.613281 13.957031 C 5.613281 13.378906 6.082031 12.910156 6.660156 12.910156 L 9.371094 12.910156 C 9.949219 12.910156 10.417969 13.378906 10.417969 13.957031 Z M 10.417969 23.273438 C 10.417969 23.851562 9.949219 24.320312 9.371094 24.320312 L 6.660156 24.320312 C 6.082031 24.320312 5.613281 23.851562 5.613281 23.273438 L 5.613281 20.566406 C 5.613281 19.988281 6.082031 19.519531 6.660156 19.519531 L 9.371094 19.519531 C 9.949219 19.519531 10.417969 19.988281 10.417969 20.566406 Z M 12.222656 13.894531 C 12.222656 13.351562 12.664062 12.910156 13.207031 12.910156 L 16.039062 12.910156 C 16.582031 12.910156 17.023438 13.351562 17.023438 13.894531 L 17.023438 16.347656 C 17.023438 16.582031 16.835938 16.769531 16.605469 16.769531 C 16.375 16.769531 16.1875 16.582031 16.1875 16.347656 L 16.1875 13.894531 C 16.1875 13.8125 16.121094 13.746094 16.039062 13.746094 L 13.207031 13.746094 C 13.125 13.746094 13.058594 13.8125 13.058594 13.894531 L 13.058594 16.726562 C 13.058594 16.808594 13.125 16.875 13.207031 16.875 C 13.4375 16.875 13.625 17.0625 13.625 17.292969 C 13.625 17.523438 13.4375 17.710938 13.207031 17.710938 C 12.664062 17.710938 12.222656 17.269531 12.222656 16.726562 Z M 16.027344 22.316406 L 13.765625 20.113281 C 13.40625 19.761719 13.277344 19.246094 13.433594 18.765625 C 13.589844 18.289062 13.996094 17.945312 14.492188 17.871094 L 17.617188 17.417969 L 19.015625 14.585938 C 19.238281 14.136719 19.691406 13.855469 20.195312 13.855469 C 20.699219 13.855469 21.148438 14.136719 21.371094 14.585938 L 22.769531 17.417969 L 23.363281 17.503906 L 23.363281 11.292969 L 3.808594 11.292969 L 3.808594 24.65625 C 3.808594 25.46875 4.46875 26.125 5.277344 26.125 L 15.5625 26.125 C 15.480469 25.910156 15.453125 25.671875 15.492188 25.429688 L 16.027344 22.316406 " fill-opacity="1" fill-rule="nonzero"/></g><g clip-path="url(#bc6967ae0e)"><path fill="#b83564" d="M 10 2.902344 L 9.621094 2.902344 C 8.660156 2.902344 7.878906 3.683594 7.878906 4.644531 L 7.878906 7.285156 C 7.878906 8.246094 8.660156 9.027344 9.621094 9.027344 L 9.769531 9.027344 L 9.769531 9.363281 C 9.769531 9.59375 9.957031 9.78125 10.1875 9.78125 C 10.417969 9.78125 10.605469 9.59375 10.605469 9.363281 L 10.605469 7.664062 C 10.605469 7.433594 10.417969 7.246094 10.1875 7.246094 C 9.957031 7.246094 9.769531 7.433594 9.769531 7.664062 L 9.769531 8.191406 L 9.621094 8.191406 C 9.121094 8.191406 8.71875 7.785156 8.71875 7.285156 L 8.71875 4.644531 C 8.71875 4.144531 9.121094 3.742188 9.621094 3.742188 L 10 3.742188 C 10.496094 3.742188 10.902344 4.144531 10.902344 4.644531 L 10.902344 6.152344 C 10.902344 6.386719 11.089844 6.574219 11.320312 6.574219 C 11.550781 6.574219 11.738281 6.386719 11.738281 6.152344 L 11.738281 4.644531 C 11.738281 3.683594 10.957031 2.902344 10 2.902344 " fill-opacity="1" fill-rule="nonzero"/></g><g clip-path="url(#db476ec5f3)"><path fill="#b83564" d="M 17.550781 2.902344 L 17.171875 2.902344 C 16.214844 2.902344 15.433594 3.683594 15.433594 4.644531 L 15.433594 7.285156 C 15.433594 8.246094 16.214844 9.027344 17.171875 9.027344 L 17.320312 9.027344 L 17.320312 9.363281 C 17.320312 9.59375 17.507812 9.78125 17.738281 9.78125 C 17.96875 9.78125 18.15625 9.59375 18.15625 9.363281 L 18.15625 7.664062 C 18.15625 7.433594 17.96875 7.246094 17.738281 7.246094 C 17.507812 7.246094 17.320312 7.433594 17.320312 7.664062 L 17.320312 8.191406 L 17.171875 8.191406 C 16.675781 8.191406 16.269531 7.785156 16.269531 7.285156 L 16.269531 4.644531 C 16.269531 4.144531 16.675781 3.742188 17.171875 3.742188 L 17.550781 3.742188 C 18.046875 3.742188 18.453125 4.144531 18.453125 4.644531 L 18.453125 6.152344 C 18.453125 6.386719 18.640625 6.574219 18.871094 6.574219 C 19.101562 6.574219 19.289062 6.386719 19.289062 6.152344 L 19.289062 4.644531 C 19.289062 3.683594 18.511719 2.902344 17.550781 2.902344 " fill-opacity="1" fill-rule="nonzero"/></g></svg>