<svg xmlns="http://www.w3.org/2000/svg" xmlns:xlink="http://www.w3.org/1999/xlink" width="40" zoomAndPan="magnify" viewBox="0 0 30 30.000001" height="40" preserveAspectRatio="xMidYMid meet" version="1.0"><defs><clipPath id="154129a266"><path d="M 8 9 L 26.613281 9 L 26.613281 15 L 8 15 Z M 8 9 " clip-rule="nonzero"/></clipPath><clipPath id="b99319e9aa"><path d="M 3.386719 9 L 9 9 L 9 14 L 3.386719 14 Z M 3.386719 9 " clip-rule="nonzero"/></clipPath><clipPath id="17c81dddae"><path d="M 3.386719 7.097656 L 26.613281 7.097656 L 26.613281 10 L 3.386719 10 Z M 3.386719 7.097656 " clip-rule="nonzero"/></clipPath><clipPath id="29f4ca7f9f"><path d="M 12.152344 16.546875 L 17.542969 16.546875 L 17.542969 21.613281 L 12.152344 21.613281 Z M 12.152344 16.546875 " clip-rule="nonzero"/></clipPath></defs><g clip-path="url(#154129a266)"><path fill="#b83564" d="M 24.816406 12.386719 C 24.480469 12.386719 24.210938 12.117188 24.210938 11.785156 C 24.210938 11.453125 24.480469 11.179688 24.816406 11.179688 C 25.148438 11.179688 25.417969 11.453125 25.417969 11.785156 C 25.417969 12.117188 25.148438 12.386719 24.816406 12.386719 Z M 19.851562 13.5625 C 19.40625 13.5625 19.042969 13.199219 19.042969 12.753906 C 19.042969 12.304688 19.40625 11.941406 19.851562 11.941406 C 20.300781 11.941406 20.664062 12.304688 20.664062 12.753906 C 20.664062 13.199219 20.300781 13.5625 19.851562 13.5625 Z M 14.710938 13.863281 C 14.265625 13.863281 13.902344 13.5 13.902344 13.050781 C 13.902344 12.605469 14.265625 12.238281 14.710938 12.238281 C 15.160156 12.238281 15.523438 12.605469 15.523438 13.050781 C 15.523438 13.5 15.160156 13.863281 14.710938 13.863281 Z M 25.707031 10.253906 C 23.578125 11.085938 19.195312 11.527344 15 11.527344 C 12.851562 11.527344 10.652344 11.410156 8.730469 11.1875 L 8.730469 12.433594 L 9.066406 12.476562 C 9.195312 12.199219 9.476562 12.003906 9.804688 12.003906 C 10.25 12.003906 10.617188 12.371094 10.617188 12.816406 C 10.617188 13.265625 10.25 13.628906 9.804688 13.628906 C 9.382812 13.628906 9.035156 13.304688 8.996094 12.890625 L 8.730469 12.855469 L 8.730469 14.03125 C 9.054688 14.085938 9.386719 14.136719 9.734375 14.183594 C 9.753906 14.179688 9.773438 14.179688 9.792969 14.179688 C 9.816406 14.183594 9.835938 14.191406 9.859375 14.199219 C 11.367188 14.394531 13.097656 14.511719 15 14.511719 C 21.945312 14.511719 26.609375 12.984375 26.609375 11.554688 L 26.609375 9.777344 C 26.390625 9.945312 26.089844 10.105469 25.722656 10.25 C 25.71875 10.25 25.710938 10.253906 25.707031 10.253906 " fill-opacity="1" fill-rule="nonzero"/></g><g clip-path="url(#b99319e9aa)"><path fill="#b83564" d="M 4.875 11.035156 C 5.222656 11.035156 5.5 11.316406 5.5 11.660156 C 5.5 12.003906 5.222656 12.285156 4.875 12.285156 C 4.53125 12.285156 4.25 12.003906 4.25 11.660156 C 4.25 11.316406 4.53125 11.035156 4.875 11.035156 Z M 8.3125 13.957031 L 8.3125 12.800781 L 7.847656 12.738281 C 7.734375 12.722656 7.652344 12.621094 7.667969 12.503906 C 7.683594 12.390625 7.789062 12.308594 7.902344 12.324219 L 8.3125 12.378906 L 8.3125 11.136719 C 6.699219 10.929688 5.308594 10.640625 4.351562 10.277344 C 4.335938 10.273438 4.320312 10.265625 4.304688 10.261719 C 3.925781 10.113281 3.617188 9.953125 3.390625 9.777344 L 3.390625 11.554688 C 3.390625 12.449219 5.230469 13.386719 8.3125 13.957031 " fill-opacity="1" fill-rule="nonzero"/></g><g clip-path="url(#17c81dddae)"><path fill="#b83564" d="M 4.382812 9.859375 C 6.375 9.085938 10.429688 8.609375 15 8.609375 C 19.578125 8.609375 23.648438 9.082031 25.652344 9.84375 C 26.285156 9.59375 26.609375 9.332031 26.609375 9.105469 C 26.609375 8.285156 22.476562 7.097656 15 7.097656 C 7.523438 7.097656 3.390625 8.285156 3.390625 9.105469 C 3.390625 9.335938 3.726562 9.601562 4.382812 9.859375 " fill-opacity="1" fill-rule="nonzero"/></g><path fill="#b83564" d="M 15.289062 19.238281 C 15.390625 19.238281 15.46875 19.320312 15.46875 19.417969 C 15.46875 19.515625 15.390625 19.59375 15.289062 19.59375 C 15.191406 19.59375 15.113281 19.515625 15.113281 19.417969 C 15.113281 19.320312 15.191406 19.238281 15.289062 19.238281 Z M 14.417969 19.59375 C 14.320312 19.59375 14.242188 19.515625 14.242188 19.417969 C 14.242188 19.320312 14.320312 19.238281 14.417969 19.238281 C 14.515625 19.238281 14.597656 19.320312 14.597656 19.417969 C 14.597656 19.515625 14.515625 19.59375 14.417969 19.59375 Z M 14.324219 18.71875 C 14.320312 18.71875 14.320312 18.722656 14.320312 18.722656 C 14.308594 18.730469 14.300781 18.734375 14.292969 18.738281 C 13.992188 18.945312 13.792969 19.316406 13.792969 19.734375 C 13.792969 20.304688 14.15625 20.777344 14.640625 20.886719 L 14.640625 20.367188 C 14.640625 20.359375 14.640625 20.355469 14.644531 20.347656 C 14.4375 20.308594 14.289062 20.207031 14.289062 20.089844 C 14.289062 19.9375 14.53125 19.816406 14.832031 19.816406 C 15.132812 19.816406 15.375 19.9375 15.375 20.089844 C 15.375 20.203125 15.246094 20.296875 15.054688 20.339844 C 15.054688 20.347656 15.058594 20.359375 15.058594 20.367188 L 15.058594 20.886719 C 15.539062 20.777344 15.90625 20.304688 15.90625 19.734375 C 15.90625 19.085938 15.433594 18.5625 14.847656 18.5625 C 14.65625 18.5625 14.476562 18.617188 14.324219 18.71875 " fill-opacity="1" fill-rule="nonzero"/><g clip-path="url(#29f4ca7f9f)"><path fill="#b83564" d="M 16.316406 17.996094 C 16.695312 18.019531 17.273438 18.757812 17.382812 19.238281 C 17.460938 19.597656 17.273438 19.746094 17.1875 19.792969 C 17.140625 19.820312 17.09375 19.832031 17.042969 19.832031 C 16.871094 19.832031 16.6875 19.691406 16.484375 19.53125 C 16.414062 19.476562 16.347656 19.425781 16.285156 19.382812 C 16.308594 19.496094 16.324219 19.613281 16.324219 19.734375 C 16.324219 20.613281 15.660156 21.328125 14.847656 21.328125 C 14.035156 21.328125 13.375 20.613281 13.375 19.734375 C 13.375 19.617188 13.390625 19.5 13.414062 19.390625 C 13.359375 19.425781 13.308594 19.46875 13.253906 19.507812 C 13.046875 19.667969 12.863281 19.8125 12.695312 19.8125 C 12.644531 19.8125 12.597656 19.800781 12.546875 19.773438 C 12.464844 19.726562 12.273438 19.578125 12.355469 19.21875 C 12.460938 18.738281 13.042969 17.996094 13.421875 17.972656 C 13.78125 17.949219 14.070312 18.152344 14.226562 18.296875 C 14.414062 18.199219 14.625 18.144531 14.847656 18.144531 C 15.085938 18.144531 15.3125 18.207031 15.511719 18.316406 C 15.667969 18.171875 15.957031 17.96875 16.316406 17.996094 Z M 14.859375 16.550781 C 14.851562 16.550781 14.847656 16.550781 14.839844 16.546875 C 13.359375 16.554688 12.15625 17.757812 12.15625 19.238281 C 12.15625 20.726562 13.363281 21.933594 14.847656 21.933594 C 16.332031 21.933594 17.542969 20.726562 17.542969 19.238281 C 17.542969 17.765625 16.347656 16.5625 14.875 16.550781 C 14.871094 16.550781 14.863281 16.550781 14.859375 16.550781 " fill-opacity="1" fill-rule="nonzero"/></g><path fill="#b83564" d="M 16.488281 19.015625 C 16.570312 19.070312 16.65625 19.136719 16.738281 19.199219 C 16.808594 19.253906 16.910156 19.335938 16.984375 19.378906 C 16.976562 19.332031 16.957031 19.242188 16.894531 19.113281 C 16.707031 18.742188 16.382812 18.429688 16.285156 18.410156 C 16.113281 18.398438 15.957031 18.488281 15.851562 18.574219 C 15.964844 18.6875 16.058594 18.816406 16.136719 18.960938 C 16.25 18.929688 16.375 18.941406 16.488281 19.015625 " fill-opacity="1" fill-rule="nonzero"/><path fill="#b83564" d="M 13.449219 18.390625 C 13.355469 18.410156 13.027344 18.722656 12.84375 19.09375 C 12.78125 19.21875 12.757812 19.304688 12.753906 19.359375 C 12.828125 19.3125 12.929688 19.234375 12.996094 19.179688 C 13.078125 19.117188 13.164062 19.050781 13.246094 18.996094 C 13.359375 18.921875 13.476562 18.90625 13.582031 18.929688 C 13.660156 18.785156 13.757812 18.65625 13.875 18.546875 C 13.769531 18.464844 13.617188 18.378906 13.449219 18.390625 " fill-opacity="1" fill-rule="nonzero"/><path fill="#b83564" d="M 9.488281 14.554688 C 9.429688 14.628906 9.34375 14.675781 9.242188 14.675781 L 9.101562 14.675781 C 9.015625 14.675781 8.738281 14.65625 8.730469 14.441406 L 8.3125 14.367188 L 8.3125 14.433594 C 8.3125 14.828125 8.632812 15.09375 9.101562 15.09375 L 9.242188 15.09375 C 9.558594 15.09375 9.816406 14.898438 9.925781 14.617188 Z M 9.953125 10.902344 C 9.898438 10.503906 9.632812 10.277344 9.207031 10.277344 L 9.066406 10.277344 C 8.75 10.277344 8.484375 10.464844 8.371094 10.734375 L 8.828125 10.789062 C 8.886719 10.730469 8.972656 10.695312 9.066406 10.695312 L 9.207031 10.695312 C 9.359375 10.695312 9.46875 10.730469 9.515625 10.863281 Z M 15.070312 16.140625 L 15.070312 14.925781 L 14.652344 14.925781 L 14.652344 16.136719 L 15.070312 16.140625 " fill-opacity="1" fill-rule="nonzero"/></svg>