<svg xmlns="http://www.w3.org/2000/svg" xmlns:xlink="http://www.w3.org/1999/xlink" width="40" zoomAndPan="magnify" viewBox="0 0 30 30.000001" height="40" preserveAspectRatio="xMidYMid meet" version="1.0"><defs><clipPath id="e636ede928"><path d="M 7 7.285156 L 23 7.285156 L 23 14 L 7 14 Z M 7 7.285156 " clip-rule="nonzero"/></clipPath><clipPath id="fb3667530a"><path d="M 25 12 L 26.613281 12 L 26.613281 21.804688 L 25 21.804688 Z M 25 12 " clip-rule="nonzero"/></clipPath><clipPath id="b189b86943"><path d="M 4.921875 15.300781 L 25.089844 15.300781 L 25.089844 21.734375 L 4.921875 21.734375 Z M 4.921875 15.300781 " clip-rule="nonzero"/></clipPath><clipPath id="4b98942d7e"><path d="M 3.386719 12 L 5 12 L 5 21.804688 L 3.386719 21.804688 Z M 3.386719 12 " clip-rule="nonzero"/></clipPath></defs><g clip-path="url(#e636ede928)"><path fill="#b83564" d="M 8.953125 13.652344 C 9.789062 13.480469 12.355469 13.035156 15.695312 13.148438 C 18.824219 13.253906 20.503906 13.632812 21.152344 13.8125 C 21.128906 13.605469 21.113281 13.394531 21.113281 13.183594 C 21.128906 10.785156 21.917969 8.644531 22.175781 8.003906 C 21.359375 7.546875 20.417969 7.285156 19.417969 7.285156 L 10.59375 7.285156 C 9.621094 7.285156 8.703125 7.535156 7.898438 7.96875 C 8.136719 8.546875 8.957031 10.714844 8.972656 13.183594 C 8.972656 13.339844 8.964844 13.496094 8.953125 13.652344 " fill-opacity="1" fill-rule="nonzero"/></g><g clip-path="url(#fb3667530a)"><path fill="#b83564" d="M 25.507812 13.414062 L 25.507812 20.285156 C 25.507812 20.703125 25.367188 21.085938 25.136719 21.398438 C 25.855469 21.03125 26.601562 20.273438 26.601562 18.6875 L 26.601562 15.417969 C 26.601562 14.105469 26.078125 13.007812 25.441406 12.074219 C 25.484375 12.363281 25.507812 12.65625 25.507812 12.957031 L 25.507812 13.414062 " fill-opacity="1" fill-rule="nonzero"/></g><path fill="#b83564" d="M 24.789062 11.148438 C 24.382812 9.941406 23.582031 8.917969 22.539062 8.226562 C 22.507812 8.296875 22.476562 8.382812 22.441406 8.480469 C 22.125 9.332031 21.546875 11.164062 21.535156 13.183594 C 21.527344 14.488281 22.105469 15.710938 22.410156 16.265625 C 22.453125 16.34375 22.492188 16.410156 22.519531 16.460938 C 24.085938 16.375 25.085938 15.214844 25.085938 13.453125 L 25.085938 12.957031 C 25.085938 12.355469 24.992188 11.777344 24.820312 11.234375 C 24.804688 11.207031 24.792969 11.179688 24.789062 11.148438 " fill-opacity="1" fill-rule="nonzero"/><path fill="#b83564" d="M 16.246094 18.242188 C 16.214844 18.242188 16.1875 18.25 16.15625 18.261719 C 16.007812 18.316406 15.941406 18.492188 16 18.65625 C 16.0625 18.816406 16.230469 18.90625 16.375 18.851562 C 16.523438 18.796875 16.59375 18.621094 16.53125 18.457031 C 16.484375 18.328125 16.367188 18.242188 16.246094 18.242188 " fill-opacity="1" fill-rule="nonzero"/><g clip-path="url(#b189b86943)"><path fill="#b83564" d="M 16.523438 19.242188 C 16.445312 19.273438 16.367188 19.285156 16.289062 19.285156 C 15.996094 19.285156 15.71875 19.097656 15.605469 18.800781 C 15.464844 18.421875 15.648438 18.003906 16.011719 17.867188 C 16.375 17.730469 16.785156 17.929688 16.925781 18.308594 C 17.066406 18.691406 16.886719 19.109375 16.523438 19.242188 Z M 16.441406 20.570312 C 16.308594 20.824219 16.035156 21.023438 15.628906 21.167969 L 15.617188 21.171875 L 15.492188 21.210938 C 15.316406 21.25 15.15625 21.269531 15.007812 21.269531 C 14.796875 21.269531 14.621094 21.226562 14.472656 21.144531 C 14.308594 21.050781 13.957031 20.753906 14.21875 20.003906 C 14.359375 19.597656 14.644531 19.300781 14.976562 19.203125 C 15.304688 19.109375 15.714844 19.210938 16.046875 19.472656 C 16.667969 19.964844 16.53125 20.40625 16.441406 20.570312 Z M 13.660156 20.277344 C 13.582031 20.308594 13.5 20.320312 13.421875 20.320312 C 13.132812 20.320312 12.855469 20.136719 12.746094 19.84375 C 12.679688 19.660156 12.683594 19.464844 12.757812 19.292969 C 12.832031 19.113281 12.972656 18.980469 13.152344 18.914062 C 13.328125 18.847656 13.523438 18.859375 13.695312 18.941406 C 13.867188 19.027344 13.996094 19.171875 14.0625 19.351562 C 14.203125 19.726562 14.023438 20.144531 13.660156 20.277344 Z M 13.835938 17.964844 C 13.914062 17.785156 14.054688 17.652344 14.230469 17.585938 C 14.410156 17.519531 14.601562 17.53125 14.777344 17.613281 C 14.945312 17.699219 15.078125 17.84375 15.144531 18.023438 C 15.285156 18.398438 15.101562 18.816406 14.738281 18.949219 C 14.660156 18.980469 14.582031 18.992188 14.5 18.992188 C 14.210938 18.992188 13.933594 18.808594 13.824219 18.515625 C 13.757812 18.332031 13.761719 18.136719 13.835938 17.964844 Z M 22.335938 16.886719 L 7.679688 16.886719 C 6.410156 16.886719 5.441406 16.316406 4.925781 15.332031 L 4.925781 20.285156 C 4.925781 21.085938 5.578125 21.734375 6.375 21.734375 L 23.636719 21.734375 C 24.4375 21.734375 25.085938 21.085938 25.085938 20.285156 L 25.085938 15.304688 C 24.511719 16.386719 23.417969 16.886719 22.335938 16.886719 " fill-opacity="1" fill-rule="nonzero"/></g><g clip-path="url(#4b98942d7e)"><path fill="#b83564" d="M 4.507812 12.957031 C 4.507812 12.644531 4.53125 12.339844 4.574219 12.042969 C 3.949219 12.964844 3.398438 14.09375 3.398438 15.417969 L 3.398438 18.6875 C 3.398438 20.289062 4.15625 21.046875 4.886719 21.410156 C 4.648438 21.097656 4.507812 20.707031 4.507812 20.285156 L 4.507812 12.957031 " fill-opacity="1" fill-rule="nonzero"/></g><path fill="#b83564" d="M 7.5625 16.464844 C 7.59375 16.414062 7.632812 16.347656 7.675781 16.265625 C 7.976562 15.714844 8.5625 14.480469 8.554688 13.183594 C 8.539062 11.175781 7.960938 9.328125 7.648438 8.484375 C 7.605469 8.363281 7.566406 8.265625 7.535156 8.1875 C 5.96875 9.195312 4.925781 10.957031 4.925781 12.957031 L 4.925781 13.652344 C 4.929688 13.664062 4.929688 13.679688 4.929688 13.691406 C 5.015625 15.363281 6.019531 16.414062 7.5625 16.464844 " fill-opacity="1" fill-rule="nonzero"/><path fill="#b83564" d="M 14.59375 18.558594 C 14.738281 18.503906 14.808594 18.328125 14.75 18.167969 C 14.722656 18.089844 14.664062 18.027344 14.59375 17.992188 C 14.550781 17.972656 14.511719 17.964844 14.46875 17.964844 C 14.4375 17.964844 14.40625 17.96875 14.378906 17.980469 C 14.308594 18.003906 14.253906 18.058594 14.222656 18.128906 C 14.191406 18.203125 14.1875 18.289062 14.21875 18.367188 C 14.277344 18.527344 14.445312 18.613281 14.59375 18.558594 " fill-opacity="1" fill-rule="nonzero"/><path fill="#b83564" d="M 15.679688 13.566406 C 13.050781 13.476562 10.910156 13.738281 9.738281 13.933594 C 9.339844 14 9.054688 14.058594 8.898438 14.089844 C 8.722656 15.125 8.296875 16.011719 8.046875 16.46875 L 22.042969 16.46875 C 21.804688 16.035156 21.414062 15.222656 21.226562 14.273438 C 21.109375 14.238281 20.886719 14.171875 20.542969 14.097656 C 19.703125 13.910156 18.144531 13.652344 15.679688 13.566406 " fill-opacity="1" fill-rule="nonzero"/><path fill="#b83564" d="M 15.785156 19.800781 C 15.585938 19.644531 15.386719 19.589844 15.234375 19.589844 C 15.179688 19.589844 15.132812 19.59375 15.09375 19.605469 C 14.9375 19.652344 14.726562 19.816406 14.613281 20.140625 C 14.535156 20.371094 14.480469 20.667969 14.679688 20.78125 C 14.832031 20.867188 15.074219 20.875 15.386719 20.804688 L 15.496094 20.773438 C 15.792969 20.664062 15.992188 20.527344 16.074219 20.375 C 16.179688 20.171875 15.976562 19.953125 15.785156 19.800781 " fill-opacity="1" fill-rule="nonzero"/><path fill="#b83564" d="M 13.511719 19.320312 C 13.472656 19.300781 13.429688 19.292969 13.390625 19.292969 C 13.359375 19.292969 13.328125 19.296875 13.296875 19.308594 C 13.226562 19.332031 13.171875 19.386719 13.144531 19.457031 C 13.109375 19.53125 13.109375 19.617188 13.140625 19.695312 C 13.199219 19.855469 13.367188 19.941406 13.511719 19.886719 C 13.660156 19.832031 13.730469 19.65625 13.671875 19.496094 C 13.640625 19.417969 13.585938 19.355469 13.511719 19.320312 " fill-opacity="1" fill-rule="nonzero"/></svg>