<svg xmlns="http://www.w3.org/2000/svg" xmlns:xlink="http://www.w3.org/1999/xlink" width="40" zoomAndPan="magnify" viewBox="0 0 30 30.000001" height="40" preserveAspectRatio="xMidYMid meet" version="1.0"><defs><clipPath id="fc476da19d"><path d="M 3.398438 20.058594 L 17.917969 20.058594 L 17.917969 25.328125 L 3.398438 25.328125 Z M 3.398438 20.058594 " clip-rule="nonzero"/></clipPath><clipPath id="03dc9b05b1"><path d="M 13.789062 12.167969 L 26.601562 12.167969 L 26.601562 25.328125 L 13.789062 25.328125 Z M 13.789062 12.167969 " clip-rule="nonzero"/></clipPath><clipPath id="b650a3c3ea"><path d="M 8 3.703125 L 23 3.703125 L 23 14 L 8 14 Z M 8 3.703125 " clip-rule="nonzero"/></clipPath></defs><path fill="#b83564" d="M 11.414062 21.777344 C 11.5 21.792969 11.535156 21.765625 11.546875 21.753906 C 11.605469 21.707031 11.640625 21.589844 11.640625 21.4375 C 11.640625 21.117188 11.339844 20.859375 11.242188 20.859375 C 11.238281 20.863281 11.164062 20.933594 11.164062 21.398438 C 11.164062 21.703125 11.277344 21.75 11.414062 21.777344 " fill-opacity="1" fill-rule="nonzero"/><path fill="#b83564" d="M 12.503906 22.230469 C 12.5 22.234375 12.429688 22.308594 12.429688 22.769531 C 12.429688 23.078125 12.542969 23.125 12.679688 23.152344 C 12.765625 23.167969 12.800781 23.140625 12.8125 23.128906 C 12.871094 23.082031 12.902344 22.964844 12.902344 22.808594 C 12.902344 22.492188 12.601562 22.230469 12.503906 22.230469 " fill-opacity="1" fill-rule="nonzero"/><path fill="#b83564" d="M 10.644531 22.574219 C 10.175781 22.574219 9.480469 23.738281 9.480469 24.027344 C 9.480469 24.300781 9.722656 24.53125 10.011719 24.53125 C 10.207031 24.53125 10.386719 24.417969 10.46875 24.238281 C 10.5 24.167969 10.570312 24.125 10.644531 24.125 C 10.71875 24.125 10.789062 24.167969 10.820312 24.238281 C 10.902344 24.417969 11.082031 24.53125 11.277344 24.53125 C 11.5625 24.53125 11.808594 24.300781 11.808594 24.027344 C 11.808594 23.738281 11.109375 22.574219 10.644531 22.574219 " fill-opacity="1" fill-rule="nonzero"/><g clip-path="url(#fc476da19d)"><path fill="#b83564" d="M 13.058594 23.429688 C 12.964844 23.503906 12.851562 23.542969 12.726562 23.542969 C 12.6875 23.542969 12.644531 23.539062 12.605469 23.53125 C 12.230469 23.457031 12.039062 23.203125 12.039062 22.769531 C 12.039062 22.492188 12.039062 21.84375 12.503906 21.84375 C 12.847656 21.84375 13.292969 22.3125 13.292969 22.808594 C 13.292969 23.164062 13.164062 23.34375 13.058594 23.429688 Z M 11.277344 24.917969 C 11.035156 24.917969 10.808594 24.820312 10.644531 24.652344 C 10.480469 24.820312 10.253906 24.917969 10.011719 24.917969 C 9.515625 24.917969 9.09375 24.511719 9.09375 24.027344 C 9.09375 23.566406 9.898438 22.1875 10.644531 22.1875 C 11.386719 22.1875 12.195312 23.566406 12.195312 24.027344 C 12.195312 24.511719 11.773438 24.917969 11.277344 24.917969 Z M 8.710938 23.53125 C 8.667969 23.539062 8.628906 23.542969 8.589844 23.542969 C 8.464844 23.542969 8.347656 23.503906 8.257812 23.429688 C 8.152344 23.34375 8.023438 23.164062 8.023438 22.808594 C 8.023438 22.3125 8.464844 21.84375 8.808594 21.84375 C 9.273438 21.84375 9.273438 22.492188 9.273438 22.769531 C 9.273438 23.203125 9.085938 23.457031 8.710938 23.53125 Z M 10.046875 20.46875 C 10.511719 20.46875 10.511719 21.121094 10.511719 21.398438 C 10.511719 21.828125 10.320312 22.082031 9.949219 22.15625 C 9.90625 22.164062 9.863281 22.167969 9.824219 22.167969 C 9.699219 22.167969 9.585938 22.128906 9.492188 22.054688 C 9.386719 21.96875 9.261719 21.789062 9.261719 21.4375 C 9.261719 20.9375 9.703125 20.46875 10.046875 20.46875 Z M 11.242188 20.46875 C 11.585938 20.46875 12.027344 20.9375 12.027344 21.4375 C 12.027344 21.789062 11.902344 21.96875 11.792969 22.054688 C 11.703125 22.128906 11.589844 22.167969 11.464844 22.167969 C 11.421875 22.167969 11.382812 22.164062 11.339844 22.15625 C 10.96875 22.082031 10.777344 21.828125 10.777344 21.398438 C 10.777344 21.121094 10.777344 20.46875 11.242188 20.46875 Z M 17.859375 25.207031 C 17.917969 25.132812 17.933594 25.035156 17.902344 24.945312 L 16.761719 21.332031 L 13.097656 21.332031 C 12.992188 21.332031 12.902344 21.246094 12.902344 21.140625 C 12.902344 21.03125 12.992188 20.945312 13.097656 20.945312 L 16.640625 20.945312 L 16.425781 20.265625 C 16.386719 20.144531 16.273438 20.0625 16.144531 20.0625 L 5.167969 20.0625 C 5.042969 20.0625 4.929688 20.144531 4.890625 20.265625 L 4.726562 20.777344 C 4.703125 20.859375 4.761719 20.945312 4.851562 20.945312 L 8.21875 20.945312 C 8.324219 20.945312 8.410156 21.03125 8.410156 21.140625 C 8.410156 21.246094 8.324219 21.332031 8.21875 21.332031 L 4.742188 21.332031 C 4.628906 21.332031 4.527344 21.40625 4.496094 21.515625 L 3.410156 24.945312 C 3.382812 25.035156 3.398438 25.132812 3.453125 25.207031 C 3.511719 25.285156 3.597656 25.328125 3.691406 25.328125 L 17.625 25.328125 C 17.71875 25.328125 17.804688 25.285156 17.859375 25.207031 " fill-opacity="1" fill-rule="nonzero"/></g><g clip-path="url(#03dc9b05b1)"><path fill="#b83564" d="M 23.660156 14.59375 C 23.621094 14.46875 23.496094 14.394531 23.371094 14.414062 L 22.265625 14.589844 C 22.160156 14.609375 22.058594 14.535156 22.042969 14.429688 C 22.023438 14.324219 22.097656 14.226562 22.203125 14.207031 L 23.671875 13.972656 C 23.722656 13.964844 23.746094 13.933594 23.757812 13.914062 C 23.769531 13.898438 23.789062 13.859375 23.773438 13.808594 L 23.285156 12.261719 C 23.265625 12.199219 23.203125 12.160156 23.144531 12.171875 L 13.902344 13.652344 C 13.839844 13.660156 13.792969 13.714844 13.792969 13.777344 L 13.792969 15.402344 C 13.792969 15.453125 13.824219 15.484375 13.839844 15.5 C 13.855469 15.511719 13.890625 15.535156 13.941406 15.527344 C 13.945312 15.527344 13.945312 15.527344 13.945312 15.527344 L 20.910156 14.414062 C 21.015625 14.398438 21.113281 14.46875 21.132812 14.578125 C 21.148438 14.683594 21.078125 14.78125 20.972656 14.796875 L 14.367188 15.851562 C 14.246094 15.871094 14.15625 15.972656 14.148438 16.09375 L 14.078125 17.507812 C 14.097656 17.523438 14.121094 17.539062 14.140625 17.558594 C 14.351562 17.769531 14.453125 18.0625 14.429688 18.347656 C 14.714844 18.316406 15.011719 18.414062 15.226562 18.621094 C 15.519531 18.910156 15.5625 19.3125 15.367188 19.671875 L 16.144531 19.671875 C 16.445312 19.671875 16.703125 19.863281 16.796875 20.148438 L 18.273438 24.828125 C 18.308594 24.945312 18.316406 25.0625 18.289062 25.175781 C 18.273438 25.253906 18.335938 25.328125 18.417969 25.328125 L 25.601562 25.328125 C 25.90625 25.328125 26.207031 25.203125 26.394531 24.960938 C 26.59375 24.710938 26.652344 24.386719 26.5625 24.082031 C 25.785156 21.519531 24.410156 17.003906 23.660156 14.59375 " fill-opacity="1" fill-rule="nonzero"/></g><path fill="#b83564" d="M 8.804688 22.230469 C 8.710938 22.230469 8.410156 22.492188 8.410156 22.808594 C 8.410156 22.964844 8.445312 23.082031 8.503906 23.128906 C 8.515625 23.140625 8.550781 23.167969 8.636719 23.152344 C 8.773438 23.125 8.886719 23.078125 8.886719 22.769531 C 8.886719 22.308594 8.8125 22.234375 8.804688 22.230469 " fill-opacity="1" fill-rule="nonzero"/><path fill="#b83564" d="M 9.871094 21.777344 C 10.011719 21.75 10.125 21.703125 10.125 21.398438 C 10.125 20.933594 10.050781 20.863281 10.042969 20.855469 C 9.949219 20.859375 9.648438 21.117188 9.648438 21.4375 C 9.648438 21.589844 9.679688 21.707031 9.738281 21.753906 C 9.75 21.765625 9.785156 21.792969 9.871094 21.777344 " fill-opacity="1" fill-rule="nonzero"/><path fill="#b83564" d="M 14.886719 19.671875 C 15.007812 19.546875 15.085938 19.402344 15.097656 19.265625 C 15.113281 19.070312 15.011719 18.90625 14.792969 18.78125 C 14.621094 18.679688 14.417969 18.707031 14.246094 18.804688 C 14.167969 18.847656 14.074219 18.832031 14.015625 18.773438 C 13.953125 18.710938 13.9375 18.617188 13.980469 18.542969 C 14.070312 18.378906 14.097656 18.191406 14.011719 18.03125 C 13.734375 17.53125 13.328125 17.683594 13.097656 17.917969 C 12.871094 18.148438 12.765625 18.699219 12.964844 18.949219 C 13.027344 19.027344 13.027344 19.140625 12.957031 19.210938 L 12.722656 19.453125 C 12.640625 19.535156 12.699219 19.671875 12.8125 19.671875 L 14.886719 19.671875 " fill-opacity="1" fill-rule="nonzero"/><path fill="#b83564" d="M 7.726562 14.992188 C 7.90625 14.726562 7.753906 14.183594 7.507812 13.972656 C 7.296875 13.792969 6.96875 13.683594 6.730469 13.957031 C 6.558594 14.15625 6.539062 14.453125 6.683594 14.671875 C 6.730469 14.746094 6.722656 14.839844 6.667969 14.90625 C 6.613281 14.96875 6.519531 14.992188 6.441406 14.957031 C 6.203125 14.847656 5.914062 14.914062 5.742188 15.113281 C 5.507812 15.390625 5.667969 15.699219 5.878906 15.878906 C 6.125 16.085938 6.683594 16.15625 6.917969 15.933594 C 6.957031 15.898438 7.003906 15.882812 7.050781 15.882812 C 7.097656 15.882812 7.140625 15.898438 7.175781 15.929688 L 8.675781 17.207031 C 8.75 17.273438 8.765625 17.382812 8.710938 17.464844 C 8.527344 17.730469 8.679688 18.273438 8.925781 18.484375 C 9.136719 18.664062 9.464844 18.773438 9.703125 18.496094 C 9.875 18.296875 9.894531 18.003906 9.75 17.78125 C 9.703125 17.710938 9.710938 17.617188 9.765625 17.550781 C 9.820312 17.484375 9.914062 17.464844 9.992188 17.5 C 10.230469 17.605469 10.519531 17.542969 10.691406 17.34375 C 10.789062 17.226562 10.824219 17.101562 10.800781 16.964844 C 10.777344 16.828125 10.6875 16.691406 10.554688 16.578125 C 10.308594 16.367188 9.75 16.300781 9.515625 16.523438 C 9.445312 16.589844 9.332031 16.59375 9.257812 16.527344 L 7.757812 15.246094 C 7.683594 15.183594 7.667969 15.074219 7.726562 14.992188 " fill-opacity="1" fill-rule="nonzero"/><path fill="#b83564" d="M 11.835938 15.660156 C 12.203125 15.660156 12.503906 15.359375 12.503906 14.988281 C 12.503906 14.621094 12.203125 14.320312 11.835938 14.320312 C 11.464844 14.320312 11.164062 14.621094 11.164062 14.988281 C 11.164062 15.359375 11.464844 15.660156 11.835938 15.660156 " fill-opacity="1" fill-rule="nonzero"/><path fill="#b83564" d="M 14.285156 6.851562 C 14.285156 6.773438 14.246094 6.703125 14.191406 6.660156 C 14.183594 6.65625 14.175781 6.648438 14.167969 6.644531 C 14.132812 6.621094 14.085938 6.605469 14.039062 6.605469 C 13.902344 6.605469 13.792969 6.714844 13.792969 6.851562 C 13.792969 6.984375 13.902344 7.097656 14.039062 7.097656 C 14.175781 7.097656 14.285156 6.984375 14.285156 6.851562 " fill-opacity="1" fill-rule="nonzero"/><path fill="#b83564" d="M 8.519531 8.078125 C 8.550781 8.097656 8.582031 8.105469 8.617188 8.105469 C 8.871094 8.105469 9.433594 7.480469 9.433594 7.199219 C 9.433594 7.117188 9.410156 7.097656 9.398438 7.089844 C 9.371094 7.0625 9.300781 7.039062 9.152344 7.039062 C 9.058594 7.039062 8.933594 7.046875 8.769531 7.074219 C 8.332031 7.136719 8.253906 7.234375 8.253906 7.402344 C 8.253906 7.648438 8.355469 7.976562 8.519531 8.078125 " fill-opacity="1" fill-rule="nonzero"/><g clip-path="url(#b650a3c3ea)"><path fill="#b83564" d="M 13.40625 6.851562 C 13.40625 6.6875 13.472656 6.535156 13.574219 6.421875 C 13.507812 6.417969 13.464844 6.417969 13.464844 6.417969 C 13.359375 6.425781 13.265625 6.34375 13.257812 6.238281 C 13.25 6.132812 13.332031 6.039062 13.441406 6.03125 C 13.476562 6.03125 14.394531 5.980469 14.9375 6.929688 C 14.992188 7.023438 14.957031 7.140625 14.867188 7.195312 C 14.835938 7.210938 14.800781 7.21875 14.769531 7.21875 C 14.703125 7.21875 14.640625 7.1875 14.605469 7.128906 C 14.503906 7.335938 14.289062 7.484375 14.039062 7.484375 C 13.691406 7.484375 13.40625 7.199219 13.40625 6.851562 Z M 13.804688 12.621094 C 13.882812 12.738281 13.949219 12.878906 14.007812 13.03125 C 14.050781 13.144531 14.167969 13.214844 14.289062 13.195312 L 22.582031 11.867188 C 22.730469 11.84375 22.828125 11.699219 22.792969 11.554688 C 22.691406 11.128906 22.617188 10.75 22.5625 10.417969 C 22.15625 7.820312 21.777344 7.136719 21.445312 6.53125 C 21.414062 6.472656 21.382812 6.414062 21.351562 6.355469 C 21.34375 6.363281 21.339844 6.375 21.332031 6.382812 L 19.582031 8.425781 C 19.515625 8.507812 19.390625 8.519531 19.308594 8.449219 C 19.230469 8.378906 19.21875 8.257812 19.289062 8.175781 L 21.015625 6.152344 C 21.21875 5.917969 21.316406 5.597656 21.246094 5.292969 C 21.164062 4.925781 20.886719 4.648438 20.523438 4.5625 L 17.25 3.789062 C 16.890625 3.703125 16.515625 3.828125 16.277344 4.121094 C 16.078125 4.359375 16.023438 4.6875 16.097656 4.988281 L 16.972656 8.53125 C 17.105469 9.054688 17.613281 9.378906 18.238281 9.234375 C 18.40625 9.195312 18.535156 9.074219 18.640625 8.9375 C 18.714844 8.832031 18.875 8.832031 18.953125 8.941406 C 19.007812 9.015625 18.992188 9.117188 18.933594 9.1875 C 18.671875 9.488281 18.300781 9.652344 17.914062 9.652344 C 17.765625 9.652344 17.617188 9.628906 17.46875 9.578125 C 17.023438 9.425781 16.699219 9.035156 16.585938 8.578125 L 15.714844 5.054688 C 15.699219 4.996094 15.6875 4.9375 15.683594 4.875 C 15.667969 4.730469 15.53125 4.628906 15.386719 4.648438 C 15.074219 4.691406 14.644531 4.753906 14.132812 4.84375 C 13.410156 4.972656 12.722656 5.960938 12.464844 6.378906 C 12.273438 6.683594 11.960938 6.882812 11.605469 6.929688 C 11.273438 6.972656 10.945312 7.007812 10.617188 7.046875 C 10.503906 7.058594 10.390625 7.070312 10.273438 7.082031 C 10.179688 7.09375 10.035156 7.078125 9.945312 7.109375 C 9.796875 7.164062 9.789062 7.40625 9.734375 7.53125 C 9.664062 7.683594 9.566406 7.828125 9.457031 7.957031 C 9.320312 8.121094 9.160156 8.28125 8.972656 8.386719 C 8.792969 8.488281 8.6875 8.558594 8.71875 8.785156 C 8.71875 8.785156 8.730469 8.867188 8.730469 8.867188 C 8.8125 9.421875 8.890625 9.953125 9.496094 10.207031 C 9.730469 10.308594 10.046875 10.363281 10.476562 10.363281 C 12.167969 10.363281 12.914062 10.105469 12.921875 10.101562 C 13.023438 10.066406 13.132812 10.117188 13.171875 10.21875 C 13.207031 10.320312 13.15625 10.429688 13.054688 10.46875 C 13.023438 10.480469 12.246094 10.753906 10.476562 10.753906 C 10.207031 10.753906 9.972656 10.730469 9.769531 10.691406 C 9.59375 10.65625 9.441406 10.796875 9.460938 10.972656 C 9.472656 11.085938 9.496094 11.222656 9.546875 11.378906 L 9.578125 11.476562 C 9.738281 12.003906 9.875 12.460938 11.058594 12.359375 C 11.269531 12.34375 11.46875 12.324219 11.652344 12.304688 C 12.792969 12.199219 13.484375 12.132812 13.804688 12.621094 " fill-opacity="1" fill-rule="nonzero"/></g><path fill="#b83564" d="M 7.273438 10.84375 C 7.226562 10.832031 7.179688 10.828125 7.132812 10.828125 C 7.003906 10.828125 6.878906 10.863281 6.769531 10.9375 C 6.617188 11.035156 6.515625 11.183594 6.476562 11.359375 C 6.441406 11.535156 6.472656 11.714844 6.570312 11.863281 C 6.773438 12.171875 7.1875 12.261719 7.5 12.0625 C 7.648438 11.964844 7.75 11.8125 7.789062 11.636719 C 7.828125 11.460938 7.792969 11.285156 7.695312 11.132812 C 7.597656 10.984375 7.449219 10.878906 7.273438 10.84375 " fill-opacity="1" fill-rule="nonzero"/><path fill="#b83564" d="M 5.929688 17.429688 C 5.804688 17.429688 5.679688 17.464844 5.566406 17.539062 C 5.253906 17.738281 5.167969 18.15625 5.367188 18.464844 C 5.570312 18.777344 5.984375 18.863281 6.296875 18.664062 C 6.445312 18.566406 6.550781 18.414062 6.585938 18.242188 C 6.625 18.066406 6.589844 17.886719 6.492188 17.734375 C 6.363281 17.539062 6.148438 17.429688 5.929688 17.429688 " fill-opacity="1" fill-rule="nonzero"/></svg>